<?xml version="1.0" encoding="UTF-8" standalone="no"?>
<!-- Created with Inkscape (http://www.inkscape.org/) -->

<svg
   xmlns:dc="http://purl.org/dc/elements/1.1/"
   xmlns:cc="http://creativecommons.org/ns#"
   xmlns:rdf="http://www.w3.org/1999/02/22-rdf-syntax-ns#"
   xmlns:svg="http://www.w3.org/2000/svg"
   xmlns="http://www.w3.org/2000/svg"
   xmlns:sodipodi="http://sodipodi.sourceforge.net/DTD/sodipodi-0.dtd"
   xmlns:inkscape="http://www.inkscape.org/namespaces/inkscape"
   width="150"
   height="150"
   id="svg2"
   sodipodi:version="0.32"
   inkscape:version="0.91 r13725"
   version="1.0"
   sodipodi:docname="ChaosClock Logo.svg"
   inkscape:output_extension="org.inkscape.output.svg.inkscape"
   inkscape:export-filename=""
   inkscape:export-xdpi="120"
   inkscape:export-ydpi="120">
  <defs
     id="defs4" />
  <sodipodi:namedview
     id="base"
     pagecolor="#808080"
     bordercolor="#666666"
     borderopacity="1.0"
     gridtolerance="10000"
     guidetolerance="10"
     objecttolerance="10"
     inkscape:pageopacity="0"
     inkscape:pageshadow="2"
     inkscape:zoom="1.2611457"
     inkscape:cx="-158.10185"
     inkscape:cy="-32.12588"
     inkscape:document-units="px"
     inkscape:current-layer="layer1"
     width="850px"
     height="850px"
     showgrid="true"
     inkscape:grid-points="true"
     inkscape:object-points="true"
     inkscape:window-width="1440"
     inkscape:window-height="851"
     inkscape:window-x="0"
     inkscape:window-y="1"
     inkscape:window-maximized="1"
     showguides="false">
    <inkscape:grid
       type="xygrid"
       id="grid2333"
       originx="0px"
       originy="0px"
       spacingx="0px"
       spacingy="0px"
       empspacing="4"
       visible="true"
       enabled="false" />
    <inkscape:grid
       id="GridFromPre046Settings"
       type="xygrid"
       originx="0px"
       originy="25px"
       spacingx="25px"
       spacingy="25px"
       color="#0000ff"
       empcolor="#0000ff"
       opacity="0.2"
       empopacity="0.4"
       empspacing="4"
       visible="true"
       enabled="false" />
  </sodipodi:namedview>
  <metadata
     id="metadata7">
    <rdf:RDF>
      <cc:Work
         rdf:about="">
        <dc:format>image/svg+xml</dc:format>
        <dc:type
           rdf:resource="http://purl.org/dc/dcmitype/StillImage" />
        <dc:title />
        <dc:date>11/December/2007</dc:date>
        <dc:creator>
          <cc:Agent>
            <dc:title>Wikimedia Commons User:Klem</dc:title>
          </cc:Agent>
        </dc:creator>
        <dc:rights>
          <cc:Agent>
            <dc:title>Wikimedia Commons User:Klem</dc:title>
          </cc:Agent>
        </dc:rights>
        <dc:publisher>
          <cc:Agent>
            <dc:title>Wikimedia Commons User:Klem</dc:title>
          </cc:Agent>
        </dc:publisher>
        <dc:subject>
          <rdf:Bag>
            <rdf:li>Yin and Yang</rdf:li>
            <rdf:li>Yin &amp; Yang</rdf:li>
            <rdf:li>Yin</rdf:li>
            <rdf:li>Ying</rdf:li>
            <rdf:li>Yang</rdf:li>
            <rdf:li>yinyang</rdf:li>
            <rdf:li>yingyang</rdf:li>
            <rdf:li>Tiandi Zhiran Hetu</rdf:li>
            <rdf:li>Heaven and Earth’s Natural Diagram of the River</rdf:li>
            <rdf:li>Taijitu</rdf:li>
            <rdf:li>Diagram of the Great Ultimate.</rdf:li>
          </rdf:Bag>
        </dc:subject>
        <dc:contributor>
          <cc:Agent>
            <dc:title>Liu Mu (1011-1064 AD) - Hetu (Diagram of River) and Luoshu (Chart of Luo); 
Shao Yong (1011-1077 AD) - Xiantian tu (Diagram of Preceding Heaven); 
Zhou Dunyi (1017-1073 AD) - Taijitu (Diagram of the Great Ultimate); 
Zhao Huiqian (1351-1395 AD) - Tiandi Zhiran Hetu (Heaven and Earth’s Natural Diagram of the River); 
Wikimedia Commons user Klem</dc:title>
          </cc:Agent>
        </dc:contributor>
        <dc:description>A graphical depiction of Yin and Yang in its conventional orientation - the hot, bright, white yang nature rises while the cold, dark, black yin nature descends.
The symbol is shown over a feather edged grey background for clarity when displayed on black or white.
This representation of the traditional Chinese diagram was created from scratch in Inkscape by Wikicommons user &quot;Klem&quot;.</dc:description>
        <cc:license
           rdf:resource="http://creativecommons.org/licenses/by/3.0/" />
        <dc:relation />
      </cc:Work>
      <cc:License
         rdf:about="http://creativecommons.org/licenses/by/3.0/">
        <cc:permits
           rdf:resource="http://creativecommons.org/ns#Reproduction" />
        <cc:permits
           rdf:resource="http://creativecommons.org/ns#Distribution" />
        <cc:requires
           rdf:resource="http://creativecommons.org/ns#Notice" />
        <cc:requires
           rdf:resource="http://creativecommons.org/ns#Attribution" />
        <cc:permits
           rdf:resource="http://creativecommons.org/ns#DerivativeWorks" />
      </cc:License>
    </rdf:RDF>
  </metadata>
  <g
     inkscape:groupmode="layer"
     id="layer2"
     inkscape:label="Yin Yang"
     style="display:none"
     sodipodi:insensitive="true"
     transform="translate(0,-650)">
    <g
       inkscape:label="Yin and Yang Symbol"
       id="layer2-5"
       transform="translate(-25,-25)">
      <g
         transform="matrix(0,-1,1,0,0,850)"
         inkscape:label="#Yin and Yang"
         id="gYinAndYang">
        <g
           id="gYin"
           inkscape:label="#Yin"
           style="fill:#000000;fill-opacity:1"
           transform="matrix(-1,0,0,-1,825,825)">
          <path
             id="pathYinBG"
             transform="matrix(-1,0,0,-1,825,825)"
             d="M 425,25 C 204.2,25 25,204.2 25,425 c 0,220.8 179.2,400 400,400 C 314.6,825 225,735.4 225,625 c 0,-110.4 89.6,-200 200,-200 c 110.4,0 200,-89.6 200,-200 C 625,114.6 535.4,25 425,25 Z m 0,137.5 c 34.5,0 62.5,28 62.5,62.5 c 0,34.5 -28,62.5 -62.5,62.5 c -34.5,0 -62.5,-28 -62.5,-62.5 c 0,-34.5 28,-62.5 62.5,-62.5 z"
             style="fill:#000000;fill-opacity:1;stroke:none"
             inkscape:connector-curvature="0" />
          <circle
             inkscape:label="#Yin Spot"
             id="pathYinS"
             style="fill:#000000;fill-opacity:1;stroke:none"
             transform="matrix(1.25,0,0,1.25,-100,-50)"
             cx="400"
             cy="200"
             r="50" />
        </g>
        <g
           id="gYang-3"
           inkscape:label="#Yang">
          <path
             style="fill:#ffffff;fill-opacity:1;stroke:none"
             d="m 425,25 c 110.4,0 200,89.6 200,200 c 0,110.4 -89.6,200 -200,200 c -110.4,0 -200,89.6 -200,200 c 0,110.4 89.6,200 200,200 C 645.8,825 825,645.8 825,425 C 825,204.2 645.8,25 425,25 Z m 0,537.5 c 34.5,0 62.5,28 62.5,62.5 c 0,34.5 -28,62.5 -62.5,62.5 c -34.5,0 -62.5,-28 -62.5,-62.5 c 0,-34.5 28,-62.5 62.5,-62.5 z"
             id="pathYangBG"
             inkscape:connector-curvature="0" />
          <circle
             style="fill:#ffffff;fill-opacity:1;stroke:none"
             id="pathYangS"
             transform="matrix(1.25,0,0,-1.25,-75,475)"
             inkscape:label="#Yang Spot"
             cx="400"
             cy="200"
             r="50" />
        </g>
      </g>
    </g>
  </g>
  <g
     inkscape:groupmode="layer"
     id="layer1"
     inkscape:label="Final Composition"
     style="display:inline"
     transform="translate(0,-700)">
    <circle
       style="opacity:1;fill:#ffffff;fill-opacity:1;fill-rule:nonzero;stroke:none;stroke-width:10.34300041;stroke-miterlimit:4;stroke-dasharray:none;stroke-opacity:1"
       id="path4164"
       cx="75"
       cy="775"
       r="75" />
    <g
       id="g4154"
       transform="matrix(0.18250001,0,0,0.1825,1.9999971,692.875)">
      <path
         sodipodi:nodetypes="sscssss"
         id="pathYinBG-4"
         transform="matrix(-0.70721355,0.70721355,0.70721355,0.70721355,400,-151.13154)"
         d="M 425,25 C 204.2,25 25,204.2 25,425 c 0,220.8 179.2,400 400,400 C 314.6,825 225,735.4 225,625 c 0,-110.4 89.6,-200 200,-200 c 110.4,0 200,-89.6 200,-200 C 625,114.6 535.4,25 425,25 Z"
         style="fill:#000000;fill-opacity:1;stroke:none;stroke-width:7.99879217;stroke-linecap:round;stroke-miterlimit:4;stroke-dasharray:none;stroke-opacity:1"
         inkscape:connector-curvature="0" />
      <path
         sodipodi:type="star"
         style="opacity:1;fill:#ffffff;fill-opacity:1;stroke:none;stroke-width:2;stroke-linecap:square;stroke-linejoin:miter;stroke-miterlimit:4;stroke-dasharray:none;stroke-dashoffset:0;stroke-opacity:1"
         id="path4313"
         sodipodi:sides="5"
         sodipodi:cx="-200"
         sodipodi:cy="25"
         sodipodi:r1="100"
         sodipodi:r2="80.901695"
         sodipodi:arg1="1.5707963"
         sodipodi:arg2="2.1991149"
         inkscape:flatsided="true"
         inkscape:rounded="0"
         inkscape:randomized="0.015"
         d="m -200.26155,125.50307 l -96.18239,-70.729178 l 38.50025,-109.572078 l 116.55244,-0.280613 l 35.6031,111.230646 z"
         inkscape:transform-center-x="-3.448517"
         inkscape:transform-center-y="-3.4223564"
         transform="matrix(0.57176569,0.57176569,-0.57176569,0.57176569,387.1453,408.66335)" />
      <circle
         inkscape:label="#Yin Spot"
         id="pathYinS-6"
         style="fill:#000000;fill-opacity:1;stroke:none"
         transform="matrix(0.88401695,-0.88401695,-0.88401695,-0.88401695,364.63932,1121.8528)"
         cx="400"
         cy="200"
         r="50" />
      <g
         style="stroke:none"
         transform="matrix(-0.70721355,0.70721355,0.70721355,0.70721355,400,-151.13151)"
         inkscape:label="#Yang"
         id="gYang">
        <path
           sodipodi:nodetypes="csssssc"
           inkscape:connector-curvature="0"
           id="pathYangBG-0"
           d="m 425,25 c 110.4,0 200,89.6 200,200 c 0,110.4 -89.6,200 -200,200 c -110.4,0 -200,89.6 -200,200 c 0,110.4 89.6,200 200,200 C 645.8,825 825,645.8 825,425 C 825,204.2 645.8,25 425,25 Z"
           style="fill:#ffffff;fill-opacity:1;stroke:none" />
      </g>
      <g
         transform="matrix(2.8396879,2.8396879,-2.8396879,2.8396879,560.42542,478.02015)"
         id="g4205">
        <path
           sodipodi:nodetypes="sccsssccsszzzss"
           style="fill:#000000"
           inkscape:connector-curvature="0"
           id="path11"
           d="M 33.239143,15.64225 C 32.010147,13.580099 30.11464,12.392 28.250089,12.392 c -1.518105,0.06646 -2.947294,0.691865 -4.270431,1.097164 c -0.07307,0.01567 -0.03995,-1.771787 -0.543634,-2.61187 C 22.932338,10.037211 22.042918,9.47986 21.93623,10.144506 c -0.13757,0.85703 0.608198,0.584636 0.975233,1.424877 c 0.367034,0.840241 0.520758,1.936087 0.447472,1.920727 C 21.969111,13.096201 20.404397,12.437729 19.108017,12.446 c -1.901505,0.0335 -4.135286,1.276107 -5.240017,3.19625 c -2.259279,3.926874 -0.585998,9.694373 1.595052,12.858469 c 1.075983,1.560952 2.373156,3.289781 4.016159,3.226281 c 1.643003,-0.0635 2.247842,-0.581698 4.199842,-0.581698 c 1.952,0 2.48083,0.575698 4.199842,0.542698 c 1.719012,-0.033 2.754794,-1.654013 3.802128,-3.187281 c 2.088246,-3.057132 3.924731,-8.887498 1.55812,-12.858469 z"
           transform="matrix(-1.567916,0,0,1.567916,53.859616,-9.7477335)" />
        <path
           style="fill:#000000"
           inkscape:connector-curvature="0"
           id="path13"
           d="M 26.928,10.306 C 27.802,9.213 28.4,7.726 28.234,6.217 c -1.265,0.056 -2.847,0.875 -3.758,1.944 c -0.806,0.942 -1.526,2.486 -1.34,3.938 c 1.421,0.106 2.88,-0.717 3.792,-1.793 z"
           transform="matrix(-1.5646118,0.10173707,0.10173707,1.5646118,51.411188,-11.008634)" />
      </g>
    </g>
  </g>
</svg>
