<?xml version="1.0" encoding="UTF-8" standalone="no"?>
<!-- Created with Inkscape (http://www.inkscape.org/) -->

<svg
   width="40"
   height="40"
   viewBox="0 0 40 40"
   id="svg2"
   version="1.1"
   inkscape:version="1.2.2 (b0a8486, 2022-12-01)"
   sodipodi:docname="github_logo.svg"
   inkscape:export-filename=""
   inkscape:export-xdpi="180"
   inkscape:export-ydpi="180"
   xmlns:inkscape="http://www.inkscape.org/namespaces/inkscape"
   xmlns:sodipodi="http://sodipodi.sourceforge.net/DTD/sodipodi-0.dtd"
   xmlns="http://www.w3.org/2000/svg"
   xmlns:svg="http://www.w3.org/2000/svg"
   xmlns:rdf="http://www.w3.org/1999/02/22-rdf-syntax-ns#"
   xmlns:cc="http://creativecommons.org/ns#"
   xmlns:dc="http://purl.org/dc/elements/1.1/">
  <defs
     id="defs4" />
  <sodipodi:namedview
     id="base"
     pagecolor="#808080"
     bordercolor="#666666"
     borderopacity="1.0"
     inkscape:pageopacity="0"
     inkscape:pageshadow="2"
     inkscape:zoom="11.313708"
     inkscape:cx="9.6785245"
     inkscape:cy="17.103146"
     inkscape:document-units="px"
     inkscape:current-layer="layer1"
     showgrid="false"
     showguides="true"
     inkscape:guide-bbox="true"
     units="px"
     inkscape:window-width="1615"
     inkscape:window-height="823"
     inkscape:window-x="0"
     inkscape:window-y="25"
     inkscape:window-maximized="0"
     inkscape:snap-bbox="true"
     inkscape:bbox-paths="true"
     inkscape:bbox-nodes="true"
     inkscape:snap-bbox-edge-midpoints="true"
     inkscape:snap-bbox-midpoints="true"
     inkscape:object-paths="true"
     inkscape:snap-intersection-paths="true"
     inkscape:object-nodes="true"
     inkscape:snap-smooth-nodes="true"
     inkscape:snap-midpoints="true"
     inkscape:showpageshadow="0"
     inkscape:pagecheckerboard="1"
     inkscape:deskcolor="#808080" />
  <metadata
     id="metadata7">
    <rdf:RDF>
      <cc:Work
         rdf:about="">
        <dc:format>image/svg+xml</dc:format>
        <dc:type
           rdf:resource="http://purl.org/dc/dcmitype/StillImage" />
      </cc:Work>
    </rdf:RDF>
  </metadata>
  <g
     inkscape:groupmode="layer"
     id="layer1"
     inkscape:label="Logo"
     style="display:inline"
     transform="translate(0,-360)">
    <path
       style="display:inline;fill:#ffffff;fill-opacity:1"
       inkscape:connector-curvature="0"
       id="XMLID_1_"
       display="inline"
       d="m -5.353368,381.09467 c 2.299783,-0.57428 5.42673297,-1.35645 10.905183,-1.50193 C 5.400431,379.28997 5.263706,378.97651 5.14266,378.65328 c -2.131804,-0.0185 -8.69723,0.28424 -10.946211,0.83989 c -0.01273,0.004 -0.02637,0.005 -0.04001,0.005 c -0.07523,0 -0.144563,-0.0517 -0.163092,-0.12787 c -0.02148,-0.0889 0.03319,-0.1806 0.122981,-0.2031 c 2.228519,-0.55077 8.635637,-0.85649 10.905183,-0.85058 c -0.510757,-1.50194 -0.736358,-3.22265 -0.736358,-5.14351 c 0,-3.41211 1.062543,-4.69924 2.490159,-6.51758 c -1.09176,-3.88866 0.391645,-6.5468 0.391645,-6.5468 c 0,0 2.293979,-0.47553 6.630785,2.62984 c 2.350583,-1.00686 8.617517,-1.09075 11.582394,-0.22357 c 1.820278,-1.20313 5.148397,-2.9101 6.492126,-2.43264 c 0.363241,0.58589 1.146531,2.29195 0.474617,6.04195 c 0.457003,0.82228 2.826217,2.57424 2.835888,7.52626 c -0.03909,1.82618 -0.228553,3.36813 -0.580087,4.67276 c 5.654268,-0.0478 8.980453,0.41893 11.271378,0.84081 c 0.08989,0.0185 0.150469,0.10547 0.13479,0.19628 c -0.01557,0.0801 -0.08592,0.13775 -0.164008,0.13775 c -0.0117,0 -0.02148,-0.001 -0.03319,-0.002 c -2.287158,-0.42382 -5.619044,-0.88866 -11.306601,-0.83695 c -0.09967,0.33108 -0.210942,0.64555 -0.33209,0.94537 c 1.935625,0.0644 7.251899,0.27151 11.587788,1.59763 c 0.0899,0.0274 0.138659,0.12105 0.111376,0.21094 c -0.02148,0.0713 -0.08786,0.11809 -0.16014,0.11809 c -0.01558,0 -0.03319,-0.002 -0.04877,-0.008 c -4.396463,-1.34373 -9.828083,-1.52831 -11.634619,-1.58797 c -1.572281,3.45416 -4.796864,4.74312 -10.009704,5.27922 c 1.689459,1.06346 2.173849,2.39731 2.173849,6.00682 c 0,3.60931 -0.04876,4.0937 -0.03706,4.92361 c 0.01761,1.36246 2.013608,2.01463 1.939493,2.4531 c -0.07422,0.43767 -1.669912,0.36722 -2.415941,0.1066 c -2.11327,-0.73626 -1.902431,-2.49424 -1.902431,-2.49424 l -0.07025,-4.82598 c 0,0 0.144564,-2.59766 -0.814443,-2.59766 c 0,0.52236 0,6.03115 0,7.89928 c 0,1.71674 1.201203,2.23829 1.201203,2.87305 c 0,1.09084 -2.19523,-0.10344 -2.871116,-0.78421 c -1.031694,-1.03516 -0.914415,-3.23028 -0.889065,-4.96657 c 0.02341,-1.67684 -0.01558,-5.34377 -0.01558,-5.34377 l -0.700114,0.0148 c 0,0 0.287091,8.01065 -0.369146,9.47044 c -0.84855,1.87403 -3.408138,2.51866 -3.408138,1.66502 c 0,-0.57428 0.630785,-0.39154 0.979468,-1.67856 c 0.297781,-1.09482 0.196281,-9.26174 0.196281,-9.26174 c 0,0 -0.820245,0.48541 -0.820245,2.01462 c 0,0.70012 -0.01955,4.69913 -0.01955,5.88965 c 0,1.49704 -2.126001,2.34946 -3.147515,2.34946 c -0.51758,0 -1.161091,-0.0252 -1.161091,-0.29961 c 0,-0.69238 1.94438,-1.09879 1.94438,-2.53913 c 0,-1.24895 -0.02739,-4.46172 -0.02739,-4.46172 c 0,0 -0.980486,0.16777 -2.378884,0.16777 c -3.525314,0 -4.640592,-2.24989 -5.170896,-3.50872 c -0.690444,-1.63957 -1.585924,-2.41004 -2.537091,-3.02535 c -0.583955,-0.3779 -0.718745,-0.82421 -0.04296,-0.95116 c 3.121046,-0.58783 3.918895,3.53906 6.00285,4.19621 c 1.487274,0.46983 3.399382,0.26663 4.350549,-0.34858 c 0.126034,-1.26086 1.03424,-2.35059 1.791061,-2.92477 C 10.49842,384.72434 7.355791,382.8836 5.726906,379.92452 c -5.54492903,0.13286 -8.691325,0.91992 -10.997929,1.49603 c -0.167978,0.0421 -0.331987,0.083 -0.490192,0.12308 c -0.01364,0.003 -0.02739,0.004 -0.04103,0.004 c -0.07523,0 -0.143545,-0.0508 -0.163092,-0.12695 c -0.0225,-0.0898 0.03319,-0.18162 0.123083,-0.20412 c 0.158816,-0.0391 0.321908,-0.079 0.488869,-0.12196 z" />
  </g>
</svg>
