<?xml version="1.0" encoding="UTF-8" standalone="no"?>
<!-- Created with Inkscape (http://www.inkscape.org/) -->

<svg
   width="1000"
   height="1000"
   id="svg2"
   version="1.1"
   inkscape:version="1.2.2 (b0a8486, 2022-12-01)"
   sodipodi:docname="handcrafted_logo.svg"
   inkscape:export-filename=""
   inkscape:export-xdpi="18"
   inkscape:export-ydpi="18"
   xmlns:inkscape="http://www.inkscape.org/namespaces/inkscape"
   xmlns:sodipodi="http://sodipodi.sourceforge.net/DTD/sodipodi-0.dtd"
   xmlns="http://www.w3.org/2000/svg"
   xmlns:svg="http://www.w3.org/2000/svg"
   xmlns:rdf="http://www.w3.org/1999/02/22-rdf-syntax-ns#"
   xmlns:cc="http://creativecommons.org/ns#"
   xmlns:dc="http://purl.org/dc/elements/1.1/">
  <defs
     id="defs4" />
  <sodipodi:namedview
     id="base"
     pagecolor="#808080"
     bordercolor="#666666"
     borderopacity="1.0"
     inkscape:pageopacity="0"
     inkscape:pageshadow="2"
     inkscape:zoom="0.35594078"
     inkscape:cx="654.60327"
     inkscape:cy="827.38483"
     inkscape:document-units="px"
     inkscape:current-layer="layer3"
     showgrid="false"
     inkscape:window-width="1440"
     inkscape:window-height="855"
     inkscape:window-x="0"
     inkscape:window-y="25"
     inkscape:window-maximized="0"
     showguides="true"
     inkscape:guide-bbox="true"
     inkscape:snap-bbox="true"
     inkscape:object-nodes="true"
     inkscape:object-paths="true"
     inkscape:snap-intersection-paths="true"
     inkscape:snap-smooth-nodes="true"
     inkscape:snap-center="true"
     inkscape:snap-nodes="true"
     inkscape:bbox-nodes="true"
     inkscape:snap-object-midpoints="true"
     inkscape:snap-bbox-midpoints="true"
     inkscape:snap-global="true"
     inkscape:snap-page="true"
     inkscape:bbox-paths="true"
     inkscape:snap-bbox-edge-midpoints="true"
     inkscape:snap-midpoints="true"
     inkscape:showpageshadow="0"
     inkscape:pagecheckerboard="1"
     inkscape:deskcolor="#808080" />
  <metadata
     id="metadata7">
    <rdf:RDF>
      <cc:Work
         rdf:about="">
        <dc:format>image/svg+xml</dc:format>
        <dc:type
           rdf:resource="http://purl.org/dc/dcmitype/StillImage" />
        <dc:title />
      </cc:Work>
    </rdf:RDF>
  </metadata>
  <g
     inkscape:label="Logo Unrotated"
     inkscape:groupmode="layer"
     id="layer1"
     transform="translate(0,-52.36218)"
     style="display:none">
    <g
       id="Layer_1_1_"
       transform="matrix(1.0529662,0,0,1.0529662,3563.8908,4616.5075)" />
    <path
       id="path6170"
       style="display:inline;opacity:1;fill:#aa0000;fill-opacity:1;stroke:none;stroke-width:2;stroke-linecap:square;stroke-linejoin:miter;stroke-miterlimit:4;stroke-dasharray:none;stroke-dashoffset:0;stroke-opacity:1"
       d="m 535.5628,846.70225 l 0,29.70258 c 0,8.19996 6.54807,14.85341 14.6298,14.85341 c 8.08152,0 14.62773,-6.65345 14.62773,-14.85341 l 0,-29.70258 l -29.25753,0 z m -52.01674,0 l 0,29.70258 c 6.2e-4,8.19996 6.54931,14.85341 14.6297,14.85341 c 8.08204,0 14.63156,-6.65345 14.63156,-14.85341 l 0,-29.70258 l -29.26126,0 z m -52.01322,0 l 0,29.70258 c 0,8.19996 6.55242,14.85341 14.63157,14.85341 c 8.07769,0 14.62763,-6.65345 14.62763,-14.85341 l 0,-29.70258 l -29.2592,0 z m -52.01581,0 l 0,29.70258 c 0,8.19996 6.55056,14.85341 14.6296,14.85341 c 8.07976,0 14.63157,-6.65345 14.63157,-14.85341 l 0,-29.70258 l -29.26117,0 z m -52.01332,0 l 0,29.70258 c 0,8.19996 6.5488,14.85341 14.62784,14.85341 c 8.07987,0 14.63167,-6.65345 14.63167,-14.85341 l 0,-29.70258 l -29.25951,0 z m -52.01425,0 l 0,29.70258 c 0,8.19996 6.54994,14.85341 14.62981,14.85341 c 8.07965,0 14.62949,-6.65345 14.62949,-14.85341 l 0,-29.70258 l -29.2593,0 z M 636.71303,747.678 l 0,29.53949 l 29.7059,0 c 8.20441,0 14.8501,-6.60963 14.8501,-14.76876 c 0,-8.15903 -6.64569,-14.77073 -14.8501,-14.77073 l -29.7059,0 z m 0,-52.50799 l 0,29.53793 l 29.7059,0 c 8.20441,0 14.8501,-6.60869 14.8501,-14.7671 c 0,-8.15862 -6.64569,-14.77083 -14.8501,-14.77083 l -29.7059,0 z m 0,-52.50986 l 0,29.53958 l 29.7059,0 c 8.20441,0 14.8501,-6.61221 14.8501,-14.77083 c 0,-8.15965 -6.64569,-14.76875 -14.8501,-14.76875 l -29.7059,0 z m 0,-52.5079 l 0,29.53773 l 29.7059,0 c 8.20441,0 14.8501,-6.61242 14.8501,-14.77083 c 0,-8.15831 -6.64569,-14.7669 -14.8501,-14.7669 l -29.7059,0 z m 0,-52.50986 l 0,29.53959 l 29.7059,0 c 8.20441,0 14.8501,-6.61491 14.8501,-14.76886 c 0,-8.15924 -6.64569,-14.77073 -14.8501,-14.77073 l -29.7059,0 z m 0,-52.50882 l 0,29.53969 l 29.7059,0 c 8.2039,0 14.8501,-6.61677 14.8501,-14.77072 c 0,-8.15862 -6.64569,-14.76897 -14.8501,-14.76897 l -29.7059,0 z M 175.95551,747.677 c -8.19985,0 -14.85186,6.61149 -14.85186,14.77073 c 0,8.15903 6.65201,14.77072 14.85186,14.77072 l 29.70414,0 l 0,-29.54145 l -29.70414,0 z m 0,-52.5082 c -8.19985,0 -14.85186,6.61356 -14.85186,14.77083 c 0,8.15841 6.65201,14.76896 14.85186,14.76896 l 29.70414,0 l 0,-29.53979 l -29.70414,0 z m 0,-52.50903 c -8.19985,0 -14.85186,6.60983 -14.85186,14.76876 c 0,8.15934 6.65201,14.77083 14.85186,14.77083 l 29.70414,0 l 0,-29.53959 l -29.70414,0 z m -0.002,-52.50831 c -8.201,9.3e-4 -14.84772,6.60911 -14.85021,14.76689 c 0,8.15904 6.65201,14.77083 14.85218,14.77083 l 29.70382,0 l 0,-29.53772 l -29.70382,0 l 0,0 z m 0.004,-52.50996 c -8.20265,0 -14.85404,6.61149 -14.85404,14.77072 c 0,8.15396 6.65139,14.76887 14.85404,14.76887 l 29.70196,0 l 0,-29.53959 l -29.70196,0 z m 0,-52.50893 c -8.20265,0 -14.85404,6.61097 -14.85404,14.76897 c 0,8.15333 6.65139,14.77072 14.85404,14.77072 l 29.70196,0 l 0,-29.53969 l -29.70196,0 z M 598.49233,828.0509 c 10.81374,0 19.56931,-8.74292 19.56931,-19.52371 l 0,-354.70125 c 0,-10.78369 -8.75443,-19.52568 -19.56734,-19.52568 l -354.61307,0 c -10.80825,0 -19.57024,8.74271 -19.57024,19.52568 l 0,354.70125 c 0,10.78017 8.76199,19.52371 19.5692,19.52371 z M 550.19426,371.09292 c -8.08215,0 -14.62753,6.64724 -14.62753,14.85155 l 0,29.70444 l 29.2593,0 l 0,-29.70444 c 0,-8.20431 -6.55004,-14.85155 -14.63177,-14.85155 z m -52.01446,0 c -8.08039,0 -14.6297,6.64724 -14.6297,14.85155 l 0,29.70444 l 29.26313,0 l 0,-29.70444 c -6.2e-4,-8.20431 -6.54766,-14.85155 -14.6296,-14.85155 l 0,0 z m -52.01384,0 c -8.07935,0 -14.62784,6.64724 -14.62784,14.85155 l 0,29.70444 l 29.25733,0 l 0,-29.70444 c 0,-8.20431 -6.5519,-14.85155 -14.62949,-14.85155 z m -52.01581,0 c -8.07903,0 -14.62773,6.64724 -14.62773,14.85155 l 0,29.70444 l 29.2593,0 l 0,-29.70444 c 0,-8.20431 -6.5518,-14.85155 -14.63157,-14.85155 z m -52.01228,0 c -8.07976,0 -14.63167,6.64724 -14.63167,14.85155 l 0,29.70444 l 29.26127,0 l 0,-29.70444 c 0,-8.20431 -6.55004,-14.85155 -14.6296,-14.85155 z m -52.01674,0 c -8.07987,0 -14.62784,6.64724 -14.62784,14.85155 l 0,29.70444 l 29.25744,0 l 0,-29.70444 c 0,-8.20431 -6.54994,-14.85155 -14.6296,-14.85155 z m 7.67184,-161.10379 c -141.49233,0 -186.87985,-4.4e-4 -242.337892,55.45508 C -0.00275652,320.90215 0,366.28977 0,507.7821 L 0,631.17663 L 0,754.57116 C 0,896.0636 -4.3998496e-4,941.44537 55.455078,996.9032 c 55.458042,55.4579 100.845562,55.459 242.337892,55.459 l 123.39258,0 l 123.39453,0 c 141.49244,0 186.87604,4e-4 242.33398,-55.459 C 842.372,941.44537 842.37305,896.0636 842.37305,754.57116 l 0,-123.39453 l 0,-123.39453 c 0,-141.49233 3.2e-4,-186.87995 -55.45899,-242.33789 C 731.45612,209.98627 686.07252,209.98913 544.58008,209.98913 l -123.39453,0 l -123.39258,0 z m 4.62695,15.79493 l 118.76563,0 l 118.76757,0 c 136.18645,0 179.86788,-0.003 233.2461,53.375 c 53.3796,53.37834 53.3789,97.06367 53.3789,233.25 l 0,118.76757 l 0,118.76563 c 10e-6,136.18643 -5.6e-4,179.86797 -53.3789,233.24609 c -53.37822,53.37975 -97.05966,53.37895 -233.2461,53.37895 l -118.76757,0 l -118.76563,0 c -136.18633,0 -179.87156,-6e-4 -233.249998,-53.37895 c -53.37591,-53.37812 -53.375,-97.05966 -53.375,-233.24609 l 0,-118.76563 l 0,-118.76757 c 0,-136.18633 -0.0031,-179.87167 53.375,-233.25 c 53.378438,-53.37591 97.063668,-53.375 233.249998,-53.375 z"
       inkscape:connector-curvature="0" />
    <g
       id="g4198">
      <path
         inkscape:connector-curvature="0"
         id="path8019"
         d="m 930,255.54012 c -38.42304,0 -70,31.57695 -70,69.99997 l 0,544.79277 l 70,182.02934 l 70,-182.02934 l 0,-3.7129 l 0,-541.07987 c 0,-38.42302 -31.57697,-69.99997 -70,-69.99997 z"
         style="color:#000000;font-style:normal;font-variant:normal;font-weight:normal;font-stretch:normal;font-size:medium;line-height:normal;font-family:sans-serif;text-indent:0;text-align:start;text-decoration:none;text-decoration-line:none;text-decoration-style:solid;text-decoration-color:#000000;letter-spacing:normal;word-spacing:normal;text-transform:none;direction:ltr;writing-mode:lr-tb;baseline-shift:baseline;text-anchor:start;white-space:normal;clip-rule:nonzero;display:inline;overflow:visible;visibility:visible;opacity:1;isolation:auto;mix-blend-mode:normal;color-interpolation:sRGB;color-interpolation-filters:linearRGB;solid-color:#000000;solid-opacity:1;fill:#001b35;fill-opacity:1;fill-rule:nonzero;stroke:none;stroke-width:40;stroke-linecap:butt;stroke-linejoin:miter;stroke-miterlimit:4;stroke-dasharray:none;stroke-dashoffset:0;stroke-opacity:1;color-rendering:auto;image-rendering:auto;shape-rendering:auto;text-rendering:auto;enable-background:accumulate" />
      <path
         d="m 980,410.37018 l 0,-84.82974 c 0,-27.61424 -22.38576,-50 -50,-50 c -27.61424,0 -50,22.38576 -50,50 l 0,84.82974 c 5.66919,5.66919 33.00327,10 50,10 c 16.99673,0 44.28857,-4.28857 50,-10 z M 880,866.61999 l 31.76953,82.61719 c 2.067,2.06699 12.03347,3.64648 18.23047,3.64648 c 6.197,0 16.14807,-1.5641 18.23047,-3.64648 L 980,866.61999 c -5.7115,5.71143 -33.0033,10 -50,10 c -16.9968,0 -44.3308,-4.33081 -50,-10 z m 0,-436.25 l 0,331.41992 l 0,84.83008 c 5.6692,5.66919 33.0032,10 50,10 c 16.9967,0 44.2885,-4.28857 50,-10 l 0,-84.83008 l 0,-331.41992 c -5.71143,5.71143 -33.00327,10 -50,10 c -16.99673,0 -44.33081,-4.33081 -50,-10 z"
         style="opacity:1;fill:#aa0000;fill-opacity:1;fill-rule:nonzero;stroke:none;stroke-width:10;stroke-linecap:square;stroke-linejoin:round;stroke-miterlimit:4;stroke-dasharray:none;stroke-opacity:1"
         id="path7970"
         inkscape:connector-curvature="0" />
    </g>
  </g>
  <g
     inkscape:groupmode="layer"
     id="layer3"
     inkscape:label="Logo"
     style="display:inline">
    <path
       style="display:inline;opacity:1;fill:#aa0000;fill-opacity:1;stroke:none;stroke-width:2;stroke-linecap:square;stroke-linejoin:miter;stroke-miterlimit:4;stroke-dasharray:none;stroke-dashoffset:0;stroke-opacity:1"
       d="m 654.22656,94.818359 c -35.488,-0.161768 -80.13847,6.909711 -145.64648,17.285161 l -121.875,19.30468 l -121.875,19.30274 C 125.07976,172.84522 80.25245,179.94426 34.152344,243.39258 C -11.94718,306.84326 -4.8452144,351.67155 17.289062,491.42188 l 19.302735,121.875 L 55.894531,735.17383 C 78.028825,874.92426 85.12789,919.7458 148.57617,965.8457 c 63.45079,46.0996 108.28093,39.0015 248.03125,16.86719 l 121.87305,-19.30273 l 121.875,-19.30274 C 780.1059,921.97313 824.93185,914.87401 871.03125,851.42188 c 46.09964,-63.4506 39.00149,-108.27497 16.86719,-248.0254 l -19.30469,-121.875 l -19.30273,-121.875 c -5.94852,-37.55742 -10.81219,-68.21065 -15.97461,-93.92382 l -13.66016,13.66015 c 4.74166,24.10628 9.27016,52.657 14.75781,87.30469 l 18.58008,117.30469 l 18.57813,117.30273 c 21.30426,134.50975 28.13855,177.65345 -16.23243,238.72461 c -44.37062,61.07275 -87.51563,67.90668 -222.02539,89.21094 L 516.00977,947.80859 L 398.70508,966.38867 C 264.19543,987.6929 221.04803,994.52526 159.97656,950.1543 C 98.90762,905.78318 92.075735,862.64061 70.771484,728.13086 L 52.193359,610.82617 L 33.613281,493.52148 C 12.309045,359.01183 5.4730341,315.8643 49.84375,254.79297 c 44.371429,-61.06899 87.51768,-67.90084 222.02734,-89.20508 l 117.30469,-18.58008 l 117.30469,-18.57812 c 134.50977,-21.30425 177.65341,-28.14212 238.72461,16.22851 c 2.20123,1.59925 4.32319,3.19843 6.38672,4.79883 l 13.8125,-13.8125 c -2.80816,-2.23002 -5.73613,-4.45261 -8.79883,-6.67773 C 722.89729,104.47637 694.4463,95.001697 654.22656,94.818359 Z M 542.28711,270.18359 c -0.97176,-0.0463 -1.96316,0.004 -2.96094,0.16211 c -7.98265,1.26433 -13.40649,8.85373 -12.12305,16.95703 l 4.64649,29.33985 l 28.89844,-4.57813 l -4.64649,-29.33789 c -1.12301,-7.09039 -7.01212,-12.2186 -13.81445,-12.54297 z m -51.37109,8.13672 c -0.97171,-0.0464 -1.96118,0.004 -2.95899,0.16211 l -0.004,0.002 c -7.9809,1.26404 -13.41039,8.85373 -12.12695,16.95703 l 4.64649,29.33789 l 28.90429,-4.57813 l -4.64843,-29.33789 c -1.12355,-7.09031 -7.01059,-12.21853 -13.8125,-12.54297 z m -51.37891,8.13672 c -0.97142,-0.0464 -1.95976,0.006 -2.95703,0.16406 c -7.97988,1.26388 -13.40843,8.85374 -12.125,16.95703 l 4.64648,29.3379 l 28.89649,-4.57618 L 453.35156,299 c -1.12301,-7.09039 -7.0145,-12.21823 -13.81445,-12.54297 z m -51.37305,8.13672 c -0.97162,-0.0464 -1.9634,0.006 -2.96094,0.16406 c -7.97957,1.26384 -13.40647,8.85373 -12.12304,16.95703 l 4.64648,29.33789 l 28.89844,-4.57617 l -4.64648,-29.33984 c -1.12301,-7.09039 -7.01309,-12.21845 -13.81446,-12.54297 z m -51.37304,8.13672 c -0.97156,-0.0464 -1.96148,0.006 -2.95899,0.16406 c -7.98029,1.26396 -13.41234,8.85373 -12.12891,16.95703 l 4.64649,29.33789 l 28.90234,-4.57617 l -4.64648,-29.33984 c -1.123,-7.09039 -7.01356,-12.21838 -13.81445,-12.54297 z m -51.37696,8.13672 c -0.97156,-0.0464 -1.96146,0.006 -2.95898,0.16406 c -7.9804,1.26397 -13.40648,8.85372 -12.12305,16.95703 l 4.64649,29.33789 L 303.875,352.75 l -4.64648,-29.33984 c -1.12301,-7.09039 -7.01351,-12.21839 -13.81446,-12.54297 z m 286.44532,18.32226 l -325.1875,51.50391 c -10.67519,1.69078 -17.96027,11.69744 -16.27344,22.34766 L 285.88477,753.375 c 1.68639,10.64745 11.70865,17.91328 22.38281,16.22266 l 350.24609,-55.47461 c 10.68061,-1.69164 17.96188,-11.69569 16.27539,-22.34375 L 638.20898,460.83008 l -21.21875,21.21875 l -2.625,2.625 l -178.21289,79.21679 l 79.2168,-178.21093 z m 111.31835,87.30274 c -0.20994,-0.009 -0.42318,0.004 -0.63476,0.004 l -28.03125,28.03125 l 0.94336,5.95899 l 29.33984,-4.64649 c 8.1034,-1.28345 13.63297,-8.85659 12.35742,-16.91015 c -1.11684,-7.05144 -7.07418,-12.13622 -13.97461,-12.4375 z m -466.30468,20.38672 l -29.33594,4.64648 c -8.10166,1.28318 -13.63753,8.85454 -12.36133,16.91211 c 1.27546,8.05294 8.88076,13.54685 16.98242,12.26367 l 29.33594,-4.64648 z m 474.51953,31.47656 c -0.98576,-0.043 -1.99098,0.0114 -3.00391,0.17187 l -29.33984,4.64649 l 4.62109,29.17383 l 29.33985,-4.64649 c 8.1034,-1.28345 13.63368,-8.85414 12.35742,-16.91211 c -1.11671,-7.05063 -7.07427,-12.13288 -13.97461,-12.43359 z m -466.30469,20.38672 l -29.33594,4.64648 c -8.10166,1.28318 -13.63772,8.85334 -12.36133,16.91211 c 1.27557,8.05357 8.88077,13.54685 16.98243,12.26367 l 29.33593,-4.64648 z m 474.51953,31.47461 c -0.98576,-0.043 -1.99098,0.0114 -3.0039,0.17187 l -29.33985,4.64649 l 4.6211,29.17578 l 29.33984,-4.64649 c 8.1034,-1.28346 13.63176,-8.85393 12.35547,-16.91211 c -1.1169,-7.05179 -7.0723,-12.13472 -13.97266,-12.43554 z m -466.30469,20.38867 l -29.33984,4.64648 l -0.002,0 c -8.09989,1.28384 -13.63112,8.85048 -12.35742,16.90821 c 1.27635,8.05859 8.88125,13.5484 16.98046,12.26562 l 29.3379,-4.64648 l -4.61915,-29.17383 z m 474.51758,31.47461 c -0.98578,-0.0431 -1.99098,0.0114 -3.0039,0.17187 l -29.33985,4.64649 l 4.6211,29.17578 l 29.33984,-4.64844 c 8.1034,-1.28345 13.63368,-8.85023 12.35742,-16.9082 c -1.11675,-7.0509 -7.07416,-12.13609 -13.97461,-12.4375 z M 241.51562,592.4668 l -29.33789,4.64648 c -8.0989,1.28274 -13.6357,8.85168 -12.35937,16.91016 c 1.27641,8.05888 8.88157,13.54836 16.98047,12.26562 l 29.33789,-4.64648 z m 474.51954,31.47461 c -0.98578,-0.043 -1.99099,0.0114 -3.00391,0.17187 l -29.33984,4.64649 l 4.62109,29.17773 l 29.33984,-4.64844 c 8.1034,-1.28345 13.6338,-8.85147 12.35743,-16.91015 c -1.11681,-7.05126 -7.07418,-12.13619 -13.97461,-12.4375 z m -466.30469,20.38867 l -29.33789,4.64648 c -8.09889,1.28274 -13.63546,8.85527 -12.35938,16.91211 c 1.27626,8.05797 8.88158,13.54641 16.98047,12.26367 l 29.33789,-4.64648 z m 8.21484,51.86133 l -29.33984,4.64648 c -8.09889,1.28274 -13.63381,8.85332 -12.35742,16.91211 c 1.27635,8.05858 8.87961,13.54837 16.97851,12.26562 l 29.33985,-4.64648 z m 370.22852,41.62109 l -28.89649,4.57617 l 4.64649,29.33789 c 1.28276,8.09901 8.79121,13.64512 16.77344,12.38086 c 7.98202,-1.26423 13.4058,-8.85997 12.12304,-16.95898 z m -51.3711,8.13672 l -28.90234,4.57812 l 4.64649,29.33594 c 1.28336,8.09891 8.79253,13.64686 16.77343,12.38281 c 7.98254,-1.26431 13.41167,-8.86192 12.12891,-16.96093 z m -51.375,8.13672 l -28.90039,4.57617 L 501.17383,788 c 1.28276,8.09901 8.79571,13.64472 16.77539,12.38086 c 7.97824,-1.26363 13.40776,-8.85997 12.125,-16.95898 z m -51.375,8.13672 l -28.90039,4.57812 l 4.64649,29.33594 c 1.28276,8.099 8.79387,13.64665 16.77344,12.38281 c 7.98029,-1.26395 13.40971,-8.86193 12.12695,-16.96094 z m -51.37304,8.13672 l -28.90039,4.57812 l 4.64648,29.33594 c 1.28276,8.09901 8.79191,13.64665 16.77149,12.38281 c 7.98039,-1.26397 13.41166,-8.85998 12.1289,-16.95898 z m -51.375,8.13671 l -28.89844,4.57813 l 4.64648,29.33594 c 1.28275,8.09901 8.79305,13.64678 16.77344,12.38281 c 7.98018,-1.26394 13.40775,-8.85998 12.125,-16.95899 z"
       id="path8068"
       inkscape:connector-curvature="0"
       sodipodi:nodetypes="sccscscscscscccsccscscscscscscscsscccscccccsccccscccccscscccsccsccccccsccccccscccccsssssscccccccccccscccssscccccccsccssscccccccscccccsccccccccsccssscccccccsccsssccccscccccsssccccsscccssscccssscccssscccsssc" />
    <path
       inkscape:connector-curvature="0"
       d="m 925.37174,145.33894 l 59.98368,-59.983683 c 19.52618,-19.526217 19.52618,-51.184462 0,-70.710678 c -19.52621,-19.5262166 -51.18446,-19.5262166 -70.71068,0 l -59.98368,59.983684 c 0,8.017445 16.26577,30.407907 28.28427,42.426407 c 12.0185,12.0185 34.34923,28.28427 42.42641,28.28427 z M 532.04373,397.2456 L 496.089,478.12922 c 10e-6,2.92317 5.9305,11.0874 10.31244,15.46934 c 4.38194,4.38194 12.52439,10.31243 15.46934,10.31244 l 80.88362,-35.95472 c -8.07723,-5e-5 -30.40792,-16.26579 -42.4264,-28.28428 C 548.30944,427.65345 532.04373,405.26305 532.04373,397.2456 Z M 840.51906,88.770264 L 606.16979,323.11954 l -59.98393,59.98392 c 10e-6,8.01745 16.26572,30.40786 28.28427,42.42641 c 12.01848,12.01848 34.34918,28.28422 42.42641,28.28427 l 59.98392,-59.98393 L 911.22974,159.48094 c -8.07719,0 -30.40791,-16.26577 -42.42641,-28.28427 c -12.0185,-12.0185 -28.28427,-34.40896 -28.28427,-42.426406 z"
       style="opacity:1;fill:#aa0000;fill-opacity:1;fill-rule:nonzero;stroke:none;stroke-width:10;stroke-linecap:square;stroke-linejoin:round;stroke-miterlimit:4;stroke-dasharray:none;stroke-opacity:1"
       id="path4206" />
  </g>
</svg>
