<?xml version="1.0" encoding="UTF-8" standalone="no"?>
<svg
   height="1920px"
   version="1.1"
   width="1920px"
   id="svg3008"
   sodipodi:docname="icon_mono.svg"
   inkscape:version="1.1 (c4e8f9e, 2021-05-24)"
   xmlns:inkscape="http://www.inkscape.org/namespaces/inkscape"
   xmlns:sodipodi="http://sodipodi.sourceforge.net/DTD/sodipodi-0.dtd"
   xmlns="http://www.w3.org/2000/svg"
   xmlns:svg="http://www.w3.org/2000/svg">
  <sodipodi:namedview
     id="namedview3010"
     pagecolor="#ffffff"
     bordercolor="#111111"
     borderopacity="1"
     inkscape:pageshadow="0"
     inkscape:pageopacity="0"
     inkscape:pagecheckerboard="1"
     showgrid="false"
     inkscape:zoom="0.25845174"
     inkscape:cx="837.68058"
     inkscape:cy="663.56683"
     inkscape:window-width="1792"
     inkscape:window-height="1067"
     inkscape:window-x="0"
     inkscape:window-y="25"
     inkscape:window-maximized="0"
     inkscape:current-layer="layer1"
     showguides="false" />
  <defs
     id="defs824">
    <clipPath
       clipPathUnits="userSpaceOnUse"
       id="clipPath26888">
      <path
         inkscape:connector-curvature="0"
         id="path26890"
         d="m 565.05902,1919.7384 c -69.79793,-0.456 -141.22103,-3.8604 -181.43983,-8.6591 -37.7402,-4.5048 -79.70872,-13.3728 -108.02029,-22.8264 -21.09382,-7.044 -50.36408,-20.5944 -70.04514,-32.4276 -39.66872,-23.8488 -76.4891,-55.3476 -104.38562,-89.298 -25.737663,-31.3223 -43.651243,-60.2231 -58.760113,-94.8011 -7.01313,-16.0464 -8.8849,-21.0468 -12.63751,-33.7479 C 12.608457,1579.878 4.8324607,1523.801 1.6136677,1434.9003 0.09882466,1393.109 -0.15969134,1306.7594 0.07615666,928.78671 c 0.18144,-271.4392 0.4536,-393.6776 0.888959,-408.4618 C 5.2374957,379.36821 16.272197,307.59591 43.130547,246.00721 67.366067,190.43761 110.21544,134.86601 158.40113,96.514398 c 12.98675,-10.33583 33.54861,-24.26914 49.68835,-33.67018 26.26702,-15.29891 58.25767,-29.18146 83.49724,-36.23313 43.8182,-12.24155 98.89191,-19.9880298 167.70608,-23.5892298 30.22773,-1.5828 45.34892,-1.98192 98.45607,-2.59427002 70.66781,-0.816 820.92303,-0.3624 850.94073,0.50759 79.0103,2.31300002 117.8182,5.44704002 162.0313,13.08647982 36.9692,6.38819 70.0211,15.40547 97.6115,26.63158 30.6143,12.45611 71.966,37.81281 99.8625,61.233322 25.5086,21.41674 55.5023,54.76305 73.6249,81.85365 29.034,43.4026 47.5893,86.4027 57.7211,133.7616 2.1634,10.1144 7.9824,42.9813 10.1085,57.106 5.0272,33.3731 7.8314,70.4339 9.4324,124.6206 0.8748,29.6635 1.2972,786.11239 0.4812,863.33939 -0.7212,68.4034 -1.964,104.5439 -4.8348,140.5747 -6.2725,78.7827 -23.1684,144.3209 -50.639,196.4177 -8.2954,15.7344 -19.9164,33.8256 -32.3554,50.3724 -24.3674,32.4131 -49.2624,57.6155 -79.013,79.9919 -51.5143,38.7456 -100.2715,60.1452 -167.7107,73.6104 -54.938,10.9679 -98.5724,13.9331 -235.9592,16.0355 -29.6304,0.456 -717.00135,0.6 -783.99008,0.18 z"
         style="display:inline;fill:#00ff00;fill-opacity:1;stroke-width:12" />
    </clipPath>
  </defs>
  <g
     inkscape:groupmode="layer"
     id="layer1"
     inkscape:label="Background"
     style="display:inline">
    <path
       id="path3124"
       style="display:inline;fill:#ffffff;fill-opacity:1;stroke-width:12"
       d="M 557.74805 0.42773438 C 504.6409 1.0400844 489.5207 1.4386844 459.29297 3.0214844 C 390.4788 6.6226844 335.40414 14.369778 291.58594 26.611328 C 266.34637 33.662998 234.35686 47.54484 208.08984 62.84375 C 191.9501 72.24479 171.38714 86.177842 158.40039 96.513672 C 110.2147 134.86528 67.366379 190.43821 43.130859 246.00781 C 16.272509 307.59651 5.2372238 379.36752 0.96484375 520.32422 C 0.52948475 535.10842 0.25761187 657.34791 0.076171875 928.78711 C -0.15967612 1306.7598 0.09843821 1393.1091 1.6132812 1434.9004 C 4.8320743 1523.8011 12.609424 1579.8782 29.771484 1637.9785 C 33.524094 1650.6796 35.395073 1655.6802 42.408203 1671.7266 C 57.517073 1706.3046 75.430306 1735.205 101.16797 1766.5273 C 129.06449 1800.4777 165.88597 1831.9774 205.55469 1855.8262 C 225.23575 1867.6594 254.50579 1881.208 275.59961 1888.252 C 303.91118 1897.7056 345.87894 1906.5753 383.61914 1911.0801 C 423.83794 1915.8788 495.26066 1919.2823 565.05859 1919.7383 L 565.06055 1919.75 C 632.04928 1920.17 1319.4204 1920.0263 1349.0508 1919.5703 C 1486.4376 1917.4679 1530.0718 1914.5031 1585.0098 1903.5352 C 1652.449 1890.07 1701.2064 1868.6694 1752.7207 1829.9238 C 1782.4713 1807.5474 1807.367 1782.3447 1831.7344 1749.9316 C 1844.1734 1733.3848 1855.7944 1715.2949 1864.0898 1699.5605 C 1891.5604 1647.4637 1908.456 1581.9253 1914.7285 1503.1426 C 1917.5993 1467.1118 1918.8413 1430.9718 1919.5625 1362.5684 C 1920.3785 1285.3414 1919.9568 528.89202 1919.082 499.22852 C 1917.481 445.04182 1914.6756 407.98052 1909.6484 374.60742 C 1907.5223 360.48272 1901.7044 327.61635 1899.541 317.50195 C 1889.4092 270.14305 1870.8543 227.14283 1841.8203 183.74023 C 1823.6977 156.64963 1793.7039 123.30346 1768.1953 101.88672 C 1740.2988 78.466207 1698.9463 53.108454 1668.332 40.652344 C 1640.7416 29.426234 1607.6899 20.409674 1570.7207 14.021484 C 1526.5076 6.3820446 1487.6998 3.2485469 1408.6895 0.93554688 C 1378.6718 0.065556875 628.41586 -0.38826562 557.74805 0.42773438 z M 900 270 L 930 270 L 960 270 L 960 300 L 990 300 L 990 330 L 1020 330 L 1050 330 L 1050 360 L 1080 360 L 1080 390 L 1110 390 L 1110 420 L 1110 450 L 1110 480 L 1140 480 L 1170 480 L 1170 510 L 1200 510 L 1200 540 L 1230 540 L 1230 570 L 1260 570 L 1260 600 L 1290 600 L 1290 630 L 1320 630 L 1320 660 L 1350 660 L 1350 690 L 1350 720 L 1380 720 L 1380 750 L 1410 750 L 1410 780 L 1440 780 L 1440 810 L 1470 810 L 1470 840 L 1470 870 L 1470 900 L 1470 930 L 1440 930 L 1440 960 L 1410 960 L 1380 960 L 1380 990 L 1410 990 L 1410 1020 L 1410 1050 L 1410 1080 L 1410 1110 L 1410 1140 L 1410 1170 L 1410 1200 L 1380 1200 L 1380 1230 L 1380 1260 L 1380 1290 L 1380 1320 L 1380 1350 L 1380 1380 L 1380 1410 L 1350 1410 L 1350 1440 L 1350 1470 L 1350 1500 L 1320 1500 L 1320 1530 L 1320 1560 L 1290 1560 L 1290 1590 L 1260 1590 L 1260 1620 L 1230 1620 L 1200 1620 L 1200 1650 L 1170 1650 L 1140 1650 L 1110 1650 L 1080 1650 L 1050 1650 L 1020 1650 L 990 1650 L 960 1650 L 930 1650 L 900 1650 L 870 1650 L 840 1650 L 810 1650 L 780 1650 L 750 1650 L 720 1650 L 720 1620 L 690 1620 L 660 1620 L 660 1590 L 630 1590 L 630 1560 L 600 1560 L 600 1530 L 600 1500 L 570 1500 L 570 1470 L 570 1440 L 570 1410 L 540 1410 L 540 1380 L 540 1350 L 540 1320 L 540 1290 L 540 1260 L 540 1230 L 540 1200 L 510 1200 L 510 1170 L 510 1140 L 510 1110 L 510 1080 L 510 1050 L 510 1020 L 510 990 L 540 990 L 540 960 L 510 960 L 480 960 L 480 930 L 450 930 L 450 900 L 450 870 L 450 840 L 450 810 L 480 810 L 480 780 L 510 780 L 510 750 L 540 750 L 540 720 L 570 720 L 570 690 L 570 660 L 600 660 L 600 630 L 630 630 L 630 600 L 660 600 L 660 570 L 690 570 L 690 540 L 720 540 L 720 510 L 750 510 L 750 480 L 780 480 L 810 480 L 810 450 L 810 420 L 810 390 L 840 390 L 840 360 L 870 360 L 870 330 L 900 330 L 930 330 L 960 330 L 960 300 L 930 300 L 900 300 L 900 270 z M 870 360 L 870 390 L 840 390 L 840 420 L 840 450 L 840 480 L 840 510 L 840 540 L 870 540 L 870 570 L 900 570 L 930 570 L 960 570 L 990 570 L 1020 570 L 1050 570 L 1050 540 L 1080 540 L 1080 510 L 1080 480 L 1080 450 L 1080 420 L 1080 390 L 1050 390 L 1050 360 L 1020 360 L 990 360 L 990 390 L 960 390 L 960 360 L 930 360 L 900 360 L 870 360 z M 1080 540 L 1080 570 L 1050 570 L 1050 600 L 1020 600 L 990 600 L 960 600 L 930 600 L 900 600 L 870 600 L 870 570 L 840 570 L 840 540 L 810 540 L 810 510 L 780 510 L 750 510 L 750 540 L 720 540 L 720 570 L 720 600 L 750 600 L 750 630 L 780 630 L 810 630 L 810 660 L 840 660 L 870 660 L 900 660 L 930 660 L 960 660 L 990 660 L 1020 660 L 1050 660 L 1080 660 L 1110 660 L 1110 630 L 1140 630 L 1170 630 L 1170 600 L 1200 600 L 1200 570 L 1200 540 L 1170 540 L 1170 510 L 1140 510 L 1110 510 L 1110 540 L 1080 540 z M 660 600 L 660 630 L 630 630 L 630 660 L 600 660 L 600 690 L 600 720 L 630 720 L 630 750 L 660 750 L 660 780 L 690 780 L 720 780 L 720 810 L 750 810 L 780 810 L 810 810 L 840 810 L 870 810 L 900 810 L 930 810 L 960 810 L 990 810 L 1020 810 L 1050 810 L 1080 810 L 1110 810 L 1140 810 L 1170 810 L 1200 810 L 1200 780 L 1230 780 L 1260 780 L 1260 750 L 1290 750 L 1290 720 L 1320 720 L 1320 690 L 1320 660 L 1290 660 L 1290 630 L 1260 630 L 1260 600 L 1230 600 L 1230 630 L 1230 660 L 1200 660 L 1200 690 L 1170 690 L 1140 690 L 1140 720 L 1110 720 L 1080 720 L 1050 720 L 1020 720 L 990 720 L 960 720 L 930 720 L 900 720 L 870 720 L 840 720 L 810 720 L 780 720 L 780 690 L 750 690 L 720 690 L 720 660 L 690 660 L 690 630 L 690 600 L 660 600 z M 540 750 L 540 780 L 510 780 L 510 810 L 480 810 L 480 840 L 480 870 L 510 870 L 510 900 L 540 900 L 570 900 L 570 930 L 600 930 L 630 930 L 660 930 L 660 960 L 690 960 L 720 960 L 750 960 L 780 960 L 810 960 L 840 960 L 870 960 L 900 960 L 930 960 L 960 960 L 990 960 L 1020 960 L 1050 960 L 1080 960 L 1110 960 L 1140 960 L 1170 960 L 1200 960 L 1230 960 L 1260 960 L 1260 930 L 1290 930 L 1320 930 L 1350 930 L 1350 900 L 1380 900 L 1410 900 L 1410 870 L 1440 870 L 1440 840 L 1440 810 L 1410 810 L 1410 780 L 1380 780 L 1380 750 L 1350 750 L 1350 780 L 1320 780 L 1320 810 L 1290 810 L 1290 840 L 1260 840 L 1230 840 L 1230 870 L 1200 870 L 1170 870 L 1140 870 L 1110 870 L 1080 870 L 1050 870 L 1020 870 L 990 870 L 960 870 L 930 870 L 900 870 L 870 870 L 840 870 L 810 870 L 780 870 L 750 870 L 720 870 L 690 870 L 690 840 L 660 840 L 630 840 L 630 810 L 600 810 L 600 780 L 570 780 L 570 750 L 540 750 z M 540 990 L 540 1020 L 570 1020 L 600 1020 L 630 1020 L 630 990 L 600 990 L 570 990 L 540 990 z M 630 1020 L 630 1050 L 660 1050 L 690 1050 L 720 1050 L 750 1050 L 780 1050 L 810 1050 L 840 1050 L 870 1050 L 900 1050 L 930 1050 L 960 1050 L 990 1050 L 1020 1050 L 1050 1050 L 1080 1050 L 1110 1050 L 1140 1050 L 1170 1050 L 1200 1050 L 1230 1050 L 1260 1050 L 1290 1050 L 1290 1020 L 1260 1020 L 1230 1020 L 1200 1020 L 1170 1020 L 1140 1020 L 1110 1020 L 1080 1020 L 1050 1020 L 1020 1020 L 990 1020 L 960 1020 L 930 1020 L 900 1020 L 870 1020 L 840 1020 L 810 1020 L 780 1020 L 750 1020 L 720 1020 L 690 1020 L 660 1020 L 630 1020 z M 1290 1020 L 1320 1020 L 1350 1020 L 1380 1020 L 1380 990 L 1350 990 L 1320 990 L 1290 990 L 1290 1020 z M 900 420 L 930 420 L 960 420 L 960 450 L 930 450 L 930 480 L 900 480 L 870 480 L 870 450 L 900 450 L 900 420 z M 720 1080 L 720 1110 L 750 1110 L 780 1110 L 780 1140 L 780 1170 L 750 1170 L 750 1200 L 720 1200 L 720 1170 L 720 1140 L 720 1110 L 690 1110 L 690 1140 L 690 1170 L 690 1200 L 690 1230 L 690 1260 L 720 1260 L 720 1290 L 750 1290 L 780 1290 L 810 1290 L 840 1290 L 840 1260 L 870 1260 L 870 1230 L 870 1200 L 870 1170 L 870 1140 L 870 1110 L 840 1110 L 840 1080 L 810 1080 L 780 1080 L 750 1080 L 720 1080 z M 1080 1080 L 1080 1110 L 1110 1110 L 1140 1110 L 1140 1140 L 1140 1170 L 1110 1170 L 1110 1200 L 1080 1200 L 1080 1170 L 1080 1140 L 1080 1110 L 1050 1110 L 1050 1140 L 1050 1170 L 1050 1200 L 1050 1230 L 1050 1260 L 1080 1260 L 1080 1290 L 1110 1290 L 1140 1290 L 1170 1290 L 1200 1290 L 1200 1260 L 1230 1260 L 1230 1230 L 1230 1200 L 1230 1170 L 1230 1140 L 1230 1110 L 1200 1110 L 1200 1080 L 1170 1080 L 1140 1080 L 1110 1080 L 1080 1080 z M 660 1320 L 660 1350 L 660 1380 L 660 1410 L 660 1440 L 660 1470 L 690 1470 L 690 1500 L 720 1500 L 720 1530 L 750 1530 L 780 1530 L 780 1560 L 810 1560 L 840 1560 L 870 1560 L 900 1560 L 930 1560 L 960 1560 L 990 1560 L 1020 1560 L 1050 1560 L 1080 1560 L 1110 1560 L 1140 1560 L 1140 1530 L 1170 1530 L 1200 1530 L 1200 1500 L 1230 1500 L 1230 1470 L 1260 1470 L 1260 1440 L 1260 1410 L 1260 1380 L 1260 1350 L 1260 1320 L 1230 1320 L 1200 1320 L 1170 1320 L 1140 1320 L 1110 1320 L 1080 1320 L 1050 1320 L 1020 1320 L 990 1320 L 960 1320 L 930 1320 L 900 1320 L 870 1320 L 840 1320 L 810 1320 L 780 1320 L 750 1320 L 720 1320 L 690 1320 L 660 1320 z M 750 1350 L 780 1350 L 810 1350 L 840 1350 L 870 1350 L 900 1350 L 930 1350 L 960 1350 L 990 1350 L 1020 1350 L 1050 1350 L 1080 1350 L 1110 1350 L 1140 1350 L 1170 1350 L 1170 1380 L 1170 1410 L 1140 1410 L 1110 1410 L 1080 1410 L 1050 1410 L 1020 1410 L 990 1410 L 960 1410 L 930 1410 L 900 1410 L 870 1410 L 840 1410 L 810 1410 L 780 1410 L 750 1410 L 750 1380 L 750 1350 z M 870 1470 L 900 1470 L 930 1470 L 960 1470 L 990 1470 L 1020 1470 L 1050 1470 L 1050 1500 L 1080 1500 L 1080 1530 L 1050 1530 L 1020 1530 L 990 1530 L 960 1530 L 930 1530 L 900 1530 L 870 1530 L 840 1530 L 840 1500 L 870 1500 L 870 1470 z " />
  </g>
  <g
     inkscape:groupmode="layer"
     id="g19424"
     inkscape:label="Icon"
     style="display:inline" />
</svg>
