<?xml version="1.0" encoding="UTF-8" standalone="no"?>
<!-- Created with Inkscape (http://www.inkscape.org/) -->

<svg
   width="40"
   height="40"
   viewBox="0 0 40 40"
   id="svg2"
   version="1.1"
   inkscape:version="1.3.2 (091e20e, 2023-11-25)"
   sodipodi:docname="icon_github.svg"
   inkscape:export-filename=""
   inkscape:export-xdpi="180"
   inkscape:export-ydpi="180"
   xmlns:inkscape="http://www.inkscape.org/namespaces/inkscape"
   xmlns:sodipodi="http://sodipodi.sourceforge.net/DTD/sodipodi-0.dtd"
   xmlns="http://www.w3.org/2000/svg"
   xmlns:svg="http://www.w3.org/2000/svg"
   xmlns:rdf="http://www.w3.org/1999/02/22-rdf-syntax-ns#"
   xmlns:cc="http://creativecommons.org/ns#"
   xmlns:dc="http://purl.org/dc/elements/1.1/">
  <defs
     id="defs4" />
  <sodipodi:namedview
     id="base"
     pagecolor="#808080"
     bordercolor="#666666"
     borderopacity="1.0"
     inkscape:pageopacity="0"
     inkscape:pageshadow="2"
     inkscape:zoom="11.313708"
     inkscape:cx="9.7227187"
     inkscape:cy="17.103146"
     inkscape:document-units="px"
     inkscape:current-layer="layer1"
     showgrid="false"
     showguides="true"
     inkscape:guide-bbox="true"
     units="px"
     inkscape:window-width="1792"
     inkscape:window-height="1067"
     inkscape:window-x="0"
     inkscape:window-y="25"
     inkscape:window-maximized="0"
     inkscape:snap-bbox="true"
     inkscape:bbox-paths="true"
     inkscape:bbox-nodes="true"
     inkscape:snap-bbox-edge-midpoints="true"
     inkscape:snap-bbox-midpoints="true"
     inkscape:object-paths="true"
     inkscape:snap-intersection-paths="true"
     inkscape:object-nodes="true"
     inkscape:snap-smooth-nodes="true"
     inkscape:snap-midpoints="true"
     inkscape:showpageshadow="0"
     inkscape:pagecheckerboard="1"
     inkscape:deskcolor="#808080" />
  <metadata
     id="metadata7">
    <rdf:RDF>
      <cc:Work
         rdf:about="">
        <dc:format>image/svg+xml</dc:format>
        <dc:type
           rdf:resource="http://purl.org/dc/dcmitype/StillImage" />
      </cc:Work>
    </rdf:RDF>
  </metadata>
  <g
     inkscape:groupmode="layer"
     id="layer1"
     inkscape:label="Logo"
     style="display:inline"
     transform="translate(0,-360)">
    <path
       style="display:inline;fill:#ffffff;fill-opacity:1;stroke-width:1"
       inkscape:connector-curvature="0"
       id="XMLID_1_"
       display="inline"
       d="m -0.60441558,380.88956 c 1.86900938,-0.46671 4.41024878,-1.10237 8.86252758,-1.2206 -0.1230282,-0.24606 -0.2341432,-0.50081 -0.332516,-0.76349 -1.7324947,-0.015 -7.06814742,0.23099 -8.89587066,0.68257 -0.0103476,0.003 -0.0214309,0.004 -0.0325162,0.004 -0.061138,0 -0.1174848,-0.042 -0.1325431,-0.1039 -0.017457,-0.0723 0.026973,-0.14678 0.099946,-0.16507 1.81109392,-0.4476 7.0180915,-0.69606 8.8625276,-0.69125 -0.4150868,-1.22061 -0.5984304,-2.61902 -0.5984304,-4.18008 0,-2.77299 0.8635176,-3.81903 2.0237258,-5.29677 -0.8872616,-3.16027 0.318287,-5.32051 0.318287,-5.32051 0,0 1.864292,-0.38646 5.388769,2.13724 1.910294,-0.81827 7.003366,-0.88644 9.41289,-0.1817 1.47932,-0.97776 4.184048,-2.365 5.276083,-1.97697 0.295201,0.47614 0.931773,1.86264 0.385716,4.91023 0.371402,0.66825 2.296837,2.09205 2.304696,6.11651 -0.03177,1.48412 -0.185743,2.73724 -0.471431,3.7975 4.595164,-0.0388 7.29832,0.34046 9.160131,0.68332 0.07306,0.015 0.122284,0.0857 0.109542,0.15951 -0.01265,0.0651 -0.06982,0.11195 -0.133288,0.11195 -0.0095,0 -0.01746,-8.1e-4 -0.02697,-0.002 -1.85875,-0.34444 -4.566539,-0.7222 -9.188757,-0.68018 -0.081,0.26907 -0.171429,0.52463 -0.269886,0.76829 1.573063,0.0523 5.893543,0.22065 9.417274,1.29838 0.07306,0.0223 0.112687,0.0984 0.09052,0.17142 -0.01746,0.0579 -0.0714,0.096 -0.130144,0.096 -0.01266,0 -0.02697,-0.002 -0.03964,-0.006 -3.572959,-1.09203 -7.98718,-1.24204 -9.455332,-1.29052 -1.277777,2.80716 -3.898361,3.85468 -8.134782,4.29037 1.373006,0.86426 1.766665,1.94826 1.766665,4.88168 0,2.93324 -0.03963,3.3269 -0.03011,4.00136 0.01431,1.10726 1.636438,1.63727 1.576205,1.99361 -0.06032,0.35568 -1.35712,0.29843 -1.963409,0.0867 -1.717433,-0.59836 -1.546086,-2.02705 -1.546086,-2.02705 l -0.05709,-3.92202 c 0,0 0.117486,-2.11109 -0.661889,-2.11109 0,0.42452 0,4.90144 0,6.41966 0,1.39518 0.976205,1.81903 0.976205,2.3349 0,0.88651 -1.78404,-0.084 -2.333325,-0.63733 -0.838448,-0.84126 -0.743136,-2.62521 -0.722534,-4.03627 0.01902,-1.36275 -0.01266,-4.34283 -0.01266,-4.34283 l -0.568975,0.012 c 0,0 0.233315,6.51017 -0.300001,7.69653 -0.689608,1.523 -2.769759,2.04688 -2.769759,1.35314 0,-0.46671 0.512633,-0.3182 0.796004,-1.36414 0.242004,-0.88976 0.159516,-7.52693 0.159516,-7.52693 0,0 -0.666605,0.39449 -0.666605,1.63726 0,0.56898 -0.01589,3.81894 -0.01589,4.78646 0,1.21663 -1.727779,1.90938 -2.557953,1.90938 -0.420631,0 -0.943606,-0.0205 -0.943606,-0.24349 0,-0.56268 1.580177,-0.89297 1.580177,-2.06352 0,-1.01501 -0.02226,-3.62599 -0.02226,-3.62599 0,0 -0.796831,0.13635 -1.933295,0.13635 -2.864985,0 -3.77136,-1.82847 -4.2023324,-2.85151 -0.5611165,-1.33246 -1.2888637,-1.95862 -2.0618671,-2.45866 -0.4745741,-0.30712 -0.5841165,-0.66984 -0.034913,-0.77301 2.5364405,-0.47772 3.1848445,2.87616 4.8784525,3.41022 1.208692,0.38182 2.762643,0.21668 3.535646,-0.28329 0.102429,-1.02468 0.840516,-1.9103 1.455577,-2.37692 -4.307822,-0.41352 -6.861804,-1.90947 -8.1855813,-4.31429 -4.5063055,0.10798 -7.0633486,0.74762 -8.9379013,1.21581 -0.13651393,0.0342 -0.26980236,0.0674 -0.39837391,0.1 -0.0110853,0.002 -0.0222595,0.003 -0.0333449,0.003 -0.0611387,0 -0.11665759,-0.0413 -0.13254319,-0.10316 -0.018285,-0.0729 0.026973,-0.14759 0.1000282,-0.16588 0.12906805,-0.0318 0.26161122,-0.0643 0.39729872,-0.0991 z" />
  </g>
</svg>
