<?xml version="1.0" encoding="UTF-8" standalone="no"?>
<!-- Created with Inkscape (http://www.inkscape.org/) -->

<svg
   width="40"
   height="40"
   viewBox="0 0 40 40"
   id="svg2"
   version="1.1"
   inkscape:version="1.3.2 (091e20e, 2023-11-25)"
   sodipodi:docname="icon_twitter_circle.svg"
   inkscape:export-filename=""
   inkscape:export-xdpi="180"
   inkscape:export-ydpi="180"
   xmlns:inkscape="http://www.inkscape.org/namespaces/inkscape"
   xmlns:sodipodi="http://sodipodi.sourceforge.net/DTD/sodipodi-0.dtd"
   xmlns="http://www.w3.org/2000/svg"
   xmlns:svg="http://www.w3.org/2000/svg"
   xmlns:rdf="http://www.w3.org/1999/02/22-rdf-syntax-ns#"
   xmlns:cc="http://creativecommons.org/ns#"
   xmlns:dc="http://purl.org/dc/elements/1.1/">
  <defs
     id="defs4" />
  <sodipodi:namedview
     id="base"
     pagecolor="#808080"
     bordercolor="#666666"
     borderopacity="1.0"
     inkscape:pageopacity="0"
     inkscape:pageshadow="2"
     inkscape:zoom="11.313708"
     inkscape:cx="10.606602"
     inkscape:cy="16.926369"
     inkscape:document-units="px"
     inkscape:current-layer="g4134"
     showgrid="false"
     showguides="true"
     inkscape:guide-bbox="true"
     units="px"
     inkscape:window-width="1792"
     inkscape:window-height="1067"
     inkscape:window-x="0"
     inkscape:window-y="25"
     inkscape:window-maximized="0"
     inkscape:snap-bbox="true"
     inkscape:bbox-paths="true"
     inkscape:bbox-nodes="true"
     inkscape:snap-bbox-edge-midpoints="true"
     inkscape:snap-bbox-midpoints="true"
     inkscape:object-paths="true"
     inkscape:snap-intersection-paths="true"
     inkscape:object-nodes="true"
     inkscape:snap-smooth-nodes="true"
     inkscape:snap-midpoints="true"
     inkscape:showpageshadow="0"
     inkscape:pagecheckerboard="1"
     inkscape:deskcolor="#808080" />
  <metadata
     id="metadata7">
    <rdf:RDF>
      <cc:Work
         rdf:about="">
        <dc:format>image/svg+xml</dc:format>
        <dc:type
           rdf:resource="http://purl.org/dc/dcmitype/StillImage" />
      </cc:Work>
    </rdf:RDF>
  </metadata>
  <g
     style="display:inline"
     transform="translate(0,-1012.3622)"
     id="g4134"
     inkscape:groupmode="layer"
     inkscape:label="Logo">
    <path
       id="path1"
       style="opacity:1;fill:#ffffff;stroke:none;stroke-width:0.148;stroke-linecap:square;stroke-linejoin:round;stroke-miterlimit:4.1;paint-order:markers stroke fill"
       d="M 20,1012.4362 A 19.926161,19.926161 0 0 0 0.0740149,1032.3622 19.926161,19.926161 0 0 0 20,1052.2882 19.926161,19.926161 0 0 0 39.925985,1032.3622 19.926161,19.926161 0 0 0 20,1012.4362 Z m 6.150168,7.1292 c 1.886921,0 3.592136,0.7968 4.78867,2.0719 1.494413,-0.2942 2.897981,-0.8392 4.165689,-1.591 -0.489694,1.5318 -1.529469,2.8166 -2.883819,3.6285 1.326881,-0.1586 2.591121,-0.5102 3.767545,-1.032 -0.879492,1.3155 -1.992348,2.4711 -3.274157,3.3959 0.01253,0.2815 0.0203,0.5635 0.0203,0.8478 0,8.6694 -6.599226,18.666 -18.665974,18.666 -3.704801,0 -7.1533781,-1.0863 -10.0566731,-2.9478 0.5132202,0.061 1.0349501,0.092 1.5644755,0.092 3.0737313,0 5.9034786,-1.0492 8.1487006,-2.8088 -2.870852,-0.053 -5.2949842,-1.9499 -6.1298713,-4.5561 0.4006533,0.077 0.8123343,0.1187 1.2350302,0.1187 0.5982673,0 1.1779831,-0.081 1.7284171,-0.2311 -3.0011488,-0.6027 -5.26332,-3.2544 -5.26332,-6.4328 0,-0.028 9.353e-4,-0.055 0.00156,-0.083 0.8844716,0.4913 1.8958808,0.7874 2.9712545,0.8213 -1.7602902,-1.1763 -2.9181685,-3.1839 -2.9181685,-5.46 0,-1.2023 0.3237072,-2.3303 0.8884097,-3.2992 3.2357023,3.9691 8.0690283,6.5824 13.5213153,6.8559 -0.111756,-0.4801 -0.170187,-0.9816 -0.170187,-1.4958 0,-3.6229 2.937888,-6.5607 6.560804,-6.5607 z" />
  </g>
</svg>
