<?xml version="1.0" encoding="UTF-8" standalone="no"?>
<svg
   width="40"
   height="40"
   fill="currentColor"
   class="bi bi-github"
   viewBox="0 0 40 40"
   version="1.1"
   id="svg1"
   sodipodi:docname="icon_github_circle.svg"
   inkscape:version="1.3.2 (091e20e, 2023-11-25)"
   xmlns:inkscape="http://www.inkscape.org/namespaces/inkscape"
   xmlns:sodipodi="http://sodipodi.sourceforge.net/DTD/sodipodi-0.dtd"
   xmlns="http://www.w3.org/2000/svg"
   xmlns:svg="http://www.w3.org/2000/svg">
  <defs
     id="defs1" />
  <sodipodi:namedview
     id="namedview1"
     pagecolor="#808080"
     bordercolor="#000000"
     borderopacity="0.25"
     inkscape:showpageshadow="2"
     inkscape:pageopacity="0.0"
     inkscape:pagecheckerboard="0"
     inkscape:deskcolor="#d1d1d1"
     inkscape:zoom="14.324246"
     inkscape:cx="14.730269"
     inkscape:cy="26.004859"
     inkscape:window-width="1792"
     inkscape:window-height="1067"
     inkscape:window-x="0"
     inkscape:window-y="25"
     inkscape:window-maximized="0"
     inkscape:current-layer="svg1" />
  <path
     d="M 20,0 C 8.95,0 0,8.95 0,20 c 0,8.85 5.725,16.325 13.675,18.975 1,0.175 1.375,-0.425 1.375,-0.95 0,-0.475 -0.025,-2.05 -0.025,-3.725 C 10,35.225 8.7,33.075 8.3,31.95 8.075,31.375 7.1,29.6 6.25,29.125 5.55,28.75 4.55,27.825 6.225,27.8 c 1.575,-0.025 2.7,1.45 3.075,2.05 1.8,3.025 4.675,2.175 5.825,1.65 0.175,-1.3 0.7,-2.175 1.275,-2.675 -4.45,-0.5 -9.1,-2.225 -9.1,-9.875 0,-2.175 0.775,-3.975 2.05,-5.375 -0.2,-0.5 -0.9,-2.55 0.2,-5.3 0,0 1.675,-0.525 5.5,2.05 1.6,-0.45 3.3,-0.675 5,-0.675 1.7,0 3.4,0.225 5,0.675 3.825,-2.6 5.5,-2.05 5.5,-2.05 1.1,2.75 0.4,4.8 0.2,5.3 1.275,1.4 2.05,3.175 2.05,5.375 0,7.675 -4.675,9.375 -9.125,9.875 0.725,0.625 1.35,1.825 1.35,3.7 0,2.675 -0.025,4.825 -0.025,5.5 0,0.525 0.375,1.15 1.375,0.95 A 20.025,20.025 0 0 0 40,20 C 40,8.95 31.05,0 20,0"
     id="path1"
     style="stroke-width:1;fill:#ffffff" />
</svg>
