<?xml version="1.0" encoding="UTF-8" standalone="no"?>
<svg
   width="40"
   height="40"
   fill="currentColor"
   class="bi bi-youtube"
   viewBox="0 0 40 40"
   version="1.1"
   id="svg1"
   sodipodi:docname="icon_youtube_circle.svg"
   inkscape:version="1.3.2 (091e20e, 2023-11-25)"
   xmlns:inkscape="http://www.inkscape.org/namespaces/inkscape"
   xmlns:sodipodi="http://sodipodi.sourceforge.net/DTD/sodipodi-0.dtd"
   xmlns="http://www.w3.org/2000/svg"
   xmlns:svg="http://www.w3.org/2000/svg">
  <defs
     id="defs1" />
  <sodipodi:namedview
     id="namedview1"
     pagecolor="#808080"
     bordercolor="#000000"
     borderopacity="0.25"
     inkscape:showpageshadow="2"
     inkscape:pageopacity="0.0"
     inkscape:pagecheckerboard="0"
     inkscape:deskcolor="#d1d1d1"
     inkscape:zoom="14.75"
     inkscape:cx="14.644068"
     inkscape:cy="43.084746"
     inkscape:window-width="1792"
     inkscape:window-height="1067"
     inkscape:window-x="0"
     inkscape:window-y="25"
     inkscape:window-maximized="0"
     inkscape:current-layer="svg1" />
  <path
     id="path2"
     style="fill:#ffffff;stroke:none;stroke-width:0.148;stroke-linecap:square;stroke-linejoin:round;stroke-miterlimit:4.1;paint-order:markers stroke fill"
     d="M 20,0 A 20,20 0 0 0 0,20 20,20 0 0 0 20,40 20,20 0 0 0 40,20 20,20 0 0 0 20,0 Z m 0.09208,9.9651227 h 0.15904 c 1.467947,0.00536 8.905512,0.057776 10.910993,0.5970983 a 3.5895101,3.5895101 0 0 1 2.526507,2.536273 c 0.180368,0.678612 0.307695,1.577342 0.393415,2.504185 l 0.01814,0.185547 0.03906,0.464564 0.01395,0.185547 c 0.116078,1.632244 0.130747,3.160749 0.132533,3.494699 v 0.133928 c -0.0018,0.34645 -0.01791,1.978746 -0.146484,3.678851 l -0.01395,0.186941 -0.01674,0.186942 c -0.08929,1.021492 -0.221696,2.035334 -0.419922,2.781808 a 3.5895101,3.5895101 0 0 1 -2.526507,2.536273 c -2.071555,0.557177 -9.945412,0.595312 -11.036551,0.597098 h -0.253906 c -0.55182,0 -2.833,-0.0099 -5.226005,-0.09208 l -0.304129,-0.01116 -0.154855,-0.007 -0.305524,-0.01256 -0.305525,-0.01256 c -1.982271,-0.08747 -3.8694283,-0.2288 -4.7391245,-0.464529 A 3.5895101,3.5895101 0 0 1 6.3085937,26.901506 C 6.1103668,26.156818 5.9779632,25.14119 5.8886719,24.119698 L 5.8747209,23.931361 5.8607699,23.745815 A 55.360603,55.360603 0 0 1 5.7142855,20.110212 v -0.220424 c 0.00357,-0.383952 0.017962,-1.710847 0.1143973,-3.175223 l 0.012556,-0.184152 0.00558,-0.09208 0.013951,-0.185547 0.039063,-0.464565 0.018136,-0.185547 c 0.08572,-0.926843 0.2130465,-1.827358 0.3934149,-2.504185 a 3.5895101,3.5895101 0 0 1 2.5265069,-2.536272 c 0.8696963,-0.232157 2.7568524,-0.373878 4.7391184,-0.46317 l 0.304129,-0.01256 0.30692,-0.01116 0.15346,-0.0056 0.305524,-0.01256 a 178.58259,178.58259 0 0 1 5.100446,-0.09068 z m -2.947828,5.7324213 v 8.603516 l 7.42327,-4.299665 z" />
</svg>
