<?xml version="1.0" encoding="UTF-8" standalone="no"?>
<svg
   width="40"
   height="40"
   fill="currentColor"
   class="bi bi-youtube"
   viewBox="0 0 40 40"
   version="1.1"
   id="svg1"
   sodipodi:docname="icon_youtube.svg"
   inkscape:version="1.3.2 (091e20e, 2023-11-25)"
   xmlns:inkscape="http://www.inkscape.org/namespaces/inkscape"
   xmlns:sodipodi="http://sodipodi.sourceforge.net/DTD/sodipodi-0.dtd"
   xmlns="http://www.w3.org/2000/svg"
   xmlns:svg="http://www.w3.org/2000/svg">
  <defs
     id="defs1" />
  <sodipodi:namedview
     id="namedview1"
     pagecolor="#808080"
     bordercolor="#000000"
     borderopacity="0.25"
     inkscape:showpageshadow="2"
     inkscape:pageopacity="0.0"
     inkscape:pagecheckerboard="0"
     inkscape:deskcolor="#d1d1d1"
     inkscape:zoom="14.75"
     inkscape:cx="14.915254"
     inkscape:cy="24.372881"
     inkscape:window-width="1792"
     inkscape:window-height="1067"
     inkscape:window-x="0"
     inkscape:window-y="25"
     inkscape:window-maximized="0"
     inkscape:current-layer="svg1" />
  <path
     d="m 20.128759,5.950372 h 0.222514 c 2.055128,0.0075 12.468279,0.0825 15.275955,0.837552 a 5.0253142,5.0253142 0 0 1 3.537721,3.550222 c 0.252516,0.950059 0.430027,2.207638 0.550035,3.505219 l 0.025,0.260016 0.055,0.650041 0.02,0.260016 c 0.16251,2.285143 0.182511,4.425277 0.185011,4.892806 v 0.187512 c -0.0025,0.48503 -0.025,2.770173 -0.205012,5.150322 l -0.02,0.262516 -0.0225,0.260017 c -0.125008,1.430089 -0.31002,2.850178 -0.587537,3.895243 a 5.0253142,5.0253142 0 0 1 -3.537721,3.550222 c -2.900181,0.780049 -13.92337,0.835052 -15.450966,0.837552 h -0.355018 c -0.772548,0 -3.967748,-0.015 -7.317958,-0.130008 l -0.425026,-0.015 -0.217514,-0.01 -0.427528,-0.0175 -0.427526,-0.0175 C 8.2305155,33.737113 5.5878505,33.5396 4.3702745,33.20958 A 5.0253142,5.0253142 0 0 1 0.8325535,29.661854 C 0.5550355,28.619289 0.3700245,27.1967 0.2450165,25.766611 l -0.02,-0.262517 -0.02,-0.260016 A 77.504845,77.504845 0 0 1 4.5e-6,20.15376 v -0.30752 c 0.005,-0.537533 0.025,-2.395149 0.16001,-4.445278 l 0.0175,-0.257516 0.0075,-0.130008 0.02,-0.260016 0.055,-0.650041 0.025,-0.260016 c 0.120008,-1.297581 0.297519,-2.55766 0.550035,-3.505219 a 5.0253142,5.0253142 0 0 1 3.537721,-3.550222 c 1.217576,-0.32502 3.860241,-0.525033 6.6354155,-0.650041 l 0.425026,-0.0175 0.430027,-0.015 0.215014,-0.0075 0.427526,-0.0175 a 250.01563,250.01563 0 0 1 7.140446,-0.127508 z m -4.127758,8.025501 v 12.045753 l 10.39315,-6.020376 z"
     id="path1"
     style="stroke-width:1;fill:#ffffff" />
</svg>
