<?xml version="1.0" encoding="UTF-8" standalone="no"?>
<!-- Created with Inkscape (http://www.inkscape.org/) -->

<svg
   width="600"
   height="164"
   viewBox="0 0 600 164"
   id="svg2"
   version="1.1"
   inkscape:version="1.3.2 (091e20e, 2023-11-25)"
   sodipodi:docname="jurbly_title.svg"
   xmlns:inkscape="http://www.inkscape.org/namespaces/inkscape"
   xmlns:sodipodi="http://sodipodi.sourceforge.net/DTD/sodipodi-0.dtd"
   xmlns:xlink="http://www.w3.org/1999/xlink"
   xmlns="http://www.w3.org/2000/svg"
   xmlns:svg="http://www.w3.org/2000/svg"
   xmlns:rdf="http://www.w3.org/1999/02/22-rdf-syntax-ns#"
   xmlns:cc="http://creativecommons.org/ns#"
   xmlns:dc="http://purl.org/dc/elements/1.1/">
  <defs
     id="defs4">
    <linearGradient
       id="linearGradient4163"
       inkscape:collect="always">
      <stop
         id="stop4165"
         offset="0"
         style="stop-color:#ffffff;stop-opacity:1;" />
      <stop
         id="stop4167"
         offset="1"
         style="stop-color:#f8f0ff;stop-opacity:1" />
    </linearGradient>
    <linearGradient
       inkscape:collect="always"
       xlink:href="#linearGradient4163"
       id="linearGradient4235"
       x1="76.720909"
       y1="50.276005"
       x2="76.720909"
       y2="88.275101"
       gradientUnits="userSpaceOnUse" />
    <linearGradient
       inkscape:collect="always"
       xlink:href="#linearGradient4163"
       id="linearGradient4243"
       x1="72.548019"
       y1="48.332035"
       x2="72.548019"
       y2="86.331131"
       gradientUnits="userSpaceOnUse" />
    <linearGradient
       inkscape:collect="always"
       xlink:href="#linearGradient4163"
       id="linearGradient4251"
       x1="72.303703"
       y1="48.960087"
       x2="72.303703"
       y2="86.959183"
       gradientUnits="userSpaceOnUse" />
    <linearGradient
       inkscape:collect="always"
       xlink:href="#linearGradient4163"
       id="linearGradient4259"
       x1="73.403297"
       y1="47.853519"
       x2="73.403297"
       y2="85.852615"
       gradientUnits="userSpaceOnUse" />
    <linearGradient
       inkscape:collect="always"
       xlink:href="#linearGradient4163"
       id="linearGradient4267"
       x1="81.626823"
       y1="50.246098"
       x2="81.626823"
       y2="88.245193"
       gradientUnits="userSpaceOnUse" />
    <linearGradient
       inkscape:collect="always"
       xlink:href="#linearGradient4163"
       id="linearGradient4293"
       gradientUnits="userSpaceOnUse"
       x1="77.54776"
       y1="49.109623"
       x2="77.54776"
       y2="87.108719" />
  </defs>
  <sodipodi:namedview
     id="base"
     pagecolor="#808080"
     bordercolor="#666666"
     borderopacity="1.0"
     inkscape:pageopacity="0"
     inkscape:pageshadow="2"
     inkscape:zoom="1.3590961"
     inkscape:cx="280.33338"
     inkscape:cy="118.0932"
     inkscape:document-units="px"
     inkscape:current-layer="svg2"
     showgrid="false"
     inkscape:window-width="1792"
     inkscape:window-height="1067"
     inkscape:window-x="0"
     inkscape:window-y="25"
     inkscape:window-maximized="0"
     units="px"
     inkscape:snap-page="true"
     showguides="true"
     inkscape:guide-bbox="true"
     inkscape:snap-bbox="true"
     inkscape:bbox-paths="true"
     inkscape:snap-bbox-midpoints="false"
     inkscape:snap-bbox-edge-midpoints="false"
     inkscape:bbox-nodes="false"
     inkscape:showpageshadow="2"
     inkscape:pagecheckerboard="0"
     inkscape:deskcolor="#d1d1d1" />
  <metadata
     id="metadata7">
    <rdf:RDF>
      <cc:Work
         rdf:about="">
        <dc:format>image/svg+xml</dc:format>
        <dc:type
           rdf:resource="http://purl.org/dc/dcmitype/StillImage" />
      </cc:Work>
    </rdf:RDF>
  </metadata>
  <g
     id="g28"
     style="opacity:0.3;fill:#000000"
     transform="matrix(2.5115892,0,0,2.5115892,41.877799,-191.19473)">
    <path
       id="path17"
       style="color:#000000;-inkscape-font-specification:'Luckiest Guy';fill:#000000;stroke-linecap:square;stroke-miterlimit:4.1;-inkscape-stroke:none"
       d="m 130.77148,90.402344 c -1.35848,0 -2.75714,0.07928 -4.19726,0.234375 -1.43463,0.13291 -2.87878,0.342992 -4.33203,0.628906 -1.43841,0.26555 -2.85443,0.606937 -4.25,1.027344 -1.39716,0.399192 -2.72038,0.856418 -3.96875,1.36914 l -0.5586,0.228516 0.0684,43.089845 0.50196,0.24805 c 1.28362,0.63054 2.64284,1.15984 4.07812,1.58593 l 0.006,0.002 0.006,0.002 c 1.42084,0.39961 2.86415,0.72085 4.32812,0.96484 1.46282,0.24381 2.9267,0.40933 4.39063,0.49805 1.47047,0.10946 2.88827,0.16406 4.25391,0.16406 1.39068,0 2.87618,-0.0543 4.45703,-0.16406 1.62438,-0.11134 3.23975,-0.33421 4.84179,-0.66797 1.61086,-0.33559 3.1579,-0.79556 4.63868,-1.3789 l 0.004,-0.002 0.002,-0.002 c 1.53077,-0.61689 2.89343,-1.41074 4.07617,-2.38477 1.20083,-0.98892 2.16075,-2.2021 2.86523,-3.60937 0.74782,-1.4506 1.10938,-3.15014 1.10938,-5.06055 0,-1.54457 -0.24476,-3.01543 -0.73438,-4.39453 -0.46559,-1.37192 -1.14639,-2.61815 -2.03515,-3.71875 -0.86991,-1.10393 -1.93995,-2.04224 -3.19336,-2.80859 -0.60491,-0.37627 -1.33897,-0.56656 -2.00782,-0.85157 0.43435,-0.19808 0.93478,-0.30133 1.33203,-0.55078 l 0.006,-0.004 0.006,-0.004 c 1.01364,-0.66005 1.88387,-1.45878 2.59766,-2.38672 0.71451,-0.92886 1.26359,-1.97812 1.64062,-3.13281 0.37852,-1.15922 0.56641,-2.39595 0.56641,-3.69727 0,-1.93164 -0.28625,-3.66894 -0.875,-5.20117 -0.55592,-1.503131 -1.34882,-2.839478 -2.37695,-3.986327 l -0.002,-0.002 c -0.99795,-1.136744 -2.17451,-2.090899 -3.51367,-2.853516 -1.31756,-0.771827 -2.73423,-1.396608 -4.24804,-1.871093 -1.50733,-0.472444 -3.08013,-0.808112 -4.71485,-1.009766 h -0.002 c -1.59801,-0.199673 -3.18744,-0.300781 -4.76563,-0.300781 z m 1.10743,15.603516 c 0.23472,0 0.54332,0.045 0.91406,0.15625 l 0.004,0.002 0.006,0.002 c 0.35134,0.10038 0.65662,0.25396 0.9375,0.46875 l 0.01,0.008 0.01,0.008 c 0.28217,0.20379 0.51908,0.46601 0.72265,0.82227 l 0.004,0.008 0.006,0.008 c 0.16148,0.26915 0.26172,0.62762 0.26172,1.13281 0,0.85191 -0.19358,1.40996 -0.50977,1.80079 -0.38694,0.45506 -0.84828,0.79787 -1.41992,1.04882 -0.59265,0.24753 -1.21251,0.41149 -1.86524,0.48828 -0.33523,0.0394 -0.54378,0.0384 -0.82226,0.0586 l 0.15234,-5.63477 c 0.19687,-0.0751 0.38842,-0.16038 0.5918,-0.22461 0.32582,-0.10289 0.65401,-0.15234 0.99805,-0.15234 z m -0.84571,14.12695 c 0.3826,0 0.82365,0.0472 1.32032,0.14649 l 0.0156,0.004 0.0176,0.002 c 0.41972,0.0672 0.78946,0.2112 1.14062,0.44531 l 0.0137,0.01 0.0117,0.008 c 0.32182,0.19922 0.59522,0.47796 0.83594,0.89062 l 0.008,0.0117 0.006,0.0117 c 0.21202,0.33922 0.35157,0.83674 0.35157,1.54297 0,0.70623 -0.13978,1.18242 -0.3418,1.49219 l -0.008,0.0117 -0.008,0.0117 c -0.23472,0.38563 -0.51895,0.67534 -0.875,0.9043 -0.38514,0.2255 -0.78715,0.38049 -1.22265,0.46875 -0.49386,0.0779 -0.94118,0.11719 -1.33203,0.11719 -0.25164,0 -0.51956,-0.0197 -0.80274,-0.0566 -0.0548,-0.0117 -0.11442,-0.0235 -0.16992,-0.0352 l 0.10156,-5.88672 c 0.31036,-0.0384 0.61103,-0.0996 0.9375,-0.0996 z" />
    <path
       id="path19"
       style="color:#000000;-inkscape-font-specification:'Luckiest Guy';fill:#000000;stroke-linecap:square;stroke-miterlimit:4.1;-inkscape-stroke:none"
       d="m 92.849609,90.142578 c -1.618375,0 -3.205339,0.04546 -4.759765,0.132813 -1.544712,0.0662 -3.079319,0.207246 -4.603516,0.427734 -1.510661,0.199941 -3.02003,0.49036 -4.527344,0.867187 -1.509446,0.377362 -3.037269,0.852514 -4.585937,1.427735 l -0.554688,0.207031 -0.03125,0.589844 c -0.130721,2.505462 -0.22008,4.990035 -0.263671,7.453128 -0.04341,2.45266 -0.08551,4.92644 -0.128907,7.42187 -0.130158,4.94636 -0.250894,9.87206 -0.359375,14.77539 v 0.002 0.002 c -0.08678,4.90322 -0.184489,9.82874 -0.292968,14.77539 l -0.01953,0.91992 h 15.779297 l 0.587891,-13.57031 2.548828,-0.082 5.052734,13.97851 16.626952,-3.25195 -7.97656,-14.21484 c 1.13134,-0.76673 2.21699,-1.54627 3.07812,-2.38868 1.05677,-1.03381 1.92746,-2.16838 2.60156,-3.40039 0.6737,-1.23122 1.15819,-2.57725 1.45704,-4.02343 0.31938,-1.46218 0.47656,-3.06245 0.47656,-4.80664 0,-2.83253 -0.56961,-5.3647 -1.73242,-7.550786 -1.12017,-2.146733 -2.63133,-3.957647 -4.51172,-5.402343 -1.87014,-1.436816 -4.02592,-2.507896 -6.44141,-3.208985 -2.385854,-0.720258 -4.861914,-1.080078 -7.419919,-1.080078 z m -1.238281,12.933592 c 0.87656,0 1.590167,0.1445 2.166016,0.40625 l 0.01563,0.008 0.01563,0.006 c 0.619587,0.25513 1.097611,0.60257 1.478515,1.05274 l 0.01172,0.0137 0.01367,0.0137 c 0.405312,0.44055 0.704625,0.96554 0.908203,1.61328 l 0.0039,0.0117 0.0039,0.01 c 0.224647,0.65522 0.341797,1.3891 0.341796,2.21484 0,0.94743 -0.208185,1.69262 -0.605468,2.31445 l -0.0059,0.008 -0.0039,0.008 c -0.408041,0.66771 -0.934061,1.20386 -1.605469,1.63281 l -0.0059,0.004 -0.0039,0.004 c -0.666231,0.43782 -1.433332,0.76514 -2.322266,0.98243 l -0.0039,0.002 h -0.002 c -0.834905,0.20873 -1.649675,0.29995 -2.455078,0.3125 L 90.005859,103.25 c 0.143806,-0.025 0.282074,-0.0665 0.429688,-0.082 l 0.02344,-0.002 0.02344,-0.004 c 0.364177,-0.0575 0.739836,-0.0859 1.128906,-0.0859 z" />
    <path
       id="path21"
       style="color:#000000;-inkscape-font-specification:'Luckiest Guy';fill:#000000;stroke-linecap:square;stroke-miterlimit:4.1;-inkscape-stroke:none"
       d="m 28.857422,81.125 -19.7070314,1.291016 0.068359,0.90625 c 0.3137446,4.130965 0.6793376,8.261662 1.0976564,12.392578 0.414457,4.066855 0.621094,8.159946 0.621094,12.279296 0,1.13466 -0.02456,2.28391 -0.07617,3.44531 v 0.01 l -0.002,0.01 c -0.0252,1.13414 -0.125005,2.24054 -0.300781,3.32032 l -0.002,0.008 v 0.01 c -0.147112,1.02976 -0.404596,2.00322 -0.769532,2.92773 l -0.00195,0.008 -0.00195,0.006 C 9.45408,118.60716 9.0045958,119.35391 8.4277344,120 c -0.5582839,0.62528 -1.2608108,1.12009 -2.1445313,1.49219 -0.8485891,0.3573 -1.9429136,0.55664 -3.2910156,0.55664 -2.09099459,0 -3.9929737,-0.42593 -5.7441406,-1.27539 l -0.00195,-0.002 C -4.5499868,119.8731 -6.1825804,118.71656 -7.6582,117.29098 l -1.2558594,-1.21485 -2.7597656,18.42188 0.371094,0.32422 c 1.100251,0.9627 2.3472599,1.81056 3.7343747,2.54492 l 0.00781,0.006 0.00977,0.004 c 1.3983614,0.69918 2.851074,1.28988 4.3554687,1.77344 l 0.00195,0.002 h 0.00195 c 1.5286427,0.48273 3.06053037,0.84581 4.59375,1.08789 h 0.00195 c 1.5547139,0.24125 3.0502534,0.36329 4.484375,0.36329 3.6573752,0 6.9392596,-0.6602 9.8144526,-2.00196 2.844682,-1.32752 5.275906,-3.14164 7.263672,-5.42773 2.004053,-2.27488 3.584792,-4.9166 4.742187,-7.9043 h 0.002 v -0.002 c 1.153152,-3.00356 1.875928,-6.18064 2.169921,-9.52149 0.158793,-1.5653 0.238282,-3.11737 0.238282,-4.6582 v -4.58008 c 0,-8.171324 -0.392068,-16.342737 -1.177735,-24.513669 z" />
    <path
       id="path23"
       style="color:#000000;-inkscape-font-specification:'Luckiest Guy';fill:#000000;stroke-linecap:square;stroke-miterlimit:4.1;-inkscape-stroke:none"
       d="m 194.7832,92.583984 -18.58398,2.332032 9.66016,25.062504 -0.40626,20.98828 h 17.21094 l 0.8711,-20.97266 18.68359,-26.089843 -17.78516,-1.259766 -7.33007,12.464849 z" />
    <path
       id="path25"
       style="color:#000000;-inkscape-font-specification:'Luckiest Guy';fill:#000000;stroke-linecap:square;stroke-miterlimit:4.1;-inkscape-stroke:none"
       d="m 153.92383,90.728516 -0.0274,0.871093 c -0.23879,7.576245 -0.44547,15.110121 -0.61914,22.599611 v 0.002 c -0.15193,7.4879 -0.2936,15.01906 -0.42382,22.59375 l -0.0156,0.99024 29.15039,-2.28516 1.44141,-15.24805 v -0.94336 h -0.90039 c -1.22065,0 -2.41807,0.0114 -3.59571,0.0332 -1.16611,0.0216 -2.35454,0.0332 -3.56445,0.0332 h -3.02734 c -0.68085,0 -1.37493,-0.0245 -2.06641,-0.0449 0.19774,-4.48794 0.48519,-8.94588 0.91016,-13.35742 0.45546,-4.7499 0.93279,-9.500101 1.43164,-14.250004 l 0.10547,-0.99414 z" />
    <path
       id="path27"
       style="color:#000000;-inkscape-font-specification:'Luckiest Guy';fill:#000000;stroke-linecap:square;stroke-miterlimit:4.1;-inkscape-stroke:none"
       d="m 54.714844,92.550781 0.0625,0.958985 c 0.107738,1.659136 0.181507,3.328686 0.224609,5.009765 v 0.0059 l 0.002,0.0059 c 0.06465,1.659189 0.0957,3.330549 0.0957,5.011719 0,0.44145 -0.0096,1.13274 -0.03125,2.0625 -0.02126,0.91435 -0.07609,1.97543 -0.162109,3.17969 v 0.008 0.008 c -0.06438,1.20185 -0.16172,2.50359 -0.291016,3.9043 v 0.006 0.008 c -0.107099,1.39229 -0.258343,2.7851 -0.451172,4.17773 -0.192397,1.38955 -0.426147,2.72361 -0.703124,4.00196 -0.273993,1.26459 -0.599721,2.36942 -0.96875,3.3125 l -0.002,0.01 -0.0039,0.008 c -0.341911,0.92516 -0.734198,1.63426 -1.146484,2.13867 -0.375879,0.43968 -0.655201,0.56054 -1.003906,0.56054 -0.2638,0 -0.446678,-0.0775 -0.730469,-0.41796 -0.311758,-0.40154 -0.609778,-0.94884 -0.865235,-1.65625 -0.262425,-0.72672 -0.47695,-1.53388 -0.642578,-2.42188 -0.147984,-0.93189 -0.265167,-1.83062 -0.349609,-2.69531 v -0.004 c -0.08583,-0.90163 -0.148872,-1.70634 -0.191406,-2.4082 -0.0208,-0.71381 -0.03125,-1.26049 -0.03125,-1.60547 0,-3.43464 0.203767,-6.84713 0.611328,-10.23828 v -0.008 c 0.432188,-3.43522 0.940137,-6.848459 1.523437,-10.240237 l 0.173828,-1.013672 -17.037109,-0.654297 -0.142578,0.763672 c -0.568909,3.041469 -1.006127,6.094464 -1.3125,9.158204 -0.306708,3.04582 -0.460938,6.10434 -0.460938,9.17187 0,2.0012 0.08828,4.08536 0.263672,6.25586 v 0.008 0.004 c 0.198998,2.16686 0.542607,4.30268 1.029297,6.4043 v 0.002 c 0.490605,2.09622 1.172878,4.09549 2.044922,5.99609 v 0.002 l 0.002,0.002 c 0.885062,1.90629 2.026553,3.59866 3.419922,5.06055 l 0.002,0.002 0.002,0.002 c 1.406477,1.45259 3.093783,2.60724 5.035157,3.45313 2.003147,0.88511 4.323819,1.31445 6.939453,1.31445 2.247652,0 4.32326,-0.38802 6.199218,-1.17383 l 0.0039,-0.002 c 1.848908,-0.75379 3.523016,-1.79815 5.007812,-3.12305 h 0.002 c 1.494342,-1.33585 2.805459,-2.88618 3.931641,-4.64257 l 0.002,-0.002 c 1.1354,-1.75905 2.125032,-3.63844 2.96875,-5.63672 0.841416,-1.99282 1.538796,-4.06258 2.091797,-6.20703 0.570984,-2.15216 1.032702,-4.2729 1.384766,-6.36328 0.351296,-2.08583 0.603662,-4.10845 0.757812,-6.06836 0.153439,-1.95086 0.230469,-3.74268 0.230469,-5.37695 0,-3.10695 -0.131807,-6.172032 -0.394531,-9.193359 l -0.07031,-0.822266 z" />
  </g>
  <text
     xml:space="preserve"
     style="font-size:201.36px;font-family:'Luckiest Guy';-inkscape-font-specification:'Luckiest Guy';display:inline;fill:#ffffff;fill-opacity:1;stroke:#555555;stroke-width:4.52086;stroke-linecap:square;stroke-linejoin:miter;stroke-miterlimit:4.1;stroke-dasharray:none;stroke-opacity:1;paint-order:normal"
     x="3.6369138"
     y="144.62816"
     id="text1"
     inkscape:label="text1"><tspan
       sodipodi:role="line"
       id="tspan1"
       x="3.6369138"
       y="144.62816"
       style="fill:#ffffff;fill-opacity:1;stroke:#555555;stroke-width:4.52086;stroke-linejoin:miter;stroke-dasharray:none;stroke-opacity:1;paint-order:normal">J<tspan
   style="font-size:167.439px;fill:#ffffff;fill-opacity:1;stroke:#555555;stroke-width:4.52086;stroke-linejoin:miter;stroke-dasharray:none;stroke-opacity:1;paint-order:normal"
   id="tspan2">URBLY</tspan></tspan></text>
</svg>
