<?xml version="1.0" encoding="UTF-8" standalone="no"?>
<!-- Created with Inkscape (http://www.inkscape.org/) -->

<svg
   width="1024"
   height="1024"
   viewBox="0 0 1024 1024"
   id="svg4262"
   version="1.1"
   inkscape:version="1.2.2 (b0a8486, 2022-12-01)"
   sodipodi:docname="jurbly_icon.svg"
   inkscape:export-filename=""
   inkscape:export-xdpi="14.06"
   inkscape:export-ydpi="14.06"
   xmlns:inkscape="http://www.inkscape.org/namespaces/inkscape"
   xmlns:sodipodi="http://sodipodi.sourceforge.net/DTD/sodipodi-0.dtd"
   xmlns="http://www.w3.org/2000/svg"
   xmlns:svg="http://www.w3.org/2000/svg"
   xmlns:rdf="http://www.w3.org/1999/02/22-rdf-syntax-ns#"
   xmlns:cc="http://creativecommons.org/ns#"
   xmlns:dc="http://purl.org/dc/elements/1.1/">
  <defs
     id="defs4264" />
  <sodipodi:namedview
     id="base"
     pagecolor="#808080"
     bordercolor="#666666"
     borderopacity="1.0"
     inkscape:pageopacity="0"
     inkscape:pageshadow="2"
     inkscape:zoom="0.24748737"
     inkscape:cx="256.57875"
     inkscape:cy="521.23872"
     inkscape:document-units="px"
     inkscape:current-layer="layer2"
     showgrid="false"
     inkscape:window-width="1309"
     inkscape:window-height="456"
     inkscape:window-x="0"
     inkscape:window-y="25"
     inkscape:window-maximized="0"
     units="px"
     showguides="true"
     inkscape:guide-bbox="true"
     inkscape:object-paths="true"
     inkscape:snap-intersection-paths="true"
     inkscape:object-nodes="true"
     inkscape:snap-smooth-nodes="true"
     inkscape:snap-midpoints="true"
     inkscape:snap-nodes="true"
     inkscape:snap-others="false"
     inkscape:snap-object-midpoints="false"
     inkscape:snap-center="true"
     inkscape:snap-bbox="true"
     inkscape:bbox-paths="false"
     inkscape:snap-global="true"
     inkscape:showpageshadow="0"
     inkscape:pagecheckerboard="1"
     inkscape:deskcolor="#808080" />
  <metadata
     id="metadata4267">
    <rdf:RDF>
      <cc:Work
         rdf:about="">
        <dc:format>image/svg+xml</dc:format>
        <dc:type
           rdf:resource="http://purl.org/dc/dcmitype/StillImage" />
      </cc:Work>
    </rdf:RDF>
  </metadata>
  <g
     inkscape:groupmode="layer"
     id="layer2"
     inkscape:label="Logo"
     style="display:inline"
     transform="translate(0,724)">
    <path
       sodipodi:nodetypes="ssscssscssscssscs"
       inkscape:connector-curvature="0"
       d="m 1024,-362 c 0,-172 0,-227.16916 -67.41544,-294.58458 C 889.16914,-724 833.99998,-724 661.99998,-724 l -150,0 l -150,0 c -171.99997,0 -227.16917,0 -294.584565,67.41542 C 1.5e-5,-589.16916 1.5e-5,-534 1.5e-5,-362 l 0,150 l 0,150 c 0,172 0,227.16916 67.4154,294.58458 C 134.83082,300 190.00001,300 361.99998,300 l 150,0 l 150,0 c 172,0 227.16916,0 294.58458,-67.41542 C 1024,165.16916 1024,110 1024,-62 l 0,-150 z"
       style="display:inline;opacity:1;fill:#aa0000;fill-opacity:1;stroke:none;stroke-width:2;stroke-linecap:square;stroke-linejoin:miter;stroke-miterlimit:4;stroke-dasharray:none;stroke-dashoffset:0;stroke-opacity:1"
       id="path4507" />
    <g
       id="g4509"
       transform="matrix(0.96875,0,0,0.96875,16,-6.625)">
      <path
         sodipodi:nodetypes="ssscssscssscssscs"
         inkscape:connector-curvature="0"
         d="m 1024,-362 c 0,-172 0,-227.16916 -67.41542,-294.58458 C 889.16916,-724 834,-724 662,-724 l -150,0 l -150,0 c -172,0 -227.1692,0 -294.5846,67.41542 C 0,-589.16916 0,-534 0,-362 l 0,150 L 0,-62 C 0,110 0,165.16916 67.4154,232.58458 C 134.8308,300 190,300 362,300 l 150,0 l 150,0 c 172,0 227.16916,0 294.58458,-67.41542 C 1024,165.16916 1024,110 1024,-62 l 0,-150 z"
         style="display:inline;opacity:1;fill:#ffffff;fill-opacity:1;stroke:none;stroke-width:2;stroke-linecap:square;stroke-linejoin:miter;stroke-miterlimit:4;stroke-dasharray:none;stroke-dashoffset:0;stroke-opacity:1"
         id="path4176" />
      <path
         sodipodi:nodetypes="ssccccssccccsssssssssssscccccccccccssccccssscccsssscccssssscccssssscccsssscccssscsssccscccsscsccsscscccccccccccccsccsccssscscsccsccscssccccscssccssccscsscccccsccscccscc"
         inkscape:connector-curvature="0"
         id="path4391"
         transform="translate(0,-724)"
         d="m 384.83594,105.17383 c -22.94183,-0.13018 -46.72657,1.97283 -70.16211,6.10547 c -46.87179,8.26539 -92.29329,24.63546 -126.69727,47.38867 L 211.2168,190.2207 C 271.68994,150.77823 368.56006,133.7 438.87695,150.08008 l 11.05664,-37.60547 c -20.05541,-4.80693 -42.15578,-7.17063 -65.09765,-7.30078 z m 267.62695,0 c -22.94378,0.13059 -45.04011,2.5015 -65.0957,7.30859 l 11.05664,37.59766 c 70.31627,-16.38075 167.18427,0.69857 227.6582,40.14062 l 23.24024,-31.55273 C 814.91856,135.9152 769.50608,119.54335 722.63477,111.2793 c -23.43605,-4.13208 -47.2281,-6.23607 -70.17188,-6.10547 z M 321.36719,283.8418 c -71.00536,1e-5 -128.56641,57.56105 -128.56641,128.5664 c 0,71.00533 57.56105,128.56641 128.56641,128.56641 c 71.00532,0 128.5664,-57.56108 128.5664,-128.56641 c 0,-71.00535 -57.56108,-128.56639 -128.5664,-128.5664 z m 394.5664,0 c -71.00536,1e-5 -128.5664,57.56105 -128.5664,128.5664 c 0,71.00533 57.56104,128.56641 128.5664,128.56641 C 786.93891,540.97461 844.5,483.41353 844.5,412.4082 c 0,-71.00535 -57.56109,-128.56639 -128.56641,-128.5664 z m -446.4414,46.92187 c 23.23914,-0.003 42.08003,18.8331 42.08203,42.07227 c -0.002,23.23913 -18.84289,42.07722 -42.08203,42.07422 c -23.23579,-0.002 -42.07222,-18.83844 -42.07422,-42.07422 c 0.002,-23.23579 18.83843,-42.07027 42.07422,-42.07227 z m 394.5664,0 c 23.23917,-0.003 42.08004,18.8331 42.08203,42.07227 c -0.002,23.23913 -18.84286,42.07722 -42.08203,42.07422 c -23.23579,-0.002 -42.07223,-18.83844 -42.07421,-42.07422 c 0.002,-23.23579 18.83842,-42.07027 42.07421,-42.07227 z M 68.667969,607.47461 c 0,0 48.418001,189.20754 130.783201,254.1543 c 82.36524,64.94686 543.52916,64.31867 625.09766,0 c 81.56849,-64.31854 130.7832,-254.1543 130.7832,-254.1543 z m 74.041011,17.29883 l 112.14063,0 c -0.0817,11.72828 -1.16306,25.57793 -9.21289,30.10742 c -10.42139,5.86404 -32.49976,0.40302 -48.40234,-2.84961 c -15.90252,-3.25263 -37.98292,-6.81819 -48.4043,-16.94531 c -2.82952,-2.74961 -4.75204,-6.34041 -6.1211,-10.3125 z m 112.19336,0 l 123.79493,0 c 0.12527,1.29495 0.25,2.59349 0.25,3.75 c 0,12.20082 1.33632,33.67842 -9.88672,40.76562 c -11.22304,7.08728 -35.00114,4.21802 -52.12696,2.83203 c -17.12586,-1.38598 -40.90391,-2.36177 -52.12695,-11.26562 c -9.54528,-7.57265 -9.9797,-23.80793 -9.9043,-36.08203 z m 124.79102,0 l 131.04297,0 c 0.76172,3.6129 1.21094,6.98847 1.21094,9.80273 c 0,12.30527 1.42707,33.85474 -10.59766,41.63086 c -12.02466,7.77615 -37.50052,6.21476 -55.84961,5.77539 c -18.34909,-0.43933 -43.82498,-0.0993 -55.84961,-8.45117 c -12.02476,-8.35185 -10.59766,-29.82747 -10.59766,-42.13281 c 0,-1.97212 0.26335,-4.24629 0.64063,-6.625 z m 133.57031,0 l 131.04297,0 c 0.37758,2.37871 0.64063,4.65288 0.64063,6.625 c 0,12.30534 1.42707,33.78096 -10.59766,42.13281 c -12.02466,8.35171 -37.50052,8.01184 -55.84961,8.45117 c -18.34913,0.43937 -43.82495,2.00076 -55.84961,-5.77539 c -12.02473,-7.77612 -10.59766,-29.32559 -10.59766,-41.63086 c 0,-2.81426 0.44922,-6.18983 1.21094,-9.80273 z m 132.03906,0 l 123.79493,0 c 0.0753,12.2741 -0.35915,28.50938 -9.9043,36.08203 c -11.22304,8.90385 -35.0011,9.87964 -52.12695,11.26562 c -17.12582,1.38599 -40.90199,4.25525 -52.125,-2.83203 c -11.22307,-7.0872 -9.88868,-28.5648 -9.88868,-40.76562 c 0,-1.15651 0.12439,-2.45505 0.25,-3.75 z m 123.84766,0 l 112.14063,0 c -1.36905,3.97209 -3.29155,7.56289 -6.1211,10.3125 c -10.42139,10.12712 -32.50174,13.69268 -48.4043,16.94531 c -15.90251,3.25263 -37.98096,8.71365 -48.40234,2.84961 c -8.04977,-4.52949 -9.13129,-18.37914 -9.21289,-30.10742 z M 490.11133,754.16406 c 2.79477,1.07493 5.06896,2.3063 6.92578,3.66211 c 0.92836,0.67786 1.75417,1.38894 2.48633,2.1211 C 506.31724,766.74103 512,779.18565 512,785.34375 c 0,-0.76974 0.0912,-1.63721 0.25977,-2.58008 c 1.18047,-6.60029 6.27227,-16.87188 12.21679,-22.8164 c 0.73216,-0.73216 1.55791,-1.44321 2.48633,-2.1211 c 1.85682,-1.35581 4.13101,-2.58718 6.92578,-3.66211 c 5.58947,-2.14992 13.25858,-3.65077 23.82227,-4.16601 c 2.64086,-0.12834 5.46109,-0.19727 8.47656,-0.19727 c 32.00621,0 72.10379,4.16273 97.67969,26.33008 c 1.28041,1.10974 2.52768,2.26311 3.73242,3.46484 c 1.20337,1.2001 2.36799,2.44488 3.49023,3.74024 c 1.12223,1.29536 2.20286,2.63131 3.23828,4.02539 c 7.87655,10.60185 13.11496,24.14871 14.5625,41.32031 c -3.96672,0.3531 -8.01741,0.77317 -12.08593,1.38672 c -10.43552,1.57368 -20.96298,3.76615 -30.02149,10.80469 c -1.27198,0.98836 -1.72751,2.3711 -2.79687,3.47265 c -0.85081,-0.68099 -1.5153,-1.48665 -2.4668,-2.0957 c -12.42918,-7.95589 -26.59282,-8.10105 -40.33398,-8.22461 l -13.41993,-0.12109 l 0,0.36328 c -3.17498,0.0847 -6.78588,0.10567 -9.57812,0.17187 c -8.9456,0.2119 -20.20895,0.21701 -31.2832,1.3086 c -11.07425,1.09079 -22.09017,2.72031 -31.78711,9.38672 c -1.40275,0.96444 -1.9358,2.41523 -3.11719,3.52343 c -1.18139,-1.1082 -1.71448,-2.55899 -3.11719,-3.52343 c -9.69694,-6.66654 -20.71282,-8.29596 -31.78711,-9.38672 c -11.07428,-1.09097 -22.33767,-1.08686 -31.2832,-1.29883 c -2.79255,-0.0662 -6.403,-0.0888 -9.57812,-0.17383 l 0,-0.37109 l -13.41993,0.12109 c -13.74095,0.12369 -27.9047,0.26868 -40.33398,8.22461 c -0.95146,0.60904 -1.61599,1.4147 -2.4668,2.0957 c -1.06936,-1.10159 -1.52489,-2.48428 -2.79687,-3.47265 c -9.05851,-7.0385 -19.58597,-9.23097 -30.02149,-10.80469 c -4.06849,-0.61351 -8.11921,-1.03337 -12.08593,-1.38672 c 1.44758,-17.17156 6.68594,-30.71843 14.5625,-41.32031 c 1.03541,-1.39404 2.11608,-2.73007 3.23828,-4.02539 c 1.12224,-1.29536 2.2869,-2.54011 3.49023,-3.74024 c 1.20334,-1.20012 2.45361,-2.35646 3.73242,-3.46484 c 25.5759,-22.16735 65.67352,-26.33008 89.21531,-26.33105 c 23.54179,-9.8e-4 33.77683,1.67711 40.76321,4.36425 z m -301.82227,74.44922 c 3.02431,0.49422 6.19726,0.98315 8.94532,1.42774 c 15.90252,2.5727 37.98095,5.21009 48.40234,14.8164 c 6.18212,5.69876 8.22299,13.85763 8.89258,22.07031 c -21.83328,-6.19219 -38.37923,-13.07553 -46.84375,-19.75 c -6.61648,-5.21721 -13.09101,-11.50871 -19.39649,-18.56445 z m 647.36133,0.01 c -6.2962,7.0756 -12.75226,13.36335 -19.33594,18.55468 c -8.37618,6.6048 -24.94141,13.46566 -46.83593,19.65625 c 0.67796,-8.18039 2.72656,-16.29985 8.88476,-21.97656 c 10.42138,-9.60649 32.49984,-12.24175 48.40234,-14.81445 c 2.72947,-0.44155 5.88213,-0.92895 8.88477,-1.41992 z m -100.3125,14.57031 c 9.48702,0.0798 18.24398,1.20189 23.85547,4.76367 c 6.42256,4.07501 8.67936,11.35818 9.48047,19.09375 c -18.77333,5.2622 -41.32854,10.0416 -66.52539,13.68164 c -17.85846,2.58001 -37.09698,4.70894 -57.11328,6.4668 c -0.0803,-11.24089 0.31621,-24.36255 9.90429,-31.8125 c 11.22304,-8.72041 35.0011,-9.48073 52.12696,-10.70117 c 8.56292,-0.6102 18.78453,-1.57014 28.27148,-1.49024 z m -446.67578,0.002 c 9.48695,-0.0798 19.70858,0.88004 28.27148,1.49024 c 17.12585,1.22047 40.90396,1.98055 52.12696,10.70117 c 9.61321,7.46937 9.98719,20.64087 9.90429,31.90039 c -19.84962,-1.73376 -38.93752,-3.83155 -56.67187,-6.38281 C 296.92371,877.25501 274.20682,872.4491 255.31641,867.137 c 0.79285,-7.76806 3.04361,-15.08946 9.49023,-19.17969 c 5.61149,-3.56038 14.36845,-4.68182 23.85547,-4.76172 z m 134.27344,8.13086 c 7.79937,-0.0706 15.68352,0.25286 22.56445,0.41602 c 18.34909,0.43445 43.82495,0.0963 55.84961,8.36328 c 10.60554,7.29273 10.72958,21.13965 10.61523,32.69726 c -45.59258,0.0181 -91.11468,-1.85673 -132.93945,-5.50781 c -0.0302,-11.04182 0.73886,-23.50978 10.625,-29.83789 c 7.51541,-4.81058 20.28613,-6.01378 33.28516,-6.13086 z m 178.1289,0 c 12.99903,0.1169 25.76975,1.32025 33.28516,6.13086 c 9.85699,6.30941 10.6523,18.72402 10.625,29.74219 c -41.73906,3.66353 -87.16603,5.57621 -132.67969,5.60351 c -0.0864,7e-5 -0.17336,-3e-5 -0.25976,0 c -0.11428,-11.55758 0.007,-25.40454 10.61523,-32.69726 c 12.02466,-8.26688 37.50048,-7.92879 55.84961,-8.36328 c 6.8809,-0.16281 14.76505,-0.48602 22.56445,-0.41602 z"
         style="opacity:1;fill:#aa0000;fill-opacity:1;fill-rule:nonzero;stroke:none;stroke-width:5;stroke-miterlimit:4;stroke-dasharray:none;stroke-opacity:1" />
    </g>
  </g>
</svg>
