<?xml version="1.0" encoding="UTF-8" standalone="no"?>
<!-- Created with Inkscape (http://www.inkscape.org/) -->

<svg
   width="1000"
   height="300"
   id="svg2"
   version="1.1"
   inkscape:version="1.3 (0e150ed, 2023-07-21)"
   sodipodi:docname="jurbly_featured.svg"
   inkscape:export-xdpi="96"
   inkscape:export-ydpi="96"
   inkscape:export-filename="jurbly_featured.png"
   xmlns:inkscape="http://www.inkscape.org/namespaces/inkscape"
   xmlns:sodipodi="http://sodipodi.sourceforge.net/DTD/sodipodi-0.dtd"
   xmlns="http://www.w3.org/2000/svg"
   xmlns:svg="http://www.w3.org/2000/svg"
   xmlns:rdf="http://www.w3.org/1999/02/22-rdf-syntax-ns#"
   xmlns:cc="http://creativecommons.org/ns#"
   xmlns:dc="http://purl.org/dc/elements/1.1/">
  <defs
     id="defs4" />
  <sodipodi:namedview
     id="base"
     pagecolor="#808080"
     bordercolor="#666666"
     borderopacity="1.0"
     inkscape:pageopacity="0"
     inkscape:pageshadow="2"
     inkscape:zoom="0.44815654"
     inkscape:cx="570.11329"
     inkscape:cy="464.12354"
     inkscape:document-units="px"
     inkscape:current-layer="layer3"
     showgrid="false"
     showguides="true"
     inkscape:guide-bbox="true"
     fit-margin-top="0"
     fit-margin-left="0"
     fit-margin-right="0"
     fit-margin-bottom="0"
     inkscape:window-width="1792"
     inkscape:window-height="1067"
     inkscape:window-x="0"
     inkscape:window-y="25"
     inkscape:window-maximized="0"
     inkscape:showpageshadow="false"
     borderlayer="true"
     showborder="false"
     inkscape:snap-global="false"
     inkscape:snap-page="false"
     inkscape:snap-bbox="true"
     inkscape:pagecheckerboard="1"
     inkscape:deskcolor="#d1d1d1">
    <sodipodi:guide
       orientation="0,1"
       position="-10.429825,316.71547"
       id="guide3101"
       inkscape:locked="false" />
    <sodipodi:guide
       orientation="1,0"
       position="956.5625,-580.1875"
       id="guide3103"
       inkscape:locked="false" />
    <sodipodi:guide
       orientation="0,1"
       position="1246.875,-324.375"
       id="guide3105"
       inkscape:locked="false" />
    <sodipodi:guide
       orientation="1,0"
       position="67.351921,-575.47651"
       id="guide3107"
       inkscape:locked="false" />
    <sodipodi:guide
       orientation="0,1"
       position="961.5,-572.5"
       id="guide3109"
       inkscape:locked="false" />
    <sodipodi:guide
       orientation="1,0"
       position="319.08193,-572.29245"
       id="guide3111"
       inkscape:locked="false" />
    <sodipodi:guide
       orientation="1,0"
       position="511.68014,-572.29245"
       id="guide3113"
       inkscape:locked="false" />
    <sodipodi:guide
       orientation="1,0"
       position="706.1875,-575.26562"
       id="guide3115"
       inkscape:locked="false" />
    <sodipodi:guide
       orientation="0,1"
       position="-21.213203,384"
       id="guide3117"
       inkscape:locked="false" />
    <sodipodi:guide
       orientation="0,1"
       position="0,-640"
       id="guide3119"
       inkscape:locked="false" />
    <sodipodi:guide
       orientation="1,0"
       position="0,402.6289"
       id="guide3121"
       inkscape:locked="false" />
    <sodipodi:guide
       orientation="0,1"
       position="-6.8942911,65"
       id="guide3123"
       inkscape:locked="false" />
    <sodipodi:guide
       orientation="1,0"
       position="1024,397.75"
       id="guide3125"
       inkscape:locked="false" />
    <sodipodi:guide
       orientation="0,1"
       position="-27.223611,-127.34759"
       id="guide3127"
       inkscape:locked="false" />
    <inkscape:grid
       type="xygrid"
       id="grid4235"
       empspacing="5"
       visible="false"
       enabled="true"
       snapvisiblegridlinesonly="true"
       originx="0"
       originy="0"
       spacingy="1"
       spacingx="1"
       units="px" />
    <sodipodi:guide
       orientation="1,0"
       position="511.68014,-209.1068"
       id="guide4003"
       inkscape:locked="false" />
  </sodipodi:namedview>
  <metadata
     id="metadata7">
    <rdf:RDF>
      <cc:Work
         rdf:about="">
        <dc:format>image/svg+xml</dc:format>
        <dc:type
           rdf:resource="http://purl.org/dc/dcmitype/StillImage" />
      </cc:Work>
    </rdf:RDF>
  </metadata>
  <g
     inkscape:groupmode="layer"
     id="layer5"
     inkscape:label="Background"
     style="display:none">
    <rect
       style="opacity:1;fill:#ffffff;fill-opacity:1;stroke:none;stroke-width:2;stroke-linecap:square;stroke-linejoin:miter;stroke-miterlimit:4;stroke-dasharray:none;stroke-dashoffset:0;stroke-opacity:1"
       id="rect4299"
       width="200"
       height="225"
       x="-225"
       y="100"
       transform="matrix(5.12,0,0,4.5511112,1152,-455.11112)" />
  </g>
  <g
     inkscape:groupmode="layer"
     id="layer3"
     inkscape:label="icon"
     style="display:inline">
    <g
       id="g1">
      <path
         style="color:#000000;font-style:normal;font-variant:normal;font-weight:normal;font-stretch:normal;font-size:medium;line-height:normal;font-family:sans-serif;text-indent:0;text-align:start;text-decoration:none;text-decoration-line:none;text-decoration-style:solid;text-decoration-color:#000000;letter-spacing:normal;word-spacing:normal;text-transform:none;writing-mode:lr-tb;direction:ltr;baseline-shift:baseline;text-anchor:start;white-space:normal;clip-rule:nonzero;display:inline;overflow:visible;visibility:visible;isolation:auto;mix-blend-mode:normal;color-interpolation:sRGB;color-interpolation-filters:linearRGB;solid-color:#000000;solid-opacity:1;fill:#fc69b4;fill-opacity:1;fill-rule:nonzero;stroke:none;stroke-width:6.49414;stroke-linecap:butt;stroke-linejoin:miter;stroke-miterlimit:4;stroke-dasharray:none;stroke-dashoffset:0;stroke-opacity:1;color-rendering:auto;image-rendering:auto;shape-rendering:auto;text-rendering:auto;enable-background:accumulate"
         d="M 650,300.00001 V 5.625e-6 H 350.00001 V 300.00001 Z"
         id="path4187"
         inkscape:connector-curvature="0"
         sodipodi:nodetypes="ccccc" />
      <path
         sodipodi:nodetypes="ccccc"
         inkscape:connector-curvature="0"
         id="path4191"
         d="M 650,300.00001 V 5.625e-6 H 350.00001 V 300.00001 Z"
         style="color:#000000;font-style:normal;font-variant:normal;font-weight:normal;font-stretch:normal;font-size:medium;line-height:normal;font-family:sans-serif;text-indent:0;text-align:start;text-decoration:none;text-decoration-line:none;text-decoration-style:solid;text-decoration-color:#000000;letter-spacing:normal;word-spacing:normal;text-transform:none;writing-mode:lr-tb;direction:ltr;baseline-shift:baseline;text-anchor:start;white-space:normal;clip-rule:nonzero;display:inline;overflow:visible;visibility:visible;opacity:0.667;isolation:auto;mix-blend-mode:normal;color-interpolation:sRGB;color-interpolation-filters:linearRGB;solid-color:#000000;solid-opacity:1;fill:#300000;fill-opacity:1;fill-rule:nonzero;stroke:none;stroke-width:6.49414;stroke-linecap:butt;stroke-linejoin:miter;stroke-miterlimit:4;stroke-dasharray:none;stroke-dashoffset:0;stroke-opacity:1;color-rendering:auto;image-rendering:auto;shape-rendering:auto;text-rendering:auto;enable-background:accumulate" />
      <path
         inkscape:connector-curvature="0"
         style="display:inline;fill:#e00000;fill-opacity:1;fill-rule:nonzero;stroke:none;stroke-width:6.49414;stroke-miterlimit:4;stroke-dasharray:none;stroke-opacity:1"
         d="m 484.12487,222.0118 c -15.00292,0 -36.078,3.12134 -36.078,25.97656 0,17.48093 23.26022,35.06836 51.95313,35.06836 28.69292,0 51.95313,-17.58743 51.95313,-35.06836 0,-22.85522 -21.07507,-25.97656 -36.07799,-25.97656 -7.06754,0 -10.50372,1.25717 -12.21965,2.97311 -1.99036,1.99037 -3.65549,5.63622 -3.65549,7.44035 0,-1.80413 -1.66512,-5.44998 -3.65548,-7.44035 -1.71593,-1.71594 -5.15211,-2.97311 -12.21965,-2.97311 z"
         id="path4195" />
      <g
         style="display:inline"
         id="g4198"
         transform="matrix(1.2988281,0,0,1.2988281,305.17578,-28.542794)">
        <g
           transform="matrix(1,0,0,0.98765339,0,2.8804649)"
           id="g4200"
           style="display:inline">
          <path
             style="opacity:1;fill:#ffffff;fill-opacity:1;fill-rule:nonzero;stroke:none;stroke-width:4;stroke-miterlimit:4;stroke-dasharray:none;stroke-opacity:1"
             d="m 92.01096,222.24296 c 0,-2.76035 -0.29943,-6.61379 2.23209,-8.24005 2.53151,-1.62628 7.89398,-1.02541 11.75695,-0.74668 3.86298,0.27873 9.22544,0.45168 11.75695,2.44328 2.53153,1.9916 2.23209,5.80182 2.23209,8.56217 0,2.76034 -1.56578,5.14638 -4.0973,6.77266 -2.53151,1.6263 -6.02876,2.49279 -9.89174,2.21406 -3.86297,-0.27873 -7.36022,-1.64992 -9.89174,-3.6415 -2.53152,-1.9916 -4.0973,-4.6036 -4.0973,-7.36394 z"
             id="path4204"
             inkscape:connector-curvature="0"
             sodipodi:nodetypes="sssssssss" />
          <path
             sodipodi:nodetypes="sssssssss"
             inkscape:connector-curvature="0"
             id="path4206"
             d="m 66.010176,217.78115 c 0,-2.76035 -0.27804,-6.63774 2.07266,-8.06161 2.35069,-1.42391 7.33012,-0.39432 10.91717,0.19324 3.58704,0.58756 8.56648,1.18923 10.91717,3.3832 2.35069,2.19399 2.07265,5.98026 2.07265,8.74061 0,2.76034 -1.45394,5.02121 -3.80462,6.44511 -2.3507,1.4239 -5.59816,2.01081 -9.1852,1.42325 -3.58705,-0.58756 -7.08431,-1.98796 -9.435,-4.18195 -2.3507,-2.19397 -3.55483,-5.18151 -3.55483,-7.94185 z"
             style="opacity:1;fill:#ffffff;fill-opacity:1;fill-rule:nonzero;stroke:none;stroke-width:4;stroke-miterlimit:4;stroke-dasharray:none;stroke-opacity:1" />
        </g>
        <g
           id="g4208"
           transform="matrix(-1,0,0,0.98765339,300,2.8804649)"
           style="display:inline">
          <path
             sodipodi:nodetypes="sssssssss"
             inkscape:connector-curvature="0"
             id="path4210"
             d="m 92.01096,222.24296 c 0,-2.76035 -0.29943,-6.61379 2.23209,-8.24005 2.53151,-1.62628 7.89398,-1.02541 11.75695,-0.74668 3.86298,0.27873 9.22544,0.45168 11.75695,2.44328 2.53153,1.9916 2.23209,5.80182 2.23209,8.56217 0,2.76034 -1.56578,5.14638 -4.0973,6.77266 -2.53151,1.6263 -6.02876,2.49279 -9.89174,2.21406 -3.86297,-0.27873 -7.36022,-1.64992 -9.89174,-3.6415 -2.53152,-1.9916 -4.0973,-4.6036 -4.0973,-7.36394 z"
             style="opacity:1;fill:#ffffff;fill-opacity:1;fill-rule:nonzero;stroke:none;stroke-width:4;stroke-miterlimit:4;stroke-dasharray:none;stroke-opacity:1" />
          <path
             style="opacity:1;fill:#ffffff;fill-opacity:1;fill-rule:nonzero;stroke:none;stroke-width:4;stroke-miterlimit:4;stroke-dasharray:none;stroke-opacity:1"
             d="m 66.010176,217.78115 c 0,-2.76035 -0.27804,-6.63774 2.07266,-8.06161 2.35069,-1.42391 7.33012,-0.39432 10.91717,0.19324 3.58704,0.58756 8.56648,1.18923 10.91717,3.3832 2.35069,2.19399 2.07265,5.98026 2.07265,8.74061 0,2.76034 -1.45394,5.02121 -3.80462,6.44511 -2.3507,1.4239 -5.59816,2.01081 -9.1852,1.42325 -3.58705,-0.58756 -7.08431,-1.98796 -9.435,-4.18195 -2.3507,-2.19397 -3.55483,-5.18151 -3.55483,-7.94185 z"
             id="path4212"
             inkscape:connector-curvature="0"
             sodipodi:nodetypes="sssssssss" />
        </g>
        <g
           id="g4214">
          <path
             sodipodi:nodetypes="sssssssss"
             inkscape:connector-curvature="0"
             id="path4216"
             d="m 179.98826,224.68923 c 0,-2.74739 0.32082,-6.56882 -2.39153,-8.30498 -2.71233,-1.73617 -8.45783,-1.38706 -12.59673,-1.28897 -4.1389,0.098 -9.8844,0.0213 -12.59673,1.886 -2.71235,1.8647 -2.39153,5.67093 -2.39153,8.41832 0,2.74737 1.67762,5.1949 4.38996,6.93107 2.71234,1.73617 6.4594,2.76096 10.5983,2.66287 4.1389,-0.098 7.88596,-1.30047 10.5983,-3.16518 2.71234,-1.86472 4.38996,-4.39175 4.38996,-7.13913 z"
             style="display:inline;opacity:1;fill:#ffffff;fill-opacity:1;fill-rule:nonzero;stroke:none;stroke-width:4;stroke-miterlimit:4;stroke-dasharray:none;stroke-opacity:1" />
          <path
             style="display:inline;opacity:1;fill:#ffffff;fill-opacity:1;fill-rule:nonzero;stroke:none;stroke-width:4;stroke-miterlimit:4;stroke-dasharray:none;stroke-opacity:1"
             d="m 120.01174,224.68923 c 0,-2.74739 -0.32082,-6.56882 2.39153,-8.30498 2.71233,-1.73617 8.45783,-1.38706 12.59673,-1.28897 4.1389,0.098 9.8844,0.0213 12.59673,1.886 2.71235,1.8647 2.39153,5.67093 2.39153,8.41832 0,2.74737 -1.67762,5.1949 -4.38996,6.93107 -2.71234,1.73617 -6.4594,2.76096 -10.5983,2.66287 -4.1389,-0.098 -7.88596,-1.30047 -10.5983,-3.16518 -2.71234,-1.86472 -4.38996,-4.39175 -4.38996,-7.13913 z"
             id="path4218"
             inkscape:connector-curvature="0"
             sodipodi:nodetypes="sssssssss" />
        </g>
      </g>
      <g
         style="display:inline"
         id="g4230"
         transform="matrix(1.2988281,0,0,1.2988281,305.17578,10.42205)">
        <g
           transform="matrix(1,0,0,0.99700087,0,0.42910984)"
           id="g4232"
           style="display:inline">
          <path
             sodipodi:nodetypes="sssssssss"
             inkscape:connector-curvature="0"
             id="path4234"
             d="m 119.98904,132.81586 c 0,2.76035 0.29943,7.6195 -2.23209,9.22293 -2.53151,1.60345 -7.89398,0.95421 -11.75695,0.64064 -3.86298,-0.31357 -9.22544,-0.53489 -11.75695,-2.54932 -2.53153,-2.01443 -2.23209,-6.82496 -2.23209,-9.58531 0,-2.76034 1.555769,-7.13691 4.0973,-9.43021 2.570211,-2.31918 6.44296,-3.36999 9.89174,-3.12784 3.6444,0.25588 7.38522,2.0679 9.89174,4.73372 2.48529,2.64325 4.0973,7.33505 4.0973,10.09539 z"
             style="opacity:1;fill:#ffffff;fill-opacity:1;fill-rule:nonzero;stroke:none;stroke-width:4;stroke-miterlimit:4;stroke-dasharray:none;stroke-opacity:1" />
          <path
             style="opacity:1;fill:#ffffff;fill-opacity:1;fill-rule:nonzero;stroke:none;stroke-width:4;stroke-miterlimit:4;stroke-dasharray:none;stroke-opacity:1"
             d="m 91.98983,129.79952 c 0,2.76035 0.27804,7.65224 -2.07266,8.97891 -2.35069,1.3267 -7.33012,0.0912 -10.91717,-0.64469 -3.58704,-0.73589 -8.56648,-1.54347 -10.91717,-3.83465 -2.35069,-2.29119 -2.07265,-7.06898 -2.07265,-9.82933 0,-2.76034 1.453931,-5.7512 3.80462,-7.07788 1.55918,-0.87997 3.512884,-1.3951 5.698524,-1.3951 1.109544,0 2.278859,0.11983 3.486676,0.36762 3.58705,0.73589 6.8345,2.50501 9.18519,4.7962 2.3507,2.29118 3.80464,5.87858 3.80464,8.63892 z"
             id="path4236"
             inkscape:connector-curvature="0"
             sodipodi:nodetypes="ssssssssss" />
        </g>
        <g
           id="g4238"
           transform="matrix(-1,0,0,0.99700087,300,0.42910984)"
           style="display:inline">
          <path
             style="opacity:1;fill:#ffffff;fill-opacity:1;fill-rule:nonzero;stroke:none;stroke-width:4;stroke-miterlimit:4;stroke-dasharray:none;stroke-opacity:1"
             d="m 119.98904,132.81586 c 0,2.76035 0.29943,7.6195 -2.23209,9.22293 -2.53151,1.60345 -7.89398,0.95421 -11.75695,0.64064 -3.86298,-0.31357 -9.22544,-0.53489 -11.75695,-2.54932 -2.53153,-2.01443 -2.23209,-6.82496 -2.23209,-9.58531 0,-2.76034 1.555769,-7.13691 4.0973,-9.43021 2.570211,-2.31918 6.44296,-3.36999 9.89174,-3.12784 3.6444,0.25588 7.38522,2.0679 9.89174,4.73372 2.48529,2.64325 4.0973,7.33505 4.0973,10.09539 z"
             id="path4240"
             inkscape:connector-curvature="0"
             sodipodi:nodetypes="sssssssss" />
          <path
             sodipodi:nodetypes="ssssssssss"
             inkscape:connector-curvature="0"
             id="path4242"
             d="m 91.98983,129.79952 c 0,2.76035 0.27804,7.65224 -2.07266,8.97891 -2.35069,1.3267 -7.33012,0.0912 -10.91717,-0.64469 -3.58704,-0.73589 -8.56648,-1.54347 -10.91717,-3.83465 -2.35069,-2.29119 -2.07265,-7.06898 -2.07265,-9.82933 0,-2.76034 1.453931,-5.7512 3.80462,-7.07788 1.55918,-0.87997 3.512884,-1.3951 5.698524,-1.3951 1.109544,0 2.278859,0.11983 3.486676,0.36762 3.58705,0.73589 6.8345,2.50501 9.18519,4.7962 2.3507,2.29118 3.80464,5.87858 3.80464,8.63892 z"
             style="opacity:1;fill:#ffffff;fill-opacity:1;fill-rule:nonzero;stroke:none;stroke-width:4;stroke-miterlimit:4;stroke-dasharray:none;stroke-opacity:1" />
        </g>
        <g
           id="g4244">
          <path
             sodipodi:nodetypes="sssssssss"
             inkscape:connector-curvature="0"
             id="path4246"
             d="m 149.98826,134.21115 c 0,2.77563 0.32082,7.63635 -2.39153,9.39036 -2.71233,1.75402 -8.45783,1.40133 -12.59673,1.30223 -4.1389,-0.0991 -9.8844,-0.0215 -12.59673,-1.90539 -2.71235,-1.88388 -2.39153,-6.72924 -2.39153,-9.50488 0,-2.77561 1.7172,-7.69298 4.38996,-10.29621 2.72154,-2.65074 6.79998,-4.27159 10.5983,-4.19426 3.86373,0.0787 7.89533,1.93975 10.5983,4.70174 2.65472,2.71269 4.38996,7.73078 4.38996,10.50641 z"
             style="opacity:1;fill:#ffffff;fill-opacity:1;fill-rule:nonzero;stroke:none;stroke-width:4;stroke-miterlimit:4;stroke-dasharray:none;stroke-opacity:1" />
          <path
             style="display:inline;opacity:1;fill:#ffffff;fill-opacity:1;fill-rule:nonzero;stroke:none;stroke-width:4;stroke-miterlimit:4;stroke-dasharray:none;stroke-opacity:1"
             d="m 150.01174,134.21115 c 0,2.77563 -0.32082,7.63635 2.39153,9.39036 2.71233,1.75402 8.45783,1.40133 12.59673,1.30223 4.1389,-0.0991 9.8844,-0.0215 12.59673,-1.90539 2.71235,-1.88388 2.39153,-6.72924 2.39153,-9.50488 0,-2.77561 -1.7172,-7.69298 -4.38996,-10.29621 -2.72154,-2.65074 -6.79998,-4.27159 -10.5983,-4.19426 -3.86373,0.0787 -7.89533,1.93975 -10.5983,4.70174 -2.65472,2.71269 -4.38996,7.73078 -4.38996,10.50641 z"
             id="path4248"
             inkscape:connector-curvature="0"
             sodipodi:nodetypes="sssssssss" />
        </g>
      </g>
      <path
         inkscape:connector-curvature="0"
         style="color:#000000;font-style:normal;font-variant:normal;font-weight:normal;font-stretch:normal;font-size:medium;line-height:normal;font-family:sans-serif;text-indent:0;text-align:start;text-decoration:none;text-decoration-line:none;text-decoration-style:solid;text-decoration-color:#000000;letter-spacing:normal;word-spacing:normal;text-transform:none;writing-mode:lr-tb;direction:ltr;baseline-shift:baseline;text-anchor:start;white-space:normal;clip-rule:nonzero;display:inline;overflow:visible;visibility:visible;isolation:auto;mix-blend-mode:normal;color-interpolation:sRGB;color-interpolation-filters:linearRGB;solid-color:#000000;solid-opacity:1;fill:#fc69b4;fill-opacity:1;fill-rule:nonzero;stroke:none;stroke-width:6.49414;stroke-linecap:butt;stroke-linejoin:miter;stroke-miterlimit:4;stroke-dasharray:none;stroke-dashoffset:0;stroke-opacity:1;color-rendering:auto;image-rendering:auto;shape-rendering:auto;text-rendering:auto;enable-background:accumulate"
         d="M 0,5.625e-6 V 300.00001 H 1000 V 5.625e-6 Z M 370.11719,177.97088 h 259.76562 c 0,0 -14.41838,55.61603 -38.31543,74.45937 -23.89704,18.84339 -159.0043,19.02742 -183.13476,0 -24.13047,-19.02739 -38.31543,-74.45937 -38.31543,-74.45937 z"
         id="path4260"
         sodipodi:nodetypes="cccccccssc" />
      <g
         transform="matrix(1.3696734,0,0,1.3696734,412.50621,-12.720704)"
         id="g4263"
         style="display:inline">
        <circle
           r="27.5"
           cy="97.5"
           cx="107.5"
           id="circle4265"
           style="opacity:1;fill:#000000;fill-opacity:1;fill-rule:nonzero;stroke:none;stroke-width:6;stroke-miterlimit:4;stroke-dasharray:none;stroke-opacity:0.516588" />
        <circle
           r="9"
           cy="89.035713"
           cx="96.404594"
           id="circle4267"
           style="opacity:1;fill:#ffffff;fill-opacity:1;fill-rule:nonzero;stroke:none;stroke-width:6;stroke-miterlimit:4;stroke-dasharray:none;stroke-opacity:0.516588" />
      </g>
      <g
         id="g4269"
         transform="matrix(1.3696734,0,0,1.3696734,296.91051,-12.720704)"
         style="display:inline">
        <circle
           style="opacity:1;fill:#000000;fill-opacity:1;fill-rule:nonzero;stroke:none;stroke-width:6;stroke-miterlimit:4;stroke-dasharray:none;stroke-opacity:0.516588"
           id="circle4271"
           cx="107.5"
           cy="97.5"
           r="27.5" />
        <circle
           style="opacity:1;fill:#ffffff;fill-opacity:1;fill-rule:nonzero;stroke:none;stroke-width:6;stroke-miterlimit:4;stroke-dasharray:none;stroke-opacity:0.516588"
           id="circle4273"
           cx="96.404594"
           cy="89.035713"
           r="9" />
      </g>
      <path
         style="display:inline;opacity:0.7;fill:#000000;fill-opacity:1;fill-rule:nonzero;stroke:none;stroke-width:6.49414;stroke-miterlimit:4;stroke-dasharray:none;stroke-opacity:1"
         d="m 462.74495,30.812638 c 6.72125,0.03819 13.19585,0.730214 19.07146,2.138495 l -3.23946,11.017206 c -20.60068,-4.798859 -48.9801,0.205058 -66.69685,11.760486 l -6.8087,-9.244007 c 10.07929,-6.665976 23.38608,-11.462249 37.11808,-13.883759 6.86589,-1.210728 13.83421,-1.826568 20.55547,-1.788421 z"
         id="path4275"
         inkscape:connector-curvature="0" />
      <path
         style="display:inline;opacity:0.7;fill:#000000;fill-opacity:1;fill-rule:nonzero;stroke:none;stroke-width:6.49414;stroke-miterlimit:4;stroke-dasharray:none;stroke-opacity:1"
         d="m 541.15154,30.812638 c 6.72181,-0.03831 13.69198,0.577849 20.55802,1.788421 13.73185,2.42112 27.03632,7.217913 37.11554,13.883759 l -6.80871,9.244007 C 574.2994,44.173528 545.92003,39.169285 525.31954,43.968339 l -3.23946,-11.014661 c 5.87566,-1.408332 12.34965,-2.102776 19.07146,-2.14104 z"
         id="path4277"
         inkscape:connector-curvature="0" />
    </g>
  </g>
  <g
     style="display:none"
     inkscape:label="Background Clipped"
     id="g4193"
     inkscape:groupmode="layer">
    <path
       id="path4250"
       d="M 306.5625,-0.01367188 C 305.77022,-0.01184101 305.02706,-0.00286772 304.24219,0 h 14.83984 C 314.80815,-0.01828801 310.6366,-0.02308666 306.5625,-0.01367188 Z M 304.24219,0 H 0 V 318.48047 C 0.04438432,264.21544 1.9522048,215.42585 8.7988281,178.45703 14.755594,146.29305 24.639585,123.97954 37.888672,103.38086 53.290316,79.435551 73.014429,58.195322 97.25,42.03125 111.80398,32.324378 124.48476,25.309227 143.39062,18.054688 153.25265,14.270443 164.7406,11.469463 178.08789,8.8730469 206.06503,3.430722 244.4865,0.2183305 304.24219,0 Z M 706.1875,0 c 48.46981,0.08073128 83.90399,1.1619663 111.24023,4.3886719 19.97552,2.3578638 35.75939,5.6925941 48.66016,9.2265621 28.3849,7.77561 43.64513,17.07787 61.68555,29.082032 12.62804,8.402744 23.81573,18.544221 33.88086,29.384765 6.7477,7.267543 13.22995,15.150302 18.91015,23.19336 2.11954,3.00124 4.03379,6.049359 5.99414,9.197269 1.83944,2.95378 3.39465,5.52448 4.89258,8.13672 1.87053,3.26202 3.64988,6.59034 5.77735,10.8164 7.17988,14.26233 13.67818,32.25058 17.29688,52.70899 2.1009,11.87786 4.5438,24.68781 5.9551,38.1875 2.5521,24.41196 3.3545,51.48143 3.4804,81.46093 L 1024,0 Z m 317.7734,295.7832 v 22.48047 c 0.036,-7.69119 0.035,-15.1488 0,-22.48047 z M 1024,708.375 c -0.028,33.52476 -0.3644,57.5194 -2.1875,86.13086 -2.1429,33.63123 -7.6763,62.02975 -16.1309,85.82617 -5.1582,14.5187 -11.40293,27.32424 -18.62887,38.55859 -10.39312,16.15846 -22.65212,31.16823 -36.89648,44.46485 -6.86448,6.40775 -13.96855,11.81646 -21.91797,17.50195 -10.37402,7.41958 -20.22524,13.06235 -32.18164,18.63867 -10.69022,4.98581 -23.16558,9.49781 -39.90625,13.44921 -11.58454,2.7344 -25.21272,5.3381 -41.70508,7.0742 -27.23282,2.8667 -62.17703,3.4125 -108.25781,3.9805 H 1024 Z M -0.03515625,708.4062 v 315.625 H 319.04688 c -41.13554,0.043 -73.15952,-1.1161 -99.20899,-3.1757 -28.83842,-2.2801 -50.33518,-7.1578 -66.67383,-11.7853 -7.73511,-2.1907 -14.37224,-4.7844 -20.38281,-7.4316 -3.67192,-1.6172 -7.11179,-3.25625 -10.45508,-4.87498 C 113.83847,992.65414 106.42579,988.098 98.671875,982.8457 86.59698,974.66648 75.71589,965.62495 64.433594,954.05859 54.334092,943.7048 45.224542,931.65351 37.742188,920.26367 31.431669,910.65763 25.944648,899.93141 20.990234,888.03125 19.787325,885.14194 18.426463,882.27945 17.443359,879.13281 13.070293,865.13587 9.5475103,851.60478 6.8183594,834.50391 5.47679,826.09763 4.3289063,817.48218 3.453125,808.5918 0.58027726,779.42846 0.02048588,747.16387 -0.03515625,708.40625 Z"
       style="color:#000000;display:none;overflow:visible;visibility:visible;fill:#ff0000;fill-opacity:1;fill-rule:nonzero;stroke:none;stroke-width:2;marker:none;enable-background:accumulate"
       inkscape:connector-curvature="0" />
  </g>
  <g
     inkscape:groupmode="layer"
     id="layer6"
     inkscape:label="MASK"
     style="display:none">
    <g
       id="g4211">
      <path
         sodipodi:nodetypes="csssssssssssccc"
         inkscape:connector-curvature="0"
         id="path4146"
         d="m -0.03515625,708.40625 c 0.05564213,38.75762 0.61632351,71.02215 3.48917125,100.18549 0.8757813,8.89038 2.0231286,17.50673 3.364698,25.91301 2.7291509,17.10087 6.251639,30.63186 10.624705,44.6288 0.983104,3.14664 2.343873,6.00913 3.546782,8.89844 4.954414,11.90016 10.441772,22.62502 16.75229,32.23106 7.482354,11.38984 16.590926,23.44234 26.690428,33.79613 11.282296,11.56636 22.163363,20.60638 34.238258,28.7856 7.753914,5.2523 15.167714,9.80978 23.655414,13.91931 3.34329,1.61873 6.78353,3.25751 10.45545,4.87471 6.01057,2.6472 12.64725,5.2405 20.38236,7.4312 16.33865,4.6274 37.83594,9.5058 66.67436,11.7859 26.04947,2.0596 58.07248,3.2184 99.20801,3.1754 H -0.03515625 Z"
         style="color:#000000;display:inline;overflow:visible;visibility:visible;fill:#ffffff;fill-opacity:1;fill-rule:nonzero;stroke:none;stroke-width:2;marker:none;enable-background:accumulate" />
      <path
         sodipodi:nodetypes="cssssssssccc"
         inkscape:connector-curvature="0"
         id="path4146-5"
         d="m 1024,708.375 c -0.028,33.52476 -0.3641,57.51886 -2.1872,86.13032 -2.1429,33.63123 -7.6767,62.03085 -16.1313,85.82727 -5.1582,14.5187 -11.40374,27.32387 -18.62968,38.55822 -10.39312,16.15845 -22.65083,31.16786 -36.89519,44.46448 -6.86448,6.40775 -13.96935,11.81612 -21.91877,17.50161 -10.37402,7.41958 -20.2254,13.06198 -32.1818,18.6383 -10.69022,4.9858 -23.165,9.4996 -39.90567,13.451 -11.58454,2.7344 -25.21186,5.3376 -41.70422,7.0737 -27.23282,2.8667 -62.17789,3.4121 -108.25867,3.9801 H 1024 Z"
         style="color:#000000;display:inline;overflow:visible;visibility:visible;fill:#ffffff;fill-opacity:1;fill-rule:nonzero;stroke:none;stroke-width:2;marker:none;enable-background:accumulate" />
      <path
         sodipodi:nodetypes="cssssssssssccc"
         inkscape:connector-curvature="0"
         id="path4146-5-3"
         d="m 1023.9571,318.26274 c 0.1837,-39.14081 -0.2997,-73.55855 -3.476,-103.94061 -1.4113,-13.49969 -3.8539,-26.31006 -5.9548,-38.18792 -3.6187,-20.45841 -10.1174,-38.44655 -17.2973,-52.70888 -2.12747,-4.22606 -3.90726,-7.55456 -5.77779,-10.81658 -1.49793,-2.61224 -3.05404,-5.18185 -4.89348,-8.13563 -1.96035,-3.14791 -3.87346,-6.195884 -5.993,-9.197124 C 974.88453,87.232938 968.40279,79.35023 961.65509,72.082687 951.58996,61.242143 940.4011,51.100793 927.77306,42.698049 909.73264,30.693887 894.47219,21.390417 866.08729,13.614807 853.18652,10.080839 837.40303,6.7460486 817.42751,4.3881848 790.09127,1.1614792 754.65731,0.08073128 706.1875,0 H 1024 Z"
         style="color:#000000;display:inline;overflow:visible;visibility:visible;fill:#ffffff;fill-opacity:1;fill-rule:nonzero;stroke:none;stroke-width:2;marker:none;enable-background:accumulate" />
      <path
         sodipodi:nodetypes="csssssccc"
         inkscape:connector-curvature="0"
         id="path4146-5-3-7"
         d="M 0,318.48 C 0.04438432,264.21497 1.9515494,215.42652 8.7981727,178.4577 14.754939,146.29372 24.640519,123.97857 37.889606,103.37989 53.29125,79.434582 73.01483,58.195063 97.250401,42.030991 111.80438,32.324119 124.48551,25.310001 143.39137,18.055461 153.25339,14.271217 164.74156,11.469151 178.08885,8.8727346 208.3231,2.9913388 250.69975,-0.29260813 319.08193,0 H 0 Z"
         style="color:#000000;display:inline;overflow:visible;visibility:visible;fill:#ffffff;fill-opacity:1;fill-rule:nonzero;stroke:none;stroke-width:2;marker:none;enable-background:accumulate" />
    </g>
  </g>
  <g
     style="display:none"
     transform="translate(50.25,211.52169)"
     id="g4191"
     inkscape:groupmode="layer"
     inkscape:label="BORDER WHITE">
    <path
       style="fill:none;stroke:#ffffff;stroke-width:8;stroke-miterlimit:4;stroke-dasharray:none;stroke-opacity:1"
       id="path4193"
       d="m 301.95446,-211.52169 h 319.59108 c 101.4156,0 152.12339,0 206.7084,17.25959 59.59748,21.69173 106.54481,68.63899 128.23654,128.236542 C 973.75,-11.44076 973.75,39.267072 973.75,140.68273 v 319.59116 c 0,101.41566 0,152.12349 -17.25952,206.70829 -21.69173,59.59758 -68.63906,106.54477 -128.23654,128.23654 -54.58501,17.25959 -105.2928,17.25959 -206.7084,17.25959 H 301.95446 c -101.4156,0 -152.12339,0 -206.708396,-17.25959 C 35.648581,773.52695 -11.298747,726.57976 -32.99048,666.98218 -50.25,612.39738 -50.25,561.68955 -50.25,460.27389 V 140.68273 c 0,-101.415658 0,-152.12349 17.25952,-206.708254 21.691733,-59.597546 68.639061,-106.544846 128.236544,-128.236576 54.585006,-17.25959 105.292796,-17.25959 206.708396,-17.25959 v 0"
       inkscape:connector-curvature="0" />
  </g>
  <g
     inkscape:label="BORDER"
     inkscape:groupmode="layer"
     id="layer1"
     transform="translate(50.25,211.52169)"
     style="display:none">
    <path
       inkscape:connector-curvature="0"
       d="m 301.95446,-211.52169 h 319.59108 c 101.4156,0 152.12339,0 206.7084,17.25959 59.59748,21.69173 106.54481,68.63899 128.23654,128.236542 C 973.75,-11.44076 973.75,39.267072 973.75,140.68273 v 319.59116 c 0,101.41566 0,152.12349 -17.25952,206.70829 -21.69173,59.59758 -68.63906,106.54477 -128.23654,128.23654 -54.58501,17.25959 -105.2928,17.25959 -206.7084,17.25959 H 301.95446 c -101.4156,0 -152.12339,0 -206.708396,-17.25959 C 35.648581,773.52695 -11.298747,726.57976 -32.99048,666.98218 -50.25,612.39738 -50.25,561.68955 -50.25,460.27389 V 140.68273 c 0,-101.415658 0,-152.12349 17.25952,-206.708254 21.691733,-59.597546 68.639061,-106.544846 128.236544,-128.236576 54.585006,-17.25959 105.292796,-17.25959 206.708396,-17.25959 v 0"
       id="path5"
       style="fill:none;stroke:#000000;stroke-width:4;stroke-miterlimit:4;stroke-dasharray:none;stroke-opacity:1" />
  </g>
  <g
     inkscape:groupmode="layer"
     id="layer4"
     inkscape:label="FULL MASK to BG"
     style="display:none">
    <g
       id="g3108"
       transform="matrix(0.5649724,0,0,0.5649724,445.54508,-1009.2323)"
       style="fill:#ffffff">
      <path
         style="fill:#ffffff;fill-opacity:1"
         d="m -255.18484,3598.5738 c -65.89075,-0.4253 -133.31625,-3.6429 -171.28383,-8.1738 -35.62761,-4.2516 -75.24646,-12.6237 -101.97363,-21.5486 -19.91256,-6.6493 -47.54459,-19.4411 -66.12352,-30.6108 -37.44793,-22.5137 -72.20796,-52.2487 -98.54251,-84.2969 -24.29731,-29.5689 -41.20817,-56.8511 -55.47181,-89.4924 -6.61929,-15.1478 -8.38704,-19.8689 -11.92879,-31.8579 -16.20259,-54.8465 -23.54268,-107.7838 -26.58122,-191.706 -1.42838,-39.4507 -1.67596,-120.9647 -1.45114,-477.7704 0.16145,-256.2384 0.41117,-371.6315 0.83443,-385.5878 4.03548,-133.0627 14.45033,-200.8155 39.80624,-258.9554 22.87778,-52.4577 63.32922,-104.9173 108.81811,-141.1212 12.25925,-9.757 31.66981,-22.9097 46.90669,-31.7844 24.79601,-14.4423 54.99637,-27.5472 78.82329,-34.2039 41.36425,-11.5562 93.35603,-18.869 158.31851,-22.2681 28.5354,-1.493 42.80966,-1.8693 92.94472,-2.45 66.71195,-0.7727 774.97059,-0.3507 803.30789,0.4786 74.58713,2.1828 111.22328,5.1416 152.96045,12.3533 34.90069,6.0305 66.10255,14.5431 92.14805,25.1403 28.90007,11.7586 67.93807,35.6951 94.27249,57.8041 24.08118,20.2172 52.39634,51.696 69.50417,77.2697 27.40876,40.9722 44.92544,81.5642 54.48975,126.2709 2.0427,9.5481 7.5352,40.5742 9.5433,53.9079 4.7447,31.5043 7.3924,66.4897 8.9033,117.6415 0.8272,28.0023 1.2273,742.0895 0.4567,814.9924 -0.6825,64.5731 -1.8558,98.6886 -4.564,132.7029 -5.9213,74.3703 -21.87168,136.2374 -47.80384,185.4176 -7.83137,14.852 -18.80155,31.9295 -30.54535,47.5505 -23.00313,30.5976 -46.50391,54.389 -74.58963,75.5123 -48.63111,36.5753 -94.65909,56.7768 -158.32303,69.4872 -51.86283,10.3544 -93.05381,13.1537 -222.7503,15.1381 -27.97184,0.4279 -676.86617,0.5685 -740.10549,0.1603 z"
         id="path3124"
         inkscape:connector-curvature="0" />
      <path
         style="fill:#ffffff;fill-opacity:1"
         d="m -255.18484,3598.5738 c -65.89075,-0.4253 -133.31625,-3.6429 -171.28383,-8.1738 -35.62761,-4.2516 -75.24646,-12.6237 -101.97363,-21.5486 -19.91256,-6.6493 -47.54459,-19.4411 -66.12352,-30.6108 -37.44793,-22.5137 -72.20796,-52.2487 -98.54251,-84.2969 -24.29731,-29.5689 -41.20817,-56.8511 -55.47181,-89.4924 -6.61929,-15.1478 -8.38704,-19.8689 -11.92879,-31.8579 -16.20259,-54.8465 -23.54268,-107.7838 -26.58122,-191.706 -1.42838,-39.4507 -1.67596,-120.9647 -1.45114,-477.7704 0.16145,-256.2384 0.41117,-371.6315 0.83443,-385.5878 4.03548,-133.0627 14.45033,-200.8155 39.80624,-258.9554 22.87778,-52.4577 63.32922,-104.9173 108.81811,-141.1212 12.25925,-9.757 31.66981,-22.9097 46.90669,-31.7844 24.79601,-14.4423 54.99637,-27.5472 78.82329,-34.2039 41.36425,-11.5562 93.35603,-18.869 158.31851,-22.2681 28.5354,-1.493 42.80966,-1.8693 92.94472,-2.45 66.71195,-0.7727 774.97059,-0.3507 803.30789,0.4786 74.58713,2.1828 111.22328,5.1416 152.96045,12.3533 34.90069,6.0305 66.10255,14.5431 92.14805,25.1403 28.90007,11.7586 67.93807,35.6951 94.27249,57.8041 24.08118,20.2172 52.39634,51.696 69.50417,77.2697 27.40876,40.9722 44.92544,81.5642 54.48975,126.2709 2.0427,9.5481 7.5352,40.5742 9.5433,53.9079 4.7447,31.5043 7.3924,66.4897 8.9033,117.6415 0.8272,28.0023 1.2273,742.0895 0.4567,814.9924 -0.6825,64.5731 -1.8558,98.6886 -4.564,132.7029 -5.9213,74.3703 -21.87168,136.2374 -47.80384,185.4176 -7.83137,14.852 -18.80155,31.9295 -30.54535,47.5505 -23.00313,30.5976 -46.50391,54.389 -74.58963,75.5123 -48.63111,36.5753 -94.65909,56.7768 -158.32303,69.4872 -51.86283,10.3544 -93.05381,13.1537 -222.7503,15.1381 -27.97184,0.4279 -676.86617,0.5685 -740.10549,0.1603 z"
         id="path3122"
         inkscape:connector-curvature="0" />
      <path
         style="fill:#ffffff;fill-opacity:1"
         d="m -255.18484,3598.5738 c -65.89075,-0.4253 -133.31625,-3.6429 -171.28383,-8.1738 -35.62761,-4.2516 -75.24646,-12.6237 -101.97363,-21.5486 -19.91256,-6.6493 -47.54459,-19.4411 -66.12352,-30.6108 -37.44793,-22.5137 -72.20796,-52.2487 -98.54251,-84.2969 -24.29731,-29.5689 -41.20817,-56.8511 -55.47181,-89.4924 -6.61929,-15.1478 -8.38704,-19.8689 -11.92879,-31.8579 -16.20259,-54.8465 -23.54268,-107.7838 -26.58122,-191.706 -1.42838,-39.4507 -1.67596,-120.9647 -1.45114,-477.7704 0.16145,-256.2384 0.41117,-371.6315 0.83443,-385.5878 4.03548,-133.0627 14.45033,-200.8155 39.80624,-258.9554 22.87778,-52.4577 63.32922,-104.9173 108.81811,-141.1212 12.25925,-9.757 31.66981,-22.9097 46.90669,-31.7844 24.79601,-14.4423 54.99637,-27.5472 78.82329,-34.2039 41.36425,-11.5562 93.35603,-18.869 158.31851,-22.2681 28.5354,-1.493 42.80966,-1.8693 92.94472,-2.45 66.71195,-0.7727 774.97059,-0.3507 803.30789,0.4786 74.58713,2.1828 111.22328,5.1416 152.96045,12.3533 34.90069,6.0305 66.10255,14.5431 92.14805,25.1403 28.90007,11.7586 67.93807,35.6951 94.27249,57.8041 24.08118,20.2172 52.39634,51.696 69.50417,77.2697 27.40876,40.9722 44.92544,81.5642 54.48975,126.2709 2.0427,9.5481 7.5352,40.5742 9.5433,53.9079 4.7447,31.5043 7.3924,66.4897 8.9033,117.6415 0.8272,28.0023 1.2273,742.0895 0.4567,814.9924 -0.6825,64.5731 -1.8558,98.6886 -4.564,132.7029 -5.9213,74.3703 -21.87168,136.2374 -47.80384,185.4176 -7.83137,14.852 -18.80155,31.9295 -30.54535,47.5505 -23.00313,30.5976 -46.50391,54.389 -74.58963,75.5123 -48.63111,36.5753 -94.65909,56.7768 -158.32303,69.4872 -51.86283,10.3544 -93.05381,13.1537 -222.7503,15.1381 -27.97184,0.4279 -676.86617,0.5685 -740.10549,0.1603 z"
         id="path3120"
         inkscape:connector-curvature="0" />
      <path
         style="fill:#ffffff;fill-opacity:1"
         d="m -255.18484,3598.5738 c -65.89075,-0.4253 -133.31625,-3.6429 -171.28383,-8.1738 -35.62761,-4.2516 -75.24646,-12.6237 -101.97363,-21.5486 -19.91256,-6.6493 -47.54459,-19.4411 -66.12352,-30.6108 -37.44793,-22.5137 -72.20796,-52.2487 -98.54251,-84.2969 -24.29731,-29.5689 -41.20817,-56.8511 -55.47181,-89.4924 -6.61929,-15.1478 -8.38704,-19.8689 -11.92879,-31.8579 -16.20259,-54.8465 -23.54268,-107.7838 -26.58122,-191.706 -1.42838,-39.4507 -1.67596,-120.9647 -1.45114,-477.7704 0.16145,-256.2384 0.41117,-371.6315 0.83443,-385.5878 4.03548,-133.0627 14.45033,-200.8155 39.80624,-258.9554 22.87778,-52.4577 63.32922,-104.9173 108.81811,-141.1212 12.25925,-9.757 31.66981,-22.9097 46.90669,-31.7844 24.79601,-14.4423 54.99637,-27.5472 78.82329,-34.2039 41.36425,-11.5562 93.35603,-18.869 158.31851,-22.2681 28.5354,-1.493 42.80966,-1.8693 92.94472,-2.45 66.71195,-0.7727 774.97059,-0.3507 803.30789,0.4786 74.58713,2.1828 111.22328,5.1416 152.96045,12.3533 34.90069,6.0305 66.10255,14.5431 92.14805,25.1403 28.90007,11.7586 67.93807,35.6951 94.27249,57.8041 24.08118,20.2172 52.39634,51.696 69.50417,77.2697 27.40876,40.9722 44.92544,81.5642 54.48975,126.2709 2.0427,9.5481 7.5352,40.5742 9.5433,53.9079 4.7447,31.5043 7.3924,66.4897 8.9033,117.6415 0.8272,28.0023 1.2273,742.0895 0.4567,814.9924 -0.6825,64.5731 -1.8558,98.6886 -4.564,132.7029 -5.9213,74.3703 -21.87168,136.2374 -47.80384,185.4176 -7.83137,14.852 -18.80155,31.9295 -30.54535,47.5505 -23.00313,30.5976 -46.50391,54.389 -74.58963,75.5123 -48.63111,36.5753 -94.65909,56.7768 -158.32303,69.4872 -51.86283,10.3544 -93.05381,13.1537 -222.7503,15.1381 -27.97184,0.4279 -676.86617,0.5685 -740.10549,0.1603 z"
         id="path3118"
         inkscape:connector-curvature="0" />
      <path
         style="fill:#ffffff;fill-opacity:1"
         d="m -255.18484,3598.5738 c -65.89075,-0.4253 -133.31625,-3.6429 -171.28383,-8.1738 -35.62761,-4.2516 -75.24646,-12.6237 -101.97363,-21.5486 -19.91256,-6.6493 -47.54459,-19.4411 -66.12352,-30.6108 -37.44793,-22.5137 -72.20796,-52.2487 -98.54251,-84.2969 -24.29731,-29.5689 -41.20817,-56.8511 -55.47181,-89.4924 -6.61929,-15.1478 -8.38704,-19.8689 -11.92879,-31.8579 -16.20259,-54.8465 -23.54268,-107.7838 -26.58122,-191.706 -1.42838,-39.4507 -1.67596,-120.9647 -1.45114,-477.7704 0.16145,-256.2384 0.41117,-371.6315 0.83443,-385.5878 4.03548,-133.0627 14.45033,-200.8155 39.80624,-258.9554 22.87778,-52.4577 63.32922,-104.9173 108.81811,-141.1212 12.25925,-9.757 31.66981,-22.9097 46.90669,-31.7844 24.79601,-14.4423 54.99637,-27.5472 78.82329,-34.2039 41.36425,-11.5562 93.35603,-18.869 158.31851,-22.2681 28.5354,-1.493 42.80966,-1.8693 92.94472,-2.45 66.71195,-0.7727 774.97059,-0.3507 803.30789,0.4786 74.58713,2.1828 111.22328,5.1416 152.96045,12.3533 34.90069,6.0305 66.10255,14.5431 92.14805,25.1403 28.90007,11.7586 67.93807,35.6951 94.27249,57.8041 24.08118,20.2172 52.39634,51.696 69.50417,77.2697 27.40876,40.9722 44.92544,81.5642 54.48975,126.2709 2.0427,9.5481 7.5352,40.5742 9.5433,53.9079 4.7447,31.5043 7.3924,66.4897 8.9033,117.6415 0.8272,28.0023 1.2273,742.0895 0.4567,814.9924 -0.6825,64.5731 -1.8558,98.6886 -4.564,132.7029 -5.9213,74.3703 -21.87168,136.2374 -47.80384,185.4176 -7.83137,14.852 -18.80155,31.9295 -30.54535,47.5505 -23.00313,30.5976 -46.50391,54.389 -74.58963,75.5123 -48.63111,36.5753 -94.65909,56.7768 -158.32303,69.4872 -51.86283,10.3544 -93.05381,13.1537 -222.7503,15.1381 -27.97184,0.4279 -676.86617,0.5685 -740.10549,0.1603 z"
         id="path3116"
         inkscape:connector-curvature="0" />
      <path
         style="fill:#ffffff;fill-opacity:1"
         d="m -255.18484,3598.5738 c -65.89075,-0.4253 -133.31625,-3.6429 -171.28383,-8.1738 -35.62761,-4.2516 -75.24646,-12.6237 -101.97363,-21.5486 -19.91256,-6.6493 -47.54459,-19.4411 -66.12352,-30.6108 -37.44793,-22.5137 -72.20796,-52.2487 -98.54251,-84.2969 -24.29731,-29.5689 -41.20817,-56.8511 -55.47181,-89.4924 -6.61929,-15.1478 -8.38704,-19.8689 -11.92879,-31.8579 -16.20259,-54.8465 -23.54268,-107.7838 -26.58122,-191.706 -1.42838,-39.4507 -1.67596,-120.9647 -1.45114,-477.7704 0.16145,-256.2384 0.41117,-371.6315 0.83443,-385.5878 4.03548,-133.0627 14.45033,-200.8155 39.80624,-258.9554 22.87778,-52.4577 63.32922,-104.9173 108.81811,-141.1212 12.25925,-9.757 31.66981,-22.9097 46.90669,-31.7844 24.79601,-14.4423 54.99637,-27.5472 78.82329,-34.2039 41.36425,-11.5562 93.35603,-18.869 158.31851,-22.2681 28.5354,-1.493 42.80966,-1.8693 92.94472,-2.45 66.71195,-0.7727 774.97059,-0.3507 803.30789,0.4786 74.58713,2.1828 111.22328,5.1416 152.96045,12.3533 34.90069,6.0305 66.10255,14.5431 92.14805,25.1403 28.90007,11.7586 67.93807,35.6951 94.27249,57.8041 24.08118,20.2172 52.39634,51.696 69.50417,77.2697 27.40876,40.9722 44.92544,81.5642 54.48975,126.2709 2.0427,9.5481 7.5352,40.5742 9.5433,53.9079 4.7447,31.5043 7.3924,66.4897 8.9033,117.6415 0.8272,28.0023 1.2273,742.0895 0.4567,814.9924 -0.6825,64.5731 -1.8558,98.6886 -4.564,132.7029 -5.9213,74.3703 -21.87168,136.2374 -47.80384,185.4176 -7.83137,14.852 -18.80155,31.9295 -30.54535,47.5505 -23.00313,30.5976 -46.50391,54.389 -74.58963,75.5123 -48.63111,36.5753 -94.65909,56.7768 -158.32303,69.4872 -51.86283,10.3544 -93.05381,13.1537 -222.7503,15.1381 -27.97184,0.4279 -676.86617,0.5685 -740.10549,0.1603 z"
         id="path3114"
         inkscape:connector-curvature="0" />
      <path
         style="fill:#ffffff;fill-opacity:1"
         d="m -255.18484,3598.5738 c -65.89075,-0.4253 -133.31625,-3.6429 -171.28383,-8.1738 -35.62761,-4.2516 -75.24646,-12.6237 -101.97363,-21.5486 -19.91256,-6.6493 -47.54459,-19.4411 -66.12352,-30.6108 -37.44793,-22.5137 -72.20796,-52.2487 -98.54251,-84.2969 -24.29731,-29.5689 -41.20817,-56.8511 -55.47181,-89.4924 -6.61929,-15.1478 -8.38704,-19.8689 -11.92879,-31.8579 -16.20259,-54.8465 -23.54268,-107.7838 -26.58122,-191.706 -1.42838,-39.4507 -1.67596,-120.9647 -1.45114,-477.7704 0.16145,-256.2384 0.41117,-371.6315 0.83443,-385.5878 4.03548,-133.0627 14.45033,-200.8155 39.80624,-258.9554 22.87778,-52.4577 63.32922,-104.9173 108.81811,-141.1212 12.25925,-9.757 31.66981,-22.9097 46.90669,-31.7844 24.79601,-14.4423 54.99637,-27.5472 78.82329,-34.2039 41.36425,-11.5562 93.35603,-18.869 158.31851,-22.2681 28.5354,-1.493 42.80966,-1.8693 92.94472,-2.45 66.71195,-0.7727 774.97059,-0.3507 803.30789,0.4786 74.58713,2.1828 111.22328,5.1416 152.96045,12.3533 34.90069,6.0305 66.10255,14.5431 92.14805,25.1403 28.90007,11.7586 67.93807,35.6951 94.27249,57.8041 24.08118,20.2172 52.39634,51.696 69.50417,77.2697 27.40876,40.9722 44.92544,81.5642 54.48975,126.2709 2.0427,9.5481 7.5352,40.5742 9.5433,53.9079 4.7447,31.5043 7.3924,66.4897 8.9033,117.6415 0.8272,28.0023 1.2273,742.0895 0.4567,814.9924 -0.6825,64.5731 -1.8558,98.6886 -4.564,132.7029 -5.9213,74.3703 -21.87168,136.2374 -47.80384,185.4176 -7.83137,14.852 -18.80155,31.9295 -30.54535,47.5505 -23.00313,30.5976 -46.50391,54.389 -74.58963,75.5123 -48.63111,36.5753 -94.65909,56.7768 -158.32303,69.4872 -51.86283,10.3544 -93.05381,13.1537 -222.7503,15.1381 -27.97184,0.4279 -676.86617,0.5685 -740.10549,0.1603 z"
         id="path3112"
         inkscape:connector-curvature="0" />
      <path
         style="fill:#ffffff;fill-opacity:1"
         d="m -255.18484,3598.5738 c -65.89075,-0.4253 -133.31625,-3.6429 -171.28383,-8.1738 -35.62761,-4.2516 -75.24646,-12.6237 -101.97363,-21.5486 -19.91256,-6.6493 -47.54459,-19.4411 -66.12352,-30.6108 -37.44793,-22.5137 -72.20796,-52.2487 -98.54251,-84.2969 -24.29731,-29.5689 -41.20817,-56.8511 -55.47181,-89.4924 -6.61929,-15.1478 -8.38704,-19.8689 -11.92879,-31.8579 -16.20259,-54.8465 -23.54268,-107.7838 -26.58122,-191.706 -1.42838,-39.4507 -1.67596,-120.9647 -1.45114,-477.7704 0.16145,-256.2384 0.41117,-371.6315 0.83443,-385.5878 4.03548,-133.0627 14.45033,-200.8155 39.80624,-258.9554 22.87778,-52.4577 63.32922,-104.9173 108.81811,-141.1212 12.25925,-9.757 31.66981,-22.9097 46.90669,-31.7844 24.79601,-14.4423 54.99637,-27.5472 78.82329,-34.2039 41.36425,-11.5562 93.35603,-18.869 158.31851,-22.2681 28.5354,-1.493 42.80966,-1.8693 92.94472,-2.45 66.71195,-0.7727 774.97059,-0.3507 803.30789,0.4786 74.58713,2.1828 111.22328,5.1416 152.96045,12.3533 34.90069,6.0305 66.10255,14.5431 92.14805,25.1403 28.90007,11.7586 67.93807,35.6951 94.27249,57.8041 24.08118,20.2172 52.39634,51.696 69.50417,77.2697 27.40876,40.9722 44.92544,81.5642 54.48975,126.2709 2.0427,9.5481 7.5352,40.5742 9.5433,53.9079 4.7447,31.5043 7.3924,66.4897 8.9033,117.6415 0.8272,28.0023 1.2273,742.0895 0.4567,814.9924 -0.6825,64.5731 -1.8558,98.6886 -4.564,132.7029 -5.9213,74.3703 -21.87168,136.2374 -47.80384,185.4176 -7.83137,14.852 -18.80155,31.9295 -30.54535,47.5505 -23.00313,30.5976 -46.50391,54.389 -74.58963,75.5123 -48.63111,36.5753 -94.65909,56.7768 -158.32303,69.4872 -51.86283,10.3544 -93.05381,13.1537 -222.7503,15.1381 -27.97184,0.4279 -676.86617,0.5685 -740.10549,0.1603 z"
         id="path3110"
         inkscape:connector-curvature="0" />
    </g>
  </g>
  <g
     inkscape:groupmode="layer"
     id="layer2"
     inkscape:label="GUIDES"
     style="display:none"
     transform="translate(0,-2.2054443)"
     sodipodi:insensitive="true">
    <path
       style="color:#000000;display:inline;overflow:visible;visibility:visible;fill:none;stroke:#000000;stroke-width:2;stroke-linecap:butt;stroke-linejoin:miter;stroke-miterlimit:4;stroke-dasharray:none;stroke-dashoffset:0;stroke-opacity:1;marker:none;enable-background:accumulate"
       d="M 0.99801512,321.03518 V 707.31187"
       id="path4024"
       inkscape:connector-curvature="0" />
    <circle
       style="color:#000000;display:inline;overflow:visible;visibility:visible;fill:none;stroke:#000000;stroke-width:1.00571;stroke-linecap:butt;stroke-linejoin:miter;stroke-miterlimit:4;stroke-dasharray:none;stroke-dashoffset:0;stroke-opacity:1;marker:none;enable-background:accumulate"
       id="path3129"
       transform="matrix(1.988799,0,0,1.988471,-407.91018,-80.585593)"
       cx="462.32144"
       cy="298.86218"
       r="138" />
    <circle
       style="color:#000000;display:inline;overflow:visible;visibility:visible;fill:none;stroke:#000000;stroke-width:0.620861;stroke-linecap:butt;stroke-linejoin:miter;stroke-miterlimit:4;stroke-dasharray:none;stroke-dashoffset:0;stroke-opacity:1;marker:none;enable-background:accumulate"
       id="path3129-9"
       transform="matrix(3.2215081,0,0,3.2211587,-977.38931,-448.55899)"
       cx="462.32144"
       cy="298.86218"
       r="138" />
    <path
       style="color:#000000;display:inline;overflow:visible;visibility:visible;fill:none;stroke:#000000;stroke-width:2;stroke-linecap:butt;stroke-linejoin:miter;stroke-miterlimit:4;stroke-dasharray:none;stroke-dashoffset:0;stroke-opacity:1;marker:none;enable-background:accumulate"
       d="M 67.351921,69.489974 956.5625,958.70544"
       id="path4011"
       inkscape:connector-curvature="0"
       sodipodi:nodetypes="cc" />
    <path
       style="color:#000000;display:inline;overflow:visible;visibility:visible;fill:none;stroke:#000000;stroke-width:2;stroke-linecap:butt;stroke-linejoin:miter;stroke-miterlimit:4;stroke-dasharray:none;stroke-dashoffset:0;stroke-opacity:1;marker:none;enable-background:accumulate"
       d="M 0.99801467,707.31189 H 1023.001"
       id="path4028"
       inkscape:connector-curvature="0" />
    <path
       style="color:#000000;display:inline;overflow:visible;visibility:visible;fill:none;stroke:#000000;stroke-width:2;stroke-linecap:butt;stroke-linejoin:miter;stroke-miterlimit:4;stroke-dasharray:none;stroke-dashoffset:0;stroke-opacity:1;marker:none;enable-background:accumulate"
       d="M 0.99801467,513.69318 H 1023.001"
       id="path4030"
       inkscape:connector-curvature="0" />
    <path
       style="color:#000000;display:inline;overflow:visible;visibility:visible;fill:none;stroke:#000000;stroke-width:2;stroke-linecap:butt;stroke-linejoin:miter;stroke-miterlimit:4;stroke-dasharray:none;stroke-dashoffset:0;stroke-opacity:1;marker:none;enable-background:accumulate"
       d="M 0.99801467,321.0352 H 1023.001"
       id="path4032"
       inkscape:connector-curvature="0" />
    <path
       style="color:#000000;display:inline;overflow:visible;visibility:visible;fill:none;stroke:#000000;stroke-width:2;stroke-linecap:butt;stroke-linejoin:miter;stroke-miterlimit:4;stroke-dasharray:none;stroke-dashoffset:0;stroke-opacity:1;marker:none;enable-background:accumulate"
       d="M 319.08193,1026.2054 V 2.2054443"
       id="path4034"
       inkscape:connector-curvature="0"
       sodipodi:nodetypes="cc" />
    <path
       style="color:#000000;display:inline;overflow:visible;visibility:visible;fill:none;stroke:#000000;stroke-width:2;stroke-linecap:butt;stroke-linejoin:miter;stroke-miterlimit:4;stroke-dasharray:none;stroke-dashoffset:0;stroke-opacity:1;marker:none;enable-background:accumulate"
       d="M 511.68014,2.2054443 V 1026.2054"
       id="path4036"
       inkscape:connector-curvature="0"
       sodipodi:nodetypes="cc" />
    <path
       style="color:#000000;display:inline;overflow:visible;visibility:visible;fill:none;stroke:#000000;stroke-width:2;stroke-linecap:butt;stroke-linejoin:miter;stroke-miterlimit:4;stroke-dasharray:none;stroke-dashoffset:0;stroke-opacity:1;marker:none;enable-background:accumulate"
       d="M 706.1875,1026.2054 V 2.2054443"
       id="path4038"
       inkscape:connector-curvature="0"
       sodipodi:nodetypes="cc" />
    <path
       style="color:#000000;display:inline;overflow:visible;visibility:visible;fill:none;stroke:#000000;stroke-width:2;stroke-linecap:butt;stroke-linejoin:miter;stroke-miterlimit:4;stroke-dasharray:none;stroke-dashoffset:0;stroke-opacity:1;marker:none;enable-background:accumulate"
       d="M 67.351921,958.70544 956.5625,69.489974"
       id="path4001"
       inkscape:connector-curvature="0"
       sodipodi:nodetypes="cc" />
    <path
       style="color:#000000;display:inline;overflow:visible;visibility:visible;fill:none;stroke:#000000;stroke-width:2;stroke-linecap:butt;stroke-linejoin:miter;stroke-miterlimit:4;stroke-dasharray:none;stroke-dashoffset:0;stroke-opacity:1;marker:none;enable-background:accumulate"
       d="M 956.5625,69.489974 V 958.70544"
       id="path4003"
       inkscape:connector-curvature="0"
       sodipodi:nodetypes="cc" />
    <path
       style="color:#000000;display:inline;overflow:visible;visibility:visible;fill:none;stroke:#000000;stroke-width:2;stroke-linecap:butt;stroke-linejoin:miter;stroke-miterlimit:4;stroke-dasharray:none;stroke-dashoffset:0;stroke-opacity:1;marker:none;enable-background:accumulate"
       d="M 67.351921,69.489974 H 956.5625"
       id="path4009"
       inkscape:connector-curvature="0"
       sodipodi:nodetypes="cc" />
    <path
       style="color:#000000;display:inline;overflow:visible;visibility:visible;fill:none;stroke:#000000;stroke-width:2;stroke-linecap:butt;stroke-linejoin:miter;stroke-miterlimit:4;stroke-dasharray:none;stroke-dashoffset:0;stroke-opacity:1;marker:none;enable-background:accumulate"
       d="M 67.351921,958.70544 V 69.489974"
       id="path4007"
       inkscape:connector-curvature="0"
       sodipodi:nodetypes="cc" />
    <path
       style="color:#000000;display:inline;overflow:visible;visibility:visible;fill:none;stroke:#000000;stroke-width:2;stroke-linecap:butt;stroke-linejoin:miter;stroke-miterlimit:4;stroke-dasharray:none;stroke-dashoffset:0;stroke-opacity:1;marker:none;enable-background:accumulate"
       d="m 956.5625,958.70544 -889.210579,-3e-5"
       id="path4005"
       inkscape:connector-curvature="0"
       sodipodi:nodetypes="cc" />
    <circle
       style="color:#000000;display:inline;overflow:visible;visibility:visible;fill:none;stroke:#000000;stroke-width:1.42908;stroke-linecap:butt;stroke-linejoin:miter;stroke-miterlimit:4;stroke-dasharray:none;stroke-dashoffset:0;stroke-opacity:1;marker:none;enable-background:accumulate"
       id="path3129-7"
       transform="matrix(1.4025564,0,0,1.3964479,-135.79717,96.569794)"
       cx="462.32144"
       cy="298.86218"
       r="138" />
  </g>
</svg>
