<?xml version="1.0" encoding="UTF-8" standalone="no"?>
<svg
   height="1920px"
   version="1.1"
   width="1920px"
   id="svg1390"
   sodipodi:docname="logo_nice_simplified.svg"
   inkscape:version="1.3.2 (091e20e, 2023-11-25)"
   inkscape:export-filename="../s/images/cupcake_nice.png"
   inkscape:export-xdpi="12.8"
   inkscape:export-ydpi="12.8"
   xmlns:inkscape="http://www.inkscape.org/namespaces/inkscape"
   xmlns:sodipodi="http://sodipodi.sourceforge.net/DTD/sodipodi-0.dtd"
   xmlns="http://www.w3.org/2000/svg"
   xmlns:svg="http://www.w3.org/2000/svg">
  <sodipodi:namedview
     id="namedview1390"
     pagecolor="#ffffff"
     bordercolor="#000000"
     borderopacity="0.25"
     inkscape:showpageshadow="2"
     inkscape:pageopacity="0.0"
     inkscape:pagecheckerboard="0"
     inkscape:deskcolor="#d1d1d1"
     inkscape:zoom="0.3917712"
     inkscape:cx="879.33979"
     inkscape:cy="940.60003"
     inkscape:window-width="1792"
     inkscape:window-height="1067"
     inkscape:window-x="0"
     inkscape:window-y="25"
     inkscape:window-maximized="0"
     inkscape:current-layer="svg1390" />
  <defs
     id="defs1" />
  <path
     id="rect1"
     style="fill:#ffc500"
     d="M 640 40 L 640 80 L 680 80 L 720 80 L 760 80 L 800 80 L 840 80 L 880 80 L 920 80 L 960 80 L 1000 80 L 1040 80 L 1080 80 L 1120 80 L 1160 80 L 1200 80 L 1240 80 L 1280 80 L 1280 40 L 1240 40 L 1200 40 L 1160 40 L 1120 40 L 1080 40 L 1040 40 L 1000 40 L 960 40 L 920 40 L 880 40 L 840 40 L 800 40 L 760 40 L 720 40 L 680 40 L 640 40 z M 1280 80 L 1280 120 L 1320 120 L 1360 120 L 1360 160 L 1400 160 L 1400 200 L 1440 200 L 1440 240 L 1440 280 L 1480 280 L 1480 240 L 1520 240 L 1520 280 L 1480 280 L 1480 320 L 1440 320 L 1440 360 L 1400 360 L 1400 320 L 1360 320 L 1320 320 L 1280 320 L 1240 320 L 1240 360 L 1200 360 L 1160 360 L 1120 360 L 1080 360 L 1040 360 L 1000 360 L 960 360 L 920 360 L 880 360 L 840 360 L 800 360 L 760 360 L 720 360 L 680 360 L 680 320 L 640 320 L 600 320 L 560 320 L 520 320 L 520 360 L 480 360 L 440 360 L 440 400 L 480 400 L 520 400 L 520 440 L 560 440 L 560 400 L 560 360 L 600 360 L 640 360 L 640 400 L 600 400 L 600 440 L 640 440 L 640 480 L 680 480 L 720 480 L 760 480 L 800 480 L 840 480 L 880 480 L 920 480 L 960 480 L 1000 480 L 1040 480 L 1080 480 L 1120 480 L 1160 480 L 1200 480 L 1240 480 L 1280 480 L 1280 440 L 1320 440 L 1360 440 L 1400 440 L 1400 400 L 1440 400 L 1480 400 L 1480 360 L 1520 360 L 1520 320 L 1560 320 L 1560 280 L 1560 240 L 1560 200 L 1520 200 L 1520 160 L 1480 160 L 1480 120 L 1440 120 L 1400 120 L 1400 80 L 1360 80 L 1320 80 L 1280 80 z M 440 360 L 440 320 L 400 320 L 400 360 L 440 360 z M 400 320 L 400 280 L 400 240 L 440 240 L 440 280 L 480 280 L 480 240 L 480 200 L 520 200 L 520 160 L 560 160 L 560 120 L 600 120 L 640 120 L 640 80 L 600 80 L 560 80 L 520 80 L 520 120 L 480 120 L 440 120 L 440 160 L 400 160 L 400 200 L 360 200 L 360 240 L 360 280 L 360 320 L 400 320 z M 480 280 L 480 320 L 520 320 L 520 280 L 480 280 z M 1400 320 L 1440 320 L 1440 280 L 1400 280 L 1400 320 z M 1280 360 L 1320 360 L 1360 360 L 1360 400 L 1320 400 L 1280 400 L 1280 360 z " />
  <path
     id="rect20"
     style="fill:#997600"
     d="M 640 80 L 640 120 L 600 120 L 560 120 L 560 160 L 520 160 L 520 200 L 480 200 L 480 240 L 480 280 L 520 280 L 520 320 L 560 320 L 560 280 L 560 240 L 600 240 L 640 240 L 680 240 L 680 200 L 720 200 L 760 200 L 800 200 L 840 200 L 880 200 L 880 160 L 920 160 L 920 120 L 960 120 L 1000 120 L 1000 160 L 1000 200 L 1040 200 L 1080 200 L 1120 200 L 1160 200 L 1200 200 L 1240 200 L 1240 240 L 1280 240 L 1320 240 L 1360 240 L 1360 280 L 1360 320 L 1400 320 L 1400 280 L 1440 280 L 1440 240 L 1440 200 L 1400 200 L 1400 160 L 1360 160 L 1360 120 L 1320 120 L 1280 120 L 1280 80 L 1240 80 L 1200 80 L 1160 80 L 1120 80 L 1080 80 L 1040 80 L 1000 80 L 960 80 L 920 80 L 880 80 L 840 80 L 800 80 L 760 80 L 720 80 L 680 80 L 640 80 z M 360 320 L 360 360 L 400 360 L 400 320 L 360 320 z M 400 360 L 400 400 L 440 400 L 440 360 L 400 360 z M 440 400 L 440 440 L 480 440 L 520 440 L 520 400 L 480 400 L 440 400 z M 520 440 L 520 480 L 560 480 L 600 480 L 640 480 L 640 440 L 600 440 L 560 440 L 520 440 z M 640 480 L 640 520 L 680 520 L 720 520 L 760 520 L 800 520 L 840 520 L 880 520 L 920 520 L 960 520 L 1000 520 L 1040 520 L 1080 520 L 1120 520 L 1160 520 L 1200 520 L 1240 520 L 1280 520 L 1280 480 L 1240 480 L 1200 480 L 1160 480 L 1120 480 L 1080 480 L 1040 480 L 1000 480 L 960 480 L 920 480 L 880 480 L 840 480 L 800 480 L 760 480 L 720 480 L 680 480 L 640 480 z M 1280 480 L 1320 480 L 1360 480 L 1400 480 L 1400 440 L 1360 440 L 1320 440 L 1280 440 L 1280 480 z M 1400 440 L 1440 440 L 1480 440 L 1480 400 L 1440 400 L 1400 400 L 1400 440 z M 1480 400 L 1520 400 L 1520 360 L 1480 360 L 1480 400 z M 1520 360 L 1560 360 L 1560 320 L 1520 320 L 1520 360 z " />
  <path
     id="rect51"
     style="fill:#644acf"
     d="M 920 120 L 920 160 L 960 160 L 960 200 L 1000 200 L 1000 160 L 1000 120 L 960 120 L 920 120 z M 1000 200 L 1000 240 L 1040 240 L 1080 240 L 1080 200 L 1040 200 L 1000 200 z M 1080 240 L 1080 280 L 1080 320 L 1080 360 L 1120 360 L 1120 320 L 1160 320 L 1160 280 L 1120 280 L 1120 240 L 1080 240 z M 1160 320 L 1160 360 L 1200 360 L 1240 360 L 1240 320 L 1200 320 L 1160 320 z M 920 160 L 880 160 L 880 200 L 920 200 L 920 160 z M 880 200 L 840 200 L 840 240 L 880 240 L 880 200 z M 840 240 L 800 240 L 800 280 L 760 280 L 760 320 L 800 320 L 800 360 L 840 360 L 840 320 L 840 280 L 840 240 z M 760 320 L 720 320 L 680 320 L 680 360 L 720 360 L 760 360 L 760 320 z M 520 480 L 520 520 L 560 520 L 560 480 L 520 480 z M 520 520 L 480 520 L 480 560 L 520 560 L 520 520 z M 480 560 L 440 560 L 440 600 L 440 640 L 400 640 L 400 680 L 440 680 L 440 720 L 480 720 L 480 680 L 480 640 L 480 600 L 480 560 z M 480 720 L 480 760 L 520 760 L 520 720 L 480 720 z M 520 760 L 520 800 L 560 800 L 600 800 L 600 760 L 560 760 L 520 760 z M 600 800 L 600 840 L 640 840 L 680 840 L 720 840 L 760 840 L 800 840 L 840 840 L 880 840 L 920 840 L 960 840 L 1000 840 L 1040 840 L 1080 840 L 1120 840 L 1160 840 L 1200 840 L 1240 840 L 1280 840 L 1320 840 L 1320 800 L 1280 800 L 1240 800 L 1200 800 L 1160 800 L 1120 800 L 1080 800 L 1040 800 L 1000 800 L 960 800 L 920 800 L 880 800 L 840 800 L 800 800 L 760 800 L 720 800 L 680 800 L 640 800 L 600 800 z M 1320 800 L 1360 800 L 1400 800 L 1400 760 L 1360 760 L 1320 760 L 1320 800 z M 1400 760 L 1440 760 L 1440 720 L 1400 720 L 1400 760 z M 1440 720 L 1480 720 L 1480 680 L 1520 680 L 1520 640 L 1480 640 L 1480 600 L 1480 560 L 1440 560 L 1440 600 L 1440 640 L 1440 680 L 1440 720 z M 1440 560 L 1440 520 L 1400 520 L 1400 560 L 1440 560 z M 1400 520 L 1400 480 L 1360 480 L 1360 520 L 1400 520 z M 1520 680 L 1520 720 L 1560 720 L 1560 680 L 1520 680 z M 1560 720 L 1560 760 L 1600 760 L 1600 720 L 1560 720 z M 1600 760 L 1600 800 L 1600 840 L 1600 880 L 1600 920 L 1640 920 L 1640 880 L 1640 840 L 1640 800 L 1640 760 L 1600 760 z M 1600 920 L 1560 920 L 1560 960 L 1600 960 L 1600 920 z M 1560 960 L 1520 960 L 1480 960 L 1480 1000 L 1520 1000 L 1560 1000 L 1560 960 z M 1480 1000 L 1440 1000 L 1400 1000 L 1400 1040 L 1440 1040 L 1480 1040 L 1480 1000 z M 1400 1040 L 1360 1040 L 1320 1040 L 1280 1040 L 1240 1040 L 1200 1040 L 1160 1040 L 1120 1040 L 1080 1040 L 1040 1040 L 1000 1040 L 960 1040 L 920 1040 L 880 1040 L 840 1040 L 800 1040 L 760 1040 L 720 1040 L 680 1040 L 640 1040 L 600 1040 L 560 1040 L 520 1040 L 520 1080 L 560 1080 L 600 1080 L 640 1080 L 680 1080 L 720 1080 L 760 1080 L 800 1080 L 840 1080 L 880 1080 L 920 1080 L 960 1080 L 1000 1080 L 1040 1080 L 1080 1080 L 1120 1080 L 1160 1080 L 1200 1080 L 1240 1080 L 1280 1080 L 1320 1080 L 1360 1080 L 1400 1080 L 1400 1040 z M 520 1040 L 520 1000 L 480 1000 L 440 1000 L 440 1040 L 480 1040 L 520 1040 z M 440 1000 L 440 960 L 400 960 L 360 960 L 360 1000 L 400 1000 L 440 1000 z M 360 960 L 360 920 L 320 920 L 320 960 L 360 960 z M 320 920 L 320 880 L 320 840 L 320 800 L 320 760 L 280 760 L 280 800 L 280 840 L 280 880 L 280 920 L 320 920 z M 320 760 L 360 760 L 360 720 L 320 720 L 320 760 z M 360 720 L 400 720 L 400 680 L 360 680 L 360 720 z M 600 480 L 600 520 L 600 560 L 640 560 L 640 520 L 640 480 L 600 480 z M 640 560 L 640 600 L 680 600 L 720 600 L 720 560 L 680 560 L 640 560 z M 720 600 L 720 640 L 760 640 L 800 640 L 840 640 L 880 640 L 920 640 L 960 640 L 1000 640 L 1040 640 L 1080 640 L 1120 640 L 1160 640 L 1200 640 L 1200 600 L 1160 600 L 1120 600 L 1080 600 L 1040 600 L 1000 600 L 960 600 L 920 600 L 880 600 L 840 600 L 800 600 L 760 600 L 720 600 z M 1200 600 L 1240 600 L 1280 600 L 1280 560 L 1240 560 L 1200 560 L 1200 600 z M 1280 560 L 1320 560 L 1320 520 L 1320 480 L 1280 480 L 1280 520 L 1280 560 z M 160 1080 L 160 1120 L 200 1120 L 240 1120 L 280 1120 L 320 1120 L 320 1080 L 280 1080 L 240 1080 L 200 1080 L 160 1080 z M 320 1120 L 320 1160 L 360 1160 L 360 1120 L 320 1120 z M 160 1120 L 120 1120 L 120 1160 L 120 1200 L 160 1200 L 160 1160 L 160 1120 z M 120 1200 L 80 1200 L 80 1240 L 80 1280 L 80 1320 L 120 1320 L 120 1280 L 120 1240 L 120 1200 z M 80 1320 L 40 1320 L 40 1360 L 40 1400 L 40 1440 L 40 1480 L 40 1520 L 40 1560 L 80 1560 L 120 1560 L 120 1520 L 80 1520 L 80 1480 L 80 1440 L 80 1400 L 80 1360 L 80 1320 z M 120 1520 L 160 1520 L 200 1520 L 200 1480 L 160 1480 L 120 1480 L 120 1520 z M 200 1480 L 240 1480 L 280 1480 L 320 1480 L 320 1440 L 280 1440 L 240 1440 L 200 1440 L 200 1480 z M 320 1440 L 360 1440 L 400 1440 L 400 1400 L 360 1400 L 320 1400 L 320 1440 z M 1600 1080 L 1600 1120 L 1640 1120 L 1680 1120 L 1720 1120 L 1760 1120 L 1760 1080 L 1720 1080 L 1680 1080 L 1640 1080 L 1600 1080 z M 1760 1120 L 1760 1160 L 1760 1200 L 1800 1200 L 1800 1160 L 1800 1120 L 1760 1120 z M 1800 1200 L 1800 1240 L 1800 1280 L 1800 1320 L 1840 1320 L 1840 1280 L 1840 1240 L 1840 1200 L 1800 1200 z M 1840 1320 L 1840 1360 L 1840 1400 L 1840 1440 L 1840 1480 L 1840 1520 L 1800 1520 L 1800 1560 L 1840 1560 L 1880 1560 L 1880 1520 L 1880 1480 L 1880 1440 L 1880 1400 L 1880 1360 L 1880 1320 L 1840 1320 z M 1800 1520 L 1800 1480 L 1760 1480 L 1720 1480 L 1720 1520 L 1760 1520 L 1800 1520 z M 1720 1480 L 1720 1440 L 1680 1440 L 1640 1440 L 1600 1440 L 1600 1480 L 1640 1480 L 1680 1480 L 1720 1480 z M 1600 1440 L 1600 1400 L 1560 1400 L 1520 1400 L 1520 1440 L 1560 1440 L 1600 1440 z M 1600 1120 L 1560 1120 L 1560 1160 L 1600 1160 L 1600 1120 z " />
  <path
     id="rect78"
     style="fill:#ffffff"
     d="M 920 160 L 920 200 L 880 200 L 880 240 L 840 240 L 840 280 L 840 320 L 880 320 L 880 360 L 920 360 L 960 360 L 1000 360 L 1040 360 L 1040 320 L 1080 320 L 1080 280 L 1080 240 L 1040 240 L 1000 240 L 1000 200 L 960 200 L 960 160 L 920 160 z M 400 240 L 400 280 L 400 320 L 440 320 L 440 360 L 480 360 L 520 360 L 520 320 L 480 320 L 480 280 L 440 280 L 440 240 L 400 240 z M 1480 240 L 1480 280 L 1520 280 L 1520 240 L 1480 240 z M 1480 280 L 1440 280 L 1440 320 L 1480 320 L 1480 280 z M 1440 320 L 1400 320 L 1400 360 L 1440 360 L 1440 320 z M 760 320 L 760 360 L 800 360 L 800 320 L 760 320 z M 1120 320 L 1120 360 L 1160 360 L 1160 320 L 1120 320 z M 560 360 L 560 400 L 560 440 L 600 440 L 600 400 L 640 400 L 640 360 L 600 360 L 560 360 z M 1280 360 L 1280 400 L 1320 400 L 1360 400 L 1360 360 L 1320 360 L 1280 360 z M 560 480 L 560 520 L 520 520 L 520 560 L 480 560 L 480 600 L 480 640 L 520 640 L 520 680 L 560 680 L 560 720 L 600 720 L 640 720 L 640 760 L 680 760 L 720 760 L 760 760 L 800 760 L 840 760 L 880 760 L 920 760 L 960 760 L 1000 760 L 1040 760 L 1080 760 L 1120 760 L 1160 760 L 1200 760 L 1240 760 L 1280 760 L 1280 720 L 1320 720 L 1360 720 L 1360 680 L 1400 680 L 1400 640 L 1440 640 L 1440 600 L 1440 560 L 1400 560 L 1400 520 L 1360 520 L 1360 480 L 1320 480 L 1320 520 L 1320 560 L 1280 560 L 1280 600 L 1240 600 L 1200 600 L 1200 640 L 1160 640 L 1120 640 L 1080 640 L 1040 640 L 1000 640 L 960 640 L 920 640 L 880 640 L 840 640 L 800 640 L 760 640 L 720 640 L 720 600 L 680 600 L 640 600 L 640 560 L 600 560 L 600 520 L 600 480 L 560 480 z M 760 520 L 760 560 L 800 560 L 840 560 L 880 560 L 920 560 L 960 560 L 1000 560 L 1040 560 L 1080 560 L 1120 560 L 1160 560 L 1160 520 L 1120 520 L 1080 520 L 1040 520 L 1000 520 L 960 520 L 920 520 L 880 520 L 840 520 L 800 520 L 760 520 z M 360 720 L 360 760 L 320 760 L 320 800 L 320 840 L 360 840 L 360 880 L 400 880 L 440 880 L 440 920 L 480 920 L 520 920 L 560 920 L 560 960 L 600 960 L 640 960 L 680 960 L 720 960 L 760 960 L 800 960 L 840 960 L 880 960 L 920 960 L 960 960 L 1000 960 L 1040 960 L 1080 960 L 1120 960 L 1160 960 L 1200 960 L 1240 960 L 1280 960 L 1320 960 L 1360 960 L 1360 920 L 1400 920 L 1440 920 L 1480 920 L 1480 880 L 1520 880 L 1560 880 L 1560 840 L 1600 840 L 1600 800 L 1600 760 L 1560 760 L 1560 720 L 1520 720 L 1520 760 L 1480 760 L 1480 800 L 1440 800 L 1440 840 L 1400 840 L 1360 840 L 1360 880 L 1320 880 L 1280 880 L 1240 880 L 1200 880 L 1160 880 L 1120 880 L 1080 880 L 1040 880 L 1000 880 L 960 880 L 920 880 L 880 880 L 840 880 L 800 880 L 760 880 L 720 880 L 680 880 L 640 880 L 600 880 L 560 880 L 560 840 L 520 840 L 480 840 L 480 800 L 440 800 L 440 760 L 400 760 L 400 720 L 360 720 z M 640 1160 L 640 1200 L 640 1240 L 640 1280 L 680 1280 L 680 1240 L 720 1240 L 720 1200 L 720 1160 L 680 1160 L 640 1160 z M 1120 1160 L 1120 1200 L 1120 1240 L 1120 1280 L 1160 1280 L 1160 1240 L 1200 1240 L 1200 1200 L 1200 1160 L 1160 1160 L 1120 1160 z M 680 1400 L 680 1440 L 680 1480 L 720 1480 L 760 1480 L 800 1480 L 840 1480 L 880 1480 L 920 1480 L 960 1480 L 1000 1480 L 1040 1480 L 1080 1480 L 1120 1480 L 1160 1480 L 1200 1480 L 1240 1480 L 1240 1440 L 1240 1400 L 1200 1400 L 1160 1400 L 1120 1400 L 1080 1400 L 1040 1400 L 1000 1400 L 960 1400 L 920 1400 L 880 1400 L 840 1400 L 800 1400 L 760 1400 L 720 1400 L 680 1400 z " />
  <path
     id="rect165"
     style="fill:#b2a5e7"
     d="M 840 320 L 840 360 L 880 360 L 880 320 L 840 320 z M 1040 320 L 1040 360 L 1080 360 L 1080 320 L 1040 320 z M 640 520 L 640 560 L 680 560 L 720 560 L 720 600 L 760 600 L 800 600 L 840 600 L 880 600 L 920 600 L 960 600 L 1000 600 L 1040 600 L 1080 600 L 1120 600 L 1160 600 L 1200 600 L 1200 560 L 1240 560 L 1280 560 L 1280 520 L 1240 520 L 1200 520 L 1160 520 L 1160 560 L 1120 560 L 1080 560 L 1040 560 L 1000 560 L 960 560 L 920 560 L 880 560 L 840 560 L 800 560 L 760 560 L 760 520 L 720 520 L 680 520 L 640 520 z M 480 640 L 480 680 L 480 720 L 520 720 L 520 760 L 560 760 L 600 760 L 600 800 L 640 800 L 680 800 L 720 800 L 760 800 L 800 800 L 840 800 L 880 800 L 920 800 L 960 800 L 1000 800 L 1040 800 L 1080 800 L 1120 800 L 1160 800 L 1200 800 L 1240 800 L 1280 800 L 1320 800 L 1320 760 L 1360 760 L 1400 760 L 1400 720 L 1440 720 L 1440 680 L 1440 640 L 1400 640 L 1400 680 L 1360 680 L 1360 720 L 1320 720 L 1280 720 L 1280 760 L 1240 760 L 1200 760 L 1160 760 L 1120 760 L 1080 760 L 1040 760 L 1000 760 L 960 760 L 920 760 L 880 760 L 840 760 L 800 760 L 760 760 L 720 760 L 680 760 L 640 760 L 640 720 L 600 720 L 560 720 L 560 680 L 520 680 L 520 640 L 480 640 z M 1440 720 L 1440 760 L 1400 760 L 1400 800 L 1360 800 L 1320 800 L 1320 840 L 1280 840 L 1240 840 L 1200 840 L 1160 840 L 1120 840 L 1080 840 L 1040 840 L 1000 840 L 960 840 L 920 840 L 880 840 L 840 840 L 800 840 L 760 840 L 720 840 L 680 840 L 640 840 L 600 840 L 600 800 L 560 800 L 520 800 L 520 760 L 480 760 L 480 720 L 440 720 L 440 680 L 400 680 L 400 720 L 400 760 L 440 760 L 440 800 L 480 800 L 480 840 L 520 840 L 560 840 L 560 880 L 600 880 L 640 880 L 680 880 L 720 880 L 760 880 L 800 880 L 840 880 L 880 880 L 920 880 L 960 880 L 1000 880 L 1040 880 L 1080 880 L 1120 880 L 1160 880 L 1200 880 L 1240 880 L 1280 880 L 1320 880 L 1360 880 L 1360 840 L 1400 840 L 1440 840 L 1440 800 L 1480 800 L 1480 760 L 1520 760 L 1520 720 L 1520 680 L 1480 680 L 1480 720 L 1440 720 z M 320 840 L 320 880 L 320 920 L 360 920 L 360 960 L 400 960 L 440 960 L 440 1000 L 480 1000 L 520 1000 L 520 1040 L 560 1040 L 600 1040 L 640 1040 L 680 1040 L 720 1040 L 760 1040 L 800 1040 L 840 1040 L 880 1040 L 920 1040 L 960 1040 L 1000 1040 L 1040 1040 L 1080 1040 L 1120 1040 L 1160 1040 L 1200 1040 L 1240 1040 L 1280 1040 L 1320 1040 L 1360 1040 L 1400 1040 L 1400 1000 L 1440 1000 L 1480 1000 L 1480 960 L 1520 960 L 1560 960 L 1560 920 L 1600 920 L 1600 880 L 1600 840 L 1560 840 L 1560 880 L 1520 880 L 1480 880 L 1480 920 L 1440 920 L 1400 920 L 1360 920 L 1360 960 L 1320 960 L 1280 960 L 1240 960 L 1200 960 L 1160 960 L 1120 960 L 1080 960 L 1040 960 L 1000 960 L 960 960 L 920 960 L 880 960 L 840 960 L 800 960 L 760 960 L 720 960 L 680 960 L 640 960 L 600 960 L 560 960 L 560 920 L 520 920 L 480 920 L 440 920 L 440 880 L 400 880 L 360 880 L 360 840 L 320 840 z " />
  <path
     id="rect645"
     style="fill:#354e88"
     d="M 360 1000 L 360 1040 L 360 1080 L 360 1120 L 360 1160 L 360 1200 L 360 1240 L 360 1280 L 400 1280 L 400 1240 L 400 1200 L 400 1160 L 400 1120 L 400 1080 L 400 1040 L 400 1000 L 360 1000 z M 400 1280 L 400 1320 L 400 1360 L 400 1400 L 400 1440 L 400 1480 L 400 1520 L 400 1560 L 440 1560 L 440 1520 L 440 1480 L 440 1440 L 440 1400 L 440 1360 L 440 1320 L 440 1280 L 400 1280 z M 440 1560 L 440 1600 L 440 1640 L 440 1680 L 480 1680 L 480 1640 L 480 1600 L 480 1560 L 440 1560 z M 480 1680 L 480 1720 L 480 1760 L 520 1760 L 520 1720 L 520 1680 L 480 1680 z M 520 1760 L 520 1800 L 560 1800 L 560 1760 L 520 1760 z M 560 1800 L 560 1840 L 600 1840 L 640 1840 L 640 1800 L 600 1800 L 560 1800 z M 640 1840 L 640 1880 L 680 1880 L 720 1880 L 760 1880 L 800 1880 L 840 1880 L 880 1880 L 920 1880 L 960 1880 L 1000 1880 L 1040 1880 L 1080 1880 L 1120 1880 L 1160 1880 L 1200 1880 L 1240 1880 L 1280 1880 L 1280 1840 L 1240 1840 L 1200 1840 L 1160 1840 L 1120 1840 L 1080 1840 L 1040 1840 L 1000 1840 L 960 1840 L 920 1840 L 880 1840 L 840 1840 L 800 1840 L 760 1840 L 720 1840 L 680 1840 L 640 1840 z M 1280 1840 L 1320 1840 L 1360 1840 L 1360 1800 L 1320 1800 L 1280 1800 L 1280 1840 z M 1360 1800 L 1400 1800 L 1400 1760 L 1360 1760 L 1360 1800 z M 1400 1760 L 1440 1760 L 1440 1720 L 1440 1680 L 1400 1680 L 1400 1720 L 1400 1760 z M 1440 1680 L 1480 1680 L 1480 1640 L 1480 1600 L 1480 1560 L 1440 1560 L 1440 1600 L 1440 1640 L 1440 1680 z M 1480 1560 L 1520 1560 L 1520 1520 L 1520 1480 L 1520 1440 L 1520 1400 L 1520 1360 L 1520 1320 L 1520 1280 L 1480 1280 L 1480 1320 L 1480 1360 L 1480 1400 L 1480 1440 L 1480 1480 L 1480 1520 L 1480 1560 z M 1520 1280 L 1560 1280 L 1560 1240 L 1560 1200 L 1560 1160 L 1560 1120 L 1560 1080 L 1560 1040 L 1560 1000 L 1520 1000 L 1520 1040 L 1520 1080 L 1520 1120 L 1520 1160 L 1520 1200 L 1520 1240 L 1520 1280 z " />
  <path
     id="rect646"
     style="fill:#b1c1dd"
     d="M 400 1000 L 400 1040 L 400 1080 L 400 1120 L 400 1160 L 400 1200 L 400 1240 L 400 1280 L 440 1280 L 440 1320 L 440 1360 L 440 1400 L 440 1440 L 440 1480 L 440 1520 L 440 1560 L 480 1560 L 480 1600 L 480 1640 L 480 1680 L 520 1680 L 520 1720 L 520 1760 L 560 1760 L 560 1800 L 600 1800 L 640 1800 L 640 1840 L 680 1840 L 720 1840 L 760 1840 L 800 1840 L 840 1840 L 880 1840 L 920 1840 L 960 1840 L 1000 1840 L 1040 1840 L 1080 1840 L 1120 1840 L 1160 1840 L 1200 1840 L 1240 1840 L 1280 1840 L 1280 1800 L 1320 1800 L 1360 1800 L 1360 1760 L 1400 1760 L 1400 1720 L 1400 1680 L 1440 1680 L 1440 1640 L 1440 1600 L 1440 1560 L 1480 1560 L 1480 1520 L 1480 1480 L 1480 1440 L 1480 1400 L 1480 1360 L 1480 1320 L 1480 1280 L 1520 1280 L 1520 1240 L 1520 1200 L 1520 1160 L 1520 1120 L 1520 1080 L 1520 1040 L 1520 1000 L 1480 1000 L 1480 1040 L 1440 1040 L 1400 1040 L 1400 1080 L 1360 1080 L 1320 1080 L 1280 1080 L 1240 1080 L 1200 1080 L 1160 1080 L 1120 1080 L 1080 1080 L 1040 1080 L 1000 1080 L 960 1080 L 920 1080 L 880 1080 L 840 1080 L 800 1080 L 760 1080 L 720 1080 L 680 1080 L 640 1080 L 600 1080 L 560 1080 L 520 1080 L 520 1040 L 480 1040 L 440 1040 L 440 1000 L 400 1000 z M 640 1120 L 680 1120 L 720 1120 L 760 1120 L 800 1120 L 800 1160 L 840 1160 L 840 1200 L 840 1240 L 840 1280 L 840 1320 L 800 1320 L 760 1320 L 720 1320 L 680 1320 L 640 1320 L 600 1320 L 600 1280 L 600 1240 L 600 1200 L 600 1160 L 640 1160 L 640 1120 z M 1120 1120 L 1160 1120 L 1200 1120 L 1240 1120 L 1280 1120 L 1280 1160 L 1320 1160 L 1320 1200 L 1320 1240 L 1320 1280 L 1320 1320 L 1280 1320 L 1240 1320 L 1200 1320 L 1160 1320 L 1120 1320 L 1080 1320 L 1080 1280 L 1080 1240 L 1080 1200 L 1080 1160 L 1120 1160 L 1120 1120 z M 560 1360 L 600 1360 L 640 1360 L 680 1360 L 720 1360 L 760 1360 L 800 1360 L 840 1360 L 880 1360 L 920 1360 L 960 1360 L 1000 1360 L 1040 1360 L 1080 1360 L 1120 1360 L 1160 1360 L 1200 1360 L 1240 1360 L 1280 1360 L 1320 1360 L 1360 1360 L 1360 1400 L 1360 1440 L 1360 1480 L 1360 1520 L 1360 1560 L 1360 1600 L 1360 1640 L 1320 1640 L 1320 1680 L 1280 1680 L 1280 1720 L 1240 1720 L 1200 1720 L 1200 1760 L 1160 1760 L 1120 1760 L 1080 1760 L 1040 1760 L 1000 1760 L 960 1760 L 920 1760 L 880 1760 L 840 1760 L 800 1760 L 760 1760 L 720 1760 L 720 1720 L 680 1720 L 640 1720 L 640 1680 L 600 1680 L 600 1640 L 560 1640 L 560 1600 L 560 1560 L 560 1520 L 560 1480 L 560 1440 L 560 1400 L 560 1360 z " />
  <path
     id="rect744"
     style="fill:#b7abe6"
     d="M 160 1120 L 160 1160 L 160 1200 L 120 1200 L 120 1240 L 120 1280 L 120 1320 L 80 1320 L 80 1360 L 80 1400 L 80 1440 L 80 1480 L 80 1520 L 120 1520 L 120 1480 L 120 1440 L 120 1400 L 120 1360 L 160 1360 L 160 1320 L 160 1280 L 160 1240 L 200 1240 L 200 1200 L 200 1160 L 240 1160 L 280 1160 L 320 1160 L 320 1120 L 280 1120 L 240 1120 L 200 1120 L 160 1120 z M 320 1160 L 320 1200 L 360 1200 L 360 1160 L 320 1160 z M 1600 1120 L 1600 1160 L 1640 1160 L 1680 1160 L 1720 1160 L 1720 1200 L 1720 1240 L 1760 1240 L 1760 1280 L 1760 1320 L 1760 1360 L 1800 1360 L 1800 1400 L 1800 1440 L 1800 1480 L 1800 1520 L 1840 1520 L 1840 1480 L 1840 1440 L 1840 1400 L 1840 1360 L 1840 1320 L 1800 1320 L 1800 1280 L 1800 1240 L 1800 1200 L 1760 1200 L 1760 1160 L 1760 1120 L 1720 1120 L 1680 1120 L 1640 1120 L 1600 1120 z M 1600 1160 L 1560 1160 L 1560 1200 L 1600 1200 L 1600 1160 z " />
  <path
     id="rect756"
     style="fill:#0f0f0f"
     d="M 640 1120 L 640 1160 L 680 1160 L 720 1160 L 720 1200 L 720 1240 L 680 1240 L 680 1280 L 640 1280 L 640 1240 L 640 1200 L 640 1160 L 600 1160 L 600 1200 L 600 1240 L 600 1280 L 600 1320 L 640 1320 L 680 1320 L 720 1320 L 760 1320 L 800 1320 L 840 1320 L 840 1280 L 840 1240 L 840 1200 L 840 1160 L 800 1160 L 800 1120 L 760 1120 L 720 1120 L 680 1120 L 640 1120 z M 1120 1120 L 1120 1160 L 1160 1160 L 1200 1160 L 1200 1200 L 1200 1240 L 1160 1240 L 1160 1280 L 1120 1280 L 1120 1240 L 1120 1200 L 1120 1160 L 1080 1160 L 1080 1200 L 1080 1240 L 1080 1280 L 1080 1320 L 1120 1320 L 1160 1320 L 1200 1320 L 1240 1320 L 1280 1320 L 1320 1320 L 1320 1280 L 1320 1240 L 1320 1200 L 1320 1160 L 1280 1160 L 1280 1120 L 1240 1120 L 1200 1120 L 1160 1120 L 1120 1120 z M 560 1400 L 560 1440 L 560 1480 L 560 1520 L 560 1560 L 560 1600 L 560 1640 L 600 1640 L 600 1680 L 640 1680 L 640 1720 L 680 1720 L 720 1720 L 720 1760 L 760 1760 L 800 1760 L 840 1760 L 880 1760 L 920 1760 L 960 1760 L 1000 1760 L 1040 1760 L 1080 1760 L 1120 1760 L 1160 1760 L 1200 1760 L 1200 1720 L 1240 1720 L 1280 1720 L 1280 1680 L 1320 1680 L 1320 1640 L 1360 1640 L 1360 1600 L 1360 1560 L 1360 1520 L 1360 1480 L 1360 1440 L 1360 1400 L 1320 1400 L 1280 1400 L 1240 1400 L 1240 1440 L 1240 1480 L 1200 1480 L 1160 1480 L 1120 1480 L 1080 1480 L 1040 1480 L 1000 1480 L 960 1480 L 920 1480 L 880 1480 L 840 1480 L 800 1480 L 760 1480 L 720 1480 L 680 1480 L 680 1440 L 680 1400 L 640 1400 L 600 1400 L 560 1400 z M 840 1640 L 880 1640 L 920 1640 L 960 1640 L 1000 1640 L 1040 1640 L 1080 1640 L 1080 1680 L 1120 1680 L 1120 1720 L 1080 1720 L 1040 1720 L 1000 1720 L 960 1720 L 920 1720 L 880 1720 L 840 1720 L 800 1720 L 800 1680 L 840 1680 L 840 1640 z " />
  <path
     id="rect787"
     style="fill:#8e7bdb"
     d="M 200 1160 L 200 1200 L 200 1240 L 160 1240 L 160 1280 L 160 1320 L 160 1360 L 120 1360 L 120 1400 L 120 1440 L 120 1480 L 160 1480 L 200 1480 L 200 1440 L 240 1440 L 280 1440 L 320 1440 L 320 1400 L 360 1400 L 400 1400 L 400 1360 L 400 1320 L 400 1280 L 360 1280 L 360 1240 L 360 1200 L 320 1200 L 320 1160 L 280 1160 L 240 1160 L 200 1160 z M 1600 1160 L 1600 1200 L 1560 1200 L 1560 1240 L 1560 1280 L 1520 1280 L 1520 1320 L 1520 1360 L 1520 1400 L 1560 1400 L 1600 1400 L 1600 1440 L 1640 1440 L 1680 1440 L 1720 1440 L 1720 1480 L 1760 1480 L 1800 1480 L 1800 1440 L 1800 1400 L 1800 1360 L 1760 1360 L 1760 1320 L 1760 1280 L 1760 1240 L 1720 1240 L 1720 1200 L 1720 1160 L 1680 1160 L 1640 1160 L 1600 1160 z " />
  <path
     id="rect1018"
     style="fill:#403588"
     d="M 560 1360 L 560 1400 L 600 1400 L 640 1400 L 680 1400 L 720 1400 L 760 1400 L 800 1400 L 840 1400 L 880 1400 L 920 1400 L 960 1400 L 1000 1400 L 1040 1400 L 1080 1400 L 1120 1400 L 1160 1400 L 1200 1400 L 1240 1400 L 1280 1400 L 1320 1400 L 1360 1400 L 1360 1360 L 1320 1360 L 1280 1360 L 1240 1360 L 1200 1360 L 1160 1360 L 1120 1360 L 1080 1360 L 1040 1360 L 1000 1360 L 960 1360 L 920 1360 L 880 1360 L 840 1360 L 800 1360 L 760 1360 L 720 1360 L 680 1360 L 640 1360 L 600 1360 L 560 1360 z " />
  <path
     id="rect1269"
     style="fill:#bf0000"
     d="M 840 1640 L 840 1680 L 800 1680 L 800 1720 L 840 1720 L 880 1720 L 920 1720 L 960 1720 L 1000 1720 L 1040 1720 L 1080 1720 L 1120 1720 L 1120 1680 L 1080 1680 L 1080 1640 L 1040 1640 L 1000 1640 L 960 1640 L 920 1640 L 880 1640 L 840 1640 z " />
</svg>
