<?xml version="1.0" encoding="UTF-8" standalone="no"?>
<!-- Created with Inkscape (http://www.inkscape.org/) -->

<svg
   width="1024"
   height="1024"
   id="svg2"
   version="1.1"
   inkscape:version="1.2.2 (b0a8486, 2022-12-01)"
   sodipodi:docname="logo_template.svg"
   inkscape:export-xdpi="4.8800001"
   inkscape:export-ydpi="4.8800001"
   inkscape:export-filename=""
   xmlns:inkscape="http://www.inkscape.org/namespaces/inkscape"
   xmlns:sodipodi="http://sodipodi.sourceforge.net/DTD/sodipodi-0.dtd"
   xmlns="http://www.w3.org/2000/svg"
   xmlns:svg="http://www.w3.org/2000/svg"
   xmlns:rdf="http://www.w3.org/1999/02/22-rdf-syntax-ns#"
   xmlns:cc="http://creativecommons.org/ns#"
   xmlns:dc="http://purl.org/dc/elements/1.1/">
  <defs
     id="defs4" />
  <sodipodi:namedview
     id="base"
     pagecolor="#808080"
     bordercolor="#666666"
     borderopacity="1.0"
     inkscape:pageopacity="0"
     inkscape:pageshadow="2"
     inkscape:zoom="0.44815654"
     inkscape:cx="460.7765"
     inkscape:cy="582.38579"
     inkscape:document-units="px"
     inkscape:current-layer="layer6"
     showgrid="false"
     showguides="true"
     inkscape:guide-bbox="true"
     fit-margin-top="0"
     fit-margin-left="0"
     fit-margin-right="0"
     fit-margin-bottom="0"
     inkscape:window-width="1309"
     inkscape:window-height="456"
     inkscape:window-x="0"
     inkscape:window-y="25"
     inkscape:window-maximized="0"
     inkscape:showpageshadow="false"
     borderlayer="true"
     showborder="false"
     inkscape:snap-global="false"
     inkscape:snap-page="false"
     inkscape:snap-bbox="true"
     inkscape:pagecheckerboard="1"
     inkscape:deskcolor="#808080">
    <sodipodi:guide
       orientation="0,1"
       position="-10.429825,956.71547"
       id="guide3101"
       inkscape:locked="false" />
    <sodipodi:guide
       orientation="1,0"
       position="956.5625,59.8125"
       id="guide3103"
       inkscape:locked="false" />
    <sodipodi:guide
       orientation="0,1"
       position="1246.875,315.625"
       id="guide3105"
       inkscape:locked="false" />
    <sodipodi:guide
       orientation="1,0"
       position="67.351921,64.523494"
       id="guide3107"
       inkscape:locked="false" />
    <sodipodi:guide
       orientation="0,1"
       position="961.5,67.5"
       id="guide3109"
       inkscape:locked="false" />
    <sodipodi:guide
       orientation="1,0"
       position="319.08193,67.707547"
       id="guide3111"
       inkscape:locked="false" />
    <sodipodi:guide
       orientation="1,0"
       position="511.68014,67.707547"
       id="guide3113"
       inkscape:locked="false" />
    <sodipodi:guide
       orientation="1,0"
       position="706.1875,64.734375"
       id="guide3115"
       inkscape:locked="false" />
    <sodipodi:guide
       orientation="0,1"
       position="-21.213203,1024"
       id="guide3117"
       inkscape:locked="false" />
    <sodipodi:guide
       orientation="0,1"
       position="0,0"
       id="guide3119"
       inkscape:locked="false" />
    <sodipodi:guide
       orientation="1,0"
       position="0,1042.6289"
       id="guide3121"
       inkscape:locked="false" />
    <sodipodi:guide
       orientation="0,1"
       position="-6.8942911,705"
       id="guide3123"
       inkscape:locked="false" />
    <sodipodi:guide
       orientation="1,0"
       position="1024,1037.75"
       id="guide3125"
       inkscape:locked="false" />
    <sodipodi:guide
       orientation="0,1"
       position="-27.223611,512.65241"
       id="guide3127"
       inkscape:locked="false" />
    <inkscape:grid
       type="xygrid"
       id="grid4235"
       empspacing="5"
       visible="true"
       enabled="true"
       snapvisiblegridlinesonly="true" />
    <sodipodi:guide
       orientation="1,0"
       position="511.68014,430.8932"
       id="guide4003"
       inkscape:locked="false" />
  </sodipodi:namedview>
  <metadata
     id="metadata7">
    <rdf:RDF>
      <cc:Work
         rdf:about="">
        <dc:format>image/svg+xml</dc:format>
        <dc:type
           rdf:resource="http://purl.org/dc/dcmitype/StillImage" />
      </cc:Work>
    </rdf:RDF>
  </metadata>
  <g
     inkscape:groupmode="layer"
     id="layer6"
     inkscape:label="MASK"
     style="display:inline">
    <g
       id="g4211">
      <path
         sodipodi:nodetypes="csssssssssssccc"
         inkscape:connector-curvature="0"
         id="path4146"
         d="M -0.03515625,708.40625 C 0.02048588,747.16387 0.58116726,779.4284 3.454015,808.59174 c 0.8757813,8.89038 2.0231286,17.50673 3.364698,25.91301 c 2.7291509,17.10087 6.251639,30.63186 10.624705,44.6288 c 0.983104,3.14664 2.343873,6.00913 3.546782,8.89844 c 4.954414,11.90016 10.441772,22.62502 16.75229,32.23106 c 7.482354,11.38984 16.590926,23.44234 26.690428,33.79613 c 11.282296,11.56636 22.163363,20.60638 34.238258,28.7856 c 7.753914,5.2523 15.167714,9.80978 23.655414,13.91931 c 3.34329,1.61873 6.78353,3.25751 10.45545,4.87471 c 6.01057,2.6472 12.64725,5.2405 20.38236,7.4312 c 16.33865,4.6274 37.83594,9.5058 66.67436,11.7859 c 26.04947,2.0596 58.07248,3.2184 99.20801,3.1754 l -319.08192625,0 z"
         style="color:#000000;display:inline;overflow:visible;visibility:visible;fill:#ffffff;fill-opacity:1;fill-rule:nonzero;stroke:none;stroke-width:2;marker:none;enable-background:accumulate" />
      <path
         sodipodi:nodetypes="cssssssssccc"
         inkscape:connector-curvature="0"
         id="path4146-5"
         d="m 1024,708.375 c -0.028,33.52476 -0.3641,57.51886 -2.1872,86.13032 c -2.1429,33.63123 -7.6767,62.03085 -16.1313,85.82727 c -5.1582,14.5187 -11.40374,27.32387 -18.62968,38.55822 c -10.39312,16.15845 -22.65083,31.16786 -36.89519,44.46448 c -6.86448,6.40775 -13.96935,11.81612 -21.91877,17.50161 c -10.37402,7.41958 -20.2254,13.06198 -32.1818,18.6383 c -10.69022,4.9858 -23.165,9.4996 -39.90567,13.451 c -11.58454,2.7344 -25.21186,5.3376 -41.70422,7.0737 c -27.23282,2.8667 -62.17789,3.4121 -108.25867,3.9801 L 1024,1024 Z"
         style="color:#000000;display:inline;overflow:visible;visibility:visible;fill:#ffffff;fill-opacity:1;fill-rule:nonzero;stroke:none;stroke-width:2;marker:none;enable-background:accumulate" />
      <path
         sodipodi:nodetypes="cssssssssssccc"
         inkscape:connector-curvature="0"
         id="path4146-5-3"
         d="m 1023.9571,318.26274 c 0.1837,-39.14081 -0.2997,-73.55855 -3.476,-103.94061 c -1.4113,-13.49969 -3.8539,-26.31006 -5.9548,-38.18792 c -3.6187,-20.45841 -10.1174,-38.44655 -17.2973,-52.70888 c -2.12747,-4.22606 -3.90726,-7.55456 -5.77779,-10.81658 c -1.49793,-2.61224 -3.05404,-5.18185 -4.89348,-8.13563 c -1.96035,-3.14791 -3.87346,-6.195884 -5.993,-9.197124 C 974.88453,87.232938 968.40279,79.35023 961.65509,72.082687 C 951.58996,61.242143 940.4011,51.100793 927.77306,42.698049 C 909.73264,30.693887 894.47219,21.390417 866.08729,13.614807 C 853.18652,10.080839 837.40303,6.7460486 817.42751,4.3881848 C 790.09127,1.1614792 754.65731,0.08073128 706.1875,0 L 1024,0 Z"
         style="color:#000000;display:inline;overflow:visible;visibility:visible;fill:#ffffff;fill-opacity:1;fill-rule:nonzero;stroke:none;stroke-width:2;marker:none;enable-background:accumulate" />
      <path
         sodipodi:nodetypes="csssssccc"
         inkscape:connector-curvature="0"
         id="path4146-5-3-7"
         d="M 0,318.48 C 0.04438432,264.21497 1.9515494,215.42652 8.7981727,178.4577 C 14.754939,146.29372 24.640519,123.97857 37.889606,103.37989 C 53.29125,79.434582 73.01483,58.195063 97.250401,42.030991 c 14.553979,-9.706872 27.235109,-16.72099 46.140969,-23.97553 c 9.86202,-3.784244 21.35019,-6.58631 34.69748,-9.1827264 C 208.3231,2.9913388 250.69975,-0.29260813 319.08193,0 L 0,0 Z"
         style="color:#000000;display:inline;overflow:visible;visibility:visible;fill:#ffffff;fill-opacity:1;fill-rule:nonzero;stroke:none;stroke-width:2;marker:none;enable-background:accumulate" />
    </g>
  </g>
  <g
     style="display:none"
     transform="translate(50.25,211.52169)"
     id="g4191"
     inkscape:groupmode="layer"
     inkscape:label="BORDER WHITE">
    <path
       style="fill:none;stroke:#ffffff;stroke-width:8;stroke-miterlimit:4;stroke-dasharray:none;stroke-opacity:1"
       id="path4193"
       d="m 301.95446,-211.52169 l 319.59108,0 c 101.4156,0 152.12339,0 206.7084,17.25959 c 59.59748,21.69173 106.54481,68.63899 128.23654,128.236542 C 973.75,-11.44076 973.75,39.267072 973.75,140.68273 l 0,319.59116 c 0,101.41566 0,152.12349 -17.25952,206.70829 c -21.69173,59.59758 -68.63906,106.54477 -128.23654,128.23654 c -54.58501,17.25959 -105.2928,17.25959 -206.7084,17.25959 l -319.59108,0 c -101.4156,0 -152.12339,0 -206.708396,-17.25959 C 35.648581,773.52695 -11.298747,726.57976 -32.99048,666.98218 C -50.25,612.39738 -50.25,561.68955 -50.25,460.27389 l 0,-319.59116 c 0,-101.415658 0,-152.12349 17.25952,-206.708254 C -11.298747,-125.62307 35.648581,-172.57037 95.246064,-194.2621 c 54.585006,-17.25959 105.292796,-17.25959 206.708396,-17.25959 l 0,0"
       inkscape:connector-curvature="0" />
  </g>
  <g
     inkscape:label="BORDER"
     inkscape:groupmode="layer"
     id="layer1"
     transform="translate(50.25,211.52169)"
     style="display:none">
    <path
       inkscape:connector-curvature="0"
       d="m 301.95446,-211.52169 l 319.59108,0 c 101.4156,0 152.12339,0 206.7084,17.25959 c 59.59748,21.69173 106.54481,68.63899 128.23654,128.236542 C 973.75,-11.44076 973.75,39.267072 973.75,140.68273 l 0,319.59116 c 0,101.41566 0,152.12349 -17.25952,206.70829 c -21.69173,59.59758 -68.63906,106.54477 -128.23654,128.23654 c -54.58501,17.25959 -105.2928,17.25959 -206.7084,17.25959 l -319.59108,0 c -101.4156,0 -152.12339,0 -206.708396,-17.25959 C 35.648581,773.52695 -11.298747,726.57976 -32.99048,666.98218 C -50.25,612.39738 -50.25,561.68955 -50.25,460.27389 l 0,-319.59116 c 0,-101.415658 0,-152.12349 17.25952,-206.708254 C -11.298747,-125.62307 35.648581,-172.57037 95.246064,-194.2621 c 54.585006,-17.25959 105.292796,-17.25959 206.708396,-17.25959 l 0,0"
       id="path5"
       style="fill:none;stroke:#000000;stroke-width:4;stroke-miterlimit:4;stroke-dasharray:none;stroke-opacity:1" />
  </g>
  <g
     inkscape:groupmode="layer"
     id="layer4"
     inkscape:label="FULL MASK to BG"
     style="display:none">
    <g
       id="g3108"
       transform="matrix(0.5649724,0,0,0.5649724,445.54508,-1009.2323)"
       style="fill:#ffffff">
      <path
         style="fill:#ffffff;fill-opacity:1"
         d="m -255.18484,3598.5738 c -65.89075,-0.4253 -133.31625,-3.6429 -171.28383,-8.1738 c -35.62761,-4.2516 -75.24646,-12.6237 -101.97363,-21.5486 c -19.91256,-6.6493 -47.54459,-19.4411 -66.12352,-30.6108 c -37.44793,-22.5137 -72.20796,-52.2487 -98.54251,-84.2969 c -24.29731,-29.5689 -41.20817,-56.8511 -55.47181,-89.4924 c -6.61929,-15.1478 -8.38704,-19.8689 -11.92879,-31.8579 c -16.20259,-54.8465 -23.54268,-107.7838 -26.58122,-191.706 c -1.42838,-39.4507 -1.67596,-120.9647 -1.45114,-477.7704 c 0.16145,-256.2384 0.41117,-371.6315 0.83443,-385.5878 c 4.03548,-133.0627 14.45033,-200.8155 39.80624,-258.9554 c 22.87778,-52.4577 63.32922,-104.9173 108.81811,-141.1212 c 12.25925,-9.757 31.66981,-22.9097 46.90669,-31.7844 c 24.79601,-14.4423 54.99637,-27.5472 78.82329,-34.2039 c 41.36425,-11.5562 93.35603,-18.869 158.31851,-22.2681 c 28.5354,-1.493 42.80966,-1.8693 92.94472,-2.45 c 66.71195,-0.7727 774.97059,-0.3507 803.30789,0.4786 c 74.58713,2.1828 111.22328,5.1416 152.96045,12.3533 c 34.90069,6.0305 66.10255,14.5431 92.14805,25.1403 c 28.90007,11.7586 67.93807,35.6951 94.27249,57.8041 c 24.08118,20.2172 52.39634,51.696 69.50417,77.2697 c 27.40876,40.9722 44.92544,81.5642 54.48975,126.2709 c 2.0427,9.5481 7.5352,40.5742 9.5433,53.9079 c 4.7447,31.5043 7.3924,66.4897 8.9033,117.6415 c 0.8272,28.0023 1.2273,742.0895 0.4567,814.9924 c -0.6825,64.5731 -1.8558,98.6886 -4.564,132.7029 c -5.9213,74.3703 -21.87168,136.2374 -47.80384,185.4176 c -7.83137,14.852 -18.80155,31.9295 -30.54535,47.5505 c -23.00313,30.5976 -46.50391,54.389 -74.58963,75.5123 c -48.63111,36.5753 -94.65909,56.7768 -158.32303,69.4872 c -51.86283,10.3544 -93.05381,13.1537 -222.7503,15.1381 c -27.97184,0.4279 -676.86617,0.5685 -740.10549,0.1603 z"
         id="path3124"
         inkscape:connector-curvature="0" />
      <path
         style="fill:#ffffff;fill-opacity:1"
         d="m -255.18484,3598.5738 c -65.89075,-0.4253 -133.31625,-3.6429 -171.28383,-8.1738 c -35.62761,-4.2516 -75.24646,-12.6237 -101.97363,-21.5486 c -19.91256,-6.6493 -47.54459,-19.4411 -66.12352,-30.6108 c -37.44793,-22.5137 -72.20796,-52.2487 -98.54251,-84.2969 c -24.29731,-29.5689 -41.20817,-56.8511 -55.47181,-89.4924 c -6.61929,-15.1478 -8.38704,-19.8689 -11.92879,-31.8579 c -16.20259,-54.8465 -23.54268,-107.7838 -26.58122,-191.706 c -1.42838,-39.4507 -1.67596,-120.9647 -1.45114,-477.7704 c 0.16145,-256.2384 0.41117,-371.6315 0.83443,-385.5878 c 4.03548,-133.0627 14.45033,-200.8155 39.80624,-258.9554 c 22.87778,-52.4577 63.32922,-104.9173 108.81811,-141.1212 c 12.25925,-9.757 31.66981,-22.9097 46.90669,-31.7844 c 24.79601,-14.4423 54.99637,-27.5472 78.82329,-34.2039 c 41.36425,-11.5562 93.35603,-18.869 158.31851,-22.2681 c 28.5354,-1.493 42.80966,-1.8693 92.94472,-2.45 c 66.71195,-0.7727 774.97059,-0.3507 803.30789,0.4786 c 74.58713,2.1828 111.22328,5.1416 152.96045,12.3533 c 34.90069,6.0305 66.10255,14.5431 92.14805,25.1403 c 28.90007,11.7586 67.93807,35.6951 94.27249,57.8041 c 24.08118,20.2172 52.39634,51.696 69.50417,77.2697 c 27.40876,40.9722 44.92544,81.5642 54.48975,126.2709 c 2.0427,9.5481 7.5352,40.5742 9.5433,53.9079 c 4.7447,31.5043 7.3924,66.4897 8.9033,117.6415 c 0.8272,28.0023 1.2273,742.0895 0.4567,814.9924 c -0.6825,64.5731 -1.8558,98.6886 -4.564,132.7029 c -5.9213,74.3703 -21.87168,136.2374 -47.80384,185.4176 c -7.83137,14.852 -18.80155,31.9295 -30.54535,47.5505 c -23.00313,30.5976 -46.50391,54.389 -74.58963,75.5123 c -48.63111,36.5753 -94.65909,56.7768 -158.32303,69.4872 c -51.86283,10.3544 -93.05381,13.1537 -222.7503,15.1381 c -27.97184,0.4279 -676.86617,0.5685 -740.10549,0.1603 z"
         id="path3122"
         inkscape:connector-curvature="0" />
      <path
         style="fill:#ffffff;fill-opacity:1"
         d="m -255.18484,3598.5738 c -65.89075,-0.4253 -133.31625,-3.6429 -171.28383,-8.1738 c -35.62761,-4.2516 -75.24646,-12.6237 -101.97363,-21.5486 c -19.91256,-6.6493 -47.54459,-19.4411 -66.12352,-30.6108 c -37.44793,-22.5137 -72.20796,-52.2487 -98.54251,-84.2969 c -24.29731,-29.5689 -41.20817,-56.8511 -55.47181,-89.4924 c -6.61929,-15.1478 -8.38704,-19.8689 -11.92879,-31.8579 c -16.20259,-54.8465 -23.54268,-107.7838 -26.58122,-191.706 c -1.42838,-39.4507 -1.67596,-120.9647 -1.45114,-477.7704 c 0.16145,-256.2384 0.41117,-371.6315 0.83443,-385.5878 c 4.03548,-133.0627 14.45033,-200.8155 39.80624,-258.9554 c 22.87778,-52.4577 63.32922,-104.9173 108.81811,-141.1212 c 12.25925,-9.757 31.66981,-22.9097 46.90669,-31.7844 c 24.79601,-14.4423 54.99637,-27.5472 78.82329,-34.2039 c 41.36425,-11.5562 93.35603,-18.869 158.31851,-22.2681 c 28.5354,-1.493 42.80966,-1.8693 92.94472,-2.45 c 66.71195,-0.7727 774.97059,-0.3507 803.30789,0.4786 c 74.58713,2.1828 111.22328,5.1416 152.96045,12.3533 c 34.90069,6.0305 66.10255,14.5431 92.14805,25.1403 c 28.90007,11.7586 67.93807,35.6951 94.27249,57.8041 c 24.08118,20.2172 52.39634,51.696 69.50417,77.2697 c 27.40876,40.9722 44.92544,81.5642 54.48975,126.2709 c 2.0427,9.5481 7.5352,40.5742 9.5433,53.9079 c 4.7447,31.5043 7.3924,66.4897 8.9033,117.6415 c 0.8272,28.0023 1.2273,742.0895 0.4567,814.9924 c -0.6825,64.5731 -1.8558,98.6886 -4.564,132.7029 c -5.9213,74.3703 -21.87168,136.2374 -47.80384,185.4176 c -7.83137,14.852 -18.80155,31.9295 -30.54535,47.5505 c -23.00313,30.5976 -46.50391,54.389 -74.58963,75.5123 c -48.63111,36.5753 -94.65909,56.7768 -158.32303,69.4872 c -51.86283,10.3544 -93.05381,13.1537 -222.7503,15.1381 c -27.97184,0.4279 -676.86617,0.5685 -740.10549,0.1603 z"
         id="path3120"
         inkscape:connector-curvature="0" />
      <path
         style="fill:#ffffff;fill-opacity:1"
         d="m -255.18484,3598.5738 c -65.89075,-0.4253 -133.31625,-3.6429 -171.28383,-8.1738 c -35.62761,-4.2516 -75.24646,-12.6237 -101.97363,-21.5486 c -19.91256,-6.6493 -47.54459,-19.4411 -66.12352,-30.6108 c -37.44793,-22.5137 -72.20796,-52.2487 -98.54251,-84.2969 c -24.29731,-29.5689 -41.20817,-56.8511 -55.47181,-89.4924 c -6.61929,-15.1478 -8.38704,-19.8689 -11.92879,-31.8579 c -16.20259,-54.8465 -23.54268,-107.7838 -26.58122,-191.706 c -1.42838,-39.4507 -1.67596,-120.9647 -1.45114,-477.7704 c 0.16145,-256.2384 0.41117,-371.6315 0.83443,-385.5878 c 4.03548,-133.0627 14.45033,-200.8155 39.80624,-258.9554 c 22.87778,-52.4577 63.32922,-104.9173 108.81811,-141.1212 c 12.25925,-9.757 31.66981,-22.9097 46.90669,-31.7844 c 24.79601,-14.4423 54.99637,-27.5472 78.82329,-34.2039 c 41.36425,-11.5562 93.35603,-18.869 158.31851,-22.2681 c 28.5354,-1.493 42.80966,-1.8693 92.94472,-2.45 c 66.71195,-0.7727 774.97059,-0.3507 803.30789,0.4786 c 74.58713,2.1828 111.22328,5.1416 152.96045,12.3533 c 34.90069,6.0305 66.10255,14.5431 92.14805,25.1403 c 28.90007,11.7586 67.93807,35.6951 94.27249,57.8041 c 24.08118,20.2172 52.39634,51.696 69.50417,77.2697 c 27.40876,40.9722 44.92544,81.5642 54.48975,126.2709 c 2.0427,9.5481 7.5352,40.5742 9.5433,53.9079 c 4.7447,31.5043 7.3924,66.4897 8.9033,117.6415 c 0.8272,28.0023 1.2273,742.0895 0.4567,814.9924 c -0.6825,64.5731 -1.8558,98.6886 -4.564,132.7029 c -5.9213,74.3703 -21.87168,136.2374 -47.80384,185.4176 c -7.83137,14.852 -18.80155,31.9295 -30.54535,47.5505 c -23.00313,30.5976 -46.50391,54.389 -74.58963,75.5123 c -48.63111,36.5753 -94.65909,56.7768 -158.32303,69.4872 c -51.86283,10.3544 -93.05381,13.1537 -222.7503,15.1381 c -27.97184,0.4279 -676.86617,0.5685 -740.10549,0.1603 z"
         id="path3118"
         inkscape:connector-curvature="0" />
      <path
         style="fill:#ffffff;fill-opacity:1"
         d="m -255.18484,3598.5738 c -65.89075,-0.4253 -133.31625,-3.6429 -171.28383,-8.1738 c -35.62761,-4.2516 -75.24646,-12.6237 -101.97363,-21.5486 c -19.91256,-6.6493 -47.54459,-19.4411 -66.12352,-30.6108 c -37.44793,-22.5137 -72.20796,-52.2487 -98.54251,-84.2969 c -24.29731,-29.5689 -41.20817,-56.8511 -55.47181,-89.4924 c -6.61929,-15.1478 -8.38704,-19.8689 -11.92879,-31.8579 c -16.20259,-54.8465 -23.54268,-107.7838 -26.58122,-191.706 c -1.42838,-39.4507 -1.67596,-120.9647 -1.45114,-477.7704 c 0.16145,-256.2384 0.41117,-371.6315 0.83443,-385.5878 c 4.03548,-133.0627 14.45033,-200.8155 39.80624,-258.9554 c 22.87778,-52.4577 63.32922,-104.9173 108.81811,-141.1212 c 12.25925,-9.757 31.66981,-22.9097 46.90669,-31.7844 c 24.79601,-14.4423 54.99637,-27.5472 78.82329,-34.2039 c 41.36425,-11.5562 93.35603,-18.869 158.31851,-22.2681 c 28.5354,-1.493 42.80966,-1.8693 92.94472,-2.45 c 66.71195,-0.7727 774.97059,-0.3507 803.30789,0.4786 c 74.58713,2.1828 111.22328,5.1416 152.96045,12.3533 c 34.90069,6.0305 66.10255,14.5431 92.14805,25.1403 c 28.90007,11.7586 67.93807,35.6951 94.27249,57.8041 c 24.08118,20.2172 52.39634,51.696 69.50417,77.2697 c 27.40876,40.9722 44.92544,81.5642 54.48975,126.2709 c 2.0427,9.5481 7.5352,40.5742 9.5433,53.9079 c 4.7447,31.5043 7.3924,66.4897 8.9033,117.6415 c 0.8272,28.0023 1.2273,742.0895 0.4567,814.9924 c -0.6825,64.5731 -1.8558,98.6886 -4.564,132.7029 c -5.9213,74.3703 -21.87168,136.2374 -47.80384,185.4176 c -7.83137,14.852 -18.80155,31.9295 -30.54535,47.5505 c -23.00313,30.5976 -46.50391,54.389 -74.58963,75.5123 c -48.63111,36.5753 -94.65909,56.7768 -158.32303,69.4872 c -51.86283,10.3544 -93.05381,13.1537 -222.7503,15.1381 c -27.97184,0.4279 -676.86617,0.5685 -740.10549,0.1603 z"
         id="path3116"
         inkscape:connector-curvature="0" />
      <path
         style="fill:#ffffff;fill-opacity:1"
         d="m -255.18484,3598.5738 c -65.89075,-0.4253 -133.31625,-3.6429 -171.28383,-8.1738 c -35.62761,-4.2516 -75.24646,-12.6237 -101.97363,-21.5486 c -19.91256,-6.6493 -47.54459,-19.4411 -66.12352,-30.6108 c -37.44793,-22.5137 -72.20796,-52.2487 -98.54251,-84.2969 c -24.29731,-29.5689 -41.20817,-56.8511 -55.47181,-89.4924 c -6.61929,-15.1478 -8.38704,-19.8689 -11.92879,-31.8579 c -16.20259,-54.8465 -23.54268,-107.7838 -26.58122,-191.706 c -1.42838,-39.4507 -1.67596,-120.9647 -1.45114,-477.7704 c 0.16145,-256.2384 0.41117,-371.6315 0.83443,-385.5878 c 4.03548,-133.0627 14.45033,-200.8155 39.80624,-258.9554 c 22.87778,-52.4577 63.32922,-104.9173 108.81811,-141.1212 c 12.25925,-9.757 31.66981,-22.9097 46.90669,-31.7844 c 24.79601,-14.4423 54.99637,-27.5472 78.82329,-34.2039 c 41.36425,-11.5562 93.35603,-18.869 158.31851,-22.2681 c 28.5354,-1.493 42.80966,-1.8693 92.94472,-2.45 c 66.71195,-0.7727 774.97059,-0.3507 803.30789,0.4786 c 74.58713,2.1828 111.22328,5.1416 152.96045,12.3533 c 34.90069,6.0305 66.10255,14.5431 92.14805,25.1403 c 28.90007,11.7586 67.93807,35.6951 94.27249,57.8041 c 24.08118,20.2172 52.39634,51.696 69.50417,77.2697 c 27.40876,40.9722 44.92544,81.5642 54.48975,126.2709 c 2.0427,9.5481 7.5352,40.5742 9.5433,53.9079 c 4.7447,31.5043 7.3924,66.4897 8.9033,117.6415 c 0.8272,28.0023 1.2273,742.0895 0.4567,814.9924 c -0.6825,64.5731 -1.8558,98.6886 -4.564,132.7029 c -5.9213,74.3703 -21.87168,136.2374 -47.80384,185.4176 c -7.83137,14.852 -18.80155,31.9295 -30.54535,47.5505 c -23.00313,30.5976 -46.50391,54.389 -74.58963,75.5123 c -48.63111,36.5753 -94.65909,56.7768 -158.32303,69.4872 c -51.86283,10.3544 -93.05381,13.1537 -222.7503,15.1381 c -27.97184,0.4279 -676.86617,0.5685 -740.10549,0.1603 z"
         id="path3114"
         inkscape:connector-curvature="0" />
      <path
         style="fill:#ffffff;fill-opacity:1"
         d="m -255.18484,3598.5738 c -65.89075,-0.4253 -133.31625,-3.6429 -171.28383,-8.1738 c -35.62761,-4.2516 -75.24646,-12.6237 -101.97363,-21.5486 c -19.91256,-6.6493 -47.54459,-19.4411 -66.12352,-30.6108 c -37.44793,-22.5137 -72.20796,-52.2487 -98.54251,-84.2969 c -24.29731,-29.5689 -41.20817,-56.8511 -55.47181,-89.4924 c -6.61929,-15.1478 -8.38704,-19.8689 -11.92879,-31.8579 c -16.20259,-54.8465 -23.54268,-107.7838 -26.58122,-191.706 c -1.42838,-39.4507 -1.67596,-120.9647 -1.45114,-477.7704 c 0.16145,-256.2384 0.41117,-371.6315 0.83443,-385.5878 c 4.03548,-133.0627 14.45033,-200.8155 39.80624,-258.9554 c 22.87778,-52.4577 63.32922,-104.9173 108.81811,-141.1212 c 12.25925,-9.757 31.66981,-22.9097 46.90669,-31.7844 c 24.79601,-14.4423 54.99637,-27.5472 78.82329,-34.2039 c 41.36425,-11.5562 93.35603,-18.869 158.31851,-22.2681 c 28.5354,-1.493 42.80966,-1.8693 92.94472,-2.45 c 66.71195,-0.7727 774.97059,-0.3507 803.30789,0.4786 c 74.58713,2.1828 111.22328,5.1416 152.96045,12.3533 c 34.90069,6.0305 66.10255,14.5431 92.14805,25.1403 c 28.90007,11.7586 67.93807,35.6951 94.27249,57.8041 c 24.08118,20.2172 52.39634,51.696 69.50417,77.2697 c 27.40876,40.9722 44.92544,81.5642 54.48975,126.2709 c 2.0427,9.5481 7.5352,40.5742 9.5433,53.9079 c 4.7447,31.5043 7.3924,66.4897 8.9033,117.6415 c 0.8272,28.0023 1.2273,742.0895 0.4567,814.9924 c -0.6825,64.5731 -1.8558,98.6886 -4.564,132.7029 c -5.9213,74.3703 -21.87168,136.2374 -47.80384,185.4176 c -7.83137,14.852 -18.80155,31.9295 -30.54535,47.5505 c -23.00313,30.5976 -46.50391,54.389 -74.58963,75.5123 c -48.63111,36.5753 -94.65909,56.7768 -158.32303,69.4872 c -51.86283,10.3544 -93.05381,13.1537 -222.7503,15.1381 c -27.97184,0.4279 -676.86617,0.5685 -740.10549,0.1603 z"
         id="path3112"
         inkscape:connector-curvature="0" />
      <path
         style="fill:#ffffff;fill-opacity:1"
         d="m -255.18484,3598.5738 c -65.89075,-0.4253 -133.31625,-3.6429 -171.28383,-8.1738 c -35.62761,-4.2516 -75.24646,-12.6237 -101.97363,-21.5486 c -19.91256,-6.6493 -47.54459,-19.4411 -66.12352,-30.6108 c -37.44793,-22.5137 -72.20796,-52.2487 -98.54251,-84.2969 c -24.29731,-29.5689 -41.20817,-56.8511 -55.47181,-89.4924 c -6.61929,-15.1478 -8.38704,-19.8689 -11.92879,-31.8579 c -16.20259,-54.8465 -23.54268,-107.7838 -26.58122,-191.706 c -1.42838,-39.4507 -1.67596,-120.9647 -1.45114,-477.7704 c 0.16145,-256.2384 0.41117,-371.6315 0.83443,-385.5878 c 4.03548,-133.0627 14.45033,-200.8155 39.80624,-258.9554 c 22.87778,-52.4577 63.32922,-104.9173 108.81811,-141.1212 c 12.25925,-9.757 31.66981,-22.9097 46.90669,-31.7844 c 24.79601,-14.4423 54.99637,-27.5472 78.82329,-34.2039 c 41.36425,-11.5562 93.35603,-18.869 158.31851,-22.2681 c 28.5354,-1.493 42.80966,-1.8693 92.94472,-2.45 c 66.71195,-0.7727 774.97059,-0.3507 803.30789,0.4786 c 74.58713,2.1828 111.22328,5.1416 152.96045,12.3533 c 34.90069,6.0305 66.10255,14.5431 92.14805,25.1403 c 28.90007,11.7586 67.93807,35.6951 94.27249,57.8041 c 24.08118,20.2172 52.39634,51.696 69.50417,77.2697 c 27.40876,40.9722 44.92544,81.5642 54.48975,126.2709 c 2.0427,9.5481 7.5352,40.5742 9.5433,53.9079 c 4.7447,31.5043 7.3924,66.4897 8.9033,117.6415 c 0.8272,28.0023 1.2273,742.0895 0.4567,814.9924 c -0.6825,64.5731 -1.8558,98.6886 -4.564,132.7029 c -5.9213,74.3703 -21.87168,136.2374 -47.80384,185.4176 c -7.83137,14.852 -18.80155,31.9295 -30.54535,47.5505 c -23.00313,30.5976 -46.50391,54.389 -74.58963,75.5123 c -48.63111,36.5753 -94.65909,56.7768 -158.32303,69.4872 c -51.86283,10.3544 -93.05381,13.1537 -222.7503,15.1381 c -27.97184,0.4279 -676.86617,0.5685 -740.10549,0.1603 z"
         id="path3110"
         inkscape:connector-curvature="0" />
    </g>
  </g>
  <g
     inkscape:groupmode="layer"
     id="layer2"
     inkscape:label="GUIDES"
     style="display:inline"
     transform="translate(0,-2.2054443)"
     sodipodi:insensitive="true">
    <path
       style="color:#000000;display:inline;overflow:visible;visibility:visible;fill:none;stroke:#000000;stroke-width:2;stroke-linecap:butt;stroke-linejoin:miter;stroke-miterlimit:4;stroke-dasharray:none;stroke-dashoffset:0;stroke-opacity:1;marker:none;enable-background:accumulate"
       d="m 0.99801512,321.03518 l 0,386.27669"
       id="path4024"
       inkscape:connector-curvature="0" />
    <circle
       style="color:#000000;display:inline;overflow:visible;visibility:visible;fill:none;stroke:#000000;stroke-width:1.00571477;stroke-linecap:butt;stroke-linejoin:miter;stroke-miterlimit:4;stroke-dasharray:none;stroke-dashoffset:0;stroke-opacity:1;marker:none;enable-background:accumulate"
       id="path3129"
       transform="matrix(1.988799,0,0,1.988471,-407.91018,-80.585593)"
       cx="462.32144"
       cy="298.86218"
       r="138" />
    <circle
       style="color:#000000;display:inline;overflow:visible;visibility:visible;fill:none;stroke:#000000;stroke-width:0.62086099;stroke-linecap:butt;stroke-linejoin:miter;stroke-miterlimit:4;stroke-dasharray:none;stroke-dashoffset:0;stroke-opacity:1;marker:none;enable-background:accumulate"
       id="path3129-9"
       transform="matrix(3.2215081,0,0,3.2211587,-977.38931,-448.55899)"
       cx="462.32144"
       cy="298.86218"
       r="138" />
    <path
       style="color:#000000;display:inline;overflow:visible;visibility:visible;fill:none;stroke:#000000;stroke-width:2;stroke-linecap:butt;stroke-linejoin:miter;stroke-miterlimit:4;stroke-dasharray:none;stroke-dashoffset:0;stroke-opacity:1;marker:none;enable-background:accumulate"
       d="M 67.351921,69.489974 L 956.5625,958.70544"
       id="path4011"
       inkscape:connector-curvature="0"
       sodipodi:nodetypes="cc" />
    <path
       style="color:#000000;display:inline;overflow:visible;visibility:visible;fill:none;stroke:#000000;stroke-width:2;stroke-linecap:butt;stroke-linejoin:miter;stroke-miterlimit:4;stroke-dasharray:none;stroke-dashoffset:0;stroke-opacity:1;marker:none;enable-background:accumulate"
       d="m 0.99801467,707.31189 l 1022.00298533,0"
       id="path4028"
       inkscape:connector-curvature="0" />
    <path
       style="color:#000000;display:inline;overflow:visible;visibility:visible;fill:none;stroke:#000000;stroke-width:2;stroke-linecap:butt;stroke-linejoin:miter;stroke-miterlimit:4;stroke-dasharray:none;stroke-dashoffset:0;stroke-opacity:1;marker:none;enable-background:accumulate"
       d="m 0.99801467,513.69318 l 1022.00298533,0"
       id="path4030"
       inkscape:connector-curvature="0" />
    <path
       style="color:#000000;display:inline;overflow:visible;visibility:visible;fill:none;stroke:#000000;stroke-width:2;stroke-linecap:butt;stroke-linejoin:miter;stroke-miterlimit:4;stroke-dasharray:none;stroke-dashoffset:0;stroke-opacity:1;marker:none;enable-background:accumulate"
       d="m 0.99801467,321.0352 l 1022.00298533,0"
       id="path4032"
       inkscape:connector-curvature="0" />
    <path
       style="color:#000000;display:inline;overflow:visible;visibility:visible;fill:none;stroke:#000000;stroke-width:2;stroke-linecap:butt;stroke-linejoin:miter;stroke-miterlimit:4;stroke-dasharray:none;stroke-dashoffset:0;stroke-opacity:1;marker:none;enable-background:accumulate"
       d="m 319.08193,1026.2054 l 0,-1023.9999557"
       id="path4034"
       inkscape:connector-curvature="0"
       sodipodi:nodetypes="cc" />
    <path
       style="color:#000000;display:inline;overflow:visible;visibility:visible;fill:none;stroke:#000000;stroke-width:2;stroke-linecap:butt;stroke-linejoin:miter;stroke-miterlimit:4;stroke-dasharray:none;stroke-dashoffset:0;stroke-opacity:1;marker:none;enable-background:accumulate"
       d="m 511.68014,2.2054443 l 0,1023.9999557"
       id="path4036"
       inkscape:connector-curvature="0"
       sodipodi:nodetypes="cc" />
    <path
       style="color:#000000;display:inline;overflow:visible;visibility:visible;fill:none;stroke:#000000;stroke-width:2;stroke-linecap:butt;stroke-linejoin:miter;stroke-miterlimit:4;stroke-dasharray:none;stroke-dashoffset:0;stroke-opacity:1;marker:none;enable-background:accumulate"
       d="m 706.1875,1026.2054 l 0,-1023.9999557"
       id="path4038"
       inkscape:connector-curvature="0"
       sodipodi:nodetypes="cc" />
    <path
       style="color:#000000;display:inline;overflow:visible;visibility:visible;fill:none;stroke:#000000;stroke-width:2;stroke-linecap:butt;stroke-linejoin:miter;stroke-miterlimit:4;stroke-dasharray:none;stroke-dashoffset:0;stroke-opacity:1;marker:none;enable-background:accumulate"
       d="M 67.351921,958.70544 L 956.5625,69.489974"
       id="path4001"
       inkscape:connector-curvature="0"
       sodipodi:nodetypes="cc" />
    <path
       style="color:#000000;display:inline;overflow:visible;visibility:visible;fill:none;stroke:#000000;stroke-width:2;stroke-linecap:butt;stroke-linejoin:miter;stroke-miterlimit:4;stroke-dasharray:none;stroke-dashoffset:0;stroke-opacity:1;marker:none;enable-background:accumulate"
       d="m 956.5625,69.489974 l 0,889.215466"
       id="path4003"
       inkscape:connector-curvature="0"
       sodipodi:nodetypes="cc" />
    <path
       style="color:#000000;display:inline;overflow:visible;visibility:visible;fill:none;stroke:#000000;stroke-width:2;stroke-linecap:butt;stroke-linejoin:miter;stroke-miterlimit:4;stroke-dasharray:none;stroke-dashoffset:0;stroke-opacity:1;marker:none;enable-background:accumulate"
       d="m 67.351921,69.489974 l 889.210579,0"
       id="path4009"
       inkscape:connector-curvature="0"
       sodipodi:nodetypes="cc" />
    <path
       style="color:#000000;display:inline;overflow:visible;visibility:visible;fill:none;stroke:#000000;stroke-width:2;stroke-linecap:butt;stroke-linejoin:miter;stroke-miterlimit:4;stroke-dasharray:none;stroke-dashoffset:0;stroke-opacity:1;marker:none;enable-background:accumulate"
       d="m 67.351921,958.70544 l 0,-889.215466"
       id="path4007"
       inkscape:connector-curvature="0"
       sodipodi:nodetypes="cc" />
    <path
       style="color:#000000;display:inline;overflow:visible;visibility:visible;fill:none;stroke:#000000;stroke-width:2;stroke-linecap:butt;stroke-linejoin:miter;stroke-miterlimit:4;stroke-dasharray:none;stroke-dashoffset:0;stroke-opacity:1;marker:none;enable-background:accumulate"
       d="m 956.5625,958.70544 l -889.210579,-3e-5"
       id="path4005"
       inkscape:connector-curvature="0"
       sodipodi:nodetypes="cc" />
    <circle
       style="color:#000000;display:inline;overflow:visible;visibility:visible;fill:none;stroke:#000000;stroke-width:1.42908275;stroke-linecap:butt;stroke-linejoin:miter;stroke-miterlimit:4;stroke-dasharray:none;stroke-dashoffset:0;stroke-opacity:1;marker:none;enable-background:accumulate"
       id="path3129-7"
       transform="matrix(1.4025564,0,0,1.3964479,-135.79717,96.569794)"
       cx="462.32144"
       cy="298.86218"
       r="138" />
  </g>
</svg>
