<?xml version="1.0" encoding="UTF-8" standalone="no"?>
<svg
   inkscape:version="1.2.2 (b0a8486, 2022-12-01)"
   sodipodi:docname="logo_outline_simplified.svg"
   id="svg14061"
   width="1920px"
   version="1.1"
   height="1920px"
   xmlns:inkscape="http://www.inkscape.org/namespaces/inkscape"
   xmlns:sodipodi="http://sodipodi.sourceforge.net/DTD/sodipodi-0.dtd"
   xmlns="http://www.w3.org/2000/svg"
   xmlns:svg="http://www.w3.org/2000/svg">
  <sodipodi:namedview
     id="namedview14063"
     pagecolor="#ffffff"
     bordercolor="#111111"
     borderopacity="1"
     inkscape:showpageshadow="0"
     inkscape:pageopacity="0"
     inkscape:pagecheckerboard="1"
     inkscape:deskcolor="#d1d1d1"
     showgrid="false"
     inkscape:zoom="0.33642659"
     inkscape:cx="1287.0564"
     inkscape:cy="1023.9976"
     inkscape:window-width="1792"
     inkscape:window-height="1067"
     inkscape:window-x="0"
     inkscape:window-y="25"
     inkscape:window-maximized="0"
     inkscape:current-layer="svg14061" />
  <defs
     id="defs11877" />
  <path
     id="rect11879"
     d="M 880 40 C 880 53.3333 880 66.6667 880 80 C 906.667 80 933.333 80 960 80 C 960 66.6667 960 53.3333 960 40 C 933.333 40 906.667 40 880 40 Z M 960 80 C 960 93.3333 960 106.667 960 120 C 920 120 880 120 840 120 C 840 133.333 840 146.667 840 160 C 826.667 160 813.333 160 800 160 C 800 173.333 800 186.667 800 200 C 786.667 200 773.333 200 760 200 C 760 240 760 280 760 320 C 733.333 320 706.667 320 680 320 C 680 333.333 680 346.667 680 360 C 706.667 360 733.333 360 760 360 C 760 373.333 760 386.667 760 400 C 773.333 400 786.667 400 800 400 C 800 413.333 800 426.667 800 440 C 813.333 440 826.667 440 840 440 C 840 453.333 840 466.667 840 480 C 920 480 1000 480 1080 480 C 1080 466.667 1080 453.333 1080 440 C 1093.33 440 1106.67 440 1120 440 C 1120 426.667 1120 413.333 1120 400 C 1133.33 400 1146.67 400 1160 400 C 1160 386.667 1160 373.333 1160 360 C 1186.67 360 1213.33 360 1240 360 C 1240 346.667 1240 333.333 1240 320 C 1213.33 320 1186.67 320 1160 320 C 1160 280 1160 240 1160 200 C 1146.67 200 1133.33 200 1120 200 C 1120 186.667 1120 173.333 1120 160 C 1106.67 160 1093.33 160 1080 160 C 1080 146.667 1080 133.333 1080 120 C 1053.33 120 1026.67 120 1000 120 C 1000 106.667 1000 93.3333 1000 80 C 986.667 80 973.333 80 960 80 Z M 1240 360 C 1240 373.333 1240 386.667 1240 400 C 1253.33 400 1266.67 400 1280 400 C 1280 386.667 1280 373.333 1280 360 C 1266.67 360 1253.33 360 1240 360 Z M 1280 400 C 1280 426.667 1280 453.333 1280 480 C 1266.67 480 1253.33 480 1240 480 C 1240 493.333 1240 506.667 1240 520 C 1213.33 520 1186.67 520 1160 520 C 1160 533.333 1160 546.667 1160 560 C 1026.67 560 893.333 560 760 560 C 760 546.667 760 533.333 760 520 C 733.333 520 706.667 520 680 520 C 680 506.667 680 493.333 680 480 C 666.667 480 653.333 480 640 480 C 640 453.333 640 426.667 640 400 C 626.667 400 613.333 400 600 400 C 600 413.333 600 426.667 600 440 C 586.667 440 573.333 440 560 440 C 560 453.333 560 466.667 560 480 C 573.333 480 586.667 480 600 480 C 600 506.667 600 533.333 600 560 C 613.333 560 626.667 560 640 560 C 640 573.333 640 586.667 640 600 C 666.667 600 693.333 600 720 600 C 720 613.333 720 626.667 720 640 C 880 640 1040 640 1200 640 C 1200 626.667 1200 613.333 1200 600 C 1226.67 600 1253.33 600 1280 600 C 1280 586.667 1280 573.333 1280 560 C 1293.33 560 1306.67 560 1320 560 C 1320 533.333 1320 506.667 1320 480 C 1333.33 480 1346.67 480 1360 480 C 1360 466.667 1360 453.333 1360 440 C 1346.67 440 1333.33 440 1320 440 C 1320 426.667 1320 413.333 1320 400 C 1306.67 400 1293.33 400 1280 400 Z M 1360 480 C 1360 493.333 1360 506.667 1360 520 C 1373.33 520 1386.67 520 1400 520 C 1400 506.667 1400 493.333 1400 480 C 1386.67 480 1373.33 480 1360 480 Z M 1400 520 C 1400 533.333 1400 546.667 1400 560 C 1413.33 560 1426.67 560 1440 560 C 1440 546.667 1440 533.333 1440 520 C 1426.67 520 1413.33 520 1400 520 Z M 1440 560 C 1440 586.667 1440 613.333 1440 640 C 1426.67 640 1413.33 640 1400 640 C 1400 653.333 1400 666.667 1400 680 C 1386.67 680 1373.33 680 1360 680 C 1360 693.333 1360 706.667 1360 720 C 1333.33 720 1306.67 720 1280 720 C 1280 733.333 1280 746.667 1280 760 C 1066.67 760 853.333 760 640 760 C 640 746.667 640 733.333 640 720 C 613.333 720 586.667 720 560 720 C 560 706.667 560 693.333 560 680 C 546.667 680 533.333 680 520 680 C 520 666.667 520 653.333 520 640 C 506.667 640 493.333 640 480 640 C 480 613.333 480 586.667 480 560 C 466.667 560 453.333 560 440 560 C 440 586.667 440 613.333 440 640 C 426.667 640 413.333 640 400 640 C 400 653.333 400 666.667 400 680 C 413.333 680 426.667 680 440 680 C 440 693.333 440 706.667 440 720 C 453.333 720 466.667 720 480 720 C 480 733.333 480 746.667 480 760 C 493.333 760 506.667 760 520 760 C 520 773.333 520 786.667 520 800 C 546.667 800 573.333 800 600 800 C 600 813.333 600 826.667 600 840 C 840 840 1080 840 1320 840 C 1320 826.667 1320 813.333 1320 800 C 1346.67 800 1373.33 800 1400 800 C 1400 786.667 1400 773.333 1400 760 C 1413.33 760 1426.67 760 1440 760 C 1440 746.667 1440 733.333 1440 720 C 1453.33 720 1466.67 720 1480 720 C 1480 706.667 1480 693.333 1480 680 C 1493.33 680 1506.67 680 1520 680 C 1520 666.667 1520 653.333 1520 640 C 1506.67 640 1493.33 640 1480 640 C 1480 613.333 1480 586.667 1480 560 C 1466.67 560 1453.33 560 1440 560 Z M 1520 680 C 1520 693.333 1520 706.667 1520 720 C 1533.33 720 1546.67 720 1560 720 C 1560 706.667 1560 693.333 1560 680 C 1546.67 680 1533.33 680 1520 680 Z M 1560 720 C 1560 733.333 1560 746.667 1560 760 C 1573.33 760 1586.67 760 1600 760 C 1600 746.667 1600 733.333 1600 720 C 1586.67 720 1573.33 720 1560 720 Z M 1600 760 C 1600 786.667 1600 813.333 1600 840 C 1586.67 840 1573.33 840 1560 840 C 1560 853.333 1560 866.667 1560 880 C 1533.33 880 1506.67 880 1480 880 C 1480 893.333 1480 906.667 1480 920 C 1440 920 1400 920 1360 920 C 1360 933.333 1360 946.667 1360 960 C 1093.33 960 826.667 960 560 960 C 560 946.667 560 933.333 560 920 C 520 920 480 920 440 920 C 440 906.667 440 893.333 440 880 C 413.333 880 386.667 880 360 880 C 360 866.667 360 853.333 360 840 C 346.667 840 333.333 840 320 840 C 320 813.333 320 786.667 320 760 C 306.667 760 293.333 760 280 760 C 280 813.333 280 866.667 280 920 C 293.333 920 306.667 920 320 920 C 320 933.333 320 946.667 320 960 C 333.333 960 346.667 960 360 960 C 360 1066.67 360 1173.33 360 1280 C 373.333 1280 386.667 1280 400 1280 C 400 1186.67 400 1093.33 400 1000 C 413.333 1000 426.667 1000 440 1000 C 440 1013.33 440 1026.67 440 1040 C 466.667 1040 493.333 1040 520 1040 C 520 1053.33 520 1066.67 520 1080 C 813.333 1080 1106.67 1080 1400 1080 C 1400 1066.67 1400 1053.33 1400 1040 C 1426.67 1040 1453.33 1040 1480 1040 C 1480 1026.67 1480 1013.33 1480 1000 C 1493.33 1000 1506.67 1000 1520 1000 C 1520 1093.33 1520 1186.67 1520 1280 C 1533.33 1280 1546.67 1280 1560 1280 C 1560 1173.33 1560 1066.67 1560 960 C 1573.33 960 1586.67 960 1600 960 C 1600 946.667 1600 933.333 1600 920 C 1613.33 920 1626.67 920 1640 920 C 1640 866.667 1640 813.333 1640 760 C 1626.67 760 1613.33 760 1600 760 Z M 1520 1280 C 1506.67 1280 1493.33 1280 1480 1280 C 1480 1373.33 1480 1466.67 1480 1560 C 1493.33 1560 1506.67 1560 1520 1560 C 1520 1466.67 1520 1373.33 1520 1280 Z M 1480 1560 C 1466.67 1560 1453.33 1560 1440 1560 C 1440 1600 1440 1640 1440 1680 C 1453.33 1680 1466.67 1680 1480 1680 C 1480 1640 1480 1600 1480 1560 Z M 1440 1680 C 1426.67 1680 1413.33 1680 1400 1680 C 1400 1706.67 1400 1733.33 1400 1760 C 1413.33 1760 1426.67 1760 1440 1760 C 1440 1733.33 1440 1706.67 1440 1680 Z M 1400 1760 C 1386.67 1760 1373.33 1760 1360 1760 C 1360 1773.33 1360 1786.67 1360 1800 C 1373.33 1800 1386.67 1800 1400 1800 C 1400 1786.67 1400 1773.33 1400 1760 Z M 1360 1800 C 1333.33 1800 1306.67 1800 1280 1800 C 1280 1813.33 1280 1826.67 1280 1840 C 1306.67 1840 1333.33 1840 1360 1840 C 1360 1826.67 1360 1813.33 1360 1800 Z M 1280 1880 C 1280 1866.67 1280 1853.33 1280 1840 C 1066.67 1840 853.333 1840 640 1840 C 640 1853.33 640 1866.67 640 1880 C 853.333 1880 1066.67 1880 1280 1880 Z M 640 1840 C 640 1826.67 640 1813.33 640 1800 C 613.333 1800 586.667 1800 560 1800 C 560 1813.33 560 1826.67 560 1840 C 586.667 1840 613.333 1840 640 1840 Z M 560 1800 C 560 1786.67 560 1773.33 560 1760 C 546.667 1760 533.333 1760 520 1760 C 520 1773.33 520 1786.67 520 1800 C 533.333 1800 546.667 1800 560 1800 Z M 520 1760 C 520 1733.33 520 1706.67 520 1680 C 506.667 1680 493.333 1680 480 1680 C 480 1706.67 480 1733.33 480 1760 C 493.333 1760 506.667 1760 520 1760 Z M 480 1680 C 480 1640 480 1600 480 1560 C 466.667 1560 453.333 1560 440 1560 C 440 1600 440 1640 440 1680 C 453.333 1680 466.667 1680 480 1680 Z M 440 1560 C 440 1466.67 440 1373.33 440 1280 C 426.667 1280 413.333 1280 400 1280 C 400 1373.33 400 1466.67 400 1560 C 413.333 1560 426.667 1560 440 1560 Z M 320 760 C 333.333 760 346.667 760 360 760 C 360 746.667 360 733.333 360 720 C 346.667 720 333.333 720 320 720 C 320 733.333 320 746.667 320 760 Z M 360 720 C 373.333 720 386.667 720 400 720 C 400 706.667 400 693.333 400 680 C 386.667 680 373.333 680 360 680 C 360 693.333 360 706.667 360 720 Z M 480 560 C 493.333 560 506.667 560 520 560 C 520 546.667 520 533.333 520 520 C 506.667 520 493.333 520 480 520 C 480 533.333 480 546.667 480 560 Z M 520 520 C 533.333 520 546.667 520 560 520 C 560 506.667 560 493.333 560 480 C 546.667 480 533.333 480 520 480 C 520 493.333 520 506.667 520 520 Z M 640 400 C 653.333 400 666.667 400 680 400 C 680 386.667 680 373.333 680 360 C 666.667 360 653.333 360 640 360 C 640 373.333 640 386.667 640 400 Z M 880 240 C 906.667 240 933.333 240 960 240 C 960 253.333 960 266.667 960 280 C 946.667 280 933.333 280 920 280 C 920 293.333 920 306.667 920 320 C 893.333 320 866.667 320 840 320 C 840 306.667 840 293.333 840 280 C 853.333 280 866.667 280 880 280 C 880 266.667 880 253.333 880 240 Z M 640 1120 C 640 1133.33 640 1146.67 640 1160 C 666.667 1160 693.333 1160 720 1160 C 720 1186.67 720 1213.33 720 1240 C 706.667 1240 693.333 1240 680 1240 C 680 1253.33 680 1266.67 680 1280 C 666.667 1280 653.333 1280 640 1280 C 640 1240 640 1200 640 1160 C 626.667 1160 613.333 1160 600 1160 C 600 1226.67 600 1293.33 600 1360 C 613.333 1360 626.667 1360 640 1360 C 640 1373.33 640 1386.67 640 1400 C 693.333 1400 746.667 1400 800 1400 C 800 1386.67 800 1373.33 800 1360 C 813.333 1360 826.667 1360 840 1360 C 840 1293.33 840 1226.67 840 1160 C 826.667 1160 813.333 1160 800 1160 C 800 1146.67 800 1133.33 800 1120 C 746.667 1120 693.333 1120 640 1120 Z M 1120 1120 C 1120 1133.33 1120 1146.67 1120 1160 C 1146.67 1160 1173.33 1160 1200 1160 C 1200 1186.67 1200 1213.33 1200 1240 C 1186.67 1240 1173.33 1240 1160 1240 C 1160 1253.33 1160 1266.67 1160 1280 C 1146.67 1280 1133.33 1280 1120 1280 C 1120 1240 1120 1200 1120 1160 C 1106.67 1160 1093.33 1160 1080 1160 C 1080 1226.67 1080 1293.33 1080 1360 C 1093.33 1360 1106.67 1360 1120 1360 C 1120 1373.33 1120 1386.67 1120 1400 C 1173.33 1400 1226.67 1400 1280 1400 C 1280 1386.67 1280 1373.33 1280 1360 C 1293.33 1360 1306.67 1360 1320 1360 C 1320 1293.33 1320 1226.67 1320 1160 C 1306.67 1160 1293.33 1160 1280 1160 C 1280 1146.67 1280 1133.33 1280 1120 C 1226.67 1120 1173.33 1120 1120 1120 Z M 1200 1760 C 1200 1746.67 1200 1733.33 1200 1720 C 1226.67 1720 1253.33 1720 1280 1720 C 1280 1706.67 1280 1693.33 1280 1680 C 1293.33 1680 1306.67 1680 1320 1680 C 1320 1666.67 1320 1653.33 1320 1640 C 1333.33 1640 1346.67 1640 1360 1640 C 1360 1573.33 1360 1506.67 1360 1440 C 1093.33 1440 826.667 1440 560 1440 C 560 1506.67 560 1573.33 560 1640 C 573.333 1640 586.667 1640 600 1640 C 600 1653.33 600 1666.67 600 1680 C 613.333 1680 626.667 1680 640 1680 C 640 1693.33 640 1706.67 640 1720 C 666.667 1720 693.333 1720 720 1720 C 720 1733.33 720 1746.67 720 1760 C 880 1760 1040 1760 1200 1760 Z M 680 1480 C 866.667 1480 1053.33 1480 1240 1480 C 1240 1506.67 1240 1533.33 1240 1560 C 1053.33 1560 866.667 1560 680 1560 C 680 1533.33 680 1506.67 680 1480 Z M 840 1640 C 920 1640 1000 1640 1080 1640 C 1080 1653.33 1080 1666.67 1080 1680 C 1093.33 1680 1106.67 1680 1120 1680 C 1120 1693.33 1120 1706.67 1120 1720 C 1013.33 1720 906.667 1720 800 1720 C 800 1706.67 800 1693.33 800 1680 C 813.333 1680 826.667 1680 840 1680 C 840 1666.67 840 1653.33 840 1640 Z"
     sodipodi:nodetypes="cccccccccccccccccccccccccccccccccccccccccccccccccccccccccccccccccccccccccccccccccccccccccccccccccccccccccccccccccccccccccccccccccccccccccccccccccccccccccccccccccccccccccccccccccccccccccccccccccccccccccccccccccccccccccccccccccccccccccccccccccccccccccccccccccccccccccccccccccccccccccccccccccccccccccccccccccccccccccccccccccccccccccccccccccccccccccccccccccccccccccccccccccccccccccccccccccccccccccccccccccccccccccccccccccccccccccccccccccccccccccccccccccccccccccccccccccccccccccccccccccccccccccccccccccccccccccccccccccccccccccccccccccccccccccccccccccccccccccccccccccccccccccccccccccccccccccccccccccccccccccccccccccccccccccccccccccccccccccccccccccccccccccccccccccccccccccc" />
</svg>
