<?xml version="1.0" encoding="UTF-8" standalone="no"?>
<!-- Created with Inkscape (http://www.inkscape.org/) -->

<svg
   width="600"
   height="480"
   viewBox="0 0 158.74999 127"
   version="1.1"
   id="svg5"
   inkscape:export-filename=""
   inkscape:export-xdpi="96"
   inkscape:export-ydpi="96"
   inkscape:version="1.3 (0e150ed, 2023-07-21)"
   sodipodi:docname="404_title.svg"
   xmlns:inkscape="http://www.inkscape.org/namespaces/inkscape"
   xmlns:sodipodi="http://sodipodi.sourceforge.net/DTD/sodipodi-0.dtd"
   xmlns="http://www.w3.org/2000/svg"
   xmlns:svg="http://www.w3.org/2000/svg">
  <sodipodi:namedview
     id="namedview7"
     pagecolor="#ffffff"
     bordercolor="#111111"
     borderopacity="1"
     inkscape:pageshadow="0"
     inkscape:pageopacity="0"
     inkscape:pagecheckerboard="1"
     inkscape:document-units="px"
     showgrid="false"
     units="px"
     height="500px"
     inkscape:zoom="1.3269929"
     inkscape:cx="285.23137"
     inkscape:cy="198.94605"
     inkscape:window-width="1792"
     inkscape:window-height="1067"
     inkscape:window-x="0"
     inkscape:window-y="25"
     inkscape:window-maximized="0"
     inkscape:current-layer="g2"
     inkscape:showpageshadow="0"
     inkscape:deskcolor="#d1d1d1"
     showguides="true" />
  <defs
     id="defs2" />
  <g
     inkscape:label="Layer 1"
     inkscape:groupmode="layer"
     id="g2"
     style="display:inline">
    <g
       id="g2552"
       transform="scale(0.99004131)"
       style="display:inline">
      <path
         id="path498"
         style="font-size:82.9652px;line-height:1.25;font-family:Lobster;-inkscape-font-specification:Lobster;display:inline;fill:#aa0000;fill-opacity:1;stroke:none;stroke-width:0.368343;stroke-opacity:1"
         d="M 74.673993,5.1676431e-4 C 73.919294,-0.0041674 73.166716,0.0278492 72.418317,0.09508463 71.669818,0.16231977 70.925762,0.26447271 70.187962,0.39997558 69.450063,0.53547844 68.718431,0.70421975 67.995331,0.90433755 67.272232,1.1044543 66.557443,1.3362288 65.853343,1.5973185 c -0.704099,0.2610797 -1.397626,0.5518414 -2.078426,0.8702311 -0.680899,0.3183997 -1.349062,0.6645796 -2.002461,1.0366292 -0.6534,0.3720596 -1.291879,0.7695989 -1.913579,1.1916585 -0.621699,0.4220596 -1.226493,0.8684598 -1.812292,1.3368693 -0.4923,0.3890896 -0.971356,0.7928624 -1.438155,1.210262 -0.4668,0.4174096 -0.921008,0.8486012 -1.362708,1.2919108 -0.435321,0.4370166 -0.858274,0.8863109 -1.26969,1.346171 -0.006,0.00672 -0.01259,0.012912 -0.0186,0.019637 -0.0068,0.00757 -0.01288,0.015683 -0.01964,0.023254 -0.40987,0.4594926 -0.808395,0.9293096 -1.194759,1.4092156 -0.3929,0.4879 -0.773566,0.985816 -1.142566,1.492415 -0.369,0.5065 -0.726586,1.02181 -1.072286,1.544609 -0.3456,0.522899 -0.679306,1.053384 -1.002006,1.590084 -0.107897,0.179482 -0.212455,0.360738 -0.31781,0.541569 L 48.79702,16.09049 c -0.0409,-0.0303 -0.09823,-0.04712 -0.176733,-0.04702 H 47.887515 L 36.474259,4.6302082 C 36.042259,4.2225686 35.575377,3.8477799 35.075378,3.5119303 34.688378,3.2416705 34.288618,2.9964441 33.877518,2.7750244 33.466518,2.5536046 33.044412,2.356162 32.613513,2.1812622 32.182613,2.0063623 31.74278,1.8541089 31.29628,1.723409 30.849781,1.5926991 30.397057,1.4835868 29.939257,1.3947469 h -5.17e-4 c -0.457736,-0.088783 -0.920197,-0.1574437 -1.384928,-0.2067057 -0.464999,-0.04929 -0.932632,-0.079397 -1.400431,-0.091467 -0.4678,-0.01206 -0.935582,-0.0063 -1.401982,0.016536 -0.466499,0.02283 -0.931263,0.062412 -1.392163,0.1178223 -0.342664,0.034816 -0.683146,0.081441 -1.021643,0.1369425 -0.338497,0.055502 -0.675098,0.1203113 -1.010274,0.1922364 -0.335176,0.071925 -0.668788,0.1510427 -1.001489,0.2351277 -0.332703,0.084085 -0.664213,0.1731184 -0.995288,0.2651001 -0.331075,0.091982 -0.661892,0.1865379 -0.992188,0.2821533 -0.330295,0.095616 -0.660274,0.1923352 -0.990637,0.287321 -0.330363,0.094986 -0.660911,0.1884427 -0.992188,0.278536 -0.331276,0.090093 -0.663283,0.1764112 -0.996321,0.2573486 -0.1143,-0.00327 -0.204069,0.00821 -0.273368,0.031523 -0.0693,0.0233 -0.117996,0.058583 -0.150896,0.1033529 -0.0329,0.04476 -0.05009,0.099097 -0.05529,0.1601969 -0.0052,0.061107 0.0012,0.1292041 0.01499,0.2015381 0.01383,0.072334 0.03523,0.1489308 0.05943,0.2273763 0.0242,0.07845 0.0512,0.1587884 0.077,0.2382283 0.0259,0.07944 0.05086,0.1577408 0.06976,0.2330607 0.0189,0.075321 0.03191,0.1473385 0.03514,0.2134237 0.08161,0.3766332 0.17065,0.7530536 0.263549,1.1296468 0.0929,0.3765933 0.189846,0.7535788 0.286288,1.1306803 0.09644,0.3771015 0.192503,0.7545893 0.284737,1.1327474 0.09223,0.378158 0.180687,0.7571187 0.260966,1.1368815 0.08028,0.3797627 0.152333,0.7601333 0.212907,1.142049 0.06057,0.381915 0.109505,0.765184 0.142627,1.1498 0.03312,0.384617 0.05066,0.77072 0.04858,1.158586 -0.0021,0.387866 -0.0237,0.777257 -0.06873,1.168921 -0.0486,0.535966 -0.122545,1.066674 -0.218591,1.591634 -0.09605,0.524958 -0.214371,1.044142 -0.351917,1.558561 -0.137546,0.51442 -0.294059,1.023725 -0.467155,1.528072 -0.173096,0.504349 -0.362643,1.003871 -0.56534,1.498617 -0.202698,0.494745 -0.418572,0.985099 -0.644922,1.470711 -0.226348,0.48561 -0.463397,0.966377 -0.70745,1.443323 -0.244053,0.476945 -0.495051,0.949769 -0.750859,1.418518 -0.255806,0.468747 -0.516118,0.933728 -0.77773,1.394747 -0.459115,0.792471 -0.935239,1.573223 -1.426269,2.344042 -0.491032,0.77082 -0.997053,1.53184 -1.515153,2.284099 -0.5181018,0.752258 -1.048725,1.495634 -1.5890506,2.232422 -0.5403257,0.736787 -1.0902568,1.466674 -1.6479614,2.19108 -0.5577048,0.724408 -1.1231983,1.443407 -1.6934367,2.158525 -0.5702383,0.715117 -1.1454824,1.426352 -1.723409,2.13527 -0.5779265,0.708918 -1.1581427,1.415507 -1.7389119,2.121317 -0.5807692,0.70581 -1.16169579,1.410875 -1.74046217,2.116667 0.00399605,0.167875 0.00553689,0.336166 0.00620117,0.504879 6.6428e-4,0.168713 3.2987e-4,0.337722 -0.0010335,0.506946 -0.0013634,0.169222 -0.00359755,0.338574 -0.00568441,0.507979 v 5.17e-4 C 0.00566665,44.900868 0.00357178,45.070528 0.00206706,45.239615 5.6081976e-4,45.408874 -3.7851232e-4,45.577776 0,45.746561 c 3.7851251e-4,0.168785 0.00211701,0.337412 0.00568441,0.505395 0.0035674,0.167983 0.0089928,0.335443 0.01705322,0.502295 0.0080604,0.166853 0.01869858,0.332767 0.03255615,0.498161 0.16586752,0.308861 0.33169665,0.61774 0.49764403,0.926558 0.16594739,0.308818 0.33214608,0.617777 0.49816079,0.926559 0.1660147,0.308781 0.3320913,0.617289 0.4981608,0.926041 0.1660695,0.308752 0.332049,0.617829 0.4981608,0.926559 0.1661119,0.30873 0.3320191,0.617328 0.4981608,0.926041 0.1661416,0.308714 0.3325186,0.617338 0.4986776,0.926042 0.166159,0.308705 0.3325138,0.61734 0.4986775,0.926042 0.1661639,0.308701 0.3320048,0.617853 0.4981608,0.926558 L 15.181502,65.803217 c -0.198547,0.572189 -0.39682,1.144484 -0.595313,1.716691 -0.235073,0.677664 -0.469898,1.355767 -0.704866,2.033468 -0.702699,0.048 -1.40293,0.146072 -2.093929,0.291972 -0.691099,0.1458 -1.373129,0.339226 -2.0396688,0.577225 C 9.0811559,70.660573 8.4296667,70.9435 7.8005573,71.268 7.1714479,71.5924 6.5643905,71.958441 5.985681,72.36354 5.4069716,72.76874 4.8566965,73.212975 4.341337,73.693175 3.8259875,74.173374 3.3458488,74.689834 2.9067993,75.239334 2.4677497,75.788833 2.070108,76.371347 1.7203084,76.984447 v 5.16e-4 c -0.3496943,0.613082 -0.6521489,1.256676 -0.89968667,1.927531 -0.15978784,0.424 -0.29811957,0.860664 -0.41341145,1.305864 -0.11529289,0.445299 -0.20737692,0.898823 -0.27440185,1.357023 -0.06702423,0.458099 -0.10903795,0.920678 -0.12402344,1.383378 -0.01498547,0.462699 -0.00310129,0.925612 0.0377238,1.384411 0.04082516,0.4589 0.1109487,0.913425 0.2113566,1.360124 0.1004069,0.4466 0.23156386,0.885448 0.3953247,1.311548 0.16375984,0.4261 0.35977181,0.839517 0.59066161,1.236617 v 5.17e-4 c 0.00105,0.0018 0.00257,0.0034 0.00362,0.0052 0.2300899,0.395106 0.4944634,0.774084 0.7947835,1.132231 0.073243,0.08673 0.1479977,0.17207 0.2247924,0.255798 0.076795,0.08373 0.1554201,0.165968 0.2356446,0.246497 l 1.5477091,1.547709 c -0.097973,0.446689 -0.1960614,0.893281 -0.2940389,1.33997 -0.119775,0.546064 -0.2398864,1.09208 -0.359668,1.638143 -0.1197816,0.546063 -0.2393635,1.092081 -0.3591512,1.638143 -0.1197877,0.546061 -0.2398749,1.092083 -0.3596679,1.638143 -0.1197932,0.54606 -0.2393532,1.092083 -0.3591512,1.638142 -0.119798,0.546059 -0.2398657,1.092088 -0.359668,1.638138 -0.1198023,0.54606 -0.2393452,1.09209 -0.3591512,1.63815 -0.119806,0.54605 -0.239859,1.09208 -0.359668,1.63814 v 5.1e-4 l 23.8125001,23.81147 c -7.2e-5,3.3e-4 7.2e-5,7.1e-4 0,0.001 h 3.263883 3.263367 3.263367 3.263366 3.263367 3.263366 3.263367 3.263367 v -5.1e-4 c 0.0128,-0.0652 0.03751,-0.11293 0.0708,-0.14676 6.16e-4,-6.3e-4 0.0014,-9.4e-4 0.0021,-0.002 0.03328,-0.0329 0.07506,-0.0529 0.124024,-0.062 0.02497,-0.005 0.05602,-1.5e-4 0.08423,0 0.02813,2.5e-4 0.05343,-0.004 0.08423,5.2e-4 0.0615,0.008 0.127471,0.0229 0.196371,0.0419 0.0689,0.0187 0.140619,0.0409 0.21239,0.063 0.07177,0.0221 0.143767,0.044 0.21394,0.0625 0.07017,0.0184 0.13846,0.0331 0.202572,0.0408 0.06411,0.008 0.124179,0.008 0.177767,-0.002 0.349699,0.052 0.701716,0.088 1.054716,0.108 0.352899,0.021 0.706484,0.0265 1.059883,0.0165 0.3533,-0.01 0.7063,-0.0349 1.0573,-0.0749 0.3511,-0.04 0.700548,-0.0949 1.046448,-0.16588 0.345999,-0.071 0.688711,-0.15583 1.02681,-0.25683 0.331521,-0.099 0.65833,-0.21423 0.979786,-0.3421 0.0064,-0.003 0.01321,-0.004 0.01964,-0.007 0.0061,-0.002 0.01194,-0.006 0.01809,-0.008 0.315232,-0.12671 0.625208,-0.26777 0.928109,-0.42323 0.0058,-0.003 0.01181,-0.005 0.01757,-0.008 0.0054,-0.003 0.01015,-0.007 0.0155,-0.009 0.303534,-0.15608 0.599721,-0.32719 0.888318,-0.51314 0.005,-0.003 0.0105,-0.006 0.0155,-0.009 0.0015,0.001 0.0032,0.002 0.0047,0.003 0.424211,0.34243 0.881859,0.6387 1.363224,0.8878 0.481166,0.249 0.986278,0.45089 1.506368,0.60565 0.0022,6.4e-4 0.004,0.002 0.0062,0.003 0.0024,7.1e-4 0.0049,8.5e-4 0.0072,0.002 0.520035,0.15485 1.055164,0.26226 1.595768,0.32298 0.542999,0.061 1.09171,0.0749 1.637109,0.0419 0.5453,-0.034 1.08724,-0.11385 1.616439,-0.24185 0.527018,-0.12747 1.041532,-0.30282 1.534273,-0.52451 0.002,-9e-4 0.0042,-10e-4 0.0062,-0.002 0.0018,-8.3e-4 0.0033,-0.002 0.0052,-0.003 0.492785,-0.22155 0.963503,-0.49032 1.403532,-0.80719 0.216803,-0.15608 0.42613,-0.32396 0.626835,-0.50281 0.0084,-0.007 0.01646,-0.0152 0.02481,-0.0227 0.0057,-0.005 0.01136,-0.0104 0.01705,-0.0155 l 1.951819,1.95182 h 2.040702 2.040186 2.040185 2.040186 2.040185 2.040702 2.040186 2.040185 c 0.0254,-0.0554 0.04622,-0.12173 0.06408,-0.19482 v -5.2e-4 c 0.01789,-0.0733 0.03315,-0.15375 0.04651,-0.23771 0.01335,-0.084 0.02484,-0.17142 0.03669,-0.2589 0.01185,-0.0875 0.02382,-0.17502 0.03721,-0.2589 0.01339,-0.0839 0.02855,-0.16405 0.04651,-0.23719 0.01792,-0.0729 0.03859,-0.1386 0.06408,-0.19379 v -5.1e-4 c 0.02557,-0.0553 0.05577,-0.0999 0.09198,-0.13023 0.03621,-0.0303 0.07879,-0.0463 0.128674,-0.0444 0.3664,0.231 0.746182,0.43708 1.136882,0.61908 0.390699,0.182 0.791977,0.34094 1.201477,0.47594 0.409499,0.134 0.827253,0.24635 1.250052,0.33435 0.416967,0.0868 0.838809,0.1497 1.263489,0.19172 0.0061,6e-4 0.01202,0.002 0.01809,0.003 0.0064,6.2e-4 0.01277,4.3e-4 0.01912,0.001 0.424411,0.0407 0.851258,0.0593 1.277958,0.0563 0.4331,-0.003 0.866046,-0.03 1.296045,-0.078 0.43,-0.048 0.857076,-0.11884 1.278475,-0.21084 0.4213,-0.092 0.837373,-0.20606 1.244373,-0.34106 0.111,-0.038 0.22173,-0.0779 0.33073,-0.11886 l 5.1e-4,-5.1e-4 c 0.10978,-0.0413 0.21914,-0.0841 0.32763,-0.12868 0.1085,-0.0446 0.21586,-0.0907 0.32298,-0.13849 0.10697,-0.0477 0.21334,-0.0974 0.31884,-0.14831 h 5.2e-4 c 0.10564,-0.051 0.21063,-0.10353 0.31471,-0.15762 0.041,-0.0213 0.0812,-0.0438 0.12196,-0.0656 0.0627,-0.0333 0.12559,-0.0662 0.1881,-0.10077 0.051,-0.029 0.10114,-0.0595 0.15193,-0.0889 0.0507,-0.0293 0.10214,-0.0577 0.15244,-0.0878 0.10066,-0.0602 0.20038,-0.12176 0.29921,-0.185 0.005,0.004 0.0102,0.007 0.015,0.0103 0.32979,0.26141 0.67741,0.49516 1.03921,0.70021 0.366,0.209 0.74695,0.38909 1.13895,0.54209 0.391,0.153 0.79402,0.27924 1.20302,0.37724 0.409,0.099 0.82589,0.171 1.24489,0.216 h 5.2e-4 c 0.41418,0.0454 0.83236,0.0636 1.24953,0.0584 0.006,-7e-5 0.0113,0.001 0.0171,0.001 0.006,-8e-5 0.0113,-9.4e-4 0.017,-0.001 0.41731,-0.007 0.83466,-0.0373 1.24902,-0.0925 0.4134,-0.0562 0.82359,-0.13682 1.22731,-0.23978 0.005,-0.001 0.0111,-0.002 0.0165,-0.003 0.005,-0.001 0.01,-0.003 0.015,-0.005 0.37207,-0.0961 0.73723,-0.21347 1.0945,-0.34934 l 0.36794,0.36794 h 5.2e-4 c 0.0312,0.0346 0.0645,0.065 0.10231,0.091 0.0378,0.026 0.0798,0.0479 0.12816,0.0641 0.0484,0.0162 0.10325,0.0268 0.1664,0.032 0.0315,0.002 0.0721,-10e-4 0.108,-0.002 0.036,-2.5e-4 0.0675,0.003 0.10852,-5.2e-4 0.0443,-0.004 0.10051,-0.0149 0.15142,-0.0227 0.0431,-0.007 0.08,-0.01 0.12815,-0.0191 0.15844,0.005 0.31679,0.0144 0.47543,0.0258 0.159,0.012 0.31797,0.0248 0.47697,0.0398 0.158,0.014 0.31694,0.0289 0.47594,0.0439 0.15896,0.0146 0.3179,0.0285 0.47697,0.0403 0.159,0.012 0.31801,0.0219 0.47801,0.0279 0.159,0.006 0.31797,0.009 0.47697,0.006 0.15921,-0.002 0.31878,-0.01 0.47801,-0.0238 0.15922,-0.0139 0.31827,-0.0342 0.47749,-0.0625 0.24773,-0.0266 0.49564,-0.0471 0.74414,-0.0631 0.24833,-0.0158 0.49727,-0.0272 0.74621,-0.0346 h 5.2e-4 c 0.2491,-0.007 0.49821,-0.011 0.74775,-0.0124 0.24955,-0.001 0.4995,-3.8e-4 0.74931,0.002 0.24981,0.002 0.49992,0.006 0.74983,0.009 0.24991,0.004 0.49948,0.007 0.74931,0.0103 0.24984,0.002 0.49972,0.004 0.7493,0.003 0.249,-0.001 0.49928,-0.004 0.74828,-0.0103 h 0.69091 0.68988 0.69092 0.69039 0.68989 0.69091 0.68988 0.69091 v -5.2e-4 c 1.1e-4,-4.1e-4 4.1e-4,-6.2e-4 5.2e-4,-0.001 0.0157,-0.0599 0.0423,-0.10294 0.0775,-0.13229 7.7e-4,-6.6e-4 0.002,-9.1e-4 0.003,-0.002 0.0351,-0.0285 0.0786,-0.0442 0.12867,-0.0496 0.051,-0.005 0.10905,-6.3e-4 0.17105,0.0114 0.062,0.011 0.12892,0.0296 0.19792,0.0506 h 5.2e-4 c 0.0692,0.0215 0.14054,0.0461 0.21239,0.0703 0.0718,0.0242 0.14377,0.0483 0.21394,0.0682 0.0702,0.0199 0.13891,0.0355 0.20309,0.0439 0.0642,0.008 0.12386,0.009 0.17777,-5.2e-4 0.24298,0.0348 0.48765,0.062 0.73277,0.0816 0.24513,0.0196 0.49082,0.0316 0.7369,0.0357 h 5.2e-4 c 0.246,0.004 0.49194,1.5e-4 0.73794,-0.0109 0.246,-0.012 0.49087,-0.0324 0.73587,-0.0594 0.244,-0.028 0.48716,-0.064 0.72916,-0.10801 h 5.1e-4 c 0.24184,-0.044 0.48254,-0.0966 0.72037,-0.15658 0.238,-0.061 0.47394,-0.13025 0.70694,-0.20825 0.233,-0.077 0.46443,-0.16387 0.69143,-0.25787 0.308,0.131 0.62306,0.24568 0.94206,0.34468 0.32,0.099 0.64455,0.18209 0.97255,0.24909 0.328,0.067 0.65919,0.11799 0.99219,0.15399 0.33265,0.035 0.6679,0.0538 1.00355,0.0579 h 5.2e-4 c 0.3281,0.003 0.65624,-0.009 0.9834,-0.0367 0.007,-5.7e-4 0.0138,7e-5 0.0207,-5.2e-4 0.007,-5.9e-4 0.0137,-0.002 0.0207,-0.003 0.32701,-0.0281 0.65196,-0.071 0.97514,-0.12971 0.33,-0.06 0.65623,-0.13641 0.97823,-0.22841 0.32179,-0.0919 0.63853,-0.19857 0.95033,-0.32246 0.005,0.002 0.0105,0.003 0.0155,0.005 0.44976,0.18758 0.9137,0.33769 1.38752,0.45113 0.004,9.3e-4 0.007,0.003 0.0114,0.004 0.004,0.001 0.009,0.001 0.0129,0.002 0.47467,0.11232 0.95818,0.18789 1.44539,0.22686 0.004,3.4e-4 0.009,0.002 0.0129,0.002 0.004,3.6e-4 0.009,-3.4e-4 0.0134,0 0.49156,0.038 0.98487,0.0393 1.47639,0.005 h 5.2e-4 c 5.1e-4,-3e-5 0.001,4e-5 0.002,0 0.49531,-0.036 0.9879,-0.10922 1.47123,-0.21807 0.484,-0.11 0.95852,-0.25673 1.41852,-0.43873 l 5.1e-4,-5.2e-4 c 0.45978,-0.18295 0.90477,-0.40189 1.32757,-0.65577 0.423,-0.255 0.82593,-0.54472 1.19993,-0.86972 l 5.2e-4,-5.2e-4 c 0.37478,-0.32587 0.72174,-0.68578 1.03559,-1.08158 0.181,-0.211 0.3483,-0.43084 0.5023,-0.65784 v -5.2e-4 c 0.1549,-0.22689 0.29588,-0.46189 0.42581,-0.70177 0.13,-0.24 0.24698,-0.48694 0.35398,-0.73794 0.10694,-0.25085 0.20188,-0.50755 0.28784,-0.76739 v -5.2e-4 c 0.085,-0.26 0.16034,-0.52413 0.22634,-0.79013 0.0658,-0.26654 0.12204,-0.5359 0.17002,-0.80667 0.048,-0.27 0.0879,-0.54345 0.11989,-0.81545 0.031,-0.273 0.0559,-0.54556 0.0729,-0.81856 0.043,-0.363 0.0862,-0.72737 0.12919,-1.09037 0.043,-0.363 0.0857,-0.72686 0.12868,-1.08986 0.043,-0.363 0.0862,-0.72685 0.12919,-1.08985 0.0203,-0.17135 0.0403,-0.34312 0.0605,-0.5147 0.0227,-0.19175 0.0455,-0.38341 0.0682,-0.57516 0.0429,-0.36334 0.0857,-0.72703 0.12868,-1.09037 0.043,-0.36334 0.0857,-0.72652 0.12867,-1.08986 0.043,-0.36333 0.0862,-0.72651 0.12919,-1.08985 0.043,-0.36334 0.0857,-0.72705 0.12868,-1.09038 l -1.29553,-1.29552 c 0.008,-0.0388 0.0166,-0.0775 0.0248,-0.11628 0.14897,-0.70583 0.29911,-1.41083 0.44907,-2.11666 v -5.2e-4 c 0.15,-0.705 0.29959,-1.41063 0.44959,-2.11563 v -5.2e-4 c 0.1499,-0.70557 0.29965,-1.41111 0.44958,-2.11667 0.14994,-0.70556 0.29963,-1.4111 0.44959,-2.11666 v -5.2e-4 c 0.15,-0.705396 0.3001,-1.410547 0.4501,-2.116146 0.14997,-0.705552 0.30013,-1.411117 0.4501,-2.116667 0.14998,-0.70555 0.29962,-1.411115 0.44958,-2.116667 L 148.50359,82.063723 c 0.10277,-0.487665 0.20545,-0.975265 0.30851,-1.46296 0.154,-0.728599 0.30799,-1.457313 0.46199,-2.185913 0.566,-0.235299 1.12088,-0.503535 1.66088,-0.802535 0.539,-0.298999 1.06386,-0.628503 1.56786,-0.986503 0.505,-0.358099 0.98904,-0.744535 1.45004,-1.157035 0.46,-0.4125 0.89735,-0.850899 1.30535,-1.313098 0.40505,-0.458959 0.7821,-0.941449 1.12706,-1.444873 0.003,-0.0037 0.006,-0.0071 0.008,-0.01085 0.002,-0.0036 0.004,-0.0077 0.007,-0.01137 0.34496,-0.503901 0.65679,-1.02862 0.93276,-1.572514 0.27418,-0.542221 0.51221,-1.103619 0.71003,-1.681034 0.002,-0.0059 0.005,-0.01119 0.007,-0.01705 0.002,-0.0054 0.002,-0.01118 0.004,-0.01654 0.1965,-0.575864 0.35317,-1.167432 0.46406,-1.773535 5.4e-4,-0.003 0.002,-0.0058 0.002,-0.0088 0.001,-0.0058 0.001,-0.01174 0.003,-0.01757 0.087,-0.431592 0.14888,-0.865553 0.18655,-1.300179 5.2e-4,-0.0059 0.002,-0.01169 0.003,-0.01757 5.4e-4,-0.0062 -1e-5,-0.01241 5.2e-4,-0.0186 0.0378,-0.440221 0.0523,-0.881166 0.0434,-1.321367 -0.009,-0.446399 -0.0411,-0.892019 -0.0951,-1.335319 -0.0532,-0.436399 -0.12828,-0.870284 -0.22221,-1.300696 -0.001,-0.0067 -0.002,-0.01348 -0.004,-0.02015 -0.002,-0.0071 -0.004,-0.01405 -0.006,-0.02119 -0.0951,-0.429777 -0.20877,-0.855848 -0.34158,-1.276408 -0.135,-0.427499 -0.28789,-0.849522 -0.45889,-1.264522 -0.17099,-0.414899 -0.35927,-0.822531 -0.56327,-1.221631 v -5.16e-4 c -0.002,-0.0037 -0.004,-0.0071 -0.006,-0.01085 -0.20232,-0.395187 -0.41886,-0.782051 -0.65061,-1.158586 -0.044,-0.1221 -0.0988,-0.233497 -0.16381,-0.335897 -0.065,-0.1023 -0.14021,-0.19607 -0.22221,-0.28267 l -1.78335,-1.783354 c 0.003,-0.02255 0.007,-0.04548 0.0114,-0.06821 0.007,-0.04172 0.0136,-0.0828 0.0222,-0.125057 0.009,-0.04231 0.0188,-0.08543 0.0284,-0.128158 0.01,-0.04276 0.0189,-0.08514 0.0295,-0.128158 0.021,-0.0861 0.0421,-0.172299 0.0641,-0.258898 0.0218,-0.08651 0.0435,-0.172917 0.0641,-0.258899 0.0205,-0.08598 0.0399,-0.17184 0.0568,-0.256315 0.0168,-0.08448 0.031,-0.167604 0.0418,-0.249598 0.12031,-0.566758 0.24091,-1.133914 0.36122,-1.700671 0.12031,-0.566757 0.2404,-1.133397 0.3607,-1.700155 l 0.36122,-1.700154 0.3607,-1.700155 c 0.12,-0.566799 0.24022,-1.133872 0.36122,-1.700671 0.12,-0.5667 0.2397,-1.133355 0.3607,-1.700155 0.12,-0.566699 0.24022,-1.133455 0.36122,-1.700154 0.12,-0.5668 0.24022,-1.133355 0.36122,-1.700155 h -5.2e-4 l -23.8125,-23.812499 h -1.03301 L 121.59723,5.0410359 c -0.13354,-0.139824 -0.26936,-0.2773084 -0.41031,-0.4103109 -0.4319,-0.4075339 -0.8985,-0.7824989 -1.39837,-1.118278 h -5.2e-4 c -0.38699,-0.2701797 -0.78686,-0.5155261 -1.19785,-0.7369059 -0.411,-0.2213798 -0.83301,-0.4188723 -1.26401,-0.5937622 -0.42985,-0.1748381 -0.86988,-0.3271642 -1.31672,-0.4578532 h -5.1e-4 c -0.446,-0.1307298 -0.89903,-0.2398021 -1.35703,-0.3286621 -0.458,-0.08887 -0.91992,-0.1573857 -1.38492,-0.2067057 h -5.2e-4 c -0.46483,-0.049288 -0.93257,-0.079392 -1.3994,-0.091467 h -5.2e-4 c -0.46782,-0.012062 -0.93567,-0.0063 -1.40249,0.016536 -0.466,0.02284 -0.93117,0.062372 -1.39217,0.1178223 -0.34284,0.034864 -0.68299,0.081319 -1.02164,0.1369425 -0.33883,0.055602 -0.67547,0.1206858 -1.01131,0.1927531 -0.33483,0.072075 -0.66917,0.1513707 -1.002,0.2356445 -0.332,0.08431 -0.66378,0.1738837 -0.99477,0.2661336 h -5.2e-4 c -0.1656,0.046126 -0.33075,0.094285 -0.4961,0.1415935 -0.16521,0.047262 -0.33127,0.093685 -0.49661,0.1415934 -0.32984,0.095874 -0.66031,0.1925923 -0.99115,0.2878377 -0.33,0.0953 -0.66067,0.1891596 -0.99167,0.2795695 h -5.2e-4 c -0.16569,0.045203 -0.33208,0.086013 -0.49816,0.1291911 -0.16596,0.043135 -0.33234,0.088608 -0.49868,0.129191 -0.11176,-0.00301 -0.19974,0.00899 -0.26768,0.032556 -0.067,0.02366 -0.11421,0.059246 -0.14521,0.1043864 -0.031,0.04513 -0.0461,0.099851 -0.0501,0.1612305 -0.004,0.06139 0.004,0.1296449 0.0191,0.2020548 0.015,0.07242 0.037,0.1486396 0.062,0.2268595 0.025,0.07822 0.053,0.1583949 0.078,0.2371949 0.026,0.07881 0.0502,0.1563069 0.0682,0.2304768 0.009,0.036995 0.0105,0.069516 0.016,0.1043864 0.005,0.03504 0.0148,0.072666 0.0155,0.1049032 0.0797,0.3744556 0.16684,0.7486056 0.25787,1.1229288 0.091,0.3743233 0.18584,0.7486991 0.2806,1.1234457 0.0948,0.3747466 0.18972,0.7497871 0.2806,1.1255126 0.0909,0.3757254 0.17795,0.7523867 0.25735,1.1296468 0.079,0.3772596 0.15084,0.7554248 0.21084,1.1348145 10e-4,0.0089 0.002,0.01793 0.004,0.02687 0.0584,0.370486 0.10669,0.741647 0.13953,1.114661 0.0336,0.381996 0.0524,0.765636 0.0517,1.150834 -6.7e-4,0.385197 -0.0204,0.772215 -0.063,1.161169 -0.045,0.525678 -0.11481,1.045947 -0.20619,1.561145 -0.0914,0.515199 -0.20442,1.025012 -0.33642,1.530139 -0.082,0.31383 -0.18317,0.62269 -0.27905,0.93276 L 89.185252,5.4131062 C 88.775553,5.0182166 88.348426,4.6414493 87.905227,4.2850097 87.461927,3.92858 87.002766,3.5920757 86.528567,3.277836 86.054367,2.9635963 85.565206,2.6717805 85.062506,2.4034708 84.559807,2.1351711 84.043397,1.8903723 83.514797,1.6717326 83.167998,1.5204027 82.816948,1.3809598 82.462148,1.2521199 82.107295,1.1232713 81.74847,1.0054536 81.386762,0.89813638 81.025052,0.79081905 80.660608,0.69393566 80.293289,0.60719807 79.92597,0.52046047 79.555996,0.44383066 79.184312,0.37672118 78.812629,0.3096117 78.438771,0.25203811 78.063967,0.20360514 77.689164,0.15517217 77.313583,0.11545743 76.936904,0.08474935 76.560226,0.05404127 76.182499,0.03202155 75.805191,0.01808675 75.427882,0.00415195 75.050687,-0.00137011 74.673993,5.1676431e-4 Z M 96.101626,23.92257 c 3e-5,0.001 -3.1e-5,0.0021 0,0.0031 -3.41e-4,3.2e-5 -6.94e-4,-3.3e-5 -10e-4,0 -2.5e-5,-8.6e-4 2.6e-5,-0.0017 0,-0.0026 3.6e-4,-3.4e-5 6.73e-4,-4.82e-4 10e-4,-5.17e-4 z M 24.1701,104.24635 h 0.0062 v 5.1e-4 h -0.0062 z" />
      <path
         id="text3"
         style="font-size:82.9652px;line-height:1.25;font-family:Lobster;-inkscape-font-specification:Lobster;display:inline;fill:#f9f9f9;stroke-width:0.368343"
         d="m 74.809511,5.8181997 c -1.363375,0 -2.687487,0.1278064 -3.972271,0.3834292 -1.284784,0.2556227 -2.53024,0.6390618 -3.736302,1.1503273 -1.206062,0.5112655 -2.366271,1.1240774 -3.480597,1.838487 -1.114326,0.7144096 -2.182769,1.5304178 -3.2053,2.4480738 -1.009421,0.917656 -1.969613,1.927134 -2.880646,3.028378 -0.911033,1.101243 -1.772905,2.294252 -2.585687,3.57897 -0.799671,1.271609 -1.540367,2.61198 -2.222071,4.021176 -0.681704,1.409196 -1.304415,2.887216 -1.868118,4.434122 -0.563703,1.533797 -1.061872,3.123276 -1.494494,4.768471 -0.432623,1.645195 -0.799698,3.346105 -1.101213,5.102761 -0.288406,1.743546 -0.504672,3.513357 -0.648837,5.309386 -0.144164,1.79603 -0.216227,3.618278 -0.216227,5.4667 0,1.402703 0.06227,2.762798 0.186812,4.080288 0.124541,1.31749 0.311351,2.592375 0.560429,3.824656 0.262188,1.219171 0.612864,2.359695 1.052027,3.421562 0.439164,1.061867 0.966815,2.045079 1.582955,2.949625 0.61614,0.904547 1.340397,1.713999 2.172806,2.428409 0.83241,0.714409 1.772971,1.333776 2.821721,1.858151 1.048749,0.524375 2.228604,0.917762 3.539553,1.180055 1.310949,0.262293 2.752991,0.393492 4.326116,0.393492 1.232281,0 2.415391,-0.09843 3.54934,-0.295184 1.13395,-0.196752 2.218739,-0.491824 3.254379,-0.885106 1.04875,-0.39328 2.048319,-0.858589 2.998728,-1.395999 0.950409,-0.537411 1.851658,-1.146923 2.703767,-1.82861 0.865218,-0.681687 1.684639,-1.425662 2.458178,-2.231907 0.773538,-0.806244 1.501194,-1.674758 2.182882,-2.605524 0.681687,-0.930765 1.323967,-1.897581 1.926918,-2.900449 0.602951,-1.002868 1.166574,-2.041786 1.690949,-3.116754 0.524375,-1.074968 1.009408,-2.176158 1.455112,-3.303566 0.445704,-1.127408 0.852081,-2.281036 1.219143,-3.460879 0.380172,-1.179843 0.724303,-2.356446 1.032385,-3.529772 0.308081,-1.173326 0.580112,-2.343374 0.816081,-3.510108 0.235969,-1.179843 0.4392,-2.343262 0.609659,-3.490294 0.170458,-1.147032 0.308143,-2.277677 0.413018,-3.391973 0.117984,-1.127406 0.20648,-2.218783 0.26548,-3.274109 0.059,-1.055326 0.0885,-2.074602 0.0885,-3.057805 0,-1.455141 -0.07872,-2.844718 -0.236095,-4.16875 -0.157376,-1.324031 -0.393408,-2.582515 -0.708033,-3.775467 -0.301515,-1.192953 -0.688174,-2.297391 -1.160043,-3.313341 -0.47187,-1.01595 -1.02895,-1.943411 -1.671309,-2.782411 C 85.899959,10.314602 85.182203,9.5607418 84.375958,8.9052028 83.569714,8.2496638 82.674981,7.6924452 81.691778,7.2336172 80.721685,6.7616798 79.663142,6.4078255 78.51611,6.1719554 77.369078,5.9360854 76.133558,5.8181997 74.809511,5.8181997 Z m -47.980533,1.100708 c -0.314625,0 -0.642303,0.00992 -0.98309,0.029673 -0.340787,0.019753 -0.694683,0.049338 -1.061746,0.088666 -0.353954,0.039328 -0.694897,0.09176 -1.022731,0.1573007 -0.327834,0.065541 -0.642558,0.1441914 -0.944074,0.235957 0.104875,0.4063905 0.196737,0.8159825 0.275489,1.2288518 0.07875,0.4128694 0.144396,0.8290162 0.196834,1.2485163 0.05244,0.4195005 0.09171,0.8390405 0.117876,1.2585795 0.02616,0.41954 0.03922,0.83908 0.03922,1.25858 0,1.324047 -0.124542,2.661262 -0.373624,4.011587 -0.249081,1.350325 -0.622701,2.71376 -1.120858,4.090244 -0.498156,1.363374 -1.078303,2.733309 -1.740383,4.109799 -0.662081,1.37649 -1.406095,2.759534 -2.231985,4.149128 -0.812781,1.389594 -1.687838,2.779166 -2.625164,4.168738 -0.937327,1.389572 -1.936923,2.779145 -2.998782,4.168738 -1.048749,1.376484 -2.117117,2.746445 -3.205149,4.109853 -1.088032,1.363407 -2.195728,2.72026 -3.323134,4.070526 v 0.196628 0.196629 l 0.8456848,1.57303 0.8456848,1.573031 h 0.1570963 0.1570964 c 0.7341247,-0.367062 1.4682869,-0.665344 2.2024497,-0.894802 0.734162,-0.229458 1.468324,-0.390092 2.202449,-0.481858 0.747234,-0.104875 1.478159,-0.183552 2.192698,-0.236011 0.714539,-0.05246 1.412691,-0.0787 2.094379,-0.0787 0.943875,0 1.86803,0.06227 2.772522,0.186812 0.904491,0.124541 1.789319,0.311351 2.654537,0.560429 0.865219,0.235968 1.723935,0.471968 2.576097,0.707967 0.852162,0.235999 1.697769,0.471998 2.536769,0.707967 l -3.008602,8.671822 -3.008602,8.671822 h 5.604051 5.60405 l 1.750281,-8.298201 1.750281,-8.298202 c 0.61614,-0.117984 1.209327,-0.272015 1.779572,-0.462097 0.570246,-0.190082 1.117549,-0.416214 1.641924,-0.678401 0.537484,-0.275297 1.035599,-0.576783 1.494386,-0.904488 0.458787,-0.327705 0.878246,-0.681629 1.258418,-1.061801 0.393281,-0.380172 0.740704,-0.783312 1.042244,-1.209393 0.30154,-0.426081 0.557197,-0.875103 0.766947,-1.34704 0.222859,-0.485046 0.390033,-0.983182 0.501491,-1.494428 0.111458,-0.511246 0.167202,-1.0356 0.167202,-1.573085 0,-0.353953 -0.02624,-0.711216 -0.0787,-1.071756 -0.05246,-0.36054 -0.131136,-0.724357 -0.236011,-1.091419 -0.104875,-0.367062 -0.239296,-0.737407 -0.403213,-1.11103 -0.163917,-0.373622 -0.35733,-0.750522 -0.580189,-1.130694 l -0.117822,-0.07855 -0.117823,-0.07855 c -0.4195,0.485047 -0.842303,0.92744 -1.268384,1.327226 -0.426081,0.399788 -0.855439,0.756969 -1.288049,1.071594 -0.419499,0.301516 -0.842303,0.570288 -1.268384,0.806287 -0.426081,0.235999 -0.85544,0.439225 -1.288049,0.609647 l 1.986183,-9.360152 1.986184,-9.360152 h -2.57607 -2.57607 l -3.264142,9.399426 -3.264142,9.399426 c -0.707905,-0.131094 -1.422431,-0.262175 -2.143511,-0.393257 -0.72108,-0.131082 -1.448715,-0.262164 -2.182839,-0.393258 -0.721016,-0.131094 -1.41912,-0.229408 -2.094282,-0.294949 -0.675163,-0.06554 -1.327384,-0.09831 -1.956634,-0.09831 -0.642359,0 -1.287951,0.0393 -1.936819,0.117919 -0.648869,0.07862 -1.301015,0.196574 -1.956483,0.353887 -0.642359,0.144204 -1.2356,0.298289 -1.77968,0.462206 -0.544081,0.163916 -1.039001,0.337665 -1.48472,0.521197 l -0.03927,-0.118081 -0.03927,-0.118081 c 0.668578,-0.524375 1.356783,-1.091262 2.064651,-1.700754 0.707868,-0.609493 1.435401,-1.261591 2.182635,-1.956387 0.760343,-0.694797 1.514143,-1.409295 2.261388,-2.143457 0.747245,-0.734163 1.487935,-1.487989 2.22206,-2.261442 0.747234,-0.773453 1.47816,-1.560046 2.192698,-2.35975 0.714539,-0.799703 1.412691,-1.612516 2.094378,-2.438406 0.681688,-0.839 1.323967,-1.671423 1.926918,-2.497291 0.602951,-0.825868 1.166575,-1.645181 1.690949,-2.457962 0.524375,-0.812781 0.993089,-1.612512 1.406087,-2.399133 0.412999,-0.786621 0.770282,-1.560132 1.071798,-2.320476 0.314625,-0.773453 0.550528,-1.517359 0.707775,-2.231768 0.157247,-0.714409 0.235837,-1.399323 0.235837,-2.054792 0,-0.485046 -0.04256,-0.953679 -0.127723,-1.405924 C 34.284873,12.02207 34.157103,11.586211 33.986681,11.166711 33.829368,10.734102 33.629433,10.330983 33.386893,9.9573602 33.144353,9.5837379 32.859207,9.2396117 32.531473,8.9249868 32.203739,8.6103617 31.840002,8.3317705 31.440215,8.0892301 31.040428,7.8466898 30.60459,7.6402003 30.132653,7.4697785 29.660715,7.2862473 29.149422,7.1485295 28.5988,7.0566947 28.048178,6.9648598 27.458228,6.9189077 26.828978,6.9189077 Z m 84.712652,0 c -0.31462,0 -0.6423,0.00992 -0.98309,0.029673 -0.34078,0.019753 -0.69468,0.049338 -1.06174,0.088666 -0.35395,0.039328 -0.69477,0.09176 -1.02247,0.1573007 -0.32771,0.065541 -0.6423,0.1441914 -0.94382,0.235957 0.10488,0.4063905 0.19661,0.8159825 0.27523,1.2288518 0.0786,0.4128694 0.14414,0.8290162 0.19658,1.2485163 0.0524,0.4194995 0.0917,0.8390395 0.11787,1.2585795 0.0262,0.41954 0.0392,0.83908 0.0392,1.25858 0,1.324047 -0.12454,2.661262 -0.37362,4.011587 -0.24908,1.350325 -0.6227,2.71376 -1.12086,4.090244 -0.49816,1.363374 -1.07817,2.733309 -1.74012,4.109799 -0.66196,1.37649 -1.40584,2.759534 -2.23173,4.149128 -0.81278,1.389594 -1.68784,2.779166 -2.62516,4.168738 -0.937331,1.389572 -1.936927,2.779145 -2.998786,4.168738 -1.048749,1.376484 -2.117247,2.746445 -3.205408,4.109853 -1.088161,1.363407 -2.195986,2.72026 -3.323392,4.070526 v 0.196628 0.196629 l 0.845685,1.57303 0.845684,1.573031 h 0.157355 0.157355 c 0.734125,-0.367062 1.468288,-0.665344 2.20245,-0.894802 0.734162,-0.229458 1.468325,-0.390092 2.202449,-0.481858 0.747235,-0.104875 1.478033,-0.183552 2.192442,-0.236011 0.71441,-0.05246 1.412436,-0.0787 2.094116,-0.0787 0.94388,0 1.86803,0.06227 2.77252,0.186812 0.90449,0.124541 1.78932,0.311351 2.65454,0.560429 0.86522,0.235968 1.72393,0.471968 2.5761,0.707967 0.85216,0.235999 1.69777,0.471998 2.53677,0.707967 l -3.0086,8.671822 -3.00861,8.671822 h 5.60431 5.60431 l 1.75002,-8.298201 1.75002,-8.298202 c 0.61614,-0.117984 1.20933,-0.272015 1.77958,-0.462097 0.57024,-0.190082 1.11755,-0.416214 1.64192,-0.678401 0.53748,-0.275297 1.0356,-0.576783 1.49439,-0.904488 0.45878,-0.327705 0.87824,-0.681629 1.25841,-1.061801 0.39328,-0.380172 0.7407,-0.783312 1.04225,-1.209393 0.30154,-0.426081 0.5572,-0.875103 0.76695,-1.34704 0.22286,-0.485046 0.39003,-0.983182 0.50149,-1.494428 0.11146,-0.511246 0.1672,-1.0356 0.1672,-1.573085 0,-0.353953 -0.0262,-0.711216 -0.0787,-1.071756 -0.0525,-0.36054 -0.13114,-0.724357 -0.23601,-1.091419 -0.10488,-0.367062 -0.23917,-0.737407 -0.40296,-1.11103 -0.16379,-0.373622 -0.35707,-0.750522 -0.57993,-1.130694 l -0.11808,-0.07855 -0.11808,-0.07855 c -0.4195,0.485047 -0.8423,0.92744 -1.26838,1.327226 -0.42608,0.399788 -0.85544,0.756969 -1.28805,1.071594 -0.4195,0.301516 -0.8423,0.570288 -1.26838,0.806287 -0.42608,0.235999 -0.85544,0.439225 -1.28805,0.609647 l 1.98618,-9.360152 1.98618,-9.360152 h -2.57607 -2.57607 l -3.26414,9.399426 -3.26414,9.399426 c -0.70791,-0.131094 -1.42243,-0.262175 -2.14351,-0.393257 -0.72109,-0.131082 -1.44872,-0.262164 -2.18284,-0.393258 -0.72101,-0.131094 -1.41899,-0.229408 -2.09402,-0.294949 -0.67504,-0.06554 -1.32713,-0.09831 -1.95638,-0.09831 -0.64236,0 -1.28808,0.0393 -1.93708,0.117919 -0.649,0.07862 -1.30127,0.196574 -1.95674,0.353887 -0.64235,0.144204 -1.23546,0.298289 -1.77942,0.462206 -0.54395,0.163916 -1.03874,0.337665 -1.484461,0.521197 l -0.03953,-0.118081 -0.03953,-0.118081 c 0.668579,-0.524375 1.356901,-1.091262 2.064901,-1.700754 0.708,-0.609493 1.43566,-1.261591 2.1829,-1.956387 0.76034,-0.694797 1.51414,-1.409295 2.26138,-2.143457 0.74725,-0.734163 1.48794,-1.487989 2.22206,-2.261442 0.74724,-0.773453 1.47803,-1.560046 2.19244,-2.35975 0.71441,-0.799703 1.41243,-1.612516 2.09412,-2.438406 0.68169,-0.839 1.3241,-1.671423 1.92718,-2.497291 0.60308,-0.825868 1.16683,-1.645181 1.69121,-2.457962 0.52438,-0.812777 0.99296,-1.612507 1.40583,-2.399129 0.41287,-0.786623 0.77002,-1.560136 1.07154,-2.32048 0.31462,-0.773453 0.55065,-1.517359 0.70803,-2.231768 0.15737,-0.714409 0.23609,-1.399323 0.23609,-2.054792 0,-0.485046 -0.0427,-0.953679 -0.12798,-1.405924 -0.0853,-0.452246 -0.21319,-0.888105 -0.38361,-1.307605 -0.15732,-0.432609 -0.35725,-0.835728 -0.59979,-1.2093508 -0.24255,-0.3736223 -0.52769,-0.7177485 -0.85542,-1.0323734 -0.32773,-0.3146274 -0.69147,-0.5932186 -1.09126,-0.8357583 -0.39979,-0.2425398 -0.83563,-0.4490282 -1.30756,-0.61945 -0.47193,-0.1835312 -0.98323,-0.321249 -1.53385,-0.4130838 -0.55062,-0.091835 -1.14058,-0.137787 -1.76983,-0.137787 z M 74.691172,10.61584 c 0.40639,0 0.783344,0.07872 1.130802,0.236096 0.347457,0.157376 0.665419,0.393408 0.953825,0.708033 0.301516,0.314625 0.573552,0.688255 0.816093,1.120877 0.24254,0.432622 0.455584,0.924236 0.639116,1.47483 0.19664,0.537484 0.367024,1.117583 0.511188,1.740286 0.144164,0.622705 0.262109,1.288014 0.353875,1.99592 0.09177,0.707906 0.160624,1.435487 0.206542,2.182731 0.04592,0.747245 0.06889,1.514154 0.06889,2.300716 0,1.560015 -0.04595,3.123309 -0.137787,4.68988 -0.09184,1.566572 -0.229553,3.136421 -0.413084,4.709546 -0.170422,1.560015 -0.380176,3.093805 -0.629257,4.601377 -0.249082,1.507572 -0.537492,2.988925 -0.865226,4.444065 -0.314625,1.442031 -0.665279,2.83811 -1.051984,4.188306 -0.386704,1.350196 -0.80946,2.654509 -1.268287,3.913009 -0.445719,1.24539 -0.917663,2.412207 -1.415826,3.500369 -0.498164,1.088161 -1.022545,2.097666 -1.573139,3.028431 -0.537484,0.917657 -1.09787,1.740192 -1.681198,2.467683 -0.583328,0.727492 -1.189597,1.359941 -1.818847,1.897425 -0.61614,0.524375 -1.242095,0.917633 -1.877881,1.179797 -0.635786,0.262164 -1.281405,0.393234 -1.936873,0.393234 -0.550594,0 -1.048735,-0.08512 -1.49444,-0.255448 -0.445704,-0.170329 -0.838971,-0.425869 -1.179815,-0.766712 -0.340845,-0.340843 -0.64573,-0.737503 -0.914564,-1.189878 -0.268834,-0.452375 -0.501618,-0.960465 -0.698258,-1.524168 -0.183531,-0.563704 -0.340832,-1.166703 -0.471913,-1.80903 -0.131082,-0.642328 -0.235946,-1.323983 -0.314602,-2.044999 -0.06555,-0.721015 -0.114639,-1.451886 -0.147345,-2.19259 -0.03271,-0.740703 -0.04903,-1.491239 -0.04903,-2.251583 0,-1.494468 0.04909,-2.998749 0.147334,-4.512862 0.09825,-1.514112 0.245654,-3.038058 0.442294,-4.571854 0.20975,-1.533796 0.452352,-3.041293 0.727727,-4.522571 0.275376,-1.481278 0.583524,-2.936338 0.924368,-4.365259 0.353953,-1.442031 0.74059,-2.838239 1.160001,-4.188564 0.41941,-1.350325 0.871594,-2.654768 1.356641,-3.913267 0.485047,-1.2585 0.98984,-2.435006 1.514297,-3.529579 0.524457,-1.094573 1.068578,-2.107213 1.632281,-3.037978 0.563703,-0.943875 1.140463,-1.786176 1.730331,-2.52688 0.589869,-0.740703 1.192847,-1.379809 1.808988,-1.917293 0.62925,-0.550593 1.261759,-0.963617 1.897545,-1.238993 0.635787,-0.275376 1.27485,-0.413103 1.917209,-0.413103 z m -59.55657,64.708194 c -0.428934,0 -0.849199,0.02492 -1.260735,0.07479 -0.411536,0.04986 -0.814344,0.124665 -1.208365,0.224417 -0.394021,0.09476 -0.775532,0.210789 -1.144574,0.348011 -0.369043,0.137222 -0.725616,0.295641 -1.069761,0.475195 -0.344145,0.174566 -0.6732869,0.367815 -0.9874663,0.579768 -0.3141793,0.211952 -0.6133959,0.442609 -0.8976896,0.691989 -0.2842937,0.244393 -0.548692,0.502492 -0.7931399,0.774306 -0.2444478,0.271815 -0.4689453,0.557346 -0.6734372,0.856602 -0.1995043,0.299257 -0.3777914,0.60846 -0.5348811,0.927639 -0.1570897,0.319178 -0.292982,0.648333 -0.407697,0.98749 -0.1097274,0.339157 -0.1920221,0.684596 -0.246885,1.03627 -0.054863,0.351674 -0.082294,0.709583 -0.082294,1.073678 0,0.573575 0.077282,1.071042 0.2318721,1.492447 0.1545901,0.421405 0.386488,0.76675 0.6957198,1.036081 0.3142194,0.264343 0.7131973,0.462652 1.1969646,0.594874 C 8.4360006,86.629814 9.0045572,86.69595 9.657934,86.69595 9.5282563,86.526371 9.4123135,86.331857 9.3100867,86.112406 9.2078599,85.892955 9.119349,85.648565 9.0445348,85.379234 8.9747083,85.104915 8.9223859,84.816821 8.8875202,84.515011 8.8526544,84.2132 8.8352453,83.897674 8.8352453,83.568492 c 0,-0.748142 0.088557,-1.44011 0.2656435,-2.075967 0.1770868,-0.635858 0.4427036,-1.215605 0.7968239,-1.739304 0.3541203,-0.523699 0.7967213,-0.978819 1.3278523,-1.365358 0.531131,-0.38654 1.150793,-0.7045 1.859033,-0.953881 L 10.780346,87.93024 8.4760941,98.426499 h 1.4513326 1.4513323 l 1.750798,-7.601086 1.750797,-7.601086 1.773019,7.601086 1.773018,7.601086 h 2.117183 2.117183 l 2.498814,-11.461574 2.498814,-11.461574 h -1.488798 -1.488798 l -1.713332,8.319389 -1.713332,8.319388 -1.847691,-8.199499 -1.847691,-8.199499 c -0.214467,-0.07482 -0.420279,-0.1384 -0.617363,-0.190763 -0.197084,-0.05236 -0.38544,-0.0935 -0.564993,-0.12343 -0.174567,-0.03491 -0.36531,-0.06114 -0.572264,-0.07864 -0.206953,-0.0175 -0.430116,-0.02627 -0.669521,-0.02627 z m 50.25998,0.119889 c -0.947646,0 -1.824164,0.05611 -2.62961,0.16834 -0.805446,0.112225 -1.539818,0.280561 -2.20317,0.505004 -0.663352,0.224443 -1.26558,0.484964 -1.806709,0.781646 -0.54113,0.296682 -1.021161,0.629524 -1.440121,0.998607 -0.413972,0.369083 -0.771892,0.765686 -1.073703,1.18972 -0.30181,0.424034 -0.54751,0.8755 -0.737039,1.354311 -0.189529,0.47881 -0.331639,0.965095 -0.426367,1.458861 -0.09473,0.493765 -0.142074,0.995012 -0.142074,1.503749 0,0.279306 0.01741,0.53607 0.05228,0.77039 0.03487,0.23432 0.08719,0.446196 0.157015,0.635725 0.07481,0.189529 0.16583,0.360453 0.273056,0.512672 0.107226,0.15222 0.230662,0.285736 0.370315,0.400451 0.139653,0.114715 0.295531,0.214407 0.467619,0.299136 0.172088,0.08473 0.360385,0.154496 0.564877,0.20936 0.204492,0.04988 0.423978,0.08734 0.658427,0.112338 0.234449,0.025 0.483862,0.03752 0.748205,0.03752 0,-0.02993 -0.0063,-0.06243 -0.01876,-0.09742 -0.0125,-0.035 -0.03123,-0.07248 -0.05617,-0.112385 -0.01995,-0.0399 -0.04232,-0.08728 -0.06719,-0.142145 -0.02487,-0.05486 -0.05223,-0.117207 -0.08215,-0.187034 -0.02494,-0.07481 -0.04993,-0.160819 -0.07493,-0.258047 -0.025,-0.09723 -0.04999,-0.205677 -0.07493,-0.32538 -0.01995,-0.12469 -0.03494,-0.266822 -0.04494,-0.426412 -0.01,-0.159589 -0.01501,-0.336635 -0.01501,-0.531152 0,-0.613476 0.02367,-1.17461 0.07104,-1.683373 0.04736,-0.508764 0.118419,-0.965157 0.213183,-1.369154 0.09975,-0.403996 0.218271,-0.766822 0.355493,-1.0885 0.137221,-0.321678 0.293147,-0.602209 0.467713,-0.841614 0.174567,-0.239405 0.366563,-0.443906 0.576016,-0.613494 0.209453,-0.169588 0.436362,-0.304263 0.680755,-0.404015 0.244393,-0.10474 0.501239,-0.185794 0.770554,-0.243156 0.269315,-0.05736 0.551099,-0.09103 0.845368,-0.101009 l -2.206852,10.234519 -2.206842,10.234517 h 2.206842 2.206842 l 1.242043,-5.76063 1.242043,-5.76063 h 2.236814 2.236814 l 0.247013,-1.13714 0.247014,-1.13714 h -2.237073 -2.237072 l 0.643371,-3.045033 0.643372,-3.045034 c 0.359107,0.08479 0.717027,0.162131 1.073701,0.231992 0.356673,0.06986 0.712099,0.13224 1.06622,0.187103 0.35412,0.05486 0.71067,0.09607 1.069713,0.123572 0.359044,0.0275 0.720581,0.04128 1.084677,0.04128 0.294269,-0.05985 0.557391,-0.139757 0.789341,-0.239613 0.23195,-0.09986 0.432727,-0.219663 0.602306,-0.359317 0.169578,-0.144641 0.320504,-0.296748 0.452727,-0.456337 0.132222,-0.15959 0.245742,-0.326661 0.340506,-0.501227 0.09476,-0.174566 0.177094,-0.351659 0.246955,-0.531245 0.06986,-0.179586 0.127253,-0.361667 0.172141,-0.546208 0.04988,-0.18953 0.09974,-0.371469 0.149603,-0.545927 0.04986,-0.174458 0.09973,-0.341434 0.149603,-0.501038 -0.214467,0.06983 -0.43393,0.129665 -0.658381,0.179529 -0.224451,0.04986 -0.453889,0.08975 -0.688307,0.119678 -0.22943,0.02494 -0.461386,0.04367 -0.695835,0.05617 -0.234449,0.0125 -0.471392,0.01876 -0.710797,0.01876 -0.244393,0 -0.487588,-0.005 -0.729537,-0.01501 -0.241948,-0.01 -0.482649,-0.02499 -0.722054,-0.04494 -0.239405,-0.01995 -0.473714,-0.03995 -0.703035,-0.05994 -0.22932,-0.02 -0.453654,-0.03999 -0.673108,-0.05994 -0.214468,-0.02494 -0.424038,-0.04868 -0.628621,-0.07118 -0.204583,-0.0225 -0.404178,-0.04375 -0.598695,-0.0637 -0.189529,-0.01995 -0.370345,-0.03481 -0.542432,-0.04468 -0.172088,-0.0099 -0.335447,-0.01475 -0.490063,-0.01475 z m 63.726858,1.526005 -2.26678,0.306699 -2.26679,0.3067 -0.74827,3.523816 -0.74828,3.523816 v -0.05994 -0.05994 c 0,-0.219455 -0.0499,-0.421368 -0.14958,-0.605825 -0.0997,-0.184456 -0.24933,-0.351456 -0.44884,-0.501084 -0.19451,-0.149628 -0.44884,-0.261896 -0.76302,-0.336756 -0.31418,-0.07486 -0.68821,-0.112313 -1.12213,-0.112313 -0.4439,0 -0.86914,0.04233 -1.27568,0.127064 -0.40653,0.08473 -0.79436,0.211853 -1.16345,0.381432 -0.36908,0.164591 -0.71946,0.359117 -1.05114,0.583567 -0.33168,0.224451 -0.64465,0.478827 -0.93892,0.763121 -0.28928,0.279306 -0.56105,0.581169 -0.81537,0.905476 -0.25431,0.324308 -0.49117,0.671059 -0.71063,1.040142 -0.21447,0.364096 -0.41152,0.736908 -0.5911,1.118448 -0.17959,0.38154 -0.34172,0.771809 -0.48636,1.170818 -0.14464,0.399009 -0.27057,0.797917 -0.3778,1.196826 -0.10722,0.398909 -0.19574,0.797817 -0.26557,1.196826 -0.0698,0.399009 -0.12215,0.785649 -0.15701,1.159819 -0.0349,0.374171 -0.0523,0.735872 -0.0523,1.085005 0,0.02464 0.002,0.04663 0.004,0.06852 0.002,0.02189 0.005,0.04368 0.005,0.0679 -0.0169,0.03531 -0.0331,0.07394 -0.0495,0.11227 -0.0163,0.03833 -0.0327,0.07635 -0.0498,0.110455 -0.0798,0.164591 -0.16467,0.317905 -0.25453,0.459997 -0.0899,0.142092 -0.1847,0.272962 -0.28445,0.392665 -0.0998,0.119705 -0.20561,0.225649 -0.31771,0.317877 -0.1121,0.09223 -0.23043,0.170738 -0.35512,0.235577 -0.12469,0.06484 -0.25944,0.113544 -0.40416,0.146039 -0.14472,0.0325 -0.29941,0.04878 -0.464,0.04878 -0.23442,0 -0.43267,-0.02994 -0.59476,-0.0898 -0.16209,-0.05986 -0.28802,-0.149649 -0.37779,-0.269352 -0.0848,-0.119703 -0.14835,-0.256836 -0.19072,-0.411426 -0.0424,-0.15459 -0.0635,-0.326637 -0.0635,-0.516166 0,-0.14464 0.009,-0.300506 0.0263,-0.467595 0.0175,-0.167088 0.0437,-0.345399 0.0786,-0.534928 0.0399,-0.194517 0.0835,-0.396617 0.13089,-0.606199 0.0474,-0.209582 0.0985,-0.426646 0.15333,-0.651088 0.0549,-0.224444 0.11098,-0.453776 0.16834,-0.688096 0.0574,-0.23432 0.11597,-0.473627 0.17583,-0.71802 0.0648,-0.244393 0.12719,-0.488841 0.18706,-0.733289 0.0599,-0.244447 0.11723,-0.488895 0.17209,-0.733288 0.0549,-0.249381 0.10472,-0.49507 0.14958,-0.737018 0.0449,-0.241948 0.0847,-0.480156 0.11965,-0.714573 0.0399,-0.239405 0.0697,-0.470085 0.0896,-0.692036 0.0199,-0.221951 0.0298,-0.435174 0.0298,-0.639666 0,-0.304244 -0.0212,-0.587257 -0.0635,-0.849073 -0.0424,-0.261816 -0.10593,-0.502435 -0.19072,-0.72189 -0.0848,-0.219455 -0.18706,-0.418992 -0.30678,-0.598578 -0.11972,-0.179587 -0.25691,-0.339223 -0.41152,-0.478876 -0.14963,-0.139653 -0.31412,-0.260583 -0.49358,-0.36281 -0.17946,-0.102227 -0.37388,-0.18575 -0.58336,-0.250589 -0.20948,-0.06484 -0.4277,-0.113415 -0.65465,-0.145781 -0.22695,-0.03237 -0.46264,-0.04852 -0.70703,-0.04852 -0.1197,0 -0.24444,0.005 -0.37416,0.01501 -0.12972,0.01 -0.26443,0.02498 -0.40408,0.04493 -0.13466,0.01995 -0.27427,0.04984 -0.41886,0.08971 -0.1446,0.03986 -0.29417,0.0897 -0.44879,0.149556 -0.15462,0.05985 -0.31171,0.133364 -0.4713,0.220593 -0.15959,0.08723 -0.32167,0.188174 -0.48626,0.302889 -0.1596,0.109728 -0.32058,0.238245 -0.4828,0.385465 -0.16221,0.147221 -0.32568,0.313144 -0.49027,0.497686 l 0.16459,-0.792975 0.16459,-0.792975 h -2.20684 -2.206846 l -1.043864,4.92528 -1.043864,4.925281 c -0.0543,0.190457 -0.114228,0.375311 -0.180162,0.55416 -0.06593,0.178848 -0.137873,0.351691 -0.216196,0.518126 -0.0798,0.164591 -0.165795,0.317905 -0.258024,0.459997 -0.09223,0.142092 -0.19069,0.272961 -0.29543,0.392664 -0.10474,0.119703 -0.21573,0.2269 -0.332955,0.321628 -0.117225,0.09473 -0.240684,0.176986 -0.370362,0.246813 -0.12469,0.06484 -0.255548,0.113544 -0.392641,0.146039 -0.137092,0.0325 -0.280419,0.04878 -0.430047,0.04878 -0.214468,0 -0.401618,-0.02004 -0.561336,-0.06004 -0.159719,-0.03999 -0.292006,-0.09994 -0.396745,-0.17974 -0.09975,-0.08479 -0.174554,-0.201961 -0.224418,-0.351552 -0.04986,-0.149591 -0.07479,-0.331601 -0.07479,-0.546068 0,-0.0798 0.0025,-0.159532 0.0075,-0.239262 0.005,-0.07973 0.01249,-0.15946 0.02247,-0.239262 0.01,-0.08479 0.02373,-0.169647 0.04123,-0.254506 0.0175,-0.08486 0.03874,-0.169717 0.06367,-0.254507 l 1.099674,-5.206917 1.099674,-5.206917 h -2.206841 -2.206842 l -1.039988,4.915204 -1.039989,4.915204 c -0.05985,0.194516 -0.124724,0.382837 -0.194585,0.564923 -0.06986,0.182086 -0.144709,0.357938 -0.224511,0.527516 -0.07481,0.164591 -0.157061,0.317905 -0.24679,0.459997 -0.08973,0.142092 -0.186938,0.272961 -0.291678,0.392664 -0.09975,0.119703 -0.205743,0.2269 -0.317969,0.321628 -0.112225,0.09473 -0.230685,0.176986 -0.355375,0.246813 -0.12469,0.06484 -0.255677,0.113544 -0.392899,0.146039 -0.137222,0.0325 -0.280678,0.04878 -0.430307,0.04878 -0.174566,0 -0.321722,-0.02994 -0.441446,-0.0898 -0.119724,-0.05986 -0.212017,-0.149649 -0.276856,-0.269352 -0.06484,-0.12469 -0.113415,-0.261812 -0.145781,-0.411402 -0.03237,-0.149591 -0.04852,-0.311651 -0.04852,-0.486217 0,-0.129678 0.0075,-0.266917 0.02251,-0.411638 0.015,-0.144721 0.03748,-0.296923 0.0674,-0.456527 l 1.099674,-5.206917 1.099675,-5.206917 h -2.2071 -2.207101 l -0.433566,2.050004 -0.433565,2.050004 c -0.0052,0.0021 -0.01022,0.0047 -0.01524,0.0072 -0.005,0.0026 -0.01004,0.0051 -0.01525,0.0072 -0.20948,0.08479 -0.418932,0.162132 -0.628385,0.231992 -0.209453,0.06986 -0.418906,0.13224 -0.628386,0.187104 -0.204492,0.04988 -0.402811,0.08721 -0.594895,0.11208 -0.192085,0.02487 -0.377935,0.03727 -0.557489,0.03727 h -0.09715 -0.09715 c -0.01995,0 -0.0412,-0.0025 -0.0637,-0.0075 -0.0225,-0.005 -0.04624,-0.01249 -0.07118,-0.02247 v -0.01473 -0.01473 c 0,-1.630948 -0.327919,-2.854258 -0.983774,-3.669831 -0.655855,-0.815574 -1.639645,-1.22341 -2.951386,-1.22341 -0.523699,0 -1.018648,0.04748 -1.484917,0.142332 -0.46627,0.09486 -0.903861,0.237097 -1.312845,0.426626 -0.408984,0.184541 -0.794348,0.398935 -1.15602,0.643253 -0.361673,0.244319 -0.699654,0.518563 -1.013873,0.822807 -0.309232,0.304244 -0.595992,0.629721 -0.860308,0.976396 -0.264316,0.346674 -0.506188,0.714546 -0.725642,1.10358 -0.214467,0.384046 -0.410258,0.773097 -0.587345,1.167136 -0.177086,0.394038 -0.33547,0.793064 -0.475123,1.197061 -0.134665,0.403997 -0.250596,0.803023 -0.347824,1.197061 -0.09723,0.394039 -0.175751,0.78309 -0.235602,1.167136 -0.06484,0.379058 -0.113415,0.738184 -0.145781,1.07736 -0.03237,0.339176 -0.04852,0.658402 -0.04852,0.957658 0,0.438909 0.03106,0.84537 0.09329,1.219412 0.06223,0.374041 0.155637,0.715663 0.280328,1.024895 0.119703,0.304244 0.263099,0.580994 0.430188,0.830312 0.167088,0.249318 0.357867,0.471204 0.572334,0.665721 0.219455,0.189529 0.458951,0.354188 0.718396,0.49391 0.259446,0.139721 0.538842,0.254504 0.838099,0.344281 0.304244,0.08479 0.620952,0.148351 0.950129,0.190716 0.329177,0.04236 0.670823,0.06353 1.024944,0.06353 0.468835,0 0.925206,-0.05361 1.369109,-0.160835 0.443902,-0.107226 0.875335,-0.268069 1.294294,-0.482536 0.418959,-0.214467 0.814192,-0.475141 1.185734,-0.781951 0.371542,-0.30681 0.719392,-0.659755 1.043587,-1.058764 0.324194,-0.399009 0.619689,-0.840381 0.886504,-1.324148 0.266816,-0.483768 0.504952,-1.009929 0.714432,-1.578517 0.214467,-0.568587 0.390343,-1.172032 0.527565,-1.810389 0.137222,-0.638357 0.23579,-1.311628 0.295641,-2.019868 0.462962,-0.07784 0.906821,-0.182113 1.335536,-0.307418 0.428714,-0.125304 0.842284,-0.271643 1.244668,-0.433622 l -0.459662,2.173511 -0.459662,2.173511 c -0.0399,0.194516 -0.07488,0.382837 -0.10488,0.564923 -0.02999,0.182086 -0.055,0.357938 -0.07495,0.527516 -0.01995,0.164591 -0.03494,0.322916 -0.04494,0.475006 -0.01,0.152091 -0.01501,0.297947 -0.01501,0.4376 0,0.324195 0.0213,0.6247 0.06379,0.901514 0.04249,0.276814 0.106185,0.529937 0.190974,0.759367 0.08479,0.22943 0.184551,0.438836 0.299276,0.628292 0.114726,0.189456 0.244414,0.358961 0.389054,0.508589 0.149628,0.149629 0.311617,0.279305 0.486076,0.38903 0.174457,0.109726 0.361384,0.199501 0.560889,0.269328 0.199504,0.06983 0.406604,0.122278 0.621186,0.157273 0.214581,0.03499 0.436644,0.05253 0.666074,0.05253 0.159604,0 0.325327,-0.0088 0.497285,-0.02627 0.171959,-0.0175 0.350152,-0.04372 0.534693,-0.07864 0.184541,-0.02993 0.371633,-0.07858 0.561218,-0.145944 0.189585,-0.06736 0.381663,-0.153426 0.57618,-0.258166 0.194517,-0.10474 0.390225,-0.230634 0.58718,-0.377725 0.196954,-0.147091 0.395156,-0.315379 0.59466,-0.504908 0.199504,-0.189529 0.397835,-0.410174 0.594919,-0.661992 0.197084,-0.251817 0.392922,-0.534807 0.587438,-0.849027 0.05486,0.483798 0.160831,0.907692 0.31792,1.271735 0.15709,0.364043 0.365302,0.668235 0.624658,0.912628 0.259356,0.239405 0.563642,0.418981 0.912816,0.538705 0.349175,0.119724 0.743238,0.179597 1.182147,0.179597 0.134665,0 0.276775,-0.0063 0.426365,-0.01876 0.149591,-0.0125 0.306663,-0.03123 0.471254,-0.05617 0.164591,-0.02494 0.332938,-0.06108 0.505026,-0.108444 0.172087,-0.04736 0.347915,-0.10595 0.527469,-0.175776 0.179554,-0.06983 0.361646,-0.154591 0.546232,-0.254318 0.184585,-0.09973 0.371665,-0.214417 0.561194,-0.344095 0.174372,-0.119307 0.346302,-0.257519 0.51612,-0.412618 0.169819,-0.155099 0.337527,-0.327086 0.503456,-0.513941 l -0.180609,0.852144 -0.180609,0.852145 h 2.206843 2.206839 l 1.03999,-4.915203 1.03998,-4.915204 c 0.0599,-0.194517 0.12473,-0.382838 0.19459,-0.564924 0.0699,-0.182086 0.14471,-0.357938 0.22451,-0.527516 0.0798,-0.174567 0.16454,-0.336626 0.25427,-0.486217 0.0897,-0.149591 0.18445,-0.286712 0.2842,-0.411403 0.0998,-0.129677 0.20449,-0.24562 0.31421,-0.347847 0.10973,-0.102227 0.22445,-0.190738 0.34415,-0.265552 0.1197,-0.07481 0.24444,-0.130881 0.37416,-0.168247 0.12972,-0.03737 0.26443,-0.05603 0.40408,-0.05603 0.36909,0 0.64581,0.130891 0.83027,0.392708 0.18446,0.261816 0.27664,0.654557 0.27664,1.178256 0,0.244393 -0.0187,0.512384 -0.056,0.804067 -0.0374,0.291683 -0.0934,0.607057 -0.16824,0.946214 -0.0698,0.339157 -0.14345,0.684596 -0.22081,1.03627 -0.0774,0.351674 -0.15846,0.709582 -0.24325,1.073678 -0.0848,0.364095 -0.16701,0.72451 -0.24674,1.081183 -0.0797,0.356673 -0.15696,0.709605 -0.23178,1.058738 -0.0698,0.344145 -0.12215,0.667023 -0.15702,0.968705 -0.0349,0.301681 -0.0523,0.582165 -0.0523,0.841521 0,0.219455 0.0149,0.436401 0.0448,0.650853 0.0299,0.214452 0.0747,0.42641 0.13455,0.63589 0.0648,0.204492 0.14836,0.399053 0.25058,0.583638 0.10223,0.184586 0.22316,0.359196 0.36281,0.523788 0.13966,0.159604 0.3018,0.304289 0.48638,0.434012 0.18459,0.129723 0.39162,0.244482 0.62105,0.344235 0.22943,0.09476 0.48631,0.165819 0.77062,0.213183 0.28432,0.04736 0.59606,0.07104 0.93522,0.07104 0.20449,0 0.41771,-0.01503 0.63966,-0.04503 0.22195,-0.03 0.45264,-0.07496 0.69204,-0.134806 0.2444,-0.05985 0.48997,-0.153279 0.73679,-0.280373 0.24682,-0.127094 0.49488,-0.287854 0.74426,-0.482371 0.25437,-0.199505 0.50631,-0.442675 0.75575,-0.729488 0.24945,-0.286812 0.49641,-0.617267 0.7408,-0.991337 0.004,-0.006 0.008,-0.01358 0.0116,-0.02114 0.004,-0.0076 0.008,-0.01514 0.0116,-0.02124 0.005,0.01335 0.008,0.02863 0.0107,0.04385 0.003,0.01522 0.006,0.03038 0.011,0.04348 0.11471,0.31422 0.2481,0.598463 0.40019,0.85278 0.15209,0.254317 0.32288,0.478708 0.51241,0.673225 0.18953,0.194517 0.39277,0.36167 0.60972,0.501391 0.21695,0.139722 0.44762,0.252011 0.69201,0.336801 0.24439,0.08479 0.49372,0.148353 0.74804,0.190717 0.25432,0.04237 0.51363,0.06353 0.77797,0.06353 0.25437,0 0.49879,-0.01754 0.73324,-0.05253 0.23445,-0.03499 0.45892,-0.08745 0.67339,-0.157273 0.21447,-0.06982 0.42015,-0.152084 0.6171,-0.246812 0.19696,-0.09473 0.38519,-0.201926 0.56474,-0.321629 0.17955,-0.119702 0.3505,-0.246814 0.51272,-0.381407 0.16222,-0.134593 0.31571,-0.276668 0.46035,-0.426296 0.14464,-0.154616 0.28297,-0.31184 0.41506,-0.471559 0.13209,-0.159718 0.25795,-0.321931 0.37765,-0.486522 0.0449,0.224443 0.10228,0.43399 0.17214,0.628574 0.0699,0.194585 0.15219,0.374206 0.24696,0.538797 0.0998,0.159603 0.2095,0.305542 0.32922,0.437764 0.11973,0.132223 0.24943,0.250729 0.38908,0.355469 0.13966,0.09975 0.28802,0.1857 0.44511,0.257931 0.15709,0.07223 0.3229,0.130746 0.49747,0.175634 0.17456,0.04988 0.35416,0.08734 0.53875,0.112338 0.18458,0.025 0.37415,0.03752 0.56867,0.03752 0.19951,0 0.39771,-0.01503 0.59466,-0.04503 0.19696,-0.03 0.39266,-0.07496 0.58718,-0.134806 0.19452,-0.06484 0.37908,-0.145857 0.55367,-0.243084 0.17459,-0.09723 0.3392,-0.210665 0.49382,-0.340343 0.15462,-0.129675 0.29543,-0.275555 0.42252,-0.437644 0.12709,-0.16209 0.24047,-0.340389 0.34022,-0.534906 0.10474,-0.199504 0.1883,-0.41775 0.25066,-0.654699 0.0624,-0.236949 0.10353,-0.492602 0.12348,-0.76692 -0.0549,0.02494 -0.11223,0.04868 -0.1721,0.07118 -0.0599,0.0225 -0.12221,0.04375 -0.18705,0.0637 -0.0648,0.01995 -0.14962,0.03494 -0.25434,0.04494 -0.10473,0.01 -0.22941,0.01501 -0.37405,0.01501 -0.23941,0 -0.4414,-0.02868 -0.60599,-0.08605 -0.16459,-0.05736 -0.29177,-0.143404 -0.38155,-0.258119 -0.0898,-0.119703 -0.15708,-0.253207 -0.20195,-0.400427 -0.0449,-0.14722 -0.0673,-0.308156 -0.0673,-0.482723 0,-0.06983 0.002,-0.139558 0.008,-0.20929 0.005,-0.06973 0.0125,-0.139462 0.0225,-0.209289 0.01,-0.07481 0.0237,-0.15218 0.0412,-0.232039 0.0175,-0.07986 0.0387,-0.162212 0.0637,-0.247002 l 1.75803,-8.27443 z m -81.89164,1.286743 -2.266786,0.306699 -2.266787,0.3067 -0.463796,2.117442 -0.463796,2.117442 h -0.501261 -0.501262 l -0.127382,0.613399 -0.127383,0.6134 h 0.508755 0.508754 l -0.298948,1.400948 -0.298948,1.400948 c -0.03051,0.01297 -0.06011,0.0282 -0.08976,0.04329 -0.02965,0.01509 -0.05935,0.03005 -0.09008,0.04249 -0.209479,0.08479 -0.419062,0.162132 -0.628644,0.231993 -0.209582,0.06986 -0.419165,0.132239 -0.628644,0.187103 -0.204492,0.04988 -0.402682,0.08721 -0.594638,0.11208 -0.191955,0.02487 -0.377676,0.03727 -0.55723,0.03727 h -0.09715 -0.09715 c -0.01995,0 -0.0412,-0.0025 -0.0637,-0.0075 -0.0225,-0.005 -0.04624,-0.01249 -0.07118,-0.02247 v -0.01473 -0.01473 c 0,-1.630948 -0.32792,-2.854258 -0.983774,-3.669831 -0.655855,-0.815574 -1.639646,-1.22341 -2.951387,-1.22341 -0.523699,0 -1.018777,0.04748 -1.485176,0.142332 -0.466399,0.09486 -0.904119,0.237097 -1.313102,0.426626 -0.408984,0.184541 -0.794219,0.398935 -1.155762,0.643253 -0.361543,0.244319 -0.699396,0.518563 -1.013615,0.822807 -0.309232,0.304244 -0.595991,0.629721 -0.860307,0.976396 -0.264316,0.346674 -0.506188,0.714546 -0.725643,1.10358 -0.214467,0.384046 -0.410257,0.773097 -0.587344,1.167136 -0.177087,0.394038 -0.33547,0.793064 -0.475123,1.197061 -0.134666,0.403997 -0.250597,0.803023 -0.347824,1.197061 -0.09723,0.394039 -0.175752,0.78309 -0.235603,1.167136 -0.06484,0.379058 -0.113544,0.738184 -0.146039,1.07736 -0.0325,0.339176 -0.04878,0.658402 -0.04878,0.957658 0,0.438909 0.03119,0.84537 0.09355,1.219412 0.06236,0.374041 0.155896,0.715663 0.280586,1.024895 0.119702,0.304244 0.2631,0.580994 0.430188,0.830312 0.167088,0.249318 0.357868,0.471204 0.572335,0.665721 0.219455,0.189529 0.458821,0.354188 0.718137,0.49391 0.259317,0.139721 0.538583,0.254504 0.83784,0.344281 0.304244,0.08479 0.620953,0.148351 0.95013,0.190716 0.329177,0.04236 0.670823,0.06353 1.024944,0.06353 0.468835,0 0.925206,-0.05361 1.369108,-0.160835 0.443903,-0.107226 0.875336,-0.268069 1.294295,-0.482536 0.418959,-0.214467 0.814321,-0.475141 1.185992,-0.781951 0.371672,-0.30681 0.719652,-0.659755 1.043846,-1.058764 0.324194,-0.399009 0.619689,-0.840381 0.886504,-1.324148 0.266816,-0.483768 0.504953,-1.009929 0.714432,-1.578517 0.214467,-0.568587 0.390213,-1.172032 0.527306,-1.810389 0.137093,-0.638357 0.235531,-1.311628 0.295382,-2.019868 0.49014,-0.08241 0.960115,-0.192879 1.413115,-0.326922 0.453001,-0.134043 0.889027,-0.291662 1.311267,-0.468378 l -0.53175,2.492354 -0.531751,2.492354 c -0.05985,0.279306 -0.104681,0.554862 -0.134547,0.826677 -0.02987,0.271814 -0.04477,0.539888 -0.04477,0.804232 0,0.244393 0.0149,0.481324 0.04477,0.710774 0.02987,0.22945 0.0747,0.451418 0.134547,0.665886 0.05486,0.209479 0.126012,0.405281 0.21337,0.587368 0.08736,0.182086 0.190927,0.350456 0.310629,0.505072 0.12469,0.154616 0.266823,0.293049 0.426412,0.415273 0.159589,0.122224 0.336636,0.228238 0.531152,0.318015 0.194517,0.08479 0.409016,0.148351 0.643465,0.190716 0.23445,0.04236 0.48885,0.06353 0.763168,0.06353 0.134665,0 0.270511,-0.0088 0.407603,-0.02627 0.137093,-0.0175 0.275432,-0.04372 0.415085,-0.07864 0.144641,-0.02993 0.28798,-0.07858 0.430072,-0.145944 0.142091,-0.06736 0.282936,-0.153426 0.42259,-0.258166 0.139653,-0.10474 0.278121,-0.231886 0.415343,-0.381477 0.137222,-0.149591 0.273196,-0.321625 0.407862,-0.516142 0.134666,-0.199504 0.264377,-0.431401 0.3891,-0.695717 0.124724,-0.264316 0.24446,-0.561051 0.359175,-0.890233 -0.06484,0.02494 -0.132206,0.04492 -0.202067,0.05992 -0.06986,0.015 -0.142215,0.02501 -0.217029,0.03 h -0.194562 -0.194562 c -0.20948,0 -0.385238,-0.02631 -0.527329,-0.0788 -0.142092,-0.05249 -0.250518,-0.13117 -0.325332,-0.235909 -0.06983,-0.10474 -0.122278,-0.223117 -0.157273,-0.355211 -0.035,-0.132093 -0.05253,-0.277903 -0.05253,-0.437506 0,-0.07481 0.0025,-0.153432 0.0075,-0.235791 0.005,-0.08236 0.01249,-0.168459 0.02247,-0.258236 0.01496,-0.09476 0.03247,-0.190745 0.05246,-0.287973 0.02,-0.09723 0.04249,-0.195702 0.06743,-0.295454 l 0.980044,-4.593517 0.980043,-4.593518 h 0.920099 0.920098 l 0.119889,-0.6134 0.11989,-0.613399 h -0.920357 -0.920357 c 0.06983,-0.344145 0.137182,-0.675922 0.202043,-0.995229 0.06486,-0.319308 0.127229,-0.626147 0.18708,-0.920416 0.06484,-0.299256 0.127195,-0.577271 0.187057,-0.834088 0.05986,-0.256817 0.117231,-0.492436 0.172094,-0.706903 0.02494,-0.129678 0.04993,-0.255643 0.07493,-0.377867 0.025,-0.122224 0.04999,-0.240707 0.07493,-0.355422 0.02494,-0.119702 0.0498,-0.234416 0.07467,-0.344141 0.02487,-0.109726 0.04973,-0.214465 0.07467,-0.314217 z m -12.897921,6.434233 c 0.10474,0 0.199574,0.0074 0.284432,0.02226 0.08486,0.01487 0.159742,0.03722 0.224581,0.06714 0.06983,0.02993 0.133294,0.0712 0.190528,0.123688 0.05723,0.05249 0.108233,0.116207 0.153121,0.191021 0.04489,0.06983 0.08487,0.150833 0.119865,0.243061 0.035,0.09223 0.065,0.195679 0.08994,0.310394 0.02494,0.109728 0.04618,0.233104 0.06367,0.370197 0.0175,0.137092 0.03125,0.287901 0.04123,0.452492 -0.14464,0.06484 -0.275581,0.148492 -0.392806,0.250847 -0.117224,0.102356 -0.220733,0.223416 -0.31051,0.363069 -0.08479,0.134665 -0.148481,0.289173 -0.190975,0.463631 -0.04249,0.174458 -0.06379,0.368866 -0.06379,0.583333 0,0.154616 0.01378,0.300566 0.04128,0.437788 0.0275,0.137222 0.06871,0.265715 0.123572,0.385418 0.05985,0.114715 0.144639,0.210649 0.254364,0.287879 0.109726,0.07723 0.24439,0.135758 0.403993,0.175658 -0.05985,0.448885 -0.13587,0.882883 -0.228098,1.301918 -0.09223,0.419035 -0.200666,0.823108 -0.325356,1.212141 -0.119703,0.389034 -0.249449,0.751895 -0.38917,1.088571 -0.139722,0.336676 -0.289418,0.647166 -0.449022,0.93146 -0.159604,0.284294 -0.326709,0.53867 -0.501297,0.763121 -0.174587,0.224451 -0.356655,0.418976 -0.546184,0.583567 -0.184541,0.164591 -0.368998,0.287968 -0.553454,0.370198 -0.184457,0.08223 -0.368913,0.123312 -0.553455,0.123312 -0.144641,0 -0.278087,-0.0086 -0.400311,-0.02601 -0.122224,-0.01737 -0.233226,-0.04346 -0.332978,-0.07838 -0.09975,-0.03491 -0.190839,-0.08356 -0.273198,-0.145921 -0.08236,-0.06236 -0.15599,-0.13844 -0.220828,-0.228217 -0.05985,-0.09476 -0.112197,-0.205778 -0.157062,-0.333001 -0.04486,-0.127223 -0.08225,-0.270656 -0.112173,-0.430259 -0.02494,-0.159604 -0.04367,-0.342866 -0.05617,-0.549819 -0.0125,-0.206954 -0.01876,-0.437598 -0.01876,-0.691966 0,-0.254368 0.01253,-0.522465 0.03752,-0.804279 0.025,-0.281813 0.06246,-0.577342 0.112338,-0.886574 0.04988,-0.31422 0.109761,-0.629652 0.179622,-0.94633 0.06986,-0.316679 0.149697,-0.634605 0.239474,-0.953812 0.08978,-0.319207 0.188275,-0.633504 0.295501,-0.942813 0.107226,-0.30931 0.22318,-0.613631 0.347871,-0.912888 0.129678,-0.304244 0.264282,-0.591016 0.403874,-0.860331 0.139592,-0.269315 0.284173,-0.521173 0.433801,-0.755591 0.154616,-0.234418 0.312964,-0.445194 0.475053,-0.632279 0.162089,-0.187086 0.327919,-0.35048 0.497497,-0.490133 0.169579,-0.144641 0.342925,-0.253032 0.520011,-0.325263 0.177087,-0.07223 0.357914,-0.108302 0.542456,-0.108302 z m 42.614453,0 c 0.10474,0 0.199444,0.0074 0.284173,0.02226 0.08473,0.01487 0.159484,0.03722 0.224323,0.06714 0.06983,0.02993 0.133424,0.0712 0.190786,0.123688 0.05736,0.05249 0.10849,0.116207 0.153379,0.191021 0.04489,0.06983 0.08474,0.150833 0.119607,0.243061 0.03487,0.09223 0.06474,0.195679 0.08968,0.310394 0.02494,0.109728 0.04618,0.233104 0.06367,0.370197 0.0175,0.137092 0.03125,0.287901 0.04123,0.452492 -0.14464,0.06484 -0.275581,0.148492 -0.392806,0.250847 -0.117224,0.102356 -0.220733,0.223416 -0.31051,0.363069 -0.08479,0.134665 -0.148351,0.289173 -0.190716,0.463631 -0.04237,0.174458 -0.06353,0.368866 -0.06353,0.583333 0,0.154616 0.01365,0.300566 0.04102,0.437788 0.02737,0.137222 0.06845,0.265715 0.123313,0.385418 0.05985,0.114715 0.144639,0.210649 0.254365,0.287879 0.109726,0.07723 0.24439,0.135758 0.403993,0.175658 -0.05985,0.448885 -0.13587,0.882883 -0.228098,1.301918 -0.09223,0.419035 -0.200666,0.823108 -0.325357,1.212141 -0.119702,0.389034 -0.249319,0.751895 -0.388912,1.088571 -0.139592,0.336676 -0.289159,0.647166 -0.448763,0.93146 -0.159604,0.284294 -0.326709,0.53867 -0.501297,0.763121 -0.174587,0.224451 -0.356655,0.418976 -0.546184,0.583567 -0.184541,0.164591 -0.369127,0.287968 -0.553713,0.370198 -0.184586,0.08223 -0.369171,0.123312 -0.553713,0.123312 -0.144641,0 -0.278086,-0.0086 -0.40031,-0.02601 -0.122224,-0.01737 -0.233226,-0.04346 -0.332978,-0.07838 -0.09975,-0.03491 -0.190711,-0.08356 -0.27294,-0.145921 -0.08223,-0.06236 -0.155731,-0.13844 -0.22057,-0.228217 -0.05985,-0.09476 -0.112197,-0.205778 -0.157061,-0.333001 -0.04486,-0.127223 -0.08225,-0.270656 -0.112173,-0.430259 -0.02494,-0.159604 -0.04367,-0.342866 -0.05617,-0.549819 -0.0125,-0.206954 -0.01876,-0.437598 -0.01876,-0.691966 0,-0.254368 0.0124,-0.522465 0.03726,-0.804279 0.02487,-0.281813 0.0622,-0.577342 0.11208,-0.886574 0.04988,-0.31422 0.109761,-0.629652 0.179622,-0.94633 0.06986,-0.316679 0.149697,-0.634605 0.239474,-0.953812 0.08978,-0.319207 0.188275,-0.633504 0.295501,-0.942813 0.107226,-0.30931 0.22318,-0.613631 0.34787,-0.912888 0.129678,-0.304244 0.264412,-0.591016 0.404133,-0.860331 0.139722,-0.269315 0.28443,-0.521173 0.434059,-0.755591 0.154616,-0.234418 0.312964,-0.445194 0.475053,-0.632279 0.162089,-0.187086 0.327918,-0.35048 0.497497,-0.490133 0.169579,-0.144641 0.342925,-0.253032 0.520012,-0.325263 0.177087,-0.07223 0.357914,-0.108302 0.542456,-0.108302 z m 44.603998,0.164331 c 0.1197,0 0.22815,0.01002 0.32537,0.03002 0.0972,0.02 0.18324,0.04997 0.25805,0.08987 0.0798,0.03491 0.15089,0.07604 0.21326,0.123407 0.0624,0.04736 0.11599,0.100962 0.16088,0.160813 0.0449,0.05486 0.0835,0.11098 0.11585,0.168342 0.0324,0.05736 0.0585,0.115972 0.0785,0.175823 0.0249,0.05985 0.0462,0.115955 0.0637,0.168319 0.0175,0.05236 0.0313,0.100985 0.0412,0.145874 l -0.74802,3.50883 -0.74802,3.50883 -0.06,0.246754 -0.0599,0.246755 c -0.0598,0.184542 -0.12848,0.357853 -0.20584,0.519942 -0.0774,0.162089 -0.16344,0.312956 -0.25821,0.452609 -0.0898,0.134665 -0.18451,0.259366 -0.28424,0.374091 -0.0997,0.114725 -0.20445,0.219474 -0.31417,0.314239 -0.10973,0.08978 -0.22071,0.169613 -0.33294,0.239474 -0.11222,0.06986 -0.22569,0.129746 -0.34041,0.179622 -0.11471,0.04489 -0.22693,0.07861 -0.33666,0.101104 -0.10972,0.0225 -0.21695,0.03377 -0.32169,0.03377 -0.0698,0 -0.14457,-0.0038 -0.2243,-0.01126 -0.0797,-0.0075 -0.16445,-0.01874 -0.25423,-0.0337 -0.0898,-0.01496 -0.17713,-0.04486 -0.26199,-0.08973 -0.0849,-0.04486 -0.16722,-0.104692 -0.24702,-0.179506 -0.0748,-0.0798 -0.14467,-0.179576 -0.20953,-0.2993 -0.0649,-0.119725 -0.12473,-0.259399 -0.17959,-0.419003 -0.0549,-0.159605 -0.096,-0.352889 -0.12332,-0.579839 -0.0274,-0.22695 -0.041,-0.487566 -0.041,-0.781835 0,-0.239405 0.0113,-0.493757 0.0338,-0.763072 0.0225,-0.269315 0.0562,-0.553594 0.10111,-0.85285 0.0449,-0.304244 0.0997,-0.609807 0.16438,-0.916616 0.0647,-0.30681 0.13944,-0.614866 0.22423,-0.924098 0.0898,-0.31422 0.18827,-0.623388 0.2955,-0.927569 0.10722,-0.304181 0.22318,-0.603374 0.34787,-0.897643 0.12469,-0.294269 0.25818,-0.572295 0.4004,-0.834111 0.14223,-0.261816 0.29317,-0.507422 0.45278,-0.736852 0.1596,-0.234418 0.32671,-0.445195 0.50129,-0.63228 0.17459,-0.187085 0.35666,-0.350479 0.54619,-0.490132 0.19452,-0.139653 0.39398,-0.244427 0.59843,-0.314288 0.20446,-0.06986 0.4139,-0.104808 0.62837,-0.104808 z"
         sodipodi:nodetypes="sssscscscscssscssssssscscssssscscscssscscscsssscscssssscscscscccccccscssscscccccccscscscssssscccscscccccccscssscscccscscscssscssscssscsssscscssssscscscscccccccscssscscccccccscscscssssscccscscccccccscssscscccscscscssscssscssscsssscscssssscscscscscssssscscssscscssscscsssscscscscscssscscscssssscccccccccccccccccccscsssssscssssscssscscscscscssscssscscccccccccccccccssscscssscscscssssscscssccccccsscssscscscssssssscscssssssscssscssscscscssssscssssscssscscccccccscssscssscssscscccccccscscscssscssscccccccscscsscssccsssscscscscscssscscscssssssscscscccscssssscssssscssssscscssssssssscccccccscscssssssscssscssscscscssscscscscscssssssssssscscscscscssscssscscssssscssscsccccccccccccccccssscsscssccsssscscscscscssscscscssssssscscscccssscscscssscssscscsccsscssscscccccccccscscscscsscscscscscssscscscssscssssscscssscssscscscsssscscscscscssscscscssscssssscscssscssscscscsssscscscscccccscscscssssscssssscscssscscss" />
    </g>
  </g>
</svg>
