<?xml version="1.0" encoding="UTF-8" standalone="no"?>
<!-- Created with Inkscape (http://www.inkscape.org/) -->

<svg
   width="600"
   height="480"
   viewBox="0 0 158.74999 127"
   version="1.1"
   id="svg5"
   inkscape:export-filename=""
   inkscape:export-xdpi="96"
   inkscape:export-ydpi="96"
   inkscape:version="1.3.2 (091e20e, 2023-11-25)"
   sodipodi:docname="not_found_title.svg"
   xmlns:inkscape="http://www.inkscape.org/namespaces/inkscape"
   xmlns:sodipodi="http://sodipodi.sourceforge.net/DTD/sodipodi-0.dtd"
   xmlns="http://www.w3.org/2000/svg"
   xmlns:svg="http://www.w3.org/2000/svg">
  <sodipodi:namedview
     id="namedview7"
     pagecolor="#ffffff"
     bordercolor="#111111"
     borderopacity="1"
     inkscape:pageshadow="0"
     inkscape:pageopacity="0"
     inkscape:pagecheckerboard="1"
     inkscape:document-units="px"
     showgrid="false"
     units="px"
     height="500px"
     inkscape:zoom="1.3269929"
     inkscape:cx="285.60816"
     inkscape:cy="198.56926"
     inkscape:window-width="1792"
     inkscape:window-height="1067"
     inkscape:window-x="0"
     inkscape:window-y="25"
     inkscape:window-maximized="0"
     inkscape:current-layer="g2"
     inkscape:showpageshadow="0"
     inkscape:deskcolor="#d1d1d1"
     showguides="true" />
  <defs
     id="defs2" />
  <g
     inkscape:label="Layer 1"
     inkscape:groupmode="layer"
     id="g2"
     style="display:inline">
    <path
       id="path498"
       style="font-size:82.9652px;line-height:1.25;font-family:Lobster;-inkscape-font-specification:Lobster;display:inline;fill:#7a0000;fill-opacity:1;stroke:none;stroke-width:0.364675;stroke-opacity:1"
       d="M 73.930338,5.1161801e-4 C 73.183155,-0.0041259 72.438071,0.02757186 71.697125,0.09413771 70.956081,0.16070328 70.219434,0.26183891 69.488982,0.39599235 68.758431,0.53014578 68.034085,0.69720664 67.318187,0.89533153 66.602289,1.0934554 65.894618,1.3229217 65.19753,1.5814113 64.500443,1.839891 63.813822,2.1277571 63.139802,2.442976 62.465684,2.7582049 61.804175,3.1009373 61.157283,3.4692818 60.51039,3.8376361 59.87827,4.2312165 59.262761,4.6490729 58.647253,5.0669294 58.048482,5.508884 57.468517,5.9726287 56.98112,6.3578435 56.506834,6.7575953 56.044684,7.1708381 55.582533,7.5840909 55.132848,8.0109884 54.695547,8.4498832 54.264561,8.8825477 53.84582,9.3273676 53.438501,9.7826481 c -0.0059,0.00665 -0.01246,0.012783 -0.01841,0.019441 -0.0067,0.00749 -0.01275,0.015527 -0.01945,0.023022 -0.405788,0.4549169 -0.800344,0.9200549 -1.182861,1.3951819 -0.388987,0.483041 -0.765862,0.975998 -1.131187,1.477552 -0.365325,0.501456 -0.71935,1.011634 -1.061607,1.529227 -0.342159,0.517691 -0.672541,1.042893 -0.992028,1.574249 -0.106822,0.177694 -0.210339,0.357145 -0.314645,0.536175 L 48.311066,15.93025 c -0.04049,-0.03 -0.09725,-0.04665 -0.174973,-0.04655 H 47.410618 L 36.111023,4.5840974 C 35.683325,4.1805173 35.221093,3.8094611 34.726073,3.4769561 34.342927,3.2093877 33.947148,2.9666034 33.540142,2.7473888 33.133235,2.528174 32.715333,2.3326977 32.288725,2.1595397 31.862116,1.9863816 31.426663,1.8356444 30.98461,1.7062461 30.542558,1.5768379 30.094342,1.4688122 29.641101,1.380857 h -5.12e-4 C 29.187412,1.292958 28.729556,1.2249813 28.269453,1.1762099 c -0.460368,-0.048799 -0.923344,-0.078606 -1.386484,-0.090556 -0.463141,-0.01194 -0.926265,-0.00624 -1.38802,0.016371 -0.461853,0.022603 -0.921989,0.06179 -1.378299,0.1166489 -0.339252,0.034469 -0.676343,0.08063 -1.011469,0.1355788 -0.335126,0.054949 -0.668375,0.1191131 -1.000213,0.1903219 -0.331838,0.071209 -0.662128,0.1495385 -0.991515,0.2327862 -0.32939,0.083248 -0.657599,0.1713943 -0.985377,0.26246 -0.327777,0.091066 -0.6553,0.1846802 -0.982307,0.2793434 -0.327005,0.094664 -0.653698,0.1904198 -0.980771,0.2844597 -0.327073,0.09404 -0.654329,0.1865661 -0.982307,0.2757621 -0.327977,0.089196 -0.656678,0.1746544 -0.986399,0.2547858 -0.113162,-0.00324 -0.202037,0.00813 -0.270646,0.031209 -0.06861,0.023068 -0.116821,0.058 -0.149393,0.1023236 -0.03257,0.044314 -0.04959,0.09811 -0.05474,0.1586016 -0.0051,0.060498 0.0012,0.1279174 0.01484,0.199531 0.01369,0.071614 0.03488,0.1474476 0.05884,0.2251119 0.02396,0.077669 0.05069,0.1572071 0.07623,0.2358559 0.02564,0.078649 0.05035,0.1561699 0.06907,0.2307397 0.01871,0.074571 0.03159,0.1458712 0.03479,0.2112983 0.0808,0.3728824 0.16895,0.7455542 0.260924,1.118397 0.09197,0.3728429 0.187956,0.7460741 0.283437,1.1194202 0.09548,0.3733461 0.190586,0.7470746 0.281902,1.1214667 0.09131,0.3743921 0.178887,0.7495788 0.258367,1.1255597 0.07948,0.3759807 0.150816,0.7525633 0.210786,1.1306757 0.05997,0.378112 0.108415,0.757564 0.141207,1.13835 0.03279,0.380786 0.05016,0.763044 0.0481,1.147048 -0.0021,0.384003 -0.02346,0.769516 -0.06805,1.15728 -0.04812,0.530628 -0.121325,1.056051 -0.216414,1.575783 -0.09509,0.51973 -0.212237,1.033744 -0.348413,1.54304 -0.136176,0.509297 -0.29113,1.01353 -0.462503,1.512854 -0.171372,0.499327 -0.359031,0.993874 -0.559709,1.483693 -0.20068,0.489818 -0.414404,0.975289 -0.6385,1.456065 -0.224094,0.480774 -0.458782,0.956753 -0.700405,1.428949 -0.241622,0.472195 -0.490121,0.940311 -0.743381,1.404392 -0.253259,0.464079 -0.510978,0.924429 -0.769985,1.380857 -0.454543,0.784579 -0.925925,1.557556 -1.412065,2.320698 -0.486142,0.763144 -0.987124,1.516585 -1.500064,2.261353 -0.5129424,0.744766 -1.0382812,1.480739 -1.5732259,2.21019 -0.5349448,0.729449 -1.0793993,1.452067 -1.6315499,2.169259 -0.5521508,0.717194 -1.1120127,1.429033 -1.6765723,2.137029 -0.5645594,0.707996 -1.1340749,1.412148 -1.7062461,2.114006 -0.5721711,0.701858 -1.1466091,1.40141 -1.7215946,2.100191 -0.5749855,0.698781 -1.15012681,1.396825 -1.72312943,2.095588 0.00395625,0.166203 0.00548175,0.332818 0.00613941,0.499851 6.5767e-4,0.167033 3.2659e-4,0.334359 -0.0010232,0.501897 -0.0013498,0.167537 -0.00356173,0.335203 -0.0056278,0.502921 v 5.12e-4 C 0.00561022,44.453714 0.00353621,44.621685 0.00204647,44.789088 5.5523473e-4,44.956661 -3.7474283e-4,45.123881 0,45.290985 c 3.7474302e-4,0.167104 0.00209593,0.334052 0.0056278,0.500362 0.00353187,0.16631 0.00890324,0.332103 0.01688339,0.497293 0.0079801,0.165191 0.01851237,0.329453 0.03223194,0.4932 0.16421569,0.305785 0.32839338,0.611588 0.49268814,0.917331 0.16429478,0.305742 0.32883834,0.611624 0.49319973,0.917331 0.1643614,0.305706 0.3287841,0.611142 0.4931998,0.916819 0.1644157,0.305677 0.3287422,0.611676 0.4931998,0.917332 0.1644576,0.305655 0.3287126,0.61118 0.4931997,0.916819 0.1644871,0.305639 0.3292072,0.61119 0.4937115,0.916819 0.1645042,0.305631 0.3292024,0.611193 0.4937113,0.91682 0.1645091,0.305627 0.3286985,0.6117 0.4931998,0.917331 L 15.030314,65.147903 c -0.19657,0.566491 -0.392868,1.133087 -0.589384,1.699595 -0.232732,0.670916 -0.465219,1.342266 -0.697847,2.013217 -0.695701,0.04752 -1.388958,0.144618 -2.073076,0.289065 -0.684217,0.144348 -1.359454,0.335848 -2.0193564,0.571476 -0.6599311,0.23563 -1.3049323,0.51574 -1.9277766,0.837008 -0.6228443,0.321169 -1.2238562,0.683565 -1.7968025,1.08463 -0.5729463,0.401165 -1.1177413,0.840976 -1.6279685,1.316394 -0.5102173,0.475416 -0.9855745,0.986733 -1.4202516,1.530761 -0.4346773,0.544027 -0.828359,1.120739 -1.174675,1.727734 v 5.11e-4 C 1.3569646,76.82527 1.057522,77.462455 0.81244941,78.126629 0.65425285,78.546406 0.51729872,78.978722 0.403155,79.419488 0.28901028,79.860353 0.19784328,80.30936 0.13148583,80.762997 0.06512908,81.216534 0.02353376,81.674506 0.0086975,82.132598 c -0.01483623,0.458092 -0.0030704,0.916395 0.03734812,1.370625 0.0404186,0.454329 0.1098438,0.904328 0.20925177,1.346578 0.099407,0.442153 0.22925779,0.876631 0.39138778,1.298487 0.16212901,0.421857 0.35618893,0.831157 0.58477943,1.224302 v 5.12e-4 c 0.00104,0.0018 0.00254,0.0034 0.00358,0.0051 0.2277985,0.391171 0.4895392,0.766375 0.7868685,1.120956 0.072514,0.08587 0.1465239,0.170356 0.2225538,0.25325 0.07603,0.0829 0.1538723,0.164315 0.2332979,0.244042 l 1.5322959,1.532296 c -0.096993,0.442289 -0.194105,0.884433 -0.2911067,1.326674 -0.1185822,0.540626 -0.2374975,1.081204 -0.3560862,1.621829 -0.1185888,0.540625 -0.2369798,1.081205 -0.3555746,1.621829 -0.1185947,0.540623 -0.237486,1.081208 -0.356086,1.62183 -0.1186002,0.540622 -0.2369696,1.081207 -0.3555746,1.621828 -0.1186049,0.540621 -0.2374769,1.081212 -0.3560861,1.621824 -0.1186093,0.54062 -0.2369617,1.08121 -0.3555746,1.62184 -0.1186128,0.54061 -0.2374703,1.0812 -0.3560861,1.62182 v 5.1e-4 l 23.5753592,23.57434 c -7.2e-5,3.2e-4 7.1e-5,7e-4 0,9.9e-4 h 3.231379 3.230868 3.230868 3.230867 3.230868 3.230867 3.230868 3.230869 v -5.1e-4 c 0.01267,-0.0646 0.03714,-0.1118 0.07009,-0.1453 6.1e-4,-6.2e-4 0.0014,-9.3e-4 0.0021,-0.002 0.03295,-0.0326 0.07431,-0.0524 0.122788,-0.0614 0.02472,-0.005 0.05546,-1.5e-4 0.08339,0 0.02785,2.5e-4 0.0529,-0.004 0.08339,5.2e-4 0.06089,0.008 0.126201,0.0227 0.194415,0.0415 0.06821,0.0185 0.139219,0.0405 0.210275,0.0624 0.07106,0.0219 0.142335,0.0436 0.21181,0.0619 0.06947,0.0182 0.137081,0.0328 0.200554,0.0404 0.06347,0.008 0.122943,0.008 0.175997,-0.002 0.346216,0.0515 0.694728,0.0871 1.044212,0.10693 0.349385,0.0208 0.699449,0.0262 1.049328,0.0163 0.349782,-0.01 0.699266,-0.0345 1.046771,-0.0742 0.347603,-0.0396 0.693571,-0.094 1.036027,-0.16423 0.342553,-0.0703 0.681852,-0.15428 1.016584,-0.25427 0.328219,-0.098 0.651774,-0.2121 0.970029,-0.3387 0.0063,-0.003 0.01308,-0.004 0.01944,-0.007 0.006,-0.002 0.01182,-0.006 0.01791,-0.008 0.312093,-0.12544 0.618982,-0.2651 0.918866,-0.41901 0.0057,-0.003 0.01169,-0.005 0.0174,-0.008 0.0053,-0.003 0.01005,-0.007 0.01535,-0.009 0.300511,-0.15453 0.593748,-0.32393 0.879471,-0.50803 0.005,-0.003 0.0104,-0.006 0.01535,-0.009 0.0015,9.9e-4 0.0032,0.002 0.0047,0.003 0.419987,0.33902 0.873077,0.63234 1.349648,0.87896 0.476374,0.24652 0.976456,0.4464 1.491367,0.59962 0.0022,6.3e-4 0.004,0.002 0.0061,0.003 0.0024,7e-4 0.0049,8.4e-4 0.0071,0.002 0.514856,0.1533 1.044656,0.25964 1.579877,0.31976 0.537591,0.0604 1.080838,0.0742 1.620805,0.0415 0.53987,-0.0337 1.076413,-0.11271 1.600341,-0.23944 0.52177,-0.1262 1.03116,-0.2998 1.518994,-0.51929 0.002,-8.9e-4 0.0042,-9.9e-4 0.0061,-0.002 0.0018,-8.2e-4 0.0033,-0.002 0.0051,-0.003 0.487877,-0.21934 0.953907,-0.48543 1.389554,-0.79915 0.214644,-0.15452 0.421887,-0.32073 0.620593,-0.4978 0.0083,-0.007 0.0163,-0.0151 0.02456,-0.0225 0.0056,-0.005 0.01125,-0.0103 0.01688,-0.0153 l 1.932381,1.93238 h 2.02038 2.019868 2.019867 2.019869 2.019867 2.02038 2.019868 2.019867 c 0.02515,-0.0549 0.04576,-0.12052 0.06344,-0.19288 v -5.1e-4 c 0.01771,-0.0726 0.03282,-0.15222 0.04605,-0.23535 0.01322,-0.0832 0.02459,-0.16971 0.03633,-0.25632 0.01173,-0.0866 0.02358,-0.17327 0.03684,-0.25632 0.01326,-0.0831 0.02827,-0.16242 0.04605,-0.23483 0.01774,-0.0722 0.03821,-0.13722 0.06344,-0.19186 v -5e-4 c 0.02532,-0.0547 0.05521,-0.0989 0.09106,-0.12893 0.03585,-0.03 0.07801,-0.0458 0.127392,-0.044 0.362752,0.2287 0.738751,0.43272 1.125561,0.61291 0.386808,0.18019 0.78409,0.33755 1.189511,0.4712 0.405421,0.13267 0.819015,0.2439 1.237604,0.33102 0.412814,0.0859 0.830455,0.14821 1.250906,0.18981 0.006,6e-4 0.0119,0.002 0.01791,0.003 0.0063,6.2e-4 0.01264,4.3e-4 0.01893,9.9e-4 0.420185,0.0403 0.842781,0.0587 1.265231,0.0557 0.428787,-0.003 0.857422,-0.0297 1.283139,-0.0772 0.425717,-0.0475 0.84854,-0.11766 1.265743,-0.20874 0.417104,-0.0911 0.829034,-0.20401 1.23198,-0.33766 0.109895,-0.0376 0.219521,-0.0771 0.327441,-0.11768 l 5e-4,-5.1e-4 c 0.10869,-0.0409 0.21696,-0.0833 0.32437,-0.12739 0.10742,-0.0442 0.21371,-0.0898 0.31976,-0.13711 0.10591,-0.0472 0.21122,-0.0964 0.31567,-0.14684 h 5.1e-4 c 0.10459,-0.0505 0.20854,-0.1025 0.31158,-0.15605 0.0406,-0.0211 0.0804,-0.0434 0.12074,-0.0649 0.0621,-0.033 0.12434,-0.0656 0.18623,-0.0998 0.0505,-0.0287 0.10013,-0.0589 0.15042,-0.088 0.0502,-0.029 0.10112,-0.0571 0.15092,-0.0869 0.0997,-0.0596 0.19838,-0.12055 0.29623,-0.18316 0.005,0.004 0.0101,0.007 0.0148,0.0102 0.32651,0.25881 0.67066,0.49023 1.02886,0.69324 0.36236,0.20691 0.73951,0.38521 1.12761,0.53669 0.38711,0.15147 0.78611,0.27646 1.19104,0.37348 0.40493,0.098 0.81766,0.1693 1.23249,0.21385 h 5.2e-4 c 0.41005,0.045 0.82407,0.063 1.23708,0.0578 0.006,-7e-5 0.0112,9.9e-4 0.0169,9.9e-4 0.006,-8e-5 0.0112,-9.3e-4 0.0168,-9.9e-4 0.41316,-0.007 0.82635,-0.0369 1.23658,-0.0916 0.40929,-0.0556 0.81539,-0.13546 1.21509,-0.23739 0.005,-9.9e-4 0.011,-0.002 0.0163,-0.003 0.005,-9.9e-4 0.01,-0.003 0.0148,-0.005 0.36836,-0.0952 0.72989,-0.21135 1.0836,-0.34587 l 0.36427,0.36428 h 5.2e-4 c 0.0309,0.0343 0.0639,0.0644 0.10129,0.0901 0.0374,0.0258 0.079,0.0474 0.12688,0.0635 0.0479,0.016 0.10223,0.0265 0.16475,0.0317 0.0312,0.002 0.0714,-9.9e-4 0.10692,-0.002 0.0356,-2.5e-4 0.0668,0.003 0.10744,-5.2e-4 0.0439,-0.004 0.0995,-0.0148 0.14991,-0.0225 0.0427,-0.007 0.0792,-0.01 0.12688,-0.0189 0.15686,0.005 0.31363,0.0143 0.47069,0.0255 0.15742,0.0119 0.3148,0.0245 0.47222,0.0394 0.15643,0.0139 0.31379,0.0286 0.4712,0.0435 0.15738,0.0144 0.31474,0.0282 0.47222,0.0399 0.15742,0.0119 0.31484,0.0217 0.47325,0.0276 0.15742,0.006 0.3148,0.009 0.47222,0.006 0.15763,-0.002 0.31561,-0.01 0.47325,-0.0236 0.15764,-0.0138 0.3151,-0.0339 0.47274,-0.0619 0.24526,-0.0263 0.4907,-0.0466 0.73673,-0.0625 0.24585,-0.0157 0.49231,-0.0269 0.73877,-0.0343 h 5.2e-4 c 0.24662,-0.007 0.49325,-0.0109 0.7403,-0.0123 0.24707,-9.9e-4 0.49453,-3.8e-4 0.74185,0.002 0.24732,0.002 0.49494,0.006 0.74236,0.009 0.24742,0.004 0.49451,0.007 0.74185,0.0102 0.24735,0.002 0.49474,0.004 0.74184,0.003 0.24652,-9.9e-4 0.49431,-0.004 0.74083,-0.0102 h 0.68403 0.68301 0.68404 0.68351 0.68302 0.68403 0.68301 0.68403 v -5.2e-4 c 1.1e-4,-4e-4 4e-4,-6.1e-4 5.1e-4,-9.9e-4 0.0156,-0.0593 0.0419,-0.10191 0.0767,-0.13097 7.6e-4,-6.6e-4 0.002,-9e-4 0.003,-0.002 0.0348,-0.0282 0.0778,-0.0438 0.12739,-0.0491 0.0505,-0.005 0.10796,-6.2e-4 0.16935,0.0113 0.0614,0.0109 0.12763,0.0293 0.19595,0.0501 h 5.1e-4 c 0.0685,0.0213 0.13914,0.0457 0.21027,0.0696 0.0711,0.024 0.14234,0.0478 0.21181,0.0675 0.0695,0.0197 0.13753,0.0351 0.20107,0.0435 0.0636,0.008 0.12263,0.009 0.176,-5.2e-4 0.24056,0.0345 0.4828,0.0614 0.72547,0.0808 0.24269,0.0194 0.48594,0.0313 0.72957,0.0353 h 5.1e-4 c 0.24355,0.004 0.48704,1.4e-4 0.73059,-0.0108 0.24355,-0.0119 0.48598,-0.0321 0.72854,-0.0588 0.24157,-0.0277 0.48231,-0.0634 0.7219,-0.10694 h 5.1e-4 c 0.23943,-0.0436 0.47773,-0.0956 0.71319,-0.15502 0.23563,-0.0604 0.46922,-0.12895 0.6999,-0.20618 0.23068,-0.0762 0.45981,-0.16223 0.68455,-0.2553 0.30493,0.1297 0.61685,0.24324 0.93268,0.34125 0.31681,0.098 0.63813,0.18028 0.96286,0.24661 0.32473,0.0663 0.65263,0.11681 0.98231,0.15246 0.32934,0.0346 0.66125,0.0533 0.99355,0.0573 h 5.2e-4 c 0.32483,0.003 0.6497,-0.009 0.97361,-0.0363 0.007,-5.6e-4 0.0137,7e-5 0.0205,-5.1e-4 0.007,-5.8e-4 0.0136,-0.002 0.0205,-0.003 0.32376,-0.0278 0.64547,-0.0703 0.96543,-0.12842 0.32672,-0.0594 0.6497,-0.13505 0.96849,-0.22613 0.31859,-0.091 0.63217,-0.1966 0.94087,-0.31925 0.005,0.002 0.0104,0.003 0.0153,0.005 0.44528,0.18571 0.9046,0.33432 1.3737,0.44663 0.004,9.3e-4 0.007,0.003 0.0113,0.004 0.004,9.9e-4 0.009,9.9e-4 0.0128,0.002 0.46995,0.1112 0.94864,0.18601 1.431,0.2246 0.004,3.3e-4 0.009,0.002 0.0128,0.002 0.004,3.5e-4 0.009,-3.4e-4 0.0133,0 0.48666,0.0376 0.97506,0.0389 1.46168,0.005 h 5.2e-4 c 5e-4,-3e-5 9.9e-4,4e-5 0.002,0 0.49038,-0.0357 0.97806,-0.10814 1.45658,-0.2159 0.47918,-0.10891 0.94897,-0.25418 1.40439,-0.43436 l 5.1e-4,-5.2e-4 c 0.4552,-0.18113 0.89575,-0.39789 1.31434,-0.64924 0.41879,-0.25246 0.81771,-0.53929 1.18798,-0.86106 l 5.2e-4,-5.1e-4 c 0.37105,-0.32263 0.71455,-0.67895 1.02528,-1.07081 0.17919,-0.2089 0.34483,-0.42655 0.49729,-0.65129 v -5.1e-4 c 0.15336,-0.22463 0.29294,-0.45729 0.42157,-0.69478 0.12871,-0.23761 0.24452,-0.4821 0.35046,-0.7306 0.10587,-0.24835 0.19987,-0.50249 0.28497,-0.75974 v -5.2e-4 c 0.0842,-0.25741 0.15875,-0.51891 0.22409,-0.78226 0.0651,-0.26389 0.12082,-0.53056 0.16832,-0.79864 0.0475,-0.26731 0.087,-0.53803 0.1187,-0.80733 0.0307,-0.27028 0.0553,-0.54012 0.0722,-0.8104 0.0426,-0.35939 0.0853,-0.72013 0.12791,-1.07951 0.0426,-0.35939 0.0848,-0.71963 0.1274,-1.07901 0.0426,-0.35939 0.0853,-0.71961 0.1279,-1.079 0.0201,-0.16964 0.0399,-0.3397 0.0599,-0.50957 0.0225,-0.18984 0.045,-0.37959 0.0675,-0.56943 0.0425,-0.35973 0.0848,-0.71979 0.1274,-1.07952 0.0426,-0.35972 0.0848,-0.71928 0.12739,-1.079 0.0426,-0.35971 0.0853,-0.71928 0.1279,-1.079 0.0426,-0.35972 0.0848,-0.71981 0.1274,-1.07952 l -1.28263,-1.28262 c 0.008,-0.0384 0.0164,-0.0767 0.0245,-0.11512 0.14749,-0.6988 0.29613,-1.39678 0.4446,-2.09558 v -5.2e-4 c 0.14851,-0.69797 0.29661,-1.39658 0.44511,-2.09456 v -5.1e-4 c 0.14841,-0.69855 0.29667,-1.39706 0.44511,-2.09559 0.14844,-0.69854 0.29664,-1.39705 0.44511,-2.095583 v -5.15e-4 c 0.1485,-0.698371 0.29711,-1.3965 0.44562,-2.095072 0.14847,-0.698526 0.29714,-1.397064 0.44561,-2.095588 0.14849,-0.698523 0.29664,-1.397062 0.44511,-2.095588 L 147.02469,81.246476 c 0.10175,-0.482809 0.2034,-0.965553 0.30544,-1.448391 0.15246,-0.721343 0.30492,-1.4428 0.45739,-2.164144 0.56036,-0.232956 1.10971,-0.498521 1.64434,-0.794543 0.53363,-0.296021 1.05326,-0.622244 1.55224,-0.976679 0.49997,-0.354533 0.97919,-0.73712 1.4356,-1.145512 0.45542,-0.408392 0.88841,-0.842425 1.29235,-1.300021 0.40102,-0.454389 0.77431,-0.932074 1.11584,-1.430484 0.003,-0.0037 0.006,-0.007 0.008,-0.01074 0.002,-0.0036 0.004,-0.0076 0.007,-0.01126 0.34152,-0.498883 0.65025,-1.018376 0.92347,-1.556854 0.27145,-0.536821 0.50711,-1.092628 0.70296,-1.664293 0.002,-0.0058 0.005,-0.01108 0.007,-0.01688 0.002,-0.0053 0.002,-0.01107 0.004,-0.01638 0.19454,-0.570129 0.34965,-1.155805 0.45944,-1.755872 5.3e-4,-0.003 0.002,-0.0057 0.002,-0.0087 9.9e-4,-0.0057 9.9e-4,-0.01162 0.003,-0.0174 0.0861,-0.427294 0.14739,-0.856933 0.18469,-1.287231 5.1e-4,-0.0058 0.002,-0.01157 0.003,-0.01739 5.3e-4,-0.0061 -1e-5,-0.01229 5.1e-4,-0.01842 0.0374,-0.435837 0.0518,-0.87239 0.043,-1.308207 -0.009,-0.441954 -0.0407,-0.883136 -0.0942,-1.322021 -0.0527,-0.432053 -0.127,-0.861618 -0.22,-1.287743 -9.9e-4,-0.0066 -0.002,-0.01335 -0.004,-0.01995 -0.002,-0.007 -0.004,-0.01391 -0.006,-0.02098 -0.0942,-0.425497 -0.20669,-0.847325 -0.33818,-1.263697 -0.13365,-0.423242 -0.28502,-0.841062 -0.45432,-1.251929 -0.16928,-0.410767 -0.35569,-0.81434 -0.55766,-1.209465 v -5.11e-4 c -0.002,-0.0037 -0.004,-0.007 -0.006,-0.01074 -0.2003,-0.391252 -0.41469,-0.774263 -0.64413,-1.147048 -0.0436,-0.120884 -0.0978,-0.231172 -0.16218,-0.332552 -0.0644,-0.101281 -0.13881,-0.194117 -0.21999,-0.279855 l -1.76559,-1.765594 c 0.003,-0.02233 0.007,-0.04503 0.0113,-0.06753 0.007,-0.0413 0.0135,-0.08197 0.022,-0.123811 0.009,-0.04189 0.0186,-0.08458 0.0281,-0.126882 0.01,-0.04233 0.0187,-0.08429 0.0292,-0.126882 0.0208,-0.08524 0.0417,-0.170583 0.0635,-0.25632 0.0216,-0.08565 0.0431,-0.171195 0.0635,-0.25632 0.0203,-0.08512 0.0395,-0.170129 0.0562,-0.253763 0.0166,-0.08364 0.0307,-0.165935 0.0414,-0.247112 0.11911,-0.561114 0.23851,-1.122622 0.35762,-1.683735 0.11911,-0.561112 0.238,-1.122109 0.35711,-1.683223 l 0.35762,-1.683223 0.35711,-1.683224 c 0.1188,-0.561154 0.23783,-1.12258 0.35762,-1.683734 0.11881,-0.561057 0.23731,-1.122068 0.35711,-1.683224 0.1188,-0.561055 0.23783,-1.122167 0.35762,-1.683223 0.11881,-0.561155 0.23783,-1.122068 0.35762,-1.683223 h -5.1e-4 L 132.30224,15.884199 h -1.02272 L 120.38628,4.9908338 C 120.25407,4.8524023 120.1196,4.716287 119.98006,4.584609 119.55246,4.1811336 119.0905,3.8099028 118.59561,3.4774676 h -5.1e-4 c -0.38314,-0.267489 -0.77903,-0.5103921 -1.18592,-0.7295673 -0.40691,-0.2191751 -0.82472,-0.4147008 -1.25142,-0.5878491 -0.42557,-0.1730969 -0.86122,-0.323906 -1.30361,-0.4532935 h -5.1e-4 c -0.44156,-0.1294279 -0.89007,-0.237414 -1.34351,-0.3253891 -0.45344,-0.087985 -0.91076,-0.1558183 -1.37113,-0.2046472 h -5.2e-4 c -0.4602,-0.048797 -0.92328,-0.078601 -1.38546,-0.090556 h -5.1e-4 c -0.46317,-0.011942 -0.92636,-0.00624 -1.38853,0.016371 -0.46136,0.022613 -0.92189,0.061751 -1.3783,0.116649 -0.33943,0.034517 -0.67619,0.080509 -1.01147,0.1355787 -0.33545,0.055048 -0.66874,0.1194839 -1.00124,0.1908335 -0.33149,0.071357 -0.6625,0.1498633 -0.99202,0.2332978 -0.32869,0.08347 -0.65717,0.1721521 -0.98486,0.2634833 h -5.2e-4 c -0.16395,0.045667 -0.32745,0.093346 -0.49116,0.1401834 -0.16356,0.046791 -0.32797,0.092752 -0.49166,0.1401833 -0.32656,0.094919 -0.65374,0.1906744 -0.98128,0.2849712 -0.32671,0.094351 -0.65409,0.1872759 -0.98179,0.2767854 h -5.2e-4 c -0.16404,0.044753 -0.32877,0.085156 -0.4932,0.1279045 -0.16431,0.042705 -0.32903,0.087726 -0.49371,0.1279044 -0.110649,-0.00298 -0.197753,0.0089 -0.265017,0.032232 -0.06633,0.023424 -0.113072,0.058656 -0.143764,0.1033469 -0.03069,0.044681 -0.04564,0.098857 -0.0496,0.1596248 -0.004,0.060779 0.004,0.1283538 0.01891,0.2000426 0.01485,0.071699 0.03663,0.1471594 0.06138,0.2246003 0.02475,0.077441 0.05247,0.1568175 0.07722,0.2348328 0.02574,0.078025 0.0497,0.1547502 0.06752,0.2281815 0.0089,0.036627 0.01039,0.068824 0.01584,0.1033469 0.005,0.034691 0.01465,0.071942 0.01535,0.1038585 0.07891,0.3707265 0.165181,0.7411504 0.255301,1.1117459 0.0901,0.3705955 0.18399,0.741243 0.27781,1.1122576 0.0939,0.3710146 0.18783,0.7423202 0.2778,1.114304 0.09,0.3719836 0.17618,0.7448939 0.25479,1.118397 0.0782,0.3735026 0.14934,0.7479017 0.20874,1.1235133 9.9e-4,0.0088 0.002,0.01775 0.004,0.0266 0.0578,0.366797 0.10563,0.734261 0.13814,1.103561 0.0333,0.378192 0.0519,0.758011 0.0512,1.139373 -6.7e-4,0.381361 -0.0202,0.764525 -0.0624,1.149605 -0.0446,0.520443 -0.11366,1.035531 -0.20413,1.545598 -0.0905,0.510069 -0.20239,1.014804 -0.33307,1.514901 -0.0812,0.310705 -0.18135,0.616489 -0.27627,0.923471 L 88.297084,5.3591988 C 87.891465,4.9682417 87.468591,4.5952265 87.029806,4.2423366 86.590921,3.8894565 86.136332,3.5563033 85.666856,3.245193 85.197378,2.9340828 84.713089,2.6451731 84.215395,2.3795354 83.717702,2.1139076 83.206435,1.8715467 82.683099,1.6550843 82.339754,1.5052615 81.9922,1.3672072 81.640933,1.2396504 81.289614,1.112085 80.934362,0.9954406 80.576256,0.88919212 80.218149,0.78294353 79.857334,0.68702497 79.493673,0.60115117 79.130012,0.51527737 78.763722,0.43941069 78.39574,0.37296953 78.027758,0.30652837 77.657624,0.24952814 77.286552,0.2015775 76.915482,0.15362686 76.543641,0.11430763 76.170713,0.08390536 75.797786,0.05350309 75.423821,0.03170266 75.050271,0.01790663 74.676719,0.0041106 74.30328,-0.00135647 73.930338,5.1161801e-4 Z M 95.14458,23.684333 c 2.9e-5,9.9e-4 -3.1e-5,0.0021 0,0.0031 -3.38e-4,3.1e-5 -6.87e-4,-3.3e-5 -9.9e-4,0 -2.5e-5,-8.52e-4 2.5e-5,-0.0017 0,-0.0026 3.56e-4,-3.4e-5 6.66e-4,-4.78e-4 9.9e-4,-5.12e-4 z M 23.929397,103.20819 h 0.0061 v 5.1e-4 h -0.0061 z" />
    <path
       id="text3"
       style="font-size:82.9652px;line-height:1.25;font-family:Lobster;-inkscape-font-specification:Lobster;display:inline;fill:#f9f9f9;stroke-width:0.364675"
       d="m 74.064506,5.7602581 c -1.349797,0 -2.660723,0.1265336 -3.932712,0.3796107 -1.271989,0.253077 -2.505042,0.6326976 -3.699093,1.1388715 -1.194052,0.506174 -2.342706,1.1128831 -3.445935,1.8201781 -1.103229,0.707295 -2.161032,1.5151766 -3.17338,2.4236946 -0.999368,0.908517 -1.949998,1.907942 -2.851958,2.998219 -0.901961,1.090276 -1.755249,2.271404 -2.559937,3.543328 -0.791707,1.258946 -1.525027,2.585968 -2.199942,3.98113 -0.674915,1.395163 -1.291425,2.858464 -1.849514,4.389964 -0.558089,1.518523 -1.051297,3.092173 -1.479611,4.720984 -0.428315,1.628811 -0.791734,3.312782 -1.090246,5.051944 -0.285534,1.726182 -0.499647,3.478368 -0.642376,5.256511 -0.142728,1.778144 -0.214073,3.582245 -0.214073,5.412259 0,1.388734 0.06165,2.735284 0.184951,4.039654 0.123301,1.304369 0.30825,2.566558 0.554848,3.786567 0.259577,1.20703 0.606761,2.336196 1.04155,3.387488 0.434791,1.051292 0.957187,2.024713 1.567191,2.920251 0.610004,0.895538 1.327048,1.696929 2.151168,2.404225 0.82412,0.707294 1.755314,1.320493 2.79362,1.839646 1.038305,0.519153 2.20641,0.908622 3.504304,1.168303 1.297893,0.259681 2.725575,0.389574 4.283033,0.389574 1.220009,0 2.391337,-0.09745 3.513994,-0.292245 1.122657,-0.194792 2.196643,-0.486926 3.221969,-0.876291 1.038306,-0.389364 2.027921,-0.850039 2.968865,-1.382097 0.940944,-0.532059 1.833218,-1.135501 2.676841,-1.810399 0.856601,-0.674899 1.667862,-1.411465 2.433698,-2.209681 0.765834,-0.798214 1.486244,-1.658079 2.161143,-2.579576 0.674898,-0.921496 1.310782,-1.878683 1.907728,-2.871564 0.596947,-0.992881 1.154957,-2.021453 1.67411,-3.085715 0.519153,-1.064263 0.999355,-2.154487 1.440621,-3.270667 0.441265,-1.116181 0.843595,-2.25832 1.207002,-3.426413 0.376386,-1.168094 0.71709,-2.332979 1.022103,-3.494621 0.305013,-1.161641 0.574335,-2.320037 0.807954,-3.475151 0.233619,-1.168094 0.434826,-2.319927 0.603588,-3.455536 0.16876,-1.135609 0.305074,-2.254994 0.408905,-3.358193 0.116809,-1.116179 0.204424,-2.196687 0.262836,-3.241503 0.05841,-1.044817 0.08762,-2.053942 0.08762,-3.027354 0,-1.440649 -0.07794,-2.816388 -0.233744,-4.127234 -0.155809,-1.310846 -0.38949,-2.556797 -0.700982,-3.737869 C 88.172132,15.909479 87.789323,14.816039 87.322153,13.810207 86.854983,12.804375 86.30345,11.88615 85.667488,11.055505 85.044508,10.211882 84.3339,9.4655293 83.535684,8.8165186 82.737469,8.167508 81.851646,7.6158385 80.878235,7.1615798 79.917803,6.6943423 78.869801,6.344012 77.734192,6.1104908 76.598583,5.8769698 75.375367,5.7602581 74.064506,5.7602581 Z M 26.561797,6.8500044 c -0.311492,0 -0.635907,0.00982 -0.9733,0.029377 -0.337393,0.019556 -0.687765,0.048847 -1.051173,0.087783 -0.350429,0.038936 -0.687976,0.090846 -1.012546,0.1557342 -0.324569,0.064888 -0.636158,0.1427555 -0.934672,0.2336072 0.103831,0.4023434 0.194778,0.8078564 0.272746,1.2166141 0.07796,0.4087577 0.142958,0.8207602 0.194873,1.2360827 0.05192,0.4153234 0.0908,0.8306854 0.116703,1.2460464 0.0259,0.415362 0.03883,0.830724 0.03883,1.246046 0,1.310861 -0.123302,2.634759 -0.369903,3.971637 -0.246601,1.336877 -0.6165,2.686734 -1.109696,4.04951 -0.493195,1.349797 -1.067564,2.706089 -1.723051,4.068871 -0.655487,1.362782 -1.392092,2.732053 -2.209757,4.107808 -0.804687,1.375756 -1.67103,2.751489 -2.599021,4.127223 -0.927993,1.375734 -1.917634,2.751468 -2.968918,4.127223 -1.038305,1.362776 -2.096033,2.719094 -3.1732301,4.068924 -1.0771966,1.349829 -2.1738614,2.69317 -3.2900399,4.029989 v 0.19467 0.194671 l 0.8372629,1.557364 0.8372628,1.557366 h 0.1555319 0.1555319 c 0.7268138,-0.363406 1.4536647,-0.658718 2.1805162,-0.885891 0.7268503,-0.227173 1.4537013,-0.386207 2.1805153,-0.477059 0.739793,-0.103831 1.463439,-0.181724 2.170862,-0.233661 0.707423,-0.05194 1.398622,-0.07792 2.073522,-0.07792 0.934475,0 1.849426,0.06165 2.744911,0.184952 0.895483,0.1233 1.7715,0.30825 2.628101,0.554847 0.856603,0.233618 1.706767,0.467268 2.550443,0.700917 0.843675,0.233649 1.680861,0.467297 2.511506,0.700917 l -2.978641,8.585462 -2.97864,8.585462 h 5.548242 5.548241 l 1.732851,-8.215562 1.73285,-8.215563 c 0.610004,-0.116809 1.197284,-0.269306 1.76185,-0.457495 0.564567,-0.188189 1.10642,-0.412069 1.625572,-0.671645 0.532132,-0.272556 1.025286,-0.571039 1.479504,-0.895481 0.454218,-0.324441 0.8695,-0.674841 1.245886,-1.051226 0.389365,-0.376386 0.733328,-0.775512 1.031865,-1.19735 0.298537,-0.421837 0.551648,-0.866388 0.759309,-1.333625 0.22064,-0.480215 0.386149,-0.973391 0.496497,-1.479545 0.110348,-0.506155 0.165537,-1.025287 0.165537,-1.557419 0,-0.350428 -0.02598,-0.704134 -0.07792,-1.061083 -0.05194,-0.35695 -0.12983,-0.717143 -0.23366,-1.08055 C 43.551122,38.41463 43.41804,38.047974 43.255755,37.678071 43.093471,37.30817 42.901984,36.935024 42.681344,36.558638 l -0.116648,-0.07777 -0.11665,-0.07777 c -0.415322,0.480217 -0.833915,0.918204 -1.255753,1.314009 -0.421837,0.395806 -0.84692,0.74943 -1.275221,1.060922 -0.415322,0.298513 -0.833915,0.564609 -1.255753,0.798258 -0.421838,0.233648 -0.846921,0.43485 -1.275222,0.603575 l 1.966404,-9.266937 1.966404,-9.266937 h -2.550416 -2.550416 l -3.231635,9.30582 -3.231635,9.30582 c -0.700856,-0.129784 -1.408266,-0.25956 -2.122165,-0.389337 -0.713899,-0.129776 -1.434288,-0.259553 -2.161101,-0.389341 -0.713835,-0.129789 -1.404987,-0.227124 -2.073425,-0.292012 -0.66844,-0.06489 -1.314165,-0.09733 -1.937149,-0.09733 -0.635962,0 -1.275125,0.03891 -1.917531,0.116745 -0.642407,0.07784 -1.288058,0.194616 -1.936999,0.350362 -0.635962,0.142768 -1.223295,0.295319 -1.761956,0.457603 -0.538663,0.162284 -1.028654,0.334303 -1.469935,0.516007 l -0.03888,-0.116905 -0.03888,-0.116905 c 0.661919,-0.519153 1.343271,-1.080395 2.044089,-1.683817 0.700819,-0.603423 1.421107,-1.249027 2.160899,-1.936904 0.752771,-0.687878 1.499064,-1.39526 2.238868,-2.122111 0.739803,-0.726851 1.473117,-1.47317 2.199931,-2.238921 0.739792,-0.76575 1.463439,-1.54451 2.170862,-2.33625 0.707423,-0.791739 1.398622,-1.596457 2.07352,-2.414122 0.6749,-0.830645 1.310782,-1.654778 1.907729,-2.472422 0.596946,-0.817643 1.154957,-1.628797 1.674109,-2.433484 0.519153,-0.804686 0.983199,-1.596453 1.392084,-2.37524 0.408886,-0.778788 0.762611,-1.544595 1.061125,-2.297367 0.311491,-0.765751 0.545045,-1.502249 0.700726,-2.209543 0.155681,-0.707294 0.233488,-1.385388 0.233488,-2.034329 0,-0.480216 -0.04214,-0.944182 -0.126451,-1.391923 C 33.943441,11.902347 33.81694,11.470829 33.648215,11.055506 33.492472,10.627204 33.294528,10.2281 33.054403,9.8581979 32.814279,9.4882964 32.531972,9.1475973 32.207502,8.8361056 31.883032,8.5246138 31.522917,8.248797 31.127112,8.008672 30.731306,7.768547 30.299808,7.5641139 29.832571,7.3953893 29.365333,7.2136858 28.859132,7.0773395 28.313993,6.9864193 27.768855,6.8954989 27.18478,6.8500044 26.561797,6.8500044 Z m 83.869023,0 c -0.31149,0 -0.6359,0.00982 -0.9733,0.029377 -0.33738,0.019556 -0.68776,0.048847 -1.05116,0.087783 -0.35043,0.038936 -0.68786,0.090846 -1.01229,0.1557342 -0.32445,0.064888 -0.63591,0.1427555 -0.93442,0.2336072 0.10383,0.4023434 0.19465,0.8078564 0.27249,1.2166141 0.0778,0.4087577 0.1427,0.8207602 0.19462,1.2360827 0.0519,0.4153224 0.0908,0.8306844 0.11669,1.2460464 0.0259,0.415362 0.0388,0.830724 0.0388,1.246046 0,1.310861 -0.1233,2.634759 -0.3699,3.971637 -0.24659,1.336877 -0.61649,2.686734 -1.10969,4.04951 -0.4932,1.349797 -1.06744,2.706089 -1.72279,4.068871 -0.65537,1.362782 -1.39184,2.732053 -2.20951,4.107808 -0.80468,1.375756 -1.67103,2.751489 -2.599015,4.127223 -0.927997,1.375734 -1.917638,2.751468 -2.968922,4.127223 -1.038305,1.362776 -2.096162,2.719094 -3.173487,4.068924 -1.077324,1.349829 -2.174116,2.69317 -3.290295,4.029989 v 0.19467 0.194671 l 0.837263,1.557364 0.837262,1.557366 h 0.155788 0.155788 c 0.726814,-0.363406 1.453666,-0.658718 2.180517,-0.885891 0.72685,-0.227173 1.453702,-0.386207 2.180515,-0.477059 0.739794,-0.103831 1.463314,-0.181724 2.170608,-0.233661 0.707296,-0.05194 1.39837,-0.07792 2.073258,-0.07792 0.93448,0 1.84943,0.06165 2.74491,0.184952 0.89549,0.1233 1.7715,0.30825 2.62811,0.554847 0.8566,0.233618 1.70676,0.467268 2.55044,0.700917 0.84368,0.233649 1.68087,0.467297 2.51151,0.700917 l -2.97864,8.585462 -2.97865,8.585462 h 5.5485 5.5485 l 1.73259,-8.215562 1.73259,-8.215563 c 0.61001,-0.116809 1.19729,-0.269306 1.76186,-0.457495 0.56456,-0.188189 1.10642,-0.412069 1.62557,-0.671645 0.53213,-0.272556 1.02529,-0.571039 1.47951,-0.895481 0.45421,-0.324441 0.86949,-0.674841 1.24588,-1.051226 0.38936,-0.376386 0.73332,-0.775512 1.03187,-1.19735 0.29853,-0.421837 0.55165,-0.866388 0.75931,-1.333625 0.22064,-0.480215 0.38614,-0.973391 0.49649,-1.479545 0.11035,-0.506155 0.16554,-1.025287 0.16554,-1.557419 0,-0.350428 -0.0259,-0.704134 -0.0779,-1.061083 -0.052,-0.35695 -0.12983,-0.717143 -0.23366,-1.08055 -0.10383,-0.363407 -0.23678,-0.730063 -0.39894,-1.099966 -0.16216,-0.369901 -0.35352,-0.743047 -0.57416,-1.119433 l -0.1169,-0.07777 -0.11691,-0.07777 c -0.41532,0.480217 -0.83391,0.918204 -1.25574,1.314009 -0.42184,0.395806 -0.84693,0.74943 -1.27523,1.060922 -0.41532,0.298513 -0.83391,0.564609 -1.25575,0.798258 -0.42183,0.233648 -0.84692,0.43485 -1.27522,0.603575 l 1.9664,-9.266937 1.9664,-9.266937 h -2.55041 -2.55042 l -3.23163,9.30582 -3.23164,9.30582 c -0.70086,-0.129788 -1.40826,-0.259564 -2.12216,-0.389341 -0.71391,-0.129776 -1.43429,-0.259553 -2.1611,-0.389341 -0.71383,-0.129789 -1.40486,-0.227124 -2.07317,-0.292012 -0.66832,-0.06489 -1.31391,-0.09733 -1.93689,-0.09733 -0.63597,0 -1.27526,0.03891 -1.91779,0.116745 -0.64254,0.07784 -1.28832,0.194616 -1.93726,0.350362 -0.63595,0.142768 -1.22315,0.295319 -1.761697,0.457603 -0.538533,0.162284 -1.028395,0.334303 -1.469678,0.516007 l -0.03914,-0.116905 -0.03914,-0.116905 c 0.661921,-0.519153 1.343388,-1.080395 2.044335,-1.683817 0.70095,-0.603423 1.42136,-1.249027 2.16116,-1.936904 0.75277,-0.687878 1.49906,-1.39526 2.23886,-2.122111 0.73981,-0.726851 1.47312,-1.47317 2.19993,-2.238921 0.7398,-0.76575 1.46331,-1.54451 2.17061,-2.33625 0.70729,-0.791739 1.39836,-1.596457 2.07326,-2.414122 0.6749,-0.830645 1.31092,-1.654778 1.90799,-2.472422 0.59708,-0.817643 1.15521,-1.628797 1.67437,-2.433484 0.51916,-0.804682 0.98307,-1.596448 1.39183,-2.375236 0.40876,-0.77879 0.76235,-1.544599 1.06087,-2.297371 0.31148,-0.765751 0.54516,-1.502249 0.70098,-2.209543 0.1558,-0.707294 0.23374,-1.385388 0.23374,-2.034329 0,-0.480216 -0.0423,-0.944182 -0.12671,-1.391923 -0.0845,-0.447742 -0.21107,-0.87926 -0.37979,-1.294583 -0.15575,-0.428301 -0.35369,-0.827405 -0.59382,-1.1973075 C 116.68328,9.488282 116.40098,9.1475828 116.07651,8.8360912 115.75205,8.5245971 115.39193,8.2487803 114.99612,8.008656 114.60031,7.7685315 114.16881,7.5640995 113.70158,7.3953749 113.23435,7.2136714 112.72814,7.0773251 112.18301,6.9864048 111.63787,6.8954848 111.05379,6.84999 110.4308,6.84999 Z M 73.947346,10.51012 c 0.402343,0 0.775543,0.07794 1.11954,0.233745 0.343997,0.155809 0.658793,0.38949 0.944327,0.700982 0.298513,0.311492 0.56784,0.681401 0.807965,1.109714 0.240125,0.428314 0.451047,0.915032 0.632752,1.460143 0.194681,0.532131 0.363369,1.106453 0.506097,1.722955 0.142728,0.616504 0.259499,1.275187 0.350351,1.976043 0.09086,0.700856 0.159024,1.421192 0.204485,2.160994 0.04546,0.739804 0.0682,1.499075 0.0682,2.277804 0,1.544479 -0.04549,3.092205 -0.136415,4.643175 -0.09092,1.550971 -0.227267,3.105186 -0.40897,4.662645 -0.168725,1.544479 -0.37639,3.062995 -0.622991,4.555553 -0.246601,1.492559 -0.532139,2.95916 -0.856609,4.399808 -0.311492,1.427671 -0.658654,2.809846 -1.041508,4.146596 -0.382853,1.33675 -0.801399,2.628074 -1.255656,3.874041 -0.441281,1.232987 -0.908525,2.388184 -1.401727,3.46551 -0.493202,1.077324 -1.012361,2.076776 -1.557472,2.998272 -0.532131,0.908518 -1.086937,1.722861 -1.664456,2.443108 -0.577518,0.720247 -1.17775,1.346397 -1.800733,1.878529 -0.610004,0.519153 -1.229726,0.908494 -1.85918,1.168048 -0.629454,0.259553 -1.268644,0.389317 -1.917584,0.389317 -0.545111,0 -1.038291,-0.08427 -1.479558,-0.252904 -0.441265,-0.168632 -0.830616,-0.421628 -1.168065,-0.759076 -0.337451,-0.337449 -0.6393,-0.730159 -0.905456,-1.178029 -0.266157,-0.447869 -0.496623,-0.9509 -0.691305,-1.508989 -0.181703,-0.55809 -0.337437,-1.155084 -0.467213,-1.791014 -0.129777,-0.635932 -0.233596,-1.310798 -0.311469,-2.024634 -0.0649,-0.713834 -0.113497,-1.437427 -0.145878,-2.170754 -0.03238,-0.733327 -0.04854,-1.476389 -0.04854,-2.229161 0,-1.479585 0.0486,-2.968885 0.145866,-4.467919 0.09727,-1.499034 0.243208,-3.007803 0.43789,-4.526325 0.207661,-1.518521 0.447847,-3.011005 0.72048,-4.477532 0.272633,-1.466526 0.577712,-2.907096 0.915162,-4.321787 0.350428,-1.42767 0.733215,-2.809973 1.148449,-4.146851 0.415233,-1.336878 0.862914,-2.62833 1.343131,-3.874296 0.480216,-1.245967 0.979982,-2.410757 1.499216,-3.494429 0.519234,-1.083672 1.057937,-2.086228 1.616026,-3.007724 0.558089,-0.934475 1.129105,-1.768388 1.713099,-2.501715 0.583995,-0.733327 1.180968,-1.366068 1.790973,-1.8982 0.622983,-0.545109 1.249193,-0.95402 1.878648,-1.226654 0.629455,-0.272633 1.262154,-0.408989 1.898116,-0.408989 z M 14.983881,74.573905 c -0.424662,0 -0.840742,0.02467 -1.24818,0.07404 -0.407437,0.04936 -0.806234,0.123424 -1.196331,0.222183 -0.390097,0.09382 -0.767809,0.208689 -1.133175,0.344545 -0.365368,0.135855 -0.71839,0.292697 -1.059108,0.470463 -0.340718,0.172827 -0.6665818,0.364152 -0.9776324,0.573994 -0.3110504,0.209841 -0.6072872,0.438201 -0.8887497,0.685097 -0.2814626,0.24196 -0.5432278,0.497488 -0.7852413,0.766595 -0.2420134,0.269109 -0.4642752,0.551796 -0.6667307,0.848072 -0.1975175,0.296277 -0.3740291,0.6024 -0.5295543,0.918401 -0.1555253,0.315999 -0.2900643,0.641876 -0.4036369,0.977656 -0.1086347,0.335779 -0.1901098,0.677778 -0.2444264,1.02595 -0.054317,0.348172 -0.081474,0.702516 -0.081474,1.062985 0,0.567863 0.076512,1.060376 0.2295629,1.477584 0.1530506,0.417209 0.3826391,0.759115 0.6887914,1.025763 0.3110902,0.261711 0.7060948,0.458045 1.1850444,0.58895 0.4789495,0.130907 1.041844,0.196384 1.688714,0.196384 C 9.4333673,85.664682 9.3185792,85.472105 9.2173704,85.254839 9.1161617,85.037574 9.0285322,84.795617 8.9544631,84.528969 8.885332,84.257382 8.8335306,83.972157 8.7990121,83.673352 c -0.034519,-0.298805 -0.051754,-0.611189 -0.051754,-0.937093 0,-0.740691 0.087675,-1.425768 0.2629981,-2.055293 0.1753232,-0.629525 0.4382948,-1.203499 0.7888885,-1.721983 0.3505933,-0.518483 0.7887863,-0.969071 1.3146283,-1.35176 0.525842,-0.382691 1.139333,-0.697485 1.84052,-0.944382 L 10.672988,87.05457 8.3916833,97.4463 h 1.4368792 1.4368785 l 1.733363,-7.525389 1.733361,-7.525389 1.755362,7.525389 1.755361,7.525389 h 2.096099 2.096099 l 2.473929,-11.347432 2.473929,-11.347431 h -1.473972 -1.473971 l -1.69627,8.236538 -1.696269,8.236538 -1.829291,-8.117843 -1.82929,-8.117842 c -0.212331,-0.07407 -0.416094,-0.137022 -0.611215,-0.188864 -0.195121,-0.05184 -0.381601,-0.09257 -0.559366,-0.1222 -0.172829,-0.03456 -0.361672,-0.06053 -0.566565,-0.07786 -0.204892,-0.01733 -0.425833,-0.02601 -0.662854,-0.02601 z M 64.743338,74.6926 c -0.938209,0 -1.805998,0.05555 -2.603423,0.166664 -0.797425,0.111107 -1.524483,0.277767 -2.181229,0.499975 -0.656746,0.222208 -1.252977,0.480134 -1.788717,0.773862 -0.535741,0.293727 -1.010991,0.623254 -1.425779,0.988662 -0.409849,0.365407 -0.764205,0.758061 -1.06301,1.177872 -0.298805,0.419811 -0.542058,0.866781 -0.729699,1.340824 -0.187642,0.474041 -0.328337,0.955483 -0.422121,1.444332 -0.09379,0.488848 -0.140659,0.985103 -0.140659,1.488774 0,0.276524 0.01724,0.530731 0.05176,0.762718 0.03452,0.231986 0.08632,0.441752 0.155451,0.629394 0.07406,0.187641 0.164179,0.356863 0.270337,0.507566 0.106158,0.150704 0.228365,0.282891 0.366627,0.396463 0.138262,0.113573 0.292588,0.212272 0.462962,0.296157 0.170374,0.08389 0.356796,0.152958 0.559252,0.207275 0.202455,0.04938 0.419755,0.08647 0.65187,0.11122 0.232114,0.02475 0.479043,0.03715 0.740754,0.03715 0,-0.02963 -0.0062,-0.06181 -0.01857,-0.09645 -0.01237,-0.03465 -0.03092,-0.07176 -0.05561,-0.111266 -0.01975,-0.0395 -0.0419,-0.08641 -0.06652,-0.140729 -0.02462,-0.05431 -0.05171,-0.11604 -0.08133,-0.185172 -0.02469,-0.07407 -0.04943,-0.159217 -0.07418,-0.255477 -0.02475,-0.09626 -0.04949,-0.203628 -0.07418,-0.322139 -0.01975,-0.123449 -0.03459,-0.264165 -0.04449,-0.422166 -0.0099,-0.158 -0.01486,-0.333282 -0.01486,-0.525862 0,-0.607367 0.02343,-1.162913 0.07033,-1.666609 0.04689,-0.503697 0.11724,-0.955545 0.21106,-1.355519 0.09876,-0.399973 0.216097,-0.759186 0.351953,-1.07766 0.135854,-0.318475 0.290227,-0.596212 0.463055,-0.833233 0.172828,-0.237021 0.362912,-0.439485 0.57028,-0.607384 0.207367,-0.167899 0.432016,-0.301233 0.673975,-0.399992 0.241959,-0.103697 0.496247,-0.183943 0.76288,-0.240734 0.266633,-0.05679 0.545611,-0.09012 0.83695,-0.100003 L 58.973566,87.313705 56.788701,97.4463 h 2.184865 2.184865 l 1.229674,-5.703262 1.229673,-5.703261 h 2.214539 2.214538 l 0.244553,-1.125816 0.244554,-1.125815 h -2.214795 -2.214793 l 0.636964,-3.014709 0.636964,-3.014709 c 0.355531,0.08394 0.709887,0.160516 1.063009,0.229681 0.353121,0.06916 0.705007,0.130923 1.055602,0.18524 0.350593,0.05431 0.703592,0.09511 1.05906,0.122341 0.355468,0.02723 0.713405,0.04087 1.073875,0.04087 0.291338,-0.05925 0.55184,-0.138365 0.78148,-0.237227 0.22964,-0.09887 0.428418,-0.217475 0.596308,-0.355738 0.167889,-0.143201 0.317312,-0.293793 0.448218,-0.451793 0.130905,-0.158 0.243295,-0.323408 0.337115,-0.496235 0.09382,-0.172828 0.175331,-0.348157 0.244496,-0.525955 0.06916,-0.177797 0.125986,-0.358065 0.170427,-0.540768 0.04938,-0.187643 0.09875,-0.36777 0.148113,-0.54049 0.04936,-0.172721 0.09874,-0.338034 0.148113,-0.496049 -0.212331,0.06914 -0.429609,0.128374 -0.651825,0.177741 -0.222215,0.04936 -0.449368,0.08886 -0.681452,0.118487 -0.227145,0.02469 -0.456791,0.04323 -0.688905,0.05561 -0.232114,0.01238 -0.466698,0.01857 -0.703719,0.01857 -0.241959,0 -0.482732,-0.0049 -0.722271,-0.01486 -0.239539,-0.0099 -0.477843,-0.02474 -0.714864,-0.04449 -0.237021,-0.01975 -0.468996,-0.03955 -0.696033,-0.05934 -0.227037,-0.0198 -0.449137,-0.03959 -0.666405,-0.05934 -0.212332,-0.02469 -0.419815,-0.04819 -0.622361,-0.07047 -0.202546,-0.02228 -0.400153,-0.04331 -0.592733,-0.06306 -0.187641,-0.01975 -0.366657,-0.03446 -0.53703,-0.04424 -0.170374,-0.0098 -0.332106,-0.0146 -0.485182,-0.0146 z m 63.092222,1.510808 -2.24421,0.303645 -2.24421,0.303646 -0.74082,3.488723 -0.74083,3.488724 v -0.05934 -0.05934 c 0,-0.217269 -0.0494,-0.417171 -0.14809,-0.599791 -0.0987,-0.182619 -0.24685,-0.347956 -0.44437,-0.496094 -0.19257,-0.148138 -0.44437,-0.259288 -0.75542,-0.333403 -0.31105,-0.07411 -0.68136,-0.111194 -1.11096,-0.111194 -0.43947,0 -0.86048,0.04191 -1.26297,0.125798 -0.40248,0.08389 -0.78645,0.209744 -1.15186,0.377634 -0.36541,0.162952 -0.7123,0.355541 -1.04068,0.577755 -0.32837,0.222216 -0.63823,0.474059 -0.92957,0.755522 -0.2864,0.276524 -0.55546,0.575381 -0.80725,0.896458 -0.25177,0.321079 -0.48627,0.664376 -0.70355,1.029784 -0.21233,0.36047 -0.40742,0.729569 -0.58521,1.10731 -0.1778,0.37774 -0.33832,0.764122 -0.48152,1.159158 -0.1432,0.395035 -0.26787,0.789971 -0.37404,1.184907 -0.10615,0.394936 -0.19379,0.789872 -0.26292,1.184907 -0.0691,0.395036 -0.12094,0.777825 -0.15545,1.148269 -0.0345,0.370445 -0.0518,0.728544 -0.0518,1.0742 0,0.02439 0.002,0.04616 0.004,0.06784 0.002,0.02167 0.005,0.04324 0.005,0.06722 -0.0167,0.03496 -0.0328,0.0732 -0.049,0.111152 -0.0161,0.03795 -0.0324,0.07559 -0.0493,0.109355 -0.079,0.162952 -0.16303,0.314739 -0.25199,0.455416 -0.089,0.140677 -0.18286,0.270244 -0.28162,0.388755 -0.0988,0.118513 -0.20356,0.223401 -0.31455,0.314711 -0.11098,0.09131 -0.22813,0.169038 -0.35158,0.233231 -0.12345,0.06419 -0.25686,0.112413 -0.40014,0.144585 -0.14327,0.03218 -0.29642,0.04829 -0.45937,0.04829 -0.23209,0 -0.42837,-0.02964 -0.58884,-0.08891 -0.16048,-0.05926 -0.28515,-0.148159 -0.37403,-0.26667 -0.084,-0.11851 -0.14687,-0.254278 -0.18882,-0.407328 -0.042,-0.153051 -0.0629,-0.323384 -0.0629,-0.511026 0,-0.143199 0.009,-0.297513 0.026,-0.462938 0.0173,-0.165424 0.0433,-0.34196 0.0778,-0.529601 0.0395,-0.19258 0.0827,-0.392667 0.12958,-0.600162 0.0469,-0.207495 0.0975,-0.422397 0.15181,-0.644604 0.0544,-0.222209 0.10987,-0.449257 0.16666,-0.681244 0.0568,-0.231986 0.11482,-0.46891 0.17408,-0.710869 0.0641,-0.241959 0.12592,-0.483973 0.1852,-0.725987 0.0593,-0.242012 0.11606,-0.484026 0.17037,-0.725985 0.0544,-0.246897 0.10368,-0.49014 0.14809,-0.729678 0.0445,-0.239539 0.0839,-0.475374 0.11846,-0.707457 0.0395,-0.237021 0.069,-0.465404 0.0887,-0.685144 0.0197,-0.219741 0.0295,-0.43084 0.0295,-0.633296 0,-0.301214 -0.021,-0.581409 -0.0629,-0.840617 -0.042,-0.259209 -0.10488,-0.497432 -0.18883,-0.714701 -0.0839,-0.21727 -0.18519,-0.41482 -0.30372,-0.592617 -0.11853,-0.177799 -0.25435,-0.335845 -0.40742,-0.474107 -0.14814,-0.138262 -0.31099,-0.257988 -0.48867,-0.359197 -0.17767,-0.101209 -0.37015,-0.1839 -0.57755,-0.248094 -0.20739,-0.06419 -0.42344,-0.112285 -0.64813,-0.144329 -0.22469,-0.03205 -0.45803,-0.04804 -0.69999,-0.04804 -0.1185,0 -0.242,0.005 -0.37043,0.01486 -0.12843,0.0099 -0.2618,0.02473 -0.40006,0.04448 -0.13332,0.01975 -0.27153,0.04934 -0.41469,0.08882 -0.14316,0.03946 -0.29124,0.08881 -0.44432,0.148067 -0.15308,0.05925 -0.3086,0.132036 -0.4666,0.218396 -0.158,0.08636 -0.31847,0.1863 -0.48142,0.299873 -0.15801,0.108635 -0.31739,0.235872 -0.47799,0.381626 -0.1606,0.145755 -0.32244,0.310025 -0.48539,0.49273 l 0.16295,-0.785078 0.16295,-0.785079 h -2.18486 -2.184869 l -1.033468,4.876231 -1.033469,4.876232 c -0.05376,0.18856 -0.11309,0.371573 -0.178368,0.548641 -0.06527,0.177067 -0.1365,0.348189 -0.214043,0.512966 -0.079,0.162952 -0.164143,0.314739 -0.255454,0.455416 -0.09131,0.140677 -0.188791,0.270243 -0.292488,0.388754 -0.103697,0.118511 -0.213582,0.22464 -0.329639,0.318425 -0.116058,0.09379 -0.238287,0.175223 -0.366674,0.244355 -0.123448,0.06419 -0.253003,0.112413 -0.388731,0.144585 -0.135726,0.03218 -0.277626,0.04829 -0.425764,0.04829 -0.212332,0 -0.397618,-0.01984 -0.555746,-0.05944 -0.158128,-0.03959 -0.289098,-0.09895 -0.392794,-0.17795 -0.09876,-0.08395 -0.172815,-0.19995 -0.222183,-0.348051 -0.04936,-0.148102 -0.07404,-0.328299 -0.07404,-0.54063 0,-0.07901 0.0025,-0.157943 0.0074,-0.236879 0.005,-0.07894 0.01237,-0.157872 0.02225,-0.23688 0.0099,-0.08394 0.02349,-0.167957 0.04082,-0.251971 0.01733,-0.08402 0.03835,-0.168027 0.06304,-0.251973 l 1.088723,-5.155063 1.088722,-5.155062 h -2.184863 -2.184865 l -1.029631,4.866255 -1.029632,4.866255 c -0.05925,0.192578 -0.123482,0.379024 -0.192648,0.559297 -0.06916,0.180272 -0.143267,0.354373 -0.222275,0.522262 -0.07406,0.162952 -0.155497,0.314739 -0.244332,0.455416 -0.08884,0.140677 -0.185076,0.270243 -0.288773,0.388754 -0.09876,0.118511 -0.203694,0.22464 -0.314803,0.318425 -0.111107,0.09379 -0.228387,0.175223 -0.351836,0.244355 -0.123448,0.06419 -0.25313,0.112413 -0.388986,0.144585 -0.135855,0.03218 -0.277883,0.04829 -0.426022,0.04829 -0.172827,0 -0.318518,-0.02964 -0.437049,-0.08891 -0.118532,-0.05926 -0.209906,-0.148159 -0.274099,-0.266669 -0.06419,-0.123449 -0.112286,-0.259205 -0.144329,-0.407305 -0.03205,-0.148102 -0.04804,-0.308548 -0.04804,-0.481375 0,-0.128387 0.0074,-0.264259 0.02229,-0.407539 0.01485,-0.14328 0.03711,-0.293966 0.06673,-0.451981 l 1.088723,-5.155063 1.088724,-5.155062 h -2.18512 -2.185122 l -0.429248,2.029588 -0.429247,2.029589 c -0.0051,0.0021 -0.01012,0.0047 -0.01509,0.0071 -0.005,0.0026 -0.0099,0.005 -0.0151,0.0071 -0.207394,0.08395 -0.41476,0.160518 -0.622128,0.229682 -0.207367,0.06916 -0.414734,0.130923 -0.622128,0.185241 -0.202455,0.04938 -0.398799,0.08634 -0.58897,0.110964 -0.190172,0.02462 -0.374172,0.0369 -0.551937,0.0369 h -0.09618 -0.09618 c -0.01975,0 -0.04079,-0.0025 -0.06307,-0.0074 -0.02228,-0.005 -0.04578,-0.01237 -0.07047,-0.02225 v -0.01458 -0.01458 c 0,-1.614706 -0.324654,-2.825833 -0.973977,-3.633284 -0.649324,-0.807452 -1.623316,-1.211226 -2.921994,-1.211226 -0.518484,0 -1.008504,0.04701 -1.470129,0.140914 -0.461627,0.09391 -0.89486,0.234736 -1.299771,0.422377 -0.404911,0.182704 -0.786438,0.394963 -1.144508,0.636848 -0.358071,0.241885 -0.692686,0.513398 -1.003776,0.814612 -0.306152,0.301215 -0.590057,0.62345 -0.85174,0.966673 -0.261684,0.343221 -0.501147,0.70743 -0.718416,1.09259 -0.212331,0.380221 -0.406172,0.765398 -0.581496,1.155512 -0.175322,0.390114 -0.332129,0.785167 -0.470391,1.18514 -0.133324,0.399974 -0.2481,0.795026 -0.34436,1.18514 -0.09626,0.390115 -0.174001,0.775292 -0.233256,1.155513 -0.06419,0.375283 -0.112285,0.730833 -0.144329,1.066631 -0.03205,0.335798 -0.04804,0.651845 -0.04804,0.948121 0,0.434538 0.03075,0.836951 0.09236,1.207268 0.06161,0.370316 0.154087,0.708536 0.277536,1.014689 0.118511,0.301214 0.260479,0.575208 0.425904,0.822043 0.165424,0.246835 0.354303,0.466511 0.566634,0.659091 0.21727,0.187642 0.454381,0.350661 0.711242,0.488991 0.256862,0.13833 0.533476,0.25197 0.829753,0.340853 0.301214,0.08395 0.614768,0.146873 0.940667,0.188816 0.325899,0.04194 0.664142,0.0629 1.014737,0.0629 0.464166,0 0.915992,-0.05308 1.355474,-0.159234 0.439481,-0.106158 0.866618,-0.265399 1.281405,-0.47773 0.414786,-0.212331 0.806083,-0.470409 1.173925,-0.774164 0.367842,-0.303754 0.712228,-0.653185 1.033195,-1.04822 0.320965,-0.395035 0.613517,-0.832012 0.877675,-1.310961 0.264159,-0.478951 0.499923,-0.999872 0.707317,-1.562797 0.212332,-0.562925 0.386456,-1.16036 0.522311,-1.79236 0.135856,-0.632 0.233442,-1.298566 0.292697,-1.999753 0.458352,-0.07707 0.897791,-0.180299 1.322236,-0.304356 0.424445,-0.124057 0.833896,-0.268938 1.232273,-0.429304 l -0.455085,2.151866 -0.455084,2.151865 c -0.0395,0.192579 -0.07413,0.379025 -0.103835,0.559297 -0.02969,0.180273 -0.05445,0.354374 -0.0742,0.522263 -0.01975,0.162952 -0.03459,0.3197 -0.04449,0.470276 -0.0099,0.150576 -0.01486,0.294979 -0.01486,0.433242 0,0.320966 0.02109,0.618478 0.06316,0.892536 0.04207,0.274057 0.105127,0.524659 0.189072,0.751804 0.08394,0.227146 0.182713,0.434466 0.296295,0.622035 0.113584,0.18757 0.24198,0.355387 0.38518,0.503525 0.148138,0.148138 0.308514,0.276523 0.481235,0.385155 0.17272,0.108634 0.357785,0.197515 0.555304,0.266646 0.197517,0.06914 0.402554,0.12106 0.614999,0.155707 0.212444,0.03464 0.432296,0.05201 0.659441,0.05201 0.158015,0 0.322087,-0.0087 0.492333,-0.02601 0.170246,-0.01732 0.346665,-0.04328 0.529368,-0.07786 0.182703,-0.02963 0.367932,-0.0778 0.555629,-0.144491 0.187697,-0.06669 0.377862,-0.151898 0.570442,-0.255595 0.19258,-0.103697 0.386339,-0.228337 0.581333,-0.373963 0.194992,-0.145627 0.39122,-0.312239 0.588737,-0.49988 0.197518,-0.187642 0.393874,-0.406089 0.588995,-0.6554 0.195121,-0.249309 0.389009,-0.529481 0.581588,-0.840571 0.05431,0.47898 0.159229,0.898652 0.314754,1.25907 0.155525,0.360417 0.361664,0.66158 0.618437,0.903539 0.256773,0.237021 0.558029,0.414809 0.903725,0.53334 0.345698,0.118532 0.735837,0.177809 1.170375,0.177809 0.133324,0 0.274019,-0.0062 0.422119,-0.01857 0.148101,-0.01238 0.303609,-0.03092 0.466561,-0.05561 0.162952,-0.02469 0.329622,-0.06047 0.499996,-0.107364 0.170374,-0.04689 0.344451,-0.104895 0.522216,-0.174025 0.177766,-0.06914 0.358045,-0.153052 0.540793,-0.251786 0.182746,-0.09874 0.367963,-0.212281 0.555605,-0.340668 0.172635,-0.118119 0.342853,-0.254954 0.51098,-0.408509 0.168128,-0.153554 0.334166,-0.323829 0.498442,-0.508823 l -0.17881,0.843658 -0.17881,0.843659 h 2.184865 2.184862 l 1.029636,-4.866254 1.02962,-4.866255 c 0.0593,-0.19258 0.12349,-0.379026 0.19266,-0.559298 0.0692,-0.180273 0.14326,-0.354374 0.22227,-0.522263 0.079,-0.172828 0.1629,-0.333274 0.25174,-0.481375 0.0888,-0.148101 0.18261,-0.283857 0.28137,-0.407306 0.0988,-0.128385 0.20245,-0.243174 0.31108,-0.344383 0.10864,-0.101209 0.22221,-0.188838 0.34072,-0.262907 0.11851,-0.07406 0.24201,-0.129578 0.37043,-0.166572 0.12843,-0.037 0.2618,-0.05547 0.40006,-0.05547 0.36541,0 0.63938,0.129588 0.822,0.388797 0.18263,0.259209 0.27389,0.648039 0.27389,1.166523 0,0.241959 -0.0185,0.507281 -0.0555,0.796059 -0.037,0.288778 -0.0925,0.601012 -0.16656,0.936791 -0.0691,0.33578 -0.14202,0.677778 -0.21861,1.02595 -0.0766,0.348172 -0.15688,0.702516 -0.24083,1.062986 -0.084,0.360469 -0.16535,0.717295 -0.24428,1.070416 -0.0789,0.353121 -0.1554,0.702538 -0.22947,1.048194 -0.0691,0.340718 -0.12094,0.66038 -0.15546,0.959058 -0.0346,0.298677 -0.0518,0.576367 -0.0518,0.83314 0,0.21727 0.0148,0.432055 0.0444,0.644372 0.0296,0.212316 0.074,0.422163 0.13321,0.629557 0.0641,0.202456 0.14688,0.395079 0.24808,0.577826 0.10121,0.182748 0.22094,0.355619 0.3592,0.518572 0.13827,0.158014 0.29879,0.301258 0.48153,0.429689 0.18275,0.128432 0.38772,0.242048 0.61487,0.340807 0.22714,0.09382 0.48147,0.164168 0.76294,0.21106 0.28149,0.04689 0.59013,0.07033 0.92591,0.07033 0.20245,0 0.41355,-0.01488 0.63329,-0.04458 0.21974,-0.0297 0.44813,-0.07421 0.68515,-0.133463 0.24196,-0.05925 0.48509,-0.151753 0.72945,-0.277581 0.24436,-0.125828 0.48995,-0.284987 0.73685,-0.477567 0.25184,-0.197518 0.50127,-0.438267 0.74822,-0.722224 0.24697,-0.283955 0.49147,-0.611119 0.73343,-0.981464 0.004,-0.0059 0.008,-0.01345 0.0115,-0.02093 0.004,-0.0075 0.008,-0.01499 0.0115,-0.02103 0.005,0.01322 0.008,0.02834 0.0106,0.04341 0.003,0.01507 0.006,0.03008 0.0109,0.04305 0.11357,0.311091 0.24563,0.592503 0.3962,0.844288 0.15058,0.251784 0.31967,0.47394 0.50731,0.66652 0.18764,0.19258 0.38886,0.358068 0.60365,0.496398 0.21479,0.138331 0.44316,0.249501 0.68512,0.333447 0.24195,0.08395 0.4888,0.146876 0.74059,0.188818 0.25178,0.04195 0.50851,0.0629 0.77022,0.0629 0.25184,0 0.49382,-0.01736 0.72594,-0.05201 0.23211,-0.03464 0.45435,-0.08658 0.66668,-0.155707 0.21234,-0.06912 0.41597,-0.150569 0.61096,-0.244354 0.19499,-0.09379 0.38135,-0.199915 0.55911,-0.318426 0.17776,-0.11851 0.34701,-0.244356 0.50762,-0.377608 0.1606,-0.133253 0.31256,-0.273913 0.45576,-0.422051 0.1432,-0.153076 0.28015,-0.308735 0.41093,-0.466863 0.13077,-0.158127 0.25538,-0.318725 0.37389,-0.481677 0.0444,0.222208 0.10126,0.429668 0.17042,0.622314 0.0692,0.192648 0.15068,0.37048 0.2445,0.533432 0.0988,0.158013 0.20742,0.302499 0.32594,0.433404 0.11854,0.130906 0.24695,0.248232 0.38521,0.351929 0.13827,0.09876 0.28515,0.183851 0.44068,0.255362 0.15552,0.07151 0.31968,0.129444 0.49251,0.173885 0.17282,0.04938 0.35064,0.08647 0.53339,0.11122 0.18274,0.02475 0.37042,0.03715 0.563,0.03715 0.19753,0 0.39375,-0.01488 0.58874,-0.04458 0.195,-0.0297 0.38875,-0.07421 0.58133,-0.133463 0.19259,-0.06419 0.37531,-0.144405 0.54816,-0.240663 0.17285,-0.09626 0.33582,-0.208567 0.4889,-0.336954 0.15308,-0.128384 0.29249,-0.272811 0.41832,-0.433286 0.12582,-0.160475 0.23807,-0.336999 0.33683,-0.529579 0.10369,-0.197517 0.18642,-0.413589 0.24816,-0.648179 0.0618,-0.234589 0.1025,-0.487696 0.12225,-0.759282 -0.0543,0.02469 -0.11111,0.0482 -0.17038,0.07047 -0.0593,0.02228 -0.121,0.04331 -0.18519,0.06307 -0.0642,0.01975 -0.14813,0.03459 -0.25181,0.04449 -0.10369,0.0099 -0.22712,0.01486 -0.37032,0.01486 -0.23703,0 -0.43701,-0.0284 -0.59996,-0.08519 -0.16295,-0.05679 -0.28886,-0.141976 -0.37775,-0.255549 -0.0889,-0.118511 -0.15551,-0.250685 -0.19994,-0.396439 -0.0445,-0.145754 -0.0666,-0.305087 -0.0666,-0.477916 0,-0.06913 0.002,-0.138168 0.008,-0.207206 0.005,-0.06903 0.0124,-0.138073 0.0223,-0.207204 0.01,-0.07407 0.0235,-0.150665 0.0408,-0.229729 0.0173,-0.07906 0.0383,-0.160596 0.0631,-0.244542 l 1.74053,-8.192027 z m -81.076107,1.273929 -2.244212,0.303645 -2.244212,0.303645 -0.459178,2.096355 -0.459177,2.096356 h -0.496269 -0.49627 l -0.126114,0.60729 -0.126114,0.607291 h 0.503689 0.503687 l -0.295971,1.386997 -0.295971,1.386996 c -0.03021,0.01284 -0.05951,0.02792 -0.08887,0.04286 -0.02936,0.01494 -0.05876,0.02975 -0.08918,0.04207 -0.207393,0.08394 -0.414888,0.160517 -0.622383,0.229682 -0.207495,0.06916 -0.414991,0.130922 -0.622384,0.18524 -0.202455,0.04938 -0.398672,0.08634 -0.588716,0.110964 -0.190043,0.02462 -0.373915,0.0369 -0.551681,0.0369 h -0.09618 -0.09618 c -0.01975,0 -0.04079,-0.0025 -0.06307,-0.0074 -0.02228,-0.005 -0.04578,-0.01237 -0.07047,-0.02225 v -0.01458 -0.01458 c 0,-1.614706 -0.324654,-2.825834 -0.973976,-3.633285 -0.649324,-0.807452 -1.623318,-1.211226 -2.921995,-1.211226 -0.518484,0 -1.008632,0.04701 -1.470386,0.140914 -0.461754,0.09392 -0.895115,0.234736 -1.300025,0.422378 -0.404911,0.182703 -0.78631,0.394962 -1.144252,0.636847 -0.357943,0.241886 -0.692431,0.513399 -1.003521,0.814613 -0.306153,0.301214 -0.590056,0.62345 -0.85174,0.966672 -0.261683,0.343222 -0.501147,0.70743 -0.718416,1.09259 -0.212331,0.380221 -0.406172,0.765398 -0.581495,1.155513 -0.175323,0.390114 -0.332129,0.785166 -0.470391,1.18514 -0.133325,0.399973 -0.248102,0.795026 -0.344361,1.185139 -0.09626,0.390115 -0.174001,0.775292 -0.233256,1.155513 -0.06419,0.375283 -0.112413,0.730833 -0.144585,1.066631 -0.03218,0.335798 -0.04829,0.651845 -0.04829,0.948121 0,0.434538 0.03088,0.836951 0.09262,1.207268 0.06174,0.370317 0.154344,0.708536 0.277792,1.014689 0.11851,0.301214 0.26048,0.575208 0.425904,0.822043 0.165424,0.246835 0.354304,0.466511 0.566635,0.659091 0.21727,0.187642 0.454252,0.350661 0.710986,0.488992 0.256734,0.138329 0.533219,0.251969 0.829496,0.340852 0.301214,0.08395 0.614769,0.146874 0.940668,0.188817 0.325898,0.04194 0.664142,0.0629 1.014737,0.0629 0.464166,0 0.915992,-0.05308 1.355473,-0.159233 0.439482,-0.106158 0.866619,-0.2654 1.281406,-0.477731 0.414786,-0.212331 0.806211,-0.470409 1.174181,-0.774164 0.36797,-0.303754 0.712485,-0.653184 1.03345,-1.04822 0.320966,-0.395035 0.613518,-0.832012 0.877676,-1.310961 0.264159,-0.47895 0.499924,-0.999871 0.707317,-1.562797 0.212331,-0.562925 0.386327,-1.16036 0.522055,-1.79236 0.135728,-0.632 0.233185,-1.298566 0.29244,-1.999753 0.485259,-0.08159 0.950554,-0.190958 1.399042,-0.323666 0.44849,-0.132708 0.880174,-0.288757 1.298209,-0.463713 l -0.526455,2.467533 -0.526455,2.467533 c -0.05925,0.276525 -0.103639,0.549337 -0.133207,0.818445 -0.02957,0.269107 -0.04432,0.534511 -0.04432,0.796223 0,0.241959 0.01475,0.47653 0.04432,0.703695 0.02957,0.227165 0.07396,0.446923 0.133207,0.659255 0.05431,0.207393 0.124757,0.401245 0.211245,0.581519 0.08649,0.180272 0.189026,0.346965 0.307536,0.500042 0.123448,0.153076 0.264165,0.29013 0.422165,0.411137 0.158,0.121007 0.333284,0.225965 0.525863,0.314848 0.192579,0.08395 0.404942,0.146874 0.637056,0.188817 0.232116,0.04194 0.483982,0.0629 0.755568,0.0629 0.133324,0 0.267817,-0.0087 0.403544,-0.02601 0.135728,-0.01733 0.272689,-0.04328 0.410951,-0.07786 0.143201,-0.02963 0.285113,-0.0778 0.425789,-0.144491 0.140676,-0.06669 0.280119,-0.151898 0.418382,-0.255595 0.138262,-0.103697 0.275351,-0.229576 0.411207,-0.377678 0.135855,-0.148101 0.270475,-0.318422 0.4038,-0.511002 0.133325,-0.197517 0.261744,-0.427104 0.385225,-0.688788 0.123482,-0.261684 0.242026,-0.555464 0.355598,-0.881368 -0.06419,0.02469 -0.130889,0.04447 -0.200055,0.05932 -0.06916,0.01485 -0.140798,0.02476 -0.214867,0.0297 H 44.64109 44.448466 c -0.207394,0 -0.381402,-0.02605 -0.522078,-0.07802 -0.140676,-0.05197 -0.248023,-0.129864 -0.322092,-0.23356 -0.06913,-0.103697 -0.12106,-0.220895 -0.155706,-0.351674 -0.03465,-0.130777 -0.05201,-0.275135 -0.05201,-0.433149 0,-0.07406 0.0025,-0.151904 0.0074,-0.233442 0.005,-0.08154 0.01237,-0.166782 0.02225,-0.255665 0.01481,-0.09382 0.03215,-0.188845 0.05194,-0.285105 0.0198,-0.09626 0.04207,-0.193753 0.06676,-0.292512 l 0.970284,-4.547771 0.970283,-4.547773 h 0.910936 0.910935 l 0.118696,-0.607291 0.118696,-0.60729 h -0.911192 -0.911191 c 0.06913,-0.340718 0.135816,-0.669191 0.200031,-0.985318 0.06421,-0.316128 0.125962,-0.619912 0.185217,-0.91125 0.06419,-0.296276 0.125928,-0.571522 0.185194,-0.825782 0.05926,-0.254259 0.116063,-0.487532 0.17038,-0.699863 0.02469,-0.128386 0.04943,-0.253097 0.07418,-0.374104 0.02475,-0.121007 0.04949,-0.23831 0.07418,-0.351882 0.02469,-0.11851 0.0493,-0.232082 0.07393,-0.340714 0.02462,-0.108633 0.04924,-0.212329 0.07393,-0.311088 z m -12.769475,6.370157 c 0.103697,0 0.197587,0.0073 0.2816,0.02204 0.08402,0.01472 0.158151,0.03685 0.222344,0.06647 0.06914,0.02963 0.131967,0.07049 0.188631,0.122456 0.05666,0.05197 0.107155,0.11505 0.151596,0.189119 0.04444,0.06913 0.08403,0.149331 0.118671,0.240641 0.03465,0.09131 0.06435,0.19373 0.08904,0.307302 0.02469,0.108636 0.04572,0.230783 0.06304,0.366511 0.01732,0.135727 0.03094,0.285034 0.04082,0.447986 -0.1432,0.06419 -0.272837,0.147013 -0.388894,0.248348 -0.116057,0.101337 -0.218535,0.221192 -0.307418,0.359454 -0.08394,0.133324 -0.147002,0.286293 -0.189073,0.459014 -0.04207,0.17272 -0.06315,0.365192 -0.06315,0.577523 0,0.153077 0.01364,0.297573 0.04087,0.433429 0.02723,0.135855 0.06803,0.263068 0.122342,0.381579 0.05925,0.113573 0.143198,0.208552 0.25183,0.285012 0.108634,0.07646 0.241957,0.134406 0.39997,0.173909 -0.05925,0.444415 -0.134517,0.874091 -0.225826,1.288953 -0.09131,0.414862 -0.198668,0.814911 -0.322116,1.200069 -0.118511,0.38516 -0.246965,0.744407 -0.385295,1.077731 -0.13833,0.333323 -0.286535,0.640721 -0.44455,0.922183 -0.158014,0.281463 -0.323455,0.533306 -0.496305,0.755522 -0.172848,0.222216 -0.353103,0.414803 -0.540744,0.577755 -0.182704,0.162952 -0.365324,0.2851 -0.547943,0.366512 -0.18262,0.08141 -0.365239,0.122084 -0.547943,0.122084 -0.143201,0 -0.275318,-0.0085 -0.396324,-0.02575 -0.121007,-0.0172 -0.230904,-0.04303 -0.329662,-0.0776 -0.09876,-0.03456 -0.188939,-0.08273 -0.270478,-0.144468 -0.08154,-0.06174 -0.154436,-0.137061 -0.218629,-0.225944 -0.05925,-0.09382 -0.111079,-0.203729 -0.155497,-0.329685 -0.04441,-0.125956 -0.08143,-0.26796 -0.111056,-0.425974 -0.02469,-0.158014 -0.04323,-0.339451 -0.05561,-0.544343 -0.01237,-0.204893 -0.01857,-0.433241 -0.01857,-0.685075 0,-0.251835 0.01241,-0.517262 0.03715,-0.79627 0.02475,-0.279006 0.06184,-0.571592 0.11122,-0.877745 0.04938,-0.31109 0.108667,-0.623381 0.177833,-0.936905 0.06916,-0.313526 0.148206,-0.628286 0.237089,-0.944314 0.08889,-0.316028 0.1864,-0.627195 0.292558,-0.933424 0.106158,-0.306229 0.220957,-0.60752 0.344407,-0.903796 0.128386,-0.301215 0.26165,-0.585131 0.399852,-0.851764 0.138202,-0.266633 0.281343,-0.515982 0.429481,-0.748066 0.153076,-0.232083 0.309847,-0.44076 0.470322,-0.625982 0.160474,-0.185223 0.324653,-0.34699 0.492542,-0.485252 0.16789,-0.143201 0.33951,-0.250512 0.514833,-0.322024 0.175323,-0.07151 0.354349,-0.107223 0.537053,-0.107223 z m 42.190069,0 c 0.103697,0 0.197458,0.0073 0.281343,0.02204 0.08389,0.01472 0.157896,0.03685 0.222089,0.06647 0.06913,0.02963 0.132096,0.07049 0.188886,0.122456 0.05679,0.05197 0.10741,0.11505 0.151852,0.189119 0.04444,0.06913 0.0839,0.149331 0.118416,0.240641 0.03452,0.09131 0.06409,0.19373 0.08879,0.307302 0.02469,0.108636 0.04572,0.230783 0.06304,0.366511 0.01732,0.135727 0.03094,0.285034 0.04082,0.447986 -0.1432,0.06419 -0.272837,0.147013 -0.388894,0.248348 -0.116057,0.101337 -0.218535,0.221192 -0.307418,0.359454 -0.08394,0.133324 -0.146873,0.286293 -0.188817,0.459014 -0.04195,0.17272 -0.0629,0.365192 -0.0629,0.577523 0,0.153077 0.01351,0.297573 0.04061,0.433429 0.0271,0.135855 0.06777,0.263068 0.122085,0.381579 0.05925,0.113573 0.143198,0.208552 0.251831,0.285012 0.108634,0.07646 0.241957,0.134406 0.39997,0.173909 -0.05925,0.444415 -0.134517,0.874091 -0.225826,1.288953 -0.09131,0.414862 -0.198668,0.814911 -0.322117,1.200069 -0.11851,0.38516 -0.246836,0.744407 -0.385039,1.077731 -0.138202,0.333323 -0.286279,0.640721 -0.444294,0.922183 -0.158015,0.281463 -0.323455,0.533306 -0.496305,0.755522 -0.172848,0.222216 -0.353103,0.414803 -0.540744,0.577755 -0.182704,0.162952 -0.365451,0.2851 -0.548199,0.366512 -0.182748,0.08141 -0.365495,0.122084 -0.548199,0.122084 -0.1432,0 -0.275317,-0.0085 -0.396323,-0.02575 -0.121007,-0.0172 -0.230904,-0.04303 -0.329662,-0.0776 -0.09876,-0.03456 -0.188812,-0.08273 -0.270222,-0.144468 -0.08141,-0.06174 -0.15418,-0.137061 -0.218374,-0.225944 -0.05925,-0.09382 -0.111079,-0.203729 -0.155497,-0.329685 -0.04441,-0.125956 -0.08143,-0.26796 -0.111055,-0.425974 -0.02469,-0.158014 -0.04324,-0.339451 -0.05561,-0.544343 -0.01238,-0.204893 -0.01857,-0.433241 -0.01857,-0.685075 0,-0.251835 0.01228,-0.517262 0.03689,-0.79627 0.02462,-0.279006 0.06158,-0.571592 0.110964,-0.877745 0.04938,-0.31109 0.108667,-0.623381 0.177833,-0.936905 0.06916,-0.313526 0.148206,-0.628286 0.237089,-0.944314 0.08889,-0.316028 0.1864,-0.627195 0.292558,-0.933424 0.106158,-0.306229 0.220958,-0.60752 0.344406,-0.903796 0.128386,-0.301215 0.261779,-0.585131 0.400108,-0.851764 0.138331,-0.266633 0.281598,-0.515982 0.429736,-0.748066 0.153077,-0.232083 0.309848,-0.44076 0.470323,-0.625982 0.160474,-0.185223 0.324652,-0.34699 0.492542,-0.485252 0.16789,-0.143201 0.33951,-0.250512 0.514834,-0.322024 0.175323,-0.07151 0.354349,-0.107223 0.537053,-0.107223 z m 44.159803,0.162694 c 0.11851,0 0.22588,0.0099 0.32213,0.02972 0.0962,0.0198 0.18141,0.04947 0.25548,0.08898 0.079,0.03456 0.14939,0.07528 0.21113,0.122178 0.0618,0.04689 0.11484,0.09996 0.15928,0.159212 0.0444,0.05431 0.0827,0.109874 0.1147,0.166665 0.0321,0.05679 0.0579,0.114817 0.0777,0.174072 0.0247,0.05925 0.0457,0.1148 0.0631,0.166643 0.0173,0.05184 0.031,0.09998 0.0408,0.144421 l -0.74057,3.473887 -0.74057,3.473887 -0.0594,0.244296 -0.0593,0.244298 c -0.0592,0.182704 -0.1272,0.354289 -0.20379,0.514764 -0.0766,0.160475 -0.16181,0.309839 -0.25563,0.448101 -0.0889,0.133324 -0.18268,0.256784 -0.28141,0.370366 -0.0987,0.113583 -0.20242,0.217288 -0.31104,0.31111 -0.10864,0.08889 -0.21852,0.167924 -0.32963,0.237089 -0.1111,0.06916 -0.22344,0.128454 -0.33702,0.177833 -0.11357,0.04444 -0.22467,0.07783 -0.33331,0.100097 -0.10862,0.02228 -0.21479,0.03343 -0.31848,0.03343 -0.0691,0 -0.14313,-0.0038 -0.22207,-0.01115 -0.0789,-0.0074 -0.16281,-0.01855 -0.2517,-0.03336 -0.0889,-0.01481 -0.17536,-0.04441 -0.25938,-0.08884 -0.0841,-0.04441 -0.16555,-0.103649 -0.24456,-0.177718 -0.074,-0.07901 -0.14323,-0.177788 -0.20744,-0.29632 -0.0643,-0.118532 -0.12349,-0.256815 -0.1778,-0.41483 -0.0544,-0.158015 -0.0951,-0.349375 -0.1221,-0.574064 -0.0271,-0.22469 -0.0406,-0.482711 -0.0406,-0.774049 0,-0.237021 0.0112,-0.48884 0.0335,-0.755473 0.0223,-0.266633 0.0556,-0.548081 0.1001,-0.844357 0.0445,-0.301214 0.0987,-0.603734 0.16274,-0.907488 0.0641,-0.303754 0.13805,-0.608742 0.222,-0.914895 0.0889,-0.311091 0.18639,-0.61718 0.29256,-0.918331 0.10615,-0.301152 0.22095,-0.597366 0.3444,-0.888704 0.12345,-0.291339 0.25561,-0.566596 0.39642,-0.825804 0.14081,-0.259209 0.29025,-0.502369 0.44827,-0.729514 0.15801,-0.232084 0.32345,-0.440762 0.49629,-0.625984 0.17286,-0.185222 0.35311,-0.346988 0.54075,-0.485251 0.19259,-0.138262 0.39006,-0.241992 0.59247,-0.311158 0.20243,-0.06916 0.40978,-0.103764 0.62212,-0.103764 z"
       sodipodi:nodetypes="sssscscscscssscssssssscscssssscscscssscscscsssscscssssscscscscccccccscssscscccccccscscscssssscccscscccccccscssscscccscscscssscssscssscsssscscssssscscscscccccccscssscscccccccscscscssssscccscscccccccscssscscccscscscssscssscssscsssscscssssscscscscscssssscscssscscssscscsssscscscscscssscscscssssscccccccccccccccccccscsssssscssssscssscscscscscssscssscscccccccccccccccssscscssscscscssssscscssccccccsscssscscscssssssscscssssssscssscssscscscssssscssssscssscscccccccscssscssscssscscccccccscscscssscssscccccccscscsscssccsssscscscscscssscscscssssssscscscccscssssscssssscssssscscssssssssscccccccscscssssssscssscssscscscssscscscscscssssssssssscscscscscssscssscscssssscssscsccccccccccccccccssscsscssccsssscscscscscssscscscssssssscscscccssscscscssscssscscsccsscssscscccccccccscscscscsscscscscscssscscscssscssssscscssscssscscscsssscscscscscssscscscssscssssscscssscssscscscsssscscscscccccscscscssssscssssscscssscscss" />
  </g>
</svg>
