<?xml version="1.0" encoding="UTF-8" standalone="no"?>
<!-- Created with Inkscape (http://www.inkscape.org/) -->

<svg
   width="1024"
   height="1024"
   id="svg2"
   version="1.1"
   inkscape:version="1.2.2 (b0a8486, 2022-12-01)"
   sodipodi:docname="parsnip_logo.svg"
   inkscape:export-filename=""
   inkscape:export-xdpi="14.06"
   inkscape:export-ydpi="14.06"
   xmlns:inkscape="http://www.inkscape.org/namespaces/inkscape"
   xmlns:sodipodi="http://sodipodi.sourceforge.net/DTD/sodipodi-0.dtd"
   xmlns="http://www.w3.org/2000/svg"
   xmlns:svg="http://www.w3.org/2000/svg"
   xmlns:rdf="http://www.w3.org/1999/02/22-rdf-syntax-ns#"
   xmlns:cc="http://creativecommons.org/ns#"
   xmlns:dc="http://purl.org/dc/elements/1.1/">
  <defs
     id="defs4" />
  <sodipodi:namedview
     id="base"
     pagecolor="#808080"
     bordercolor="#666666"
     borderopacity="1.0"
     inkscape:pageopacity="0"
     inkscape:pageshadow="2"
     inkscape:zoom="0.17797039"
     inkscape:cx="-960.83399"
     inkscape:cy="-384.89549"
     inkscape:document-units="px"
     inkscape:current-layer="layer1"
     showgrid="false"
     inkscape:window-width="1440"
     inkscape:window-height="855"
     inkscape:window-x="0"
     inkscape:window-y="25"
     inkscape:window-maximized="0"
     showguides="true"
     inkscape:guide-bbox="true"
     inkscape:showpageshadow="0"
     inkscape:pagecheckerboard="1"
     inkscape:deskcolor="#808080" />
  <metadata
     id="metadata7">
    <rdf:RDF>
      <cc:Work
         rdf:about="">
        <dc:format>image/svg+xml</dc:format>
        <dc:type
           rdf:resource="http://purl.org/dc/dcmitype/StillImage" />
      </cc:Work>
    </rdf:RDF>
  </metadata>
  <g
     inkscape:label="Logo"
     inkscape:groupmode="layer"
     id="layer1"
     transform="translate(0,-28.36218)"
     style="display:inline">
    <path
       sodipodi:nodetypes="ssscssscssscssscs"
       inkscape:connector-curvature="0"
       d="m 1024,390.36219 c 0,-172 0,-227.16916 -67.41544,-294.58458 C 889.16914,28.36219 833.99998,28.36219 661.99998,28.36219 l -149.99998,0 l -150,0 c -172,0 -227.1692,0 -294.5846,67.41542 C 0,163.19303 0,218.36219 0,390.36219 l 0,150 l 0,150 c 0,172 0,227.16916 67.4154,294.58458 C 134.8308,1052.3622 190,1052.3622 362,1052.3622 l 150,0 l 149.99998,0 c 172,0 227.16916,0 294.58458,-67.41543 C 1024,917.53135 1024,862.36219 1024,690.36219 l 0,-150 z"
       style="display:inline;opacity:1;fill:#aa0000;fill-opacity:1;stroke:none;stroke-width:2;stroke-linecap:square;stroke-linejoin:miter;stroke-miterlimit:4;stroke-dasharray:none;stroke-dashoffset:0;stroke-opacity:1"
       id="path4507" />
    <path
       inkscape:connector-curvature="0"
       style="fill:#ffffff;fill-opacity:1;stroke:none"
       d="m 349.72604,187.51179 c 0,0 -4.10441,11.61772 0.59029,21.15101 c 4.17021,8.46845 13.43423,12.29165 15.55193,13.07293 c -3.484,5.31153 -7.26729,10.2049 -11.28741,14.28314 c -42.08282,42.68951 -114.19231,94.08938 -104.53519,144.48914 c 5.85598,-22.32257 24.92696,-47.69357 48.98405,-68.16074 c 9.66824,-15.28892 58.34463,-56.24975 75.40948,-78.0222 c 3.8168,-4.86995 7.33637,-15.16512 10.36318,-26.87775 c 2.71656,2.19102 12.00804,9.00875 22.6135,8.33646 c 12.60999,-0.79971 22.19653,-11.92122 22.19653,-11.92122 c 0,0 -10.94778,-10.43201 -23.55799,-9.6325 c -9.74706,0.61793 -17.60854,7.69679 -20.69344,10.91564 c 6.05604,-24.29208 9.997,-53.44858 9.99688,-53.44865 c 0,0 -10.06882,38.77494 -27.71743,67.19927 c 1.03846,-4.14686 2.19023,-11.68361 -1.03406,-18.2311 c -4.69434,-9.53302 -16.88029,-13.15343 -16.88029,-13.15343 z m 133.434,-76.8427 c 0,0 -8.37372,18.19675 -1.93014,33.65911 c 5.53005,13.27081 20.11031,20.17472 24.15309,21.87404 c -17.66196,20.91386 -32.80507,38.642 -38.45013,43.23494 c -64.47969,55.3143 -238.93392,103.42268 -214.97929,224.76584 c 5.1149,-31.4115 31.93695,-61.71232 41.51297,-71.22178 C 328.44431,306.1304 421.67821,268.46277 462.99365,236.13016 c 8.24772,-6.45373 16.503,-16.56482 25.14757,-28.91991 c 1.46253,3.01598 5.46403,9.96729 12.48349,12.96545 c 9.0403,3.86096 19.57787,-0.50801 19.57787,-0.50801 c 0,0 -3.95433,-11.06784 -12.99495,-14.92915 c -6.49792,-2.77522 -13.78066,-1.11025 -17.41211,0.0724 c 9.74532,-14.1603 20.02412,-31.0324 31.44141,-48.7714 c 2.16064,2.86823 10.50073,12.97147 22.3087,15.0847 c 13.78133,2.46639 26.97186,-6.94052 26.97186,-6.94052 c 0,0 -8.98504,-14.17061 -22.76637,-16.63692 c -10.62199,-1.90082 -20.91438,3.66376 -25.10694,6.32325 c 9.24805,-14.30424 19.21056,-29.08461 30.26281,-43.38523 c -14.25902,16.21489 -30.50574,35.58075 -45.31698,53.13286 c 1.83787,-5.7542 4.9034,-18.67977 0.0706,-30.27653 c -6.44344,-15.46215 -24.5007,-22.67143 -24.5007,-22.67143 z M 297.56341,365.88981 c -1.14818,1.11695 -2.24286,2.21989 -3.25614,3.29949 c -28.6065,30.46886 -53.91077,74.95574 -26.73795,107.44602 c 9.65226,11.54096 16.00236,20.89269 20.75086,21.55003 c 4.7495,0.65891 15.62711,-4.05625 20.76305,-9.00138 c 5.1363,-4.94472 11.79387,-15.73692 10.46763,-20.11511 c -1.3256,-4.37751 -11.73413,-12.18908 -15.55531,-19.79781 c -11.20792,-22.31964 2.48366,-46.41207 13.48799,-60.52894 c 25.85447,-32.67421 100.4379,-75.2904 160.49602,-110.71375 c 43.30329,-25.54115 77.818,-51.59237 113.24858,-83.35297 c 1.62424,3.30616 7.77931,14.4858 18.57763,18.29916 c 12.71115,4.48949 26.97212,-3.04897 26.97212,-3.04897 c 0,0 -6.60503,-14.17744 -19.31577,-18.66658 c -9.18041,-3.24206 -18.95971,-0.53397 -23.73315,1.21683 c 12.42392,-11.21752 24.97092,-23.16427 38.09582,-36.04451 c 2.19633,2.74217 16.30273,19.48426 35.36953,21.3112 c 20.75586,1.98868 39.32789,-14.70028 39.32789,-14.70028 c -4e-4,-6.7e-4 -15.1783,-18.79625 -35.93413,-20.78494 c -14.79282,-1.41753 -28.36911,6.07743 -34.98269,10.51716 c 13.7595,-13.58006 28.10865,-28.17491 43.6354,-44.11148 c -18.44324,16.33622 -39.36482,33.63098 -61.17333,50.69987 c 3.58422,-4.5829 10.66449,-15.27105 10.17545,-27.36216 c -0.65195,-16.12153 -14.56284,-28.63851 -14.56284,-28.63851 c 0,0 -13.64336,13.66813 -12.99132,29.78968 c 0.58824,14.54862 12.50791,26.0467 14.85236,28.1708 c -19.89199,15.50421 -40.45091,30.78986 -60.52836,44.9533 c 1.39943,-2.87519 3.04181,-7.53142 2.03126,-12.18376 c -1.6323,-7.51975 -9.57488,-12.18049 -9.57521,-12.18077 c 7.5e-4,6.9e-4 -4.92355,7.48677 -3.29073,15.00706 c 1.21873,5.613 5.74854,9.67211 7.96499,11.37348 c -35.17809,24.6862 -68.62059,45.80859 -93.97475,58.39187 c -26.55906,13.18122 -124.99462,64.59933 -160.6049,99.20597 z m -27.18943,120.33363 c -21.21277,19.91614 -38.99429,53.31188 -19.42238,89.61019 c 38.37262,14.38864 71.42173,-22.65653 71.42173,-22.65653 c 0,0 -33.73545,40.79717 -67.22598,29.56251 c 2.95568,4.42681 6.4543,8.90346 10.62572,13.37834 c 46.04658,49.38964 115.88171,100.66544 115.88203,100.66544 c 26.56886,28.4987 58.32035,55.6023 83.74036,75.8839 c 30.24312,11.1435 59.83103,-8.4867 59.83103,-8.4867 c 0,0 -25.08646,19.85 -47.63957,18.0966 c 50.77757,39.119 130.3015,90.5184 130.3015,90.5184 c 0,0 14.03392,7.6154 35.46779,22.4078 c 20.19157,0.5326 32.12114,-10.6853 32.12114,-10.6853 c 0,0 -11.45179,13.0294 -22.46068,17.5101 c 8.50069,6.1145 17.82717,13.1298 27.73006,21.1118 c 28.58068,23.0354 100.74808,54.2222 100.74808,54.2222 c -64.6497,-69.3451 -69.8631,-87.8104 -94.13545,-127.998 c -19.22535,-31.832 -42.78672,-60.9212 -55.87152,-76.2722 c -3.19487,11.0861 -12.11089,19.2717 -12.11089,19.2717 c 0,0 6.90056,-10.5932 7.38751,-24.7629 c -1.31206,-1.5022 -2.5485,-2.904 -3.38148,-3.8388 c -4.08822,13.0179 -18.34488,28.6454 -18.34488,28.6454 c 0,0 14.16959,-18.7384 12.67577,-37.3424 c -7.78638,-13.5545 -29.45663,-50.1893 -64.6616,-101.1259 c -4.64447,16.7202 -21.31222,28.576 -21.31222,28.576 c 0,0 15.90543,-13.0196 16.5991,-35.3295 c -2.53826,-3.6376 -5.07413,-7.30045 -7.73708,-11.05865 c -7.82965,33.52435 -42.81646,55.81565 -42.81646,55.81565 c 0,0 32.99578,-24.8149 37.64508,-63.13103 c -33.7621,-47.07965 -67.01045,-83.84064 -77.63265,-95.29749 c -5.6048,10.27763 -18.52114,20.03768 -18.52114,20.03768 c 0,0 10.21932,-13.86676 14.14121,-25.58443 c -2.72711,-6.34237 -15.57216,-33.40018 -49.60874,-69.90819 c -34.86872,-37.40058 -78.40434,-21.07331 -90.86563,-10.86404 c 11.81048,-3.74406 19.72617,-7.28356 27.57648,1.13689 c 8.60358,9.22828 -1.54482,32.63994 -21.38582,51.13781 c -19.84103,18.49794 -43.50863,27.71339 -52.54439,17.78755 c -9.03711,-9.92693 -2.68818,-21.58043 3.78391,-31.03383 z m 2.09235,0.68718 c 0,0 -10.6508,16.56381 -3.85308,24.23834 c 6.7974,7.67407 25.53064,0.4691 38.54568,-11.86039 c -23.54161,11.55565 -28.7273,6.77883 -33.05228,2.18739 c -4.32493,-4.59123 -1.64032,-14.56534 -1.64032,-14.56534 z"
       id="path3406" />
  </g>
</svg>
