<?xml version="1.0" encoding="UTF-8" standalone="no"?>
<!-- Created with Inkscape (http://www.inkscape.org/) -->

<svg
   width="40"
   height="40"
   viewBox="0 0 40 40"
   id="svg2"
   version="1.1"
   inkscape:version="1.2.2 (b0a8486, 2022-12-01)"
   sodipodi:docname="twitter_logo.svg"
   inkscape:export-filename=""
   inkscape:export-xdpi="180"
   inkscape:export-ydpi="180"
   xmlns:inkscape="http://www.inkscape.org/namespaces/inkscape"
   xmlns:sodipodi="http://sodipodi.sourceforge.net/DTD/sodipodi-0.dtd"
   xmlns="http://www.w3.org/2000/svg"
   xmlns:svg="http://www.w3.org/2000/svg"
   xmlns:rdf="http://www.w3.org/1999/02/22-rdf-syntax-ns#"
   xmlns:cc="http://creativecommons.org/ns#"
   xmlns:dc="http://purl.org/dc/elements/1.1/">
  <defs
     id="defs4" />
  <sodipodi:namedview
     id="base"
     pagecolor="#808080"
     bordercolor="#666666"
     borderopacity="1.0"
     inkscape:pageopacity="0"
     inkscape:pageshadow="2"
     inkscape:zoom="11.313708"
     inkscape:cx="10.650796"
     inkscape:cy="16.970563"
     inkscape:document-units="px"
     inkscape:current-layer="g4134"
     showgrid="false"
     showguides="true"
     inkscape:guide-bbox="true"
     units="px"
     inkscape:window-width="1309"
     inkscape:window-height="456"
     inkscape:window-x="0"
     inkscape:window-y="25"
     inkscape:window-maximized="0"
     inkscape:snap-bbox="true"
     inkscape:bbox-paths="true"
     inkscape:bbox-nodes="true"
     inkscape:snap-bbox-edge-midpoints="true"
     inkscape:snap-bbox-midpoints="true"
     inkscape:object-paths="true"
     inkscape:snap-intersection-paths="true"
     inkscape:object-nodes="true"
     inkscape:snap-smooth-nodes="true"
     inkscape:snap-midpoints="true"
     inkscape:showpageshadow="0"
     inkscape:pagecheckerboard="1"
     inkscape:deskcolor="#808080" />
  <metadata
     id="metadata7">
    <rdf:RDF>
      <cc:Work
         rdf:about="">
        <dc:format>image/svg+xml</dc:format>
        <dc:type
           rdf:resource="http://purl.org/dc/dcmitype/StillImage" />
      </cc:Work>
    </rdf:RDF>
  </metadata>
  <g
     style="display:inline"
     transform="translate(0,-1012.3622)"
     id="g4134"
     inkscape:groupmode="layer"
     inkscape:label="Logo">
    <path
       style="opacity:1;fill:#ffffff;fill-opacity:1;fill-rule:nonzero;stroke:none;stroke-width:10.34300041;stroke-miterlimit:4;stroke-dasharray:none;stroke-opacity:1"
       d="m 27.693704,1016.3552 c 2.360386,0 4.493222,0.9964 5.989989,2.5914 c 1.86939,-0.368 3.625455,-1.0508 5.211256,-1.9913 c -0.612569,1.9163 -1.91396,3.5245 -3.608142,4.5401 c 1.65982,-0.1984 3.24158,-0.6392 4.713192,-1.292 c -1.100174,1.6456 -2.491372,3.091 -4.094812,4.2478 c 0.01568,0.3522 0.02385,0.7058 0.02385,1.0615 c 0,10.8447 -8.254582,23.3495 -23.349113,23.3495 c -4.6344091,0 -8.9481353,-1.3589 -12.579924,-3.6875 c 0.64199722,0.076 1.2953193,0.1149 1.9577131,0.1149 c 3.8449908,0 7.383491,-1.3117 10.1920829,-3.5129 c -3.5912047,-0.066 -6.622081,-2.439 -7.6664577,-5.6992 c 0.501185,0.096 1.015322,0.1473 1.5440806,0.1473 c 0.7483844,0 1.4735927,-0.1003 2.1621423,-0.288 c -3.7541966,-0.7539 -6.5832655,-4.0707 -6.5832655,-8.0467 c 0,-0.035 1.4e-4,-0.069 9.2e-4,-0.1031 c 1.1064029,0.6146 2.3718459,0.9837 3.7170519,1.0262 C 3.1222861,1027.3417 1.6736,1024.8299 1.6736,1021.9827 c 0,-1.504 0.4046786,-2.9136 1.1110762,-4.1256 c 4.0476036,4.965 10.0943278,8.2325 16.9147018,8.5747 c -0.139798,-0.6006 -0.212357,-1.2273 -0.212357,-1.8705 c 0,-4.532 3.674711,-8.2061 8.206689,-8.2061 z"
       id="path4136"
       inkscape:connector-curvature="0"
       inkscape:export-filename=""
       inkscape:export-xdpi="18.000002"
       inkscape:export-ydpi="18.000002" />
  </g>
</svg>
